G04*
G04 #@! TF.GenerationSoftware,Altium Limited,Altium Designer,21.8.1 (53)*
G04*
G04 Layer_Physical_Order=2*
G04 Layer_Color=16711680*
%FSLAX24Y24*%
%MOIN*%
G70*
G04*
G04 #@! TF.SameCoordinates,E0417417-2892-4B46-94DD-8EEE6E3CFD50*
G04*
G04*
G04 #@! TF.FilePolarity,Positive*
G04*
G01*
G75*
%ADD13C,0.0100*%
%ADD17C,0.0060*%
%ADD95C,0.0200*%
%ADD96C,0.0709*%
%ADD97R,0.0709X0.0709*%
%ADD98C,0.0315*%
%ADD99R,0.0787X0.0787*%
%ADD100C,0.0787*%
%ADD101R,0.0630X0.0630*%
%ADD102C,0.0630*%
%ADD103C,0.0800*%
%ADD104C,0.0276*%
%ADD105O,0.0630X0.0394*%
%ADD106O,0.0827X0.0394*%
%ADD107C,0.0591*%
%ADD108C,0.0240*%
%ADD109R,0.0787X0.0126*%
G36*
X15738Y13617D02*
X15678Y13558D01*
X15650Y13563D01*
X15588Y13551D01*
X15535Y13515D01*
X15499Y13462D01*
X15490Y13413D01*
X15454Y13393D01*
X15438Y13390D01*
X15389Y13428D01*
X15298Y13465D01*
X15200Y13478D01*
X15102Y13465D01*
X15011Y13428D01*
X14933Y13367D01*
X14872Y13289D01*
X14835Y13198D01*
X14822Y13100D01*
X14835Y13002D01*
X14872Y12911D01*
X14933Y12833D01*
X15011Y12772D01*
X15102Y12735D01*
X15200Y12722D01*
X15298Y12735D01*
X15389Y12772D01*
X15467Y12833D01*
X15528Y12911D01*
X15565Y13002D01*
X15578Y13100D01*
X15565Y13198D01*
X15561Y13207D01*
X15571Y13223D01*
X15599Y13247D01*
X15650Y13237D01*
X15712Y13249D01*
X15765Y13285D01*
X15801Y13338D01*
X15813Y13400D01*
X15808Y13428D01*
X15878Y13498D01*
X16051D01*
X16061Y13448D01*
X16011Y13428D01*
X15933Y13367D01*
X15872Y13289D01*
X15835Y13198D01*
X15822Y13100D01*
X15835Y13002D01*
X15872Y12911D01*
X15876Y12906D01*
X14245Y11275D01*
X14225Y11245D01*
X14218Y11210D01*
Y10458D01*
X14172Y10439D01*
X13377Y11234D01*
X13387Y11290D01*
X13400Y11297D01*
X13449Y11288D01*
X13485Y11235D01*
X13538Y11199D01*
X13600Y11187D01*
X13662Y11199D01*
X13715Y11235D01*
X13751Y11288D01*
X13763Y11350D01*
X13751Y11412D01*
X13747Y11418D01*
X14265Y11935D01*
X14285Y11965D01*
X14292Y12000D01*
Y12734D01*
X14298Y12735D01*
X14389Y12772D01*
X14467Y12833D01*
X14528Y12911D01*
X14565Y13002D01*
X14578Y13100D01*
X14565Y13198D01*
X14528Y13289D01*
X14467Y13367D01*
X14389Y13428D01*
X14298Y13465D01*
X14200Y13478D01*
X14102Y13465D01*
X14011Y13428D01*
X13933Y13367D01*
X13872Y13289D01*
X13835Y13198D01*
X13822Y13100D01*
X13835Y13002D01*
X13872Y12911D01*
X13933Y12833D01*
X14011Y12772D01*
X14102Y12735D01*
X14108Y12734D01*
Y12038D01*
X13579Y11509D01*
X13538Y11501D01*
X13508Y11481D01*
X13453Y11501D01*
X13451Y11512D01*
X13415Y11565D01*
X13362Y11601D01*
X13300Y11613D01*
X13292Y11620D01*
Y12734D01*
X13298Y12735D01*
X13389Y12772D01*
X13467Y12833D01*
X13528Y12911D01*
X13565Y13002D01*
X13578Y13100D01*
X13565Y13198D01*
X13528Y13289D01*
X13467Y13367D01*
X13389Y13428D01*
X13298Y13465D01*
X13200Y13478D01*
X13102Y13465D01*
X13011Y13428D01*
X12933Y13367D01*
X12872Y13289D01*
X12835Y13198D01*
X12822Y13100D01*
X12835Y13002D01*
X12872Y12911D01*
X12933Y12833D01*
X13011Y12772D01*
X13102Y12735D01*
X13108Y12734D01*
Y11550D01*
X13115Y11515D01*
X13135Y11485D01*
X13142Y11478D01*
X13137Y11450D01*
X13141Y11430D01*
X13109Y11392D01*
X13038D01*
X11524Y12906D01*
X11528Y12911D01*
X11565Y13002D01*
X11578Y13100D01*
X11565Y13198D01*
X11528Y13289D01*
X11467Y13367D01*
X11389Y13428D01*
X11298Y13465D01*
X11200Y13478D01*
X11102Y13465D01*
X11011Y13428D01*
X10933Y13367D01*
X10872Y13289D01*
X10835Y13198D01*
X10822Y13100D01*
X10835Y13002D01*
X10872Y12911D01*
X10933Y12833D01*
X11011Y12772D01*
X11102Y12735D01*
X11200Y12722D01*
X11298Y12735D01*
X11389Y12772D01*
X11394Y12776D01*
X12882Y11288D01*
X12863Y11242D01*
X12188D01*
X10524Y12906D01*
X10528Y12911D01*
X10565Y13002D01*
X10578Y13100D01*
X10565Y13198D01*
X10528Y13289D01*
X10467Y13367D01*
X10389Y13428D01*
X10298Y13465D01*
X10200Y13478D01*
X10102Y13465D01*
X10011Y13428D01*
X9933Y13367D01*
X9872Y13289D01*
X9835Y13198D01*
X9822Y13100D01*
X9835Y13002D01*
X9872Y12911D01*
X9933Y12833D01*
X10011Y12772D01*
X10102Y12735D01*
X10200Y12722D01*
X10298Y12735D01*
X10389Y12772D01*
X10394Y12776D01*
X12085Y11085D01*
X12115Y11065D01*
X12150Y11058D01*
X12609D01*
X12622Y11037D01*
X12630Y11008D01*
X12599Y10962D01*
X12587Y10900D01*
X12599Y10838D01*
X12635Y10785D01*
X12658Y10769D01*
Y10465D01*
X12635Y10452D01*
X12608Y10447D01*
X12140Y10915D01*
X12110Y10935D01*
X12075Y10942D01*
X11488D01*
X9524Y12906D01*
X9528Y12911D01*
X9565Y13002D01*
X9578Y13100D01*
X9565Y13198D01*
X9528Y13289D01*
X9467Y13367D01*
X9389Y13428D01*
X9298Y13465D01*
X9200Y13478D01*
X9102Y13465D01*
X9011Y13428D01*
X8933Y13367D01*
X8872Y13289D01*
X8835Y13198D01*
X8822Y13100D01*
X8835Y13002D01*
X8872Y12911D01*
X8933Y12833D01*
X9011Y12772D01*
X9102Y12735D01*
X9200Y12722D01*
X9298Y12735D01*
X9389Y12772D01*
X9394Y12776D01*
X11385Y10785D01*
X11415Y10765D01*
X11450Y10758D01*
X11861D01*
X11881Y10736D01*
X11888Y10708D01*
X11880Y10702D01*
X11460D01*
X11425Y10695D01*
X11395Y10675D01*
X11362Y10642D01*
X11343Y10645D01*
X11311Y10661D01*
X11301Y10712D01*
X11265Y10765D01*
X11212Y10801D01*
X11150Y10813D01*
X11088Y10801D01*
X11035Y10765D01*
X11019Y10742D01*
X9788D01*
X9508Y11022D01*
X9513Y11050D01*
X9501Y11112D01*
X9465Y11165D01*
X9412Y11201D01*
X9350Y11213D01*
X9288Y11201D01*
X9235Y11165D01*
X9199Y11112D01*
X9187Y11050D01*
X9199Y10988D01*
X9235Y10935D01*
X9288Y10899D01*
X9350Y10887D01*
X9378Y10892D01*
X9685Y10585D01*
X9715Y10565D01*
X9750Y10558D01*
X10526D01*
X10558Y10508D01*
X10556Y10500D01*
X10944D01*
X10942Y10508D01*
X10972Y10556D01*
X11020Y10556D01*
X11035Y10535D01*
X11088Y10499D01*
X11139Y10489D01*
X11155Y10457D01*
X11158Y10438D01*
X9912Y9192D01*
X9673D01*
X9653Y9230D01*
X9652Y9242D01*
X9663Y9300D01*
X9651Y9362D01*
X9615Y9415D01*
X9562Y9451D01*
X9500Y9463D01*
X9472Y9458D01*
X9252Y9678D01*
X9273Y9728D01*
X9714D01*
X9838Y9604D01*
X9837Y9600D01*
X9849Y9538D01*
X9885Y9485D01*
X9938Y9449D01*
X10000Y9437D01*
X10062Y9449D01*
X10115Y9485D01*
X10151Y9538D01*
X10163Y9600D01*
X10151Y9662D01*
X10115Y9715D01*
X10062Y9751D01*
X10000Y9763D01*
X9996Y9762D01*
X9887Y9871D01*
X9908Y9921D01*
X10260D01*
X10285Y9885D01*
X10338Y9849D01*
X10400Y9837D01*
X10462Y9849D01*
X10515Y9885D01*
X10551Y9938D01*
X10563Y10000D01*
X10551Y10062D01*
X10515Y10115D01*
X10462Y10151D01*
X10400Y10163D01*
X10338Y10151D01*
X10285Y10115D01*
X10278Y10105D01*
X8525D01*
X8292Y10338D01*
Y12734D01*
X8298Y12735D01*
X8389Y12772D01*
X8467Y12833D01*
X8528Y12911D01*
X8565Y13002D01*
X8578Y13100D01*
X8565Y13198D01*
X8528Y13289D01*
X8467Y13367D01*
X8389Y13428D01*
X8298Y13465D01*
X8200Y13478D01*
X8102Y13465D01*
X8011Y13428D01*
X7933Y13367D01*
X7872Y13289D01*
X7835Y13198D01*
X7822Y13100D01*
X7835Y13002D01*
X7872Y12911D01*
X7933Y12833D01*
X8011Y12772D01*
X8102Y12735D01*
X8108Y12734D01*
Y10300D01*
X8115Y10265D01*
X8135Y10235D01*
X8372Y9998D01*
X8353Y9952D01*
X7814D01*
X7790Y9996D01*
X7804Y10017D01*
X7811Y10053D01*
X7597D01*
Y10153D01*
X7811D01*
X7804Y10189D01*
X7756Y10262D01*
X7736Y10275D01*
Y10325D01*
X7756Y10338D01*
X7804Y10411D01*
X7811Y10447D01*
X7597D01*
Y10547D01*
X7811D01*
X7804Y10583D01*
X7756Y10656D01*
X7689Y10700D01*
Y11909D01*
X8015Y12235D01*
X8035Y12265D01*
X8042Y12300D01*
Y12550D01*
X8035Y12585D01*
X8015Y12615D01*
X7840Y12790D01*
X7810Y12810D01*
X7775Y12817D01*
X7518D01*
X7494Y12867D01*
X7528Y12911D01*
X7565Y13002D01*
X7578Y13100D01*
X7565Y13198D01*
X7528Y13289D01*
X7467Y13367D01*
X7389Y13428D01*
X7298Y13465D01*
X7200Y13478D01*
X7102Y13465D01*
X7011Y13428D01*
X6933Y13367D01*
X6872Y13289D01*
X6842Y13215D01*
X6792Y13225D01*
Y13315D01*
X6785Y13350D01*
X6765Y13380D01*
X6658Y13487D01*
X6677Y13533D01*
X11637D01*
X11876Y13294D01*
X11872Y13289D01*
X11835Y13198D01*
X11822Y13100D01*
X11835Y13002D01*
X11872Y12911D01*
X11933Y12833D01*
X12011Y12772D01*
X12102Y12735D01*
X12200Y12722D01*
X12298Y12735D01*
X12389Y12772D01*
X12467Y12833D01*
X12528Y12911D01*
X12565Y13002D01*
X12578Y13100D01*
X12565Y13198D01*
X12528Y13289D01*
X12467Y13367D01*
X12389Y13428D01*
X12298Y13465D01*
X12200Y13478D01*
X12102Y13465D01*
X12011Y13428D01*
X12006Y13424D01*
X11809Y13621D01*
X11828Y13667D01*
X15717D01*
X15738Y13617D01*
D02*
G37*
G36*
X4041Y13483D02*
X3991Y13462D01*
X3904Y13396D01*
X3838Y13309D01*
X3796Y13208D01*
X3788Y13150D01*
X4200D01*
X4612D01*
X4604Y13208D01*
X4562Y13309D01*
X4552Y13323D01*
X4643Y13413D01*
X4917D01*
X4923Y13396D01*
X4929Y13363D01*
X4872Y13289D01*
X4835Y13198D01*
X4822Y13100D01*
X4835Y13002D01*
X4872Y12911D01*
X4933Y12833D01*
X5011Y12772D01*
X5102Y12735D01*
X5200Y12722D01*
X5298Y12735D01*
X5389Y12772D01*
X5467Y12833D01*
X5492Y12864D01*
X5498Y12863D01*
X5538Y12807D01*
X5537Y12800D01*
X5542Y12772D01*
X5312Y12542D01*
X1500D01*
X1465Y12535D01*
X1435Y12515D01*
X1035Y12115D01*
X1015Y12085D01*
X1008Y12050D01*
Y11827D01*
X1007Y11825D01*
X958Y11802D01*
X942Y11816D01*
Y12162D01*
X2313Y13533D01*
X3031D01*
X3041Y13483D01*
X2991Y13462D01*
X2904Y13396D01*
X2838Y13309D01*
X2796Y13208D01*
X2788Y13150D01*
X3200D01*
X3612D01*
X3604Y13208D01*
X3562Y13309D01*
X3496Y13396D01*
X3409Y13462D01*
X3359Y13483D01*
X3369Y13533D01*
X4031D01*
X4041Y13483D01*
D02*
G37*
G36*
X16558Y12869D02*
Y12750D01*
X16565Y12715D01*
X16585Y12685D01*
X17108Y12162D01*
Y8920D01*
X17100Y8913D01*
X17038Y8901D01*
X16985Y8865D01*
X16949Y8812D01*
X16937Y8750D01*
X16948Y8692D01*
X16947Y8680D01*
X16927Y8642D01*
X15273D01*
X15253Y8680D01*
X15252Y8692D01*
X15263Y8750D01*
X15251Y8812D01*
X15215Y8865D01*
X15192Y8881D01*
Y9119D01*
X15215Y9135D01*
X15251Y9188D01*
X15263Y9250D01*
X15251Y9312D01*
X15215Y9365D01*
X15162Y9401D01*
X15100Y9413D01*
X15038Y9401D01*
X14985Y9365D01*
X14949Y9312D01*
X14937Y9250D01*
X14949Y9188D01*
X14985Y9135D01*
X15008Y9119D01*
Y8881D01*
X14985Y8865D01*
X14949Y8812D01*
X14937Y8750D01*
X14948Y8692D01*
X14947Y8680D01*
X14927Y8642D01*
X14788D01*
X14465Y8965D01*
X14435Y8985D01*
X14400Y8992D01*
X13738D01*
X13442Y9288D01*
X13445Y9307D01*
X13461Y9339D01*
X13512Y9349D01*
X13565Y9385D01*
X13601Y9438D01*
X13613Y9500D01*
X13601Y9562D01*
X13565Y9615D01*
X13512Y9651D01*
X13450Y9663D01*
X13422Y9658D01*
X13192Y9888D01*
Y10669D01*
X13215Y10685D01*
X13251Y10738D01*
X13261Y10789D01*
X13293Y10805D01*
X13312Y10808D01*
X13978Y10142D01*
Y9680D01*
X13985Y9645D01*
X14005Y9615D01*
X14242Y9378D01*
X14237Y9350D01*
X14249Y9288D01*
X14285Y9235D01*
X14338Y9199D01*
X14400Y9187D01*
X14462Y9199D01*
X14515Y9235D01*
X14551Y9288D01*
X14563Y9350D01*
X14551Y9412D01*
X14515Y9465D01*
X14462Y9501D01*
X14400Y9513D01*
X14372Y9508D01*
X14162Y9718D01*
Y9843D01*
X14208Y9862D01*
X14335Y9735D01*
X14365Y9715D01*
X14400Y9708D01*
X15219D01*
X15235Y9685D01*
X15288Y9649D01*
X15350Y9637D01*
X15412Y9649D01*
X15465Y9685D01*
X15501Y9738D01*
X15513Y9800D01*
X15501Y9862D01*
X15465Y9915D01*
X15412Y9951D01*
X15350Y9963D01*
X15288Y9951D01*
X15235Y9915D01*
X15219Y9892D01*
X15073D01*
X15053Y9930D01*
X15052Y9942D01*
X15063Y10000D01*
X15051Y10062D01*
X15015Y10115D01*
X14962Y10151D01*
X14900Y10163D01*
X14838Y10151D01*
X14785Y10115D01*
X14749Y10062D01*
X14747Y10052D01*
X14682D01*
X14654Y10102D01*
X14663Y10150D01*
X14662Y10154D01*
X14939Y10431D01*
X16127D01*
X16147Y10381D01*
X16112Y10328D01*
X16106Y10300D01*
X16494D01*
X16488Y10328D01*
X16474Y10349D01*
X16490Y10416D01*
X16507Y10428D01*
X16542Y10480D01*
X16555Y10543D01*
X16542Y10605D01*
X16507Y10658D01*
X16454Y10694D01*
X16391Y10706D01*
X16329Y10694D01*
X16276Y10658D01*
X16274Y10655D01*
X14893D01*
X14893Y10655D01*
X14850Y10647D01*
X14814Y10622D01*
X14814Y10622D01*
X14504Y10312D01*
X14500Y10313D01*
X14452Y10304D01*
X14402Y10332D01*
Y11172D01*
X16006Y12776D01*
X16011Y12772D01*
X16102Y12735D01*
X16200Y12722D01*
X16298Y12735D01*
X16389Y12772D01*
X16467Y12833D01*
X16508Y12886D01*
X16558Y12869D01*
D02*
G37*
G36*
X6608Y12975D02*
Y12754D01*
X6615Y12719D01*
X6635Y12689D01*
X6889Y12435D01*
X6919Y12415D01*
X6954Y12408D01*
X7173D01*
X7208Y12415D01*
X7238Y12435D01*
X7242Y12439D01*
X7284Y12418D01*
X7289Y12371D01*
X7221Y12302D01*
X7196Y12266D01*
X7188Y12223D01*
X7188Y12223D01*
Y11296D01*
X6621Y10729D01*
X6596Y10693D01*
X6588Y10650D01*
X6588Y10650D01*
Y10150D01*
X6588Y10150D01*
X6596Y10107D01*
X6621Y10071D01*
X6853Y9838D01*
X6834Y9792D01*
X3800D01*
X3765Y9785D01*
X3735Y9765D01*
X3678Y9708D01*
X3650Y9713D01*
X3609Y9705D01*
X3568Y9735D01*
X3562Y9783D01*
X3715Y9935D01*
X3735Y9965D01*
X3742Y10000D01*
Y10219D01*
X3765Y10235D01*
X3801Y10288D01*
X3813Y10350D01*
X3801Y10412D01*
X3765Y10465D01*
X3712Y10501D01*
X3650Y10513D01*
X3588Y10501D01*
X3550Y10476D01*
X3514Y10495D01*
X3504Y10502D01*
X3488Y10578D01*
X3444Y10644D01*
X3392Y10679D01*
Y10921D01*
X3444Y10956D01*
X3488Y11022D01*
X3494Y11050D01*
X3300D01*
Y11150D01*
X3494D01*
X3492Y11158D01*
X3523Y11177D01*
X3539Y11182D01*
X3588Y11149D01*
X3650Y11137D01*
X3678Y11142D01*
X4485Y10335D01*
X4515Y10315D01*
X4550Y10308D01*
X5219D01*
X5235Y10285D01*
X5288Y10249D01*
X5350Y10237D01*
X5412Y10249D01*
X5465Y10285D01*
X5501Y10338D01*
X5513Y10400D01*
X5501Y10462D01*
X5465Y10515D01*
X5412Y10551D01*
X5350Y10563D01*
X5288Y10551D01*
X5235Y10515D01*
X5219Y10492D01*
X4588D01*
X3808Y11272D01*
X3813Y11300D01*
X3801Y11362D01*
X3765Y11415D01*
X3712Y11451D01*
X3684Y11456D01*
X3677Y11509D01*
X3715Y11535D01*
X3751Y11588D01*
X3763Y11650D01*
X3751Y11712D01*
X3715Y11765D01*
X3662Y11801D01*
X3600Y11813D01*
X3538Y11801D01*
X3485Y11765D01*
X3449Y11712D01*
X3437Y11650D01*
X3441Y11628D01*
X3208Y11411D01*
X3170Y11444D01*
X3188Y11472D01*
X3194Y11500D01*
X3050D01*
Y11356D01*
X3078Y11362D01*
X3089Y11369D01*
X3120Y11330D01*
X2838Y11067D01*
X2837Y11066D01*
X2835Y11065D01*
X2826Y11051D01*
X2817Y11038D01*
X2816Y11037D01*
X2815Y11035D01*
X2812Y11019D01*
X2808Y11003D01*
X2809Y11002D01*
X2808Y11000D01*
Y10750D01*
X2815Y10715D01*
X2835Y10685D01*
X2958Y10562D01*
Y10237D01*
X2912Y10218D01*
X2492Y10638D01*
Y11402D01*
X2540Y11435D01*
X2576Y11488D01*
X2588Y11550D01*
X2576Y11612D01*
X2540Y11665D01*
X2487Y11701D01*
X2425Y11713D01*
X2363Y11701D01*
X2310Y11665D01*
X2274Y11612D01*
X2262Y11550D01*
X2274Y11488D01*
X2308Y11437D01*
Y10600D01*
X2315Y10565D01*
X2335Y10535D01*
X2434Y10436D01*
X2410Y10390D01*
X2400Y10392D01*
X1938D01*
X1792Y10538D01*
Y11662D01*
X2238Y12108D01*
X2605D01*
X2632Y12058D01*
X2612Y12028D01*
X2606Y12000D01*
X2994D01*
X2988Y12028D01*
X2968Y12058D01*
X2995Y12108D01*
X4912D01*
X5408Y11612D01*
Y11281D01*
X5385Y11265D01*
X5349Y11212D01*
X5337Y11150D01*
X5349Y11088D01*
X5385Y11035D01*
X5438Y10999D01*
X5500Y10987D01*
X5562Y10999D01*
X5615Y11035D01*
X5651Y11088D01*
X5663Y11150D01*
X5651Y11212D01*
X5615Y11265D01*
X5592Y11281D01*
Y11650D01*
X5587Y11673D01*
X5605Y11693D01*
X5614Y11699D01*
X5628Y11706D01*
X5638Y11699D01*
X5700Y11687D01*
X5762Y11699D01*
X5815Y11735D01*
X5851Y11788D01*
X5863Y11850D01*
X5851Y11912D01*
X5815Y11965D01*
X5762Y12001D01*
X5700Y12013D01*
X5672Y12008D01*
X5369Y12311D01*
X5385Y12365D01*
X5415Y12385D01*
X5672Y12642D01*
X5700Y12637D01*
X5728Y12642D01*
X6081Y12289D01*
Y12211D01*
X6049Y12162D01*
X6037Y12100D01*
X6049Y12038D01*
X6085Y11985D01*
X6138Y11949D01*
X6200Y11937D01*
X6262Y11949D01*
X6315Y11985D01*
X6351Y12038D01*
X6363Y12100D01*
X6351Y12162D01*
X6315Y12215D01*
X6265Y12249D01*
Y12327D01*
X6258Y12362D01*
X6238Y12392D01*
X5858Y12772D01*
X5863Y12800D01*
X5862Y12807D01*
X5902Y12863D01*
X5908Y12864D01*
X5933Y12833D01*
X6011Y12772D01*
X6102Y12735D01*
X6200Y12722D01*
X6298Y12735D01*
X6389Y12772D01*
X6467Y12833D01*
X6528Y12911D01*
X6558Y12985D01*
X6608Y12975D01*
D02*
G37*
G36*
X2141Y13621D02*
X785Y12265D01*
X765Y12235D01*
X763Y12225D01*
X736Y12197D01*
X708Y12192D01*
X700Y12194D01*
Y12000D01*
Y11806D01*
X708Y11808D01*
X727Y11777D01*
X732Y11761D01*
X699Y11712D01*
X687Y11650D01*
X699Y11588D01*
X735Y11535D01*
X788Y11499D01*
X850Y11487D01*
X912Y11499D01*
X958Y11530D01*
X987Y11522D01*
X1008Y11509D01*
Y10880D01*
X958Y10875D01*
X951Y10912D01*
X915Y10965D01*
X862Y11001D01*
X800Y11013D01*
X738Y11001D01*
X685Y10965D01*
X649Y10912D01*
X637Y10850D01*
X649Y10788D01*
X685Y10735D01*
X708Y10719D01*
Y10550D01*
X715Y10515D01*
X735Y10485D01*
X1499Y9722D01*
X1480Y9675D01*
X112D01*
Y13386D01*
X113D01*
X122Y13459D01*
X150Y13526D01*
X195Y13585D01*
X253Y13629D01*
X321Y13657D01*
X394Y13667D01*
Y13667D01*
X2122D01*
X2141Y13621D01*
D02*
G37*
G36*
X7858Y12512D02*
Y12338D01*
X7532Y12012D01*
X7512Y11982D01*
X7505Y11947D01*
Y10700D01*
X7438Y10656D01*
X7425Y10636D01*
X7375D01*
X7362Y10656D01*
X7289Y10704D01*
X7253Y10711D01*
Y10497D01*
X7203D01*
Y10447D01*
X6989D01*
X6996Y10411D01*
X7045Y10338D01*
X7064Y10325D01*
Y10275D01*
X7045Y10262D01*
X6996Y10189D01*
X6979Y10103D01*
X6980Y10100D01*
X6934Y10075D01*
X6812Y10196D01*
Y10604D01*
X7379Y11171D01*
X7379Y11171D01*
X7404Y11207D01*
X7412Y11250D01*
X7412Y11250D01*
Y12176D01*
X7478Y12242D01*
X7512Y12249D01*
X7565Y12285D01*
X7601Y12338D01*
X7613Y12400D01*
X7601Y12462D01*
X7565Y12515D01*
X7512Y12551D01*
X7456Y12562D01*
X7441Y12584D01*
X7430Y12610D01*
X7448Y12633D01*
X7737D01*
X7858Y12512D01*
D02*
G37*
G36*
X27165Y13667D02*
X27238Y13657D01*
X27306Y13629D01*
X27364Y13585D01*
X27409Y13526D01*
X27437Y13459D01*
X27446Y13386D01*
X27447D01*
Y9465D01*
X27397Y9440D01*
X27371Y9460D01*
X27299Y9490D01*
X27221Y9500D01*
X27153D01*
Y9201D01*
Y8901D01*
X27221D01*
X27299Y8912D01*
X27371Y8941D01*
X27397Y8962D01*
X27447Y8937D01*
Y6063D01*
X27397Y6038D01*
X27371Y6059D01*
X27299Y6088D01*
X27221Y6099D01*
X27153D01*
Y5799D01*
Y5500D01*
X27221D01*
X27299Y5510D01*
X27371Y5540D01*
X27397Y5560D01*
X27447Y5535D01*
Y394D01*
X27446D01*
X27437Y321D01*
X27409Y253D01*
X27364Y195D01*
X27306Y150D01*
X27238Y122D01*
X27165Y113D01*
Y112D01*
X394D01*
Y113D01*
X321Y122D01*
X253Y150D01*
X195Y195D01*
X150Y253D01*
X122Y321D01*
X113Y394D01*
X112D01*
Y4210D01*
X1860D01*
X1906Y4195D01*
X1941Y4160D01*
X1988Y4137D01*
Y1000D01*
X1995Y965D01*
X2015Y935D01*
X2715Y235D01*
X2745Y215D01*
X2780Y208D01*
X7900D01*
X7935Y215D01*
X7965Y235D01*
X8072Y342D01*
X8100Y337D01*
X8162Y349D01*
X8215Y385D01*
X8251Y438D01*
X8251Y441D01*
X8304Y454D01*
X8391Y388D01*
X8492Y346D01*
X8600Y332D01*
X8708Y346D01*
X8809Y388D01*
X8895Y454D01*
X8905Y467D01*
X8953Y451D01*
Y444D01*
X8960Y409D01*
X8979Y379D01*
X9124Y235D01*
X9154Y215D01*
X9189Y208D01*
X12150D01*
X12185Y215D01*
X12215Y235D01*
X12378Y398D01*
X12391Y388D01*
X12492Y346D01*
X12600Y332D01*
X12708Y346D01*
X12809Y388D01*
X12895Y454D01*
X12962Y541D01*
X13004Y642D01*
X13018Y750D01*
X13004Y858D01*
X12962Y959D01*
X12895Y1045D01*
X12875Y1061D01*
X12892Y1108D01*
X13112D01*
X13248Y972D01*
X13238Y959D01*
X13196Y858D01*
X13182Y750D01*
X13196Y642D01*
X13238Y541D01*
X13305Y454D01*
X13391Y388D01*
X13492Y346D01*
X13600Y332D01*
X13708Y346D01*
X13809Y388D01*
X13895Y454D01*
X13962Y541D01*
X14004Y642D01*
X14018Y750D01*
X14004Y858D01*
X13962Y959D01*
X13895Y1045D01*
X13809Y1112D01*
X13708Y1154D01*
X13600Y1168D01*
X13492Y1154D01*
X13391Y1112D01*
X13378Y1102D01*
X13268Y1212D01*
X13287Y1258D01*
X13962D01*
X14248Y972D01*
X14238Y959D01*
X14196Y858D01*
X14182Y750D01*
X14196Y642D01*
X14238Y541D01*
X14304Y454D01*
X14391Y388D01*
X14492Y346D01*
X14600Y332D01*
X14708Y346D01*
X14809Y388D01*
X14895Y454D01*
X14962Y541D01*
X15004Y642D01*
X15018Y750D01*
X15004Y858D01*
X14962Y959D01*
X14895Y1045D01*
X14809Y1112D01*
X14708Y1154D01*
X14600Y1168D01*
X14492Y1154D01*
X14391Y1112D01*
X14378Y1102D01*
X14148Y1332D01*
X14167Y1378D01*
X14842D01*
X15248Y972D01*
X15238Y959D01*
X15196Y858D01*
X15182Y750D01*
X15196Y642D01*
X15238Y541D01*
X15304Y454D01*
X15391Y388D01*
X15492Y346D01*
X15600Y332D01*
X15708Y346D01*
X15809Y388D01*
X15896Y454D01*
X15962Y541D01*
X16004Y642D01*
X16018Y750D01*
X16004Y858D01*
X15962Y959D01*
X15896Y1045D01*
X15809Y1112D01*
X15708Y1154D01*
X15600Y1168D01*
X15492Y1154D01*
X15391Y1112D01*
X15378Y1102D01*
X15018Y1462D01*
X15037Y1508D01*
X15712D01*
X16248Y972D01*
X16238Y959D01*
X16196Y858D01*
X16182Y750D01*
X16196Y642D01*
X16238Y541D01*
X16305Y454D01*
X16391Y388D01*
X16492Y346D01*
X16600Y332D01*
X16708Y346D01*
X16809Y388D01*
X16896Y454D01*
X16962Y541D01*
X17004Y642D01*
X17018Y750D01*
X17004Y858D01*
X16962Y959D01*
X16896Y1045D01*
X16809Y1112D01*
X16708Y1154D01*
X16600Y1168D01*
X16492Y1154D01*
X16391Y1112D01*
X16378Y1102D01*
X15842Y1638D01*
X15863Y1688D01*
X17504D01*
X18236Y955D01*
X18196Y858D01*
X18182Y750D01*
X18196Y642D01*
X18238Y541D01*
X18305Y454D01*
X18317Y445D01*
X18301Y398D01*
X18111D01*
X17964Y545D01*
X18004Y642D01*
X18018Y750D01*
X18004Y858D01*
X17962Y959D01*
X17895Y1045D01*
X17809Y1112D01*
X17708Y1154D01*
X17600Y1168D01*
X17492Y1154D01*
X17391Y1112D01*
X17305Y1045D01*
X17238Y959D01*
X17196Y858D01*
X17182Y750D01*
X17196Y642D01*
X17238Y541D01*
X17305Y454D01*
X17391Y388D01*
X17492Y346D01*
X17600Y332D01*
X17708Y346D01*
X17805Y386D01*
X17985Y206D01*
X17985Y206D01*
X18021Y182D01*
X18064Y174D01*
X18064Y174D01*
X19386D01*
X19386Y174D01*
X19429Y182D01*
X19465Y206D01*
X20710Y1451D01*
X20746Y1480D01*
Y1480D01*
X20746Y1480D01*
X21654D01*
Y1726D01*
X21654D01*
Y1968D01*
X21654D01*
Y2214D01*
X21654D01*
Y2701D01*
X21654D01*
Y2976D01*
X21668D01*
X21703Y2983D01*
X21733Y3003D01*
X21824Y3094D01*
X21844Y3124D01*
X21851Y3159D01*
Y3641D01*
X21844Y3676D01*
X21824Y3706D01*
X21665Y3865D01*
X21654Y3872D01*
Y4165D01*
Y4655D01*
X21654D01*
Y4899D01*
X20746D01*
Y4653D01*
X20746D01*
Y4409D01*
Y3921D01*
Y3475D01*
X20706D01*
Y3362D01*
X21200D01*
Y3262D01*
X20706D01*
Y3149D01*
X20746D01*
Y2702D01*
X20746D01*
Y2671D01*
X19959D01*
X19265Y3365D01*
X19235Y3385D01*
X19200Y3392D01*
X19120D01*
X19120Y3392D01*
X18750D01*
X18715Y3385D01*
X18685Y3365D01*
X18112Y2792D01*
X16338D01*
X14965Y4165D01*
X14935Y4185D01*
X14900Y4192D01*
X14038D01*
X13992Y4238D01*
Y5000D01*
X13985Y5035D01*
X13965Y5065D01*
X13622Y5408D01*
Y5683D01*
X13668Y5702D01*
X13735Y5635D01*
X13765Y5615D01*
X13800Y5608D01*
X13812D01*
X14108Y5312D01*
Y4750D01*
X14115Y4715D01*
X14135Y4685D01*
X14435Y4385D01*
X14465Y4365D01*
X14500Y4358D01*
X14962D01*
X16235Y3085D01*
X16265Y3065D01*
X16300Y3058D01*
X18019D01*
X18035Y3035D01*
X18088Y2999D01*
X18150Y2987D01*
X18212Y2999D01*
X18265Y3035D01*
X18301Y3088D01*
X18313Y3150D01*
X18301Y3212D01*
X18265Y3265D01*
X18212Y3301D01*
X18150Y3313D01*
X18088Y3301D01*
X18035Y3265D01*
X18019Y3242D01*
X16338D01*
X15065Y4515D01*
X15035Y4535D01*
X15000Y4542D01*
X14538D01*
X14292Y4788D01*
Y5350D01*
X14285Y5385D01*
X14265Y5415D01*
X13915Y5765D01*
X13885Y5785D01*
X13850Y5792D01*
X13838D01*
X13742Y5888D01*
Y6550D01*
X13735Y6585D01*
X13715Y6615D01*
X12894Y7436D01*
Y7561D01*
X12940Y7580D01*
X13835Y6685D01*
X13865Y6665D01*
X13900Y6658D01*
X14419D01*
X14435Y6635D01*
X14488Y6599D01*
X14550Y6587D01*
X14612Y6599D01*
X14658Y6630D01*
X14687Y6622D01*
X14708Y6609D01*
Y6538D01*
X14715Y6503D01*
X14735Y6473D01*
X14749Y6459D01*
X14737Y6400D01*
X14749Y6338D01*
X14785Y6285D01*
X14838Y6249D01*
X14900Y6237D01*
X14962Y6249D01*
X15015Y6285D01*
X15051Y6338D01*
X15063Y6400D01*
X15051Y6462D01*
X15015Y6515D01*
X14962Y6551D01*
X14906Y6562D01*
X14892Y6576D01*
Y7469D01*
X14915Y7485D01*
X14951Y7538D01*
X14963Y7600D01*
X14951Y7662D01*
X14944Y7672D01*
X14948Y7681D01*
X14977Y7713D01*
X15000Y7708D01*
X17569D01*
X17585Y7685D01*
X17638Y7649D01*
X17700Y7637D01*
X17762Y7649D01*
X17815Y7685D01*
X17851Y7738D01*
X17863Y7800D01*
X17851Y7862D01*
X17815Y7915D01*
X17762Y7951D01*
X17700Y7963D01*
X17638Y7951D01*
X17585Y7915D01*
X17569Y7892D01*
X15038D01*
X14358Y8572D01*
X14363Y8600D01*
X14351Y8662D01*
X14315Y8715D01*
X14262Y8751D01*
X14225Y8758D01*
X14230Y8808D01*
X14362D01*
X14685Y8485D01*
X14715Y8465D01*
X14750Y8458D01*
X17300D01*
X17335Y8465D01*
X17365Y8485D01*
X17615Y8735D01*
X17635Y8765D01*
X17642Y8800D01*
Y9742D01*
X17858Y9958D01*
X19862D01*
X21085Y8735D01*
X21115Y8715D01*
X21150Y8708D01*
X23369D01*
X23385Y8685D01*
X23408Y8669D01*
Y8188D01*
X22285Y7065D01*
X22265Y7035D01*
X22258Y7000D01*
Y5931D01*
X22235Y5915D01*
X22199Y5862D01*
X22187Y5800D01*
X22199Y5738D01*
X22235Y5685D01*
X22288Y5649D01*
X22350Y5637D01*
X22412Y5649D01*
X22465Y5685D01*
X22501Y5738D01*
X22513Y5800D01*
X22501Y5862D01*
X22465Y5915D01*
X22442Y5931D01*
Y6962D01*
X23565Y8085D01*
X23585Y8115D01*
X23592Y8150D01*
Y8669D01*
X23615Y8685D01*
X23651Y8738D01*
X23663Y8800D01*
X23651Y8862D01*
X23615Y8915D01*
X23562Y8951D01*
X23500Y8963D01*
X23438Y8951D01*
X23385Y8915D01*
X23369Y8892D01*
X21188D01*
X19965Y10115D01*
X19935Y10135D01*
X19900Y10142D01*
X17882D01*
X17870Y10150D01*
X17835Y10157D01*
X17800Y10150D01*
X17770Y10130D01*
X17485Y9845D01*
X17465Y9815D01*
X17458Y9780D01*
Y8838D01*
X17300Y8680D01*
X17254Y8705D01*
X17263Y8750D01*
X17258Y8778D01*
X17265Y8785D01*
X17285Y8815D01*
X17292Y8850D01*
Y12200D01*
X17285Y12235D01*
X17265Y12265D01*
X16742Y12788D01*
Y13269D01*
X16765Y13285D01*
X16801Y13338D01*
X16813Y13400D01*
X16804Y13448D01*
X16832Y13498D01*
X17051D01*
X17061Y13448D01*
X17011Y13428D01*
X16933Y13367D01*
X16872Y13289D01*
X16835Y13198D01*
X16822Y13100D01*
X16835Y13002D01*
X16872Y12911D01*
X16933Y12833D01*
X17011Y12772D01*
X17102Y12735D01*
X17200Y12722D01*
X17298Y12735D01*
X17389Y12772D01*
X17467Y12833D01*
X17528Y12911D01*
X17565Y13002D01*
X17578Y13100D01*
X17565Y13198D01*
X17528Y13289D01*
X17467Y13367D01*
X17389Y13428D01*
X17339Y13448D01*
X17349Y13498D01*
X18051D01*
X18061Y13448D01*
X18011Y13428D01*
X17933Y13367D01*
X17872Y13289D01*
X17835Y13198D01*
X17822Y13100D01*
X17835Y13002D01*
X17872Y12911D01*
X17933Y12833D01*
X18011Y12772D01*
X18102Y12735D01*
X18200Y12722D01*
X18298Y12735D01*
X18389Y12772D01*
X18467Y12833D01*
X18528Y12911D01*
X18565Y13002D01*
X18578Y13100D01*
X18565Y13198D01*
X18528Y13289D01*
X18467Y13367D01*
X18389Y13428D01*
X18339Y13448D01*
X18349Y13498D01*
X19051D01*
X19061Y13448D01*
X19011Y13428D01*
X18933Y13367D01*
X18872Y13289D01*
X18835Y13198D01*
X18822Y13100D01*
X18835Y13002D01*
X18872Y12911D01*
X18933Y12833D01*
X19011Y12772D01*
X19102Y12735D01*
X19200Y12722D01*
X19298Y12735D01*
X19389Y12772D01*
X19467Y12833D01*
X19528Y12911D01*
X19565Y13002D01*
X19578Y13100D01*
X19565Y13198D01*
X19528Y13289D01*
X19467Y13367D01*
X19389Y13428D01*
X19339Y13448D01*
X19349Y13498D01*
X19785D01*
X19825Y13475D01*
X19825Y13448D01*
Y12725D01*
X20575D01*
Y13448D01*
X20575Y13475D01*
X20615Y13498D01*
X25682D01*
X26558Y12622D01*
Y10755D01*
X26538Y10751D01*
X26485Y10715D01*
X26449Y10662D01*
X26437Y10600D01*
X26449Y10538D01*
X26485Y10485D01*
X26538Y10449D01*
X26600Y10437D01*
X26662Y10449D01*
X26715Y10485D01*
X26751Y10538D01*
X26763Y10600D01*
X26751Y10662D01*
X26742Y10676D01*
Y12660D01*
X26735Y12695D01*
X26715Y12725D01*
X25822Y13617D01*
X25843Y13667D01*
X27165D01*
Y13667D01*
D02*
G37*
G36*
X2052Y12182D02*
X1635Y11765D01*
X1615Y11735D01*
X1608Y11700D01*
Y10500D01*
X1615Y10465D01*
X1635Y10435D01*
X1772Y10299D01*
X1755Y10244D01*
X1739Y10241D01*
X1492Y10488D01*
Y11812D01*
X1908Y12228D01*
X2033D01*
X2052Y12182D01*
D02*
G37*
G36*
X1732Y12312D02*
X1335Y11915D01*
X1315Y11885D01*
X1308Y11850D01*
Y10450D01*
X1315Y10415D01*
X1335Y10385D01*
X1586Y10134D01*
X1570Y10080D01*
X1569Y10080D01*
X1192Y10458D01*
Y12012D01*
X1538Y12358D01*
X1713D01*
X1732Y12312D01*
D02*
G37*
G36*
X11905Y10285D02*
X11935Y10265D01*
X11970Y10258D01*
X12069D01*
X12085Y10235D01*
X12138Y10199D01*
X12200Y10187D01*
X12202Y10187D01*
X12222Y10140D01*
X12185Y10115D01*
X12149Y10062D01*
X12137Y10000D01*
X12138Y9996D01*
X11590Y9448D01*
X11566Y9412D01*
X11560Y9382D01*
X11535Y9365D01*
X11499Y9312D01*
X11487Y9250D01*
X11488Y9246D01*
X11221Y8979D01*
X11196Y8943D01*
X11188Y8900D01*
X11188Y8900D01*
Y7767D01*
X11185Y7765D01*
X11149Y7712D01*
X11137Y7650D01*
X11149Y7588D01*
X11185Y7535D01*
X11238Y7499D01*
X11247Y7497D01*
X11263Y7443D01*
X11235Y7415D01*
X11215Y7385D01*
X11208Y7350D01*
Y7081D01*
X11185Y7065D01*
X11149Y7012D01*
X11137Y6950D01*
X11149Y6888D01*
X11185Y6835D01*
X11238Y6799D01*
X11300Y6787D01*
X11362Y6799D01*
X11415Y6835D01*
X11451Y6888D01*
X11463Y6950D01*
X11451Y7012D01*
X11415Y7065D01*
X11392Y7081D01*
Y7312D01*
X11565Y7485D01*
X11585Y7515D01*
X11592Y7550D01*
Y7720D01*
X11642Y7725D01*
X11649Y7688D01*
X11685Y7635D01*
X11738Y7599D01*
X11800Y7587D01*
X11862Y7599D01*
X11915Y7635D01*
X11951Y7688D01*
X11963Y7750D01*
X11951Y7812D01*
X11915Y7865D01*
X11892Y7881D01*
Y7942D01*
X11988Y8038D01*
X12132D01*
X12213Y7957D01*
X12197Y7903D01*
X12188Y7901D01*
X12135Y7865D01*
X12099Y7812D01*
X12087Y7750D01*
X12099Y7688D01*
X12135Y7635D01*
X12158Y7619D01*
Y6187D01*
X12112Y6168D01*
X11715Y6565D01*
X11685Y6585D01*
X11650Y6592D01*
X9100D01*
X9065Y6585D01*
X9035Y6565D01*
X8785Y6315D01*
X8765Y6285D01*
X8758Y6250D01*
Y5631D01*
X8735Y5615D01*
X8699Y5562D01*
X8687Y5500D01*
X8699Y5438D01*
X8730Y5392D01*
X8722Y5363D01*
X8709Y5342D01*
X7988D01*
X7792Y5538D01*
Y6069D01*
X7815Y6085D01*
X7851Y6138D01*
X7863Y6200D01*
X7851Y6262D01*
X7815Y6315D01*
X7762Y6351D01*
X7700Y6363D01*
X7638Y6351D01*
X7585Y6315D01*
X7549Y6262D01*
X7537Y6200D01*
X7549Y6138D01*
X7585Y6085D01*
X7608Y6069D01*
Y5500D01*
X7615Y5465D01*
X7635Y5435D01*
X7885Y5185D01*
X7915Y5165D01*
X7950Y5158D01*
X9100D01*
X9135Y5165D01*
X9165Y5185D01*
X9272Y5292D01*
X9300Y5287D01*
X9362Y5299D01*
X9415Y5335D01*
X9451Y5388D01*
X9463Y5450D01*
X9453Y5499D01*
X9943Y5988D01*
X9950Y5987D01*
X10012Y5999D01*
X10065Y6035D01*
X10101Y6088D01*
X10113Y6150D01*
X10101Y6212D01*
X10065Y6265D01*
X10012Y6301D01*
X9950Y6313D01*
X9888Y6301D01*
X9835Y6265D01*
X9799Y6212D01*
X9787Y6150D01*
X9797Y6101D01*
X9307Y5612D01*
X9300Y5613D01*
X9238Y5601D01*
X9185Y5565D01*
X9149Y5512D01*
X9137Y5450D01*
X9142Y5422D01*
X9062Y5342D01*
X8991D01*
X8978Y5363D01*
X8970Y5392D01*
X9001Y5438D01*
X9013Y5500D01*
X9001Y5562D01*
X8965Y5615D01*
X8942Y5631D01*
Y6212D01*
X9138Y6408D01*
X10812D01*
X10827Y6358D01*
X10806Y6344D01*
X10762Y6278D01*
X10756Y6250D01*
X11144D01*
X11138Y6278D01*
X11094Y6344D01*
X11073Y6358D01*
X11088Y6408D01*
X11612D01*
X12008Y6012D01*
Y5431D01*
X11985Y5415D01*
X11949Y5362D01*
X11937Y5300D01*
X11949Y5238D01*
X11985Y5185D01*
X12038Y5149D01*
X12100Y5137D01*
X12162Y5149D01*
X12215Y5185D01*
X12251Y5238D01*
X12263Y5300D01*
X12251Y5362D01*
X12215Y5415D01*
X12192Y5431D01*
Y5813D01*
X12238Y5832D01*
X12808Y5262D01*
Y4400D01*
X12815Y4365D01*
X12835Y4335D01*
X13108Y4062D01*
Y3450D01*
X13115Y3415D01*
X13135Y3385D01*
X13785Y2735D01*
X13815Y2715D01*
X13850Y2708D01*
X14444D01*
X14460Y2685D01*
X14513Y2649D01*
X14550Y2642D01*
X14545Y2592D01*
X13238D01*
X13008Y2822D01*
X13013Y2850D01*
X13001Y2912D01*
X12965Y2965D01*
X12912Y3001D01*
X12850Y3013D01*
X12788Y3001D01*
X12735Y2965D01*
X12699Y2912D01*
X12687Y2850D01*
X12699Y2788D01*
X12735Y2735D01*
X12788Y2699D01*
X12850Y2687D01*
X12878Y2692D01*
X13135Y2435D01*
X13165Y2415D01*
X13200Y2408D01*
X19336D01*
X19349Y2392D01*
X19324Y2342D01*
X11481D01*
X11465Y2365D01*
X11412Y2401D01*
X11350Y2413D01*
X11288Y2401D01*
X11235Y2365D01*
X11199Y2312D01*
X11187Y2250D01*
X11199Y2188D01*
X11235Y2135D01*
X11288Y2099D01*
X11350Y2087D01*
X11412Y2099D01*
X11465Y2135D01*
X11481Y2158D01*
X18981D01*
X19004Y2108D01*
X18968Y2054D01*
X18951Y1969D01*
X18968Y1884D01*
X19016Y1812D01*
X19088Y1764D01*
X19172Y1747D01*
X19257Y1764D01*
X19329Y1812D01*
X19377Y1884D01*
X19394Y1969D01*
X19381Y2033D01*
X19428Y2058D01*
X19703Y1783D01*
X19732Y1763D01*
X19767Y1756D01*
X20650D01*
X20659Y1709D01*
X20659Y1706D01*
X20624Y1683D01*
X20624Y1682D01*
X19339Y398D01*
X18899D01*
X18883Y445D01*
X18895Y454D01*
X18962Y541D01*
X19004Y642D01*
X19018Y750D01*
X19004Y858D01*
X18962Y959D01*
X18895Y1045D01*
X18809Y1112D01*
X18708Y1154D01*
X18600Y1168D01*
X18492Y1154D01*
X18395Y1114D01*
X17629Y1879D01*
X17593Y1904D01*
X17550Y1912D01*
X17550Y1912D01*
X9846D01*
X9529Y2229D01*
X9493Y2254D01*
X9450Y2262D01*
X9450Y2262D01*
X9296D01*
X9029Y2529D01*
X8993Y2554D01*
X8950Y2562D01*
X8950Y2562D01*
X4400D01*
X4357Y2554D01*
X4321Y2529D01*
X4321Y2529D01*
X3954Y2162D01*
X3567D01*
X3565Y2165D01*
X3512Y2201D01*
X3450Y2213D01*
X3402Y2204D01*
X3352Y2232D01*
Y3822D01*
X3561Y4032D01*
X3607Y4007D01*
X3606Y4000D01*
X3994D01*
X3992Y4008D01*
X4024Y4058D01*
X6250D01*
X6285Y4065D01*
X6315Y4085D01*
X6885Y4655D01*
X6905Y4685D01*
X6912Y4720D01*
Y5880D01*
X6905Y5915D01*
X6885Y5945D01*
X6758Y6072D01*
X6763Y6100D01*
X6751Y6162D01*
X6715Y6215D01*
X6662Y6251D01*
X6600Y6263D01*
X6538Y6251D01*
X6512Y6233D01*
X6462Y6260D01*
Y6582D01*
X6765Y6885D01*
X6785Y6915D01*
X6792Y6950D01*
Y7150D01*
X6785Y7185D01*
X6765Y7215D01*
X6542Y7438D01*
Y7619D01*
X6565Y7635D01*
X6601Y7688D01*
X6613Y7750D01*
X6601Y7812D01*
X6565Y7865D01*
X6512Y7901D01*
X6450Y7913D01*
X6388Y7901D01*
X6335Y7865D01*
X6299Y7812D01*
X6287Y7750D01*
X6299Y7688D01*
X6335Y7635D01*
X6358Y7619D01*
Y7400D01*
X6360Y7390D01*
X6317Y7366D01*
X6314Y7365D01*
X6285Y7385D01*
X6250Y7392D01*
X6181D01*
X6165Y7415D01*
X6112Y7451D01*
X6050Y7463D01*
X5988Y7451D01*
X5935Y7415D01*
X5899Y7362D01*
X5896Y7345D01*
X5842Y7328D01*
X5665Y7505D01*
X5635Y7525D01*
X5600Y7532D01*
X4233D01*
X4192Y7573D01*
Y8112D01*
X4418Y8338D01*
X5554D01*
X5569Y8288D01*
X5535Y8265D01*
X5499Y8212D01*
X5487Y8150D01*
X5499Y8088D01*
X5535Y8035D01*
X5588Y7999D01*
X5650Y7987D01*
X5712Y7999D01*
X5765Y8035D01*
X5766Y8035D01*
X5788Y8036D01*
X5815Y7987D01*
X5815Y7986D01*
X5799Y7962D01*
X5787Y7900D01*
X5799Y7838D01*
X5835Y7785D01*
X5888Y7749D01*
X5950Y7737D01*
X6012Y7749D01*
X6065Y7785D01*
X6101Y7838D01*
X6113Y7900D01*
X6153Y7938D01*
X6280D01*
X6315Y7945D01*
X6345Y7965D01*
X6738Y8358D01*
X6862D01*
X6911Y8309D01*
Y7958D01*
X6918Y7923D01*
X6938Y7893D01*
X7217Y7615D01*
X7246Y7595D01*
X7282Y7588D01*
X7900D01*
X7935Y7595D01*
X7965Y7615D01*
X9238Y8888D01*
X10040D01*
X10075Y8895D01*
X10105Y8915D01*
X11403Y10213D01*
X11457Y10196D01*
X11462Y10172D01*
X11506Y10106D01*
X11572Y10062D01*
X11600Y10056D01*
Y10250D01*
X11700D01*
Y10056D01*
X11728Y10062D01*
X11794Y10106D01*
X11838Y10172D01*
X11854Y10250D01*
X11850Y10269D01*
X11896Y10294D01*
X11905Y10285D01*
D02*
G37*
G36*
X12437Y9872D02*
X12458Y9859D01*
Y8207D01*
X12412Y8187D01*
X12285Y8315D01*
X12255Y8335D01*
X12220Y8342D01*
X11900D01*
X11865Y8335D01*
X11835Y8315D01*
X11462Y7942D01*
X11412Y7963D01*
Y8854D01*
X11493Y8934D01*
X11539Y8909D01*
X11537Y8900D01*
X11549Y8838D01*
X11585Y8785D01*
X11638Y8749D01*
X11700Y8737D01*
X11762Y8749D01*
X11815Y8785D01*
X11831Y8808D01*
X12000D01*
X12035Y8815D01*
X12065Y8835D01*
X12172Y8942D01*
X12200Y8937D01*
X12262Y8949D01*
X12315Y8985D01*
X12351Y9038D01*
X12363Y9100D01*
X12351Y9162D01*
X12315Y9215D01*
X12262Y9251D01*
X12200Y9263D01*
X12138Y9251D01*
X12085Y9215D01*
X12049Y9162D01*
X12037Y9100D01*
X12042Y9072D01*
X11962Y8992D01*
X11831D01*
X11815Y9015D01*
X11762Y9051D01*
X11734Y9056D01*
X11727Y9109D01*
X11765Y9135D01*
X11801Y9188D01*
X11813Y9250D01*
X11801Y9312D01*
X11789Y9330D01*
X12296Y9838D01*
X12300Y9837D01*
X12362Y9849D01*
X12408Y9880D01*
X12437Y9872D01*
D02*
G37*
G36*
X13358Y9112D02*
X13355Y9093D01*
X13339Y9061D01*
X13288Y9051D01*
X13235Y9015D01*
X13199Y8962D01*
X13187Y8900D01*
X13199Y8838D01*
X13235Y8785D01*
X13258Y8769D01*
Y8305D01*
X13238Y8301D01*
X13185Y8265D01*
X13149Y8212D01*
X13137Y8150D01*
X13149Y8088D01*
X13185Y8035D01*
X13238Y7999D01*
X13300Y7987D01*
X13362Y7999D01*
X13415Y8035D01*
X13451Y8088D01*
X13463Y8150D01*
X13451Y8212D01*
X13442Y8226D01*
Y8769D01*
X13465Y8785D01*
X13501Y8838D01*
X13511Y8889D01*
X13543Y8905D01*
X13562Y8908D01*
X13635Y8835D01*
X13665Y8815D01*
X13700Y8808D01*
X14170D01*
X14175Y8758D01*
X14138Y8751D01*
X14085Y8715D01*
X14049Y8662D01*
X14037Y8600D01*
X14049Y8538D01*
X14085Y8485D01*
X14138Y8449D01*
X14200Y8437D01*
X14228Y8442D01*
X14870Y7800D01*
X14845Y7754D01*
X14800Y7763D01*
X14738Y7751D01*
X14685Y7715D01*
X14649Y7662D01*
X14637Y7600D01*
X14649Y7538D01*
X14685Y7485D01*
X14708Y7469D01*
Y6891D01*
X14687Y6878D01*
X14658Y6870D01*
X14612Y6901D01*
X14550Y6913D01*
X14488Y6901D01*
X14435Y6865D01*
X14419Y6842D01*
X13938D01*
X12642Y8138D01*
Y9077D01*
X12680Y9097D01*
X12692Y9098D01*
X12750Y9087D01*
X12812Y9099D01*
X12865Y9135D01*
X12881Y9158D01*
X13312D01*
X13358Y9112D01*
D02*
G37*
G36*
X6680Y9558D02*
X6657Y9554D01*
X6621Y9529D01*
X6621Y9529D01*
X6104Y9012D01*
X6100Y9013D01*
X6038Y9001D01*
X5985Y8965D01*
X5949Y8912D01*
X5941Y8872D01*
X5889Y8854D01*
X5878Y8865D01*
X5848Y8885D01*
X5813Y8892D01*
X5700D01*
X5665Y8885D01*
X5635Y8865D01*
X5412Y8642D01*
X5223D01*
X5203Y8680D01*
X5202Y8692D01*
X5213Y8750D01*
X5201Y8812D01*
X5165Y8865D01*
X5112Y8901D01*
X5050Y8913D01*
X4988Y8901D01*
X4935Y8865D01*
X4919Y8842D01*
X3945D01*
X3918Y8892D01*
X3938Y8922D01*
X3944Y8950D01*
X3750D01*
Y9000D01*
X3700D01*
Y9194D01*
X3688Y9192D01*
X3653Y9226D01*
Y9288D01*
X3646Y9324D01*
X3636Y9339D01*
X3643Y9360D01*
X3653Y9381D01*
X3661Y9389D01*
X3712Y9399D01*
X3765Y9435D01*
X3801Y9488D01*
X3813Y9550D01*
X3809Y9570D01*
X3843Y9608D01*
X6675D01*
X6680Y9558D01*
D02*
G37*
G36*
X7338Y9204D02*
Y8874D01*
X7272Y8808D01*
X7238Y8801D01*
X7185Y8765D01*
X7149Y8712D01*
X7137Y8650D01*
X7146Y8605D01*
X7100Y8580D01*
X7015Y8665D01*
X6985Y8685D01*
X6950Y8692D01*
X6650D01*
X6615Y8685D01*
X6585Y8665D01*
X6162Y8242D01*
X5834D01*
X5826Y8253D01*
X5825Y8256D01*
X5841Y8319D01*
X5865Y8335D01*
X5901Y8388D01*
X5911Y8439D01*
X5962D01*
X5962Y8438D01*
X5998Y8385D01*
X6051Y8349D01*
X6113Y8337D01*
X6175Y8349D01*
X6228Y8385D01*
X6264Y8438D01*
X6276Y8500D01*
X6264Y8562D01*
X6228Y8615D01*
X6175Y8651D01*
X6173Y8651D01*
X6167Y8680D01*
X6168Y8703D01*
X6215Y8735D01*
X6251Y8788D01*
X6263Y8850D01*
X6262Y8854D01*
X6746Y9338D01*
X7204D01*
X7338Y9204D01*
D02*
G37*
G36*
X7838Y9254D02*
Y8196D01*
X7754Y8112D01*
X7517D01*
X7515Y8115D01*
X7462Y8151D01*
X7400Y8163D01*
X7338Y8151D01*
X7302Y8127D01*
X7252Y8150D01*
Y8389D01*
X7245Y8424D01*
X7228Y8450D01*
X7233Y8464D01*
X7255Y8496D01*
X7300Y8487D01*
X7362Y8499D01*
X7415Y8535D01*
X7451Y8588D01*
X7463Y8650D01*
X7458Y8676D01*
X7529Y8748D01*
X7554Y8784D01*
X7562Y8827D01*
X7562Y8827D01*
Y9204D01*
X7696Y9338D01*
X7754D01*
X7838Y9254D01*
D02*
G37*
G36*
X2920Y8247D02*
X2958Y8227D01*
Y7257D01*
X2908Y7236D01*
X2592Y7553D01*
Y8012D01*
X2822Y8242D01*
X2850Y8237D01*
X2908Y8248D01*
X2920Y8247D01*
D02*
G37*
G36*
X8688Y9204D02*
X8687Y9200D01*
X8699Y9138D01*
X8735Y9085D01*
X8788Y9049D01*
X8850Y9037D01*
X8895Y9046D01*
X8920Y9000D01*
X8112Y8192D01*
X8062Y8213D01*
Y9300D01*
X8062Y9300D01*
X8093Y9338D01*
X8554D01*
X8688Y9204D01*
D02*
G37*
G36*
X3231Y6654D02*
X3211Y6604D01*
X2412D01*
Y7403D01*
X2462Y7423D01*
X3231Y6654D01*
D02*
G37*
G36*
X13438Y6190D02*
Y5370D01*
X13445Y5335D01*
X13465Y5305D01*
X13808Y4962D01*
Y4840D01*
X13785Y4827D01*
X13758Y4822D01*
X13558Y5022D01*
X13563Y5050D01*
X13551Y5112D01*
X13515Y5165D01*
X13462Y5201D01*
X13400Y5213D01*
X13338Y5201D01*
X13292Y5170D01*
X13263Y5178D01*
X13242Y5191D01*
Y5300D01*
X13235Y5335D01*
X13215Y5365D01*
X12580Y6000D01*
X12605Y6046D01*
X12650Y6037D01*
X12712Y6049D01*
X12765Y6085D01*
X12781Y6108D01*
X13128D01*
X13163Y6115D01*
X13193Y6135D01*
X13254Y6196D01*
X13300Y6187D01*
X13362Y6199D01*
X13388Y6217D01*
X13438Y6190D01*
D02*
G37*
G36*
X4558Y6412D02*
Y5888D01*
X4085Y5415D01*
X4065Y5385D01*
X4058Y5350D01*
Y5150D01*
X4065Y5115D01*
X4085Y5085D01*
X4235Y4935D01*
X4265Y4915D01*
X4300Y4908D01*
X5000D01*
X5035Y4915D01*
X5065Y4935D01*
X5338Y5208D01*
X6019D01*
X6035Y5185D01*
X6088Y5149D01*
X6150Y5137D01*
X6195Y5146D01*
X6220Y5100D01*
X6112Y4992D01*
X5275D01*
X5240Y4985D01*
X5210Y4965D01*
X5087Y4842D01*
X2850D01*
X2815Y4835D01*
X2785Y4815D01*
X2669Y4698D01*
X2615Y4716D01*
X2612Y4732D01*
X3415Y5535D01*
X3435Y5565D01*
X3442Y5600D01*
Y5855D01*
X3492Y5872D01*
X3526Y5826D01*
X3621Y5754D01*
X3732Y5708D01*
X3850Y5692D01*
X3968Y5708D01*
X4079Y5754D01*
X4174Y5826D01*
X4246Y5921D01*
X4292Y6032D01*
X4308Y6150D01*
X4292Y6268D01*
X4246Y6379D01*
X4174Y6474D01*
X4079Y6546D01*
X3968Y6592D01*
X3850Y6608D01*
X3732Y6592D01*
X3621Y6546D01*
X3526Y6474D01*
X3492Y6428D01*
X3442Y6445D01*
Y6665D01*
X3438Y6683D01*
X3463Y6725D01*
X3473Y6733D01*
X4237D01*
X4558Y6412D01*
D02*
G37*
G36*
X5358Y6841D02*
Y6185D01*
X5365Y6150D01*
X5385Y6120D01*
X5520Y5985D01*
X5550Y5965D01*
X5585Y5958D01*
X5669D01*
X5685Y5935D01*
X5738Y5899D01*
X5800Y5887D01*
X5848Y5896D01*
X5898Y5868D01*
Y5721D01*
X5905Y5685D01*
X5925Y5656D01*
X6084Y5497D01*
X6071Y5439D01*
X6035Y5415D01*
X6019Y5392D01*
X5300D01*
X5265Y5385D01*
X5235Y5365D01*
X4962Y5092D01*
X4338D01*
X4242Y5188D01*
Y5312D01*
X4715Y5785D01*
X4735Y5815D01*
X4742Y5850D01*
Y6450D01*
X4735Y6485D01*
X4715Y6515D01*
X4408Y6822D01*
X4427Y6868D01*
X5331D01*
X5358Y6841D01*
D02*
G37*
G36*
X13338Y4899D02*
X13400Y4887D01*
X13428Y4892D01*
X13608Y4712D01*
Y4631D01*
X13585Y4615D01*
X13549Y4562D01*
X13537Y4500D01*
X13549Y4438D01*
X13585Y4385D01*
X13638Y4349D01*
X13700Y4337D01*
X13758Y4348D01*
X13770Y4347D01*
X13808Y4327D01*
Y4200D01*
X13815Y4165D01*
X13835Y4135D01*
X13935Y4035D01*
X13965Y4015D01*
X14000Y4008D01*
X14862D01*
X16228Y2642D01*
X16223Y2615D01*
X16210Y2592D01*
X14605D01*
X14600Y2642D01*
X14637Y2649D01*
X14690Y2685D01*
X14726Y2738D01*
X14738Y2800D01*
X14726Y2862D01*
X14690Y2915D01*
X14687Y2918D01*
Y2978D01*
X14697Y2985D01*
X14732Y3038D01*
X14744Y3100D01*
X14732Y3162D01*
X14697Y3215D01*
X14674Y3230D01*
X14665Y3284D01*
X14669Y3290D01*
X14701Y3338D01*
X14713Y3400D01*
X14701Y3462D01*
X14665Y3515D01*
X14615Y3549D01*
X14612Y3570D01*
Y3580D01*
X14615Y3601D01*
X14665Y3635D01*
X14701Y3688D01*
X14713Y3750D01*
X14701Y3812D01*
X14665Y3865D01*
X14612Y3901D01*
X14550Y3913D01*
X14488Y3901D01*
X14435Y3865D01*
X14419Y3842D01*
X14031D01*
X14015Y3865D01*
X13962Y3901D01*
X13900Y3913D01*
X13838Y3901D01*
X13785Y3865D01*
X13749Y3812D01*
X13737Y3750D01*
X13749Y3688D01*
X13785Y3635D01*
X13835Y3601D01*
X13838Y3580D01*
Y3570D01*
X13835Y3549D01*
X13785Y3515D01*
X13749Y3462D01*
X13737Y3400D01*
X13749Y3338D01*
X13785Y3285D01*
X13838Y3249D01*
X13875Y3242D01*
X13870Y3192D01*
X13758D01*
X13642Y3308D01*
Y4150D01*
X13635Y4185D01*
X13615Y4215D01*
X13242Y4588D01*
Y4909D01*
X13263Y4922D01*
X13292Y4930D01*
X13338Y4899D01*
D02*
G37*
G36*
X19025Y3158D02*
X18988Y3151D01*
X18935Y3115D01*
X18899Y3062D01*
X18887Y3000D01*
X18899Y2938D01*
X18935Y2885D01*
X18988Y2849D01*
X19050Y2837D01*
X19112Y2849D01*
X19165Y2885D01*
X19169Y2891D01*
X19226Y2895D01*
X19850Y2271D01*
X19879Y2251D01*
X19915Y2244D01*
X20705D01*
X20709Y2233D01*
X20673Y2183D01*
X19847D01*
X19465Y2565D01*
X19435Y2585D01*
X19400Y2592D01*
X18240D01*
X18227Y2615D01*
X18222Y2642D01*
X18788Y3208D01*
X19020D01*
X19025Y3158D01*
D02*
G37*
G36*
X8638Y1211D02*
X8616Y1166D01*
X8600Y1168D01*
X8492Y1154D01*
X8391Y1112D01*
X8378Y1102D01*
X8215Y1265D01*
X8185Y1285D01*
X8150Y1292D01*
X6358D01*
X6247Y1402D01*
X6267Y1448D01*
X8400D01*
X8638Y1211D01*
D02*
G37*
G36*
X5186Y1041D02*
Y392D01*
X2818D01*
X2598Y612D01*
X2617Y658D01*
X4700D01*
X4735Y665D01*
X4765Y685D01*
X5139Y1060D01*
X5186Y1041D01*
D02*
G37*
%LPC*%
G36*
X10944Y10400D02*
X10800D01*
Y10256D01*
X10828Y10262D01*
X10894Y10306D01*
X10938Y10372D01*
X10944Y10400D01*
D02*
G37*
G36*
X10700D02*
X10556D01*
X10562Y10372D01*
X10606Y10306D01*
X10672Y10262D01*
X10700Y10256D01*
Y10400D01*
D02*
G37*
G36*
X3612Y13050D02*
X3250D01*
Y12688D01*
X3308Y12696D01*
X3409Y12738D01*
X3496Y12804D01*
X3562Y12891D01*
X3604Y12992D01*
X3612Y13050D01*
D02*
G37*
G36*
X4612D02*
X4250D01*
Y12688D01*
X4308Y12696D01*
X4409Y12738D01*
X4496Y12804D01*
X4562Y12891D01*
X4604Y12992D01*
X4612Y13050D01*
D02*
G37*
G36*
X4150D02*
X3788D01*
X3796Y12992D01*
X3838Y12891D01*
X3904Y12804D01*
X3991Y12738D01*
X4092Y12696D01*
X4150Y12688D01*
Y13050D01*
D02*
G37*
G36*
X3150D02*
X2788D01*
X2796Y12992D01*
X2838Y12891D01*
X2904Y12804D01*
X2991Y12738D01*
X3092Y12696D01*
X3150Y12688D01*
Y13050D01*
D02*
G37*
G36*
X16500Y11294D02*
Y11150D01*
X16644D01*
X16638Y11178D01*
X16594Y11244D01*
X16528Y11288D01*
X16500Y11294D01*
D02*
G37*
G36*
X16400D02*
X16372Y11288D01*
X16306Y11244D01*
X16262Y11178D01*
X16256Y11150D01*
X16400D01*
Y11294D01*
D02*
G37*
G36*
X16644Y11050D02*
X16500D01*
Y10906D01*
X16528Y10912D01*
X16594Y10956D01*
X16638Y11022D01*
X16644Y11050D01*
D02*
G37*
G36*
X16400D02*
X16256D01*
X16262Y11022D01*
X16306Y10956D01*
X16372Y10912D01*
X16400Y10906D01*
Y11050D01*
D02*
G37*
G36*
X16494Y10200D02*
X16350D01*
Y10056D01*
X16378Y10062D01*
X16444Y10106D01*
X16488Y10172D01*
X16494Y10200D01*
D02*
G37*
G36*
X16250D02*
X16106D01*
X16112Y10172D01*
X16156Y10106D01*
X16222Y10062D01*
X16250Y10056D01*
Y10200D01*
D02*
G37*
G36*
X2750Y11900D02*
X2606D01*
X2612Y11872D01*
X2656Y11806D01*
X2722Y11762D01*
X2750Y11756D01*
Y11900D01*
D02*
G37*
G36*
X2994D02*
X2850D01*
Y11705D01*
X2856Y11694D01*
X2812Y11628D01*
X2806Y11600D01*
X3194D01*
X3188Y11628D01*
X3144Y11694D01*
X3092Y11729D01*
Y11750D01*
X3085Y11785D01*
X3065Y11815D01*
X2992Y11888D01*
X2994Y11900D01*
D02*
G37*
G36*
X2950Y11500D02*
X2806D01*
X2812Y11472D01*
X2856Y11406D01*
X2922Y11362D01*
X2950Y11356D01*
Y11500D01*
D02*
G37*
G36*
X641Y13581D02*
Y13239D01*
X983D01*
X976Y13292D01*
X936Y13388D01*
X872Y13471D01*
X790Y13534D01*
X694Y13574D01*
X641Y13581D01*
D02*
G37*
G36*
X541D02*
X487Y13574D01*
X391Y13534D01*
X309Y13471D01*
X245Y13388D01*
X205Y13292D01*
X198Y13239D01*
X541D01*
Y13581D01*
D02*
G37*
G36*
X983Y13139D02*
X641D01*
Y12797D01*
X694Y12804D01*
X790Y12844D01*
X872Y12907D01*
X936Y12990D01*
X976Y13086D01*
X983Y13139D01*
D02*
G37*
G36*
X541D02*
X198D01*
X205Y13086D01*
X245Y12990D01*
X309Y12907D01*
X391Y12844D01*
X487Y12804D01*
X541Y12797D01*
Y13139D01*
D02*
G37*
G36*
X600Y12194D02*
X572Y12188D01*
X506Y12144D01*
X462Y12078D01*
X456Y12050D01*
X600D01*
Y12194D01*
D02*
G37*
G36*
Y11950D02*
X456D01*
X462Y11922D01*
X506Y11856D01*
X572Y11812D01*
X600Y11806D01*
Y11950D01*
D02*
G37*
G36*
X7153Y10711D02*
X7117Y10704D01*
X7045Y10656D01*
X6996Y10583D01*
X6989Y10547D01*
X7153D01*
Y10711D01*
D02*
G37*
G36*
X27018Y13581D02*
Y13239D01*
X27361D01*
X27354Y13292D01*
X27314Y13388D01*
X27250Y13471D01*
X27168Y13534D01*
X27072Y13574D01*
X27018Y13581D01*
D02*
G37*
G36*
X26918D02*
X26865Y13574D01*
X26769Y13534D01*
X26687Y13471D01*
X26623Y13388D01*
X26583Y13292D01*
X26576Y13239D01*
X26918D01*
Y13581D01*
D02*
G37*
G36*
X27361Y13139D02*
X27018D01*
Y12797D01*
X27072Y12804D01*
X27168Y12844D01*
X27250Y12907D01*
X27314Y12990D01*
X27354Y13086D01*
X27361Y13139D01*
D02*
G37*
G36*
X26918D02*
X26576D01*
X26583Y13086D01*
X26623Y12990D01*
X26687Y12907D01*
X26769Y12844D01*
X26865Y12804D01*
X26918Y12797D01*
Y13139D01*
D02*
G37*
G36*
X24000Y12013D02*
X23938Y12001D01*
X23885Y11965D01*
X23849Y11912D01*
X23837Y11850D01*
X23849Y11788D01*
X23885Y11735D01*
X23938Y11699D01*
X23981Y11691D01*
X23985Y11685D01*
X24335Y11335D01*
X24365Y11315D01*
X24400Y11308D01*
X24469D01*
X24485Y11285D01*
X24538Y11249D01*
X24600Y11237D01*
X24662Y11249D01*
X24715Y11285D01*
X24751Y11338D01*
X24763Y11400D01*
X24751Y11462D01*
X24715Y11515D01*
X24662Y11551D01*
X24600Y11563D01*
X24538Y11551D01*
X24485Y11515D01*
X24481Y11509D01*
X24424Y11505D01*
X24147Y11782D01*
X24151Y11788D01*
X24163Y11850D01*
X24151Y11912D01*
X24115Y11965D01*
X24062Y12001D01*
X24000Y12013D01*
D02*
G37*
G36*
X18300Y11614D02*
X18180Y11598D01*
X18068Y11552D01*
X17972Y11478D01*
X17898Y11382D01*
X17852Y11270D01*
X17836Y11150D01*
X17852Y11030D01*
X17898Y10918D01*
X17972Y10822D01*
X18068Y10748D01*
X18180Y10702D01*
X18300Y10686D01*
X18420Y10702D01*
X18532Y10748D01*
X18628Y10822D01*
X18702Y10918D01*
X18748Y11030D01*
X18764Y11150D01*
X18748Y11270D01*
X18702Y11382D01*
X18628Y11478D01*
X18532Y11552D01*
X18420Y11598D01*
X18300Y11614D01*
D02*
G37*
G36*
X25674Y9500D02*
X25507D01*
Y9251D01*
X25967D01*
X25963Y9278D01*
X25933Y9351D01*
X25886Y9413D01*
X25823Y9460D01*
X25751Y9490D01*
X25674Y9500D01*
D02*
G37*
G36*
X25407D02*
X25241D01*
X25163Y9490D01*
X25091Y9460D01*
X25029Y9413D01*
X24981Y9351D01*
X24952Y9278D01*
X24948Y9251D01*
X25407D01*
Y9500D01*
D02*
G37*
G36*
X27053D02*
X26985D01*
X26907Y9490D01*
X26835Y9460D01*
X26773Y9413D01*
X26726Y9351D01*
X26696Y9278D01*
X26692Y9251D01*
X27053D01*
Y9500D01*
D02*
G37*
G36*
Y9151D02*
X26692D01*
X26696Y9123D01*
X26726Y9051D01*
X26773Y8989D01*
X26835Y8941D01*
X26907Y8912D01*
X26985Y8901D01*
X27053D01*
Y9151D01*
D02*
G37*
G36*
X25407Y9151D02*
X24948D01*
X24952Y9123D01*
X24981Y9051D01*
X25029Y8989D01*
X25091Y8941D01*
X25163Y8912D01*
X25241Y8901D01*
X25407D01*
Y9151D01*
D02*
G37*
G36*
X18300Y9614D02*
X18180Y9598D01*
X18068Y9552D01*
X17972Y9478D01*
X17898Y9382D01*
X17852Y9270D01*
X17836Y9150D01*
X17852Y9030D01*
X17898Y8918D01*
X17972Y8822D01*
X18068Y8748D01*
X18180Y8702D01*
X18300Y8686D01*
X18420Y8702D01*
X18532Y8748D01*
X18628Y8822D01*
X18702Y8918D01*
X18748Y9030D01*
X18764Y9150D01*
X18748Y9270D01*
X18702Y9382D01*
X18628Y9478D01*
X18532Y9552D01*
X18420Y9598D01*
X18300Y9614D01*
D02*
G37*
G36*
X25967Y9151D02*
X25507D01*
Y8901D01*
X25562D01*
X25577Y8851D01*
X25523Y8816D01*
X25480Y8750D01*
X25464Y8673D01*
X25480Y8596D01*
X25523Y8531D01*
X25589Y8487D01*
X25666Y8472D01*
X25743Y8487D01*
X25809Y8531D01*
X25852Y8596D01*
X25868Y8673D01*
X25852Y8750D01*
X25809Y8816D01*
X25743Y8860D01*
X25742Y8860D01*
X25743Y8911D01*
X25751Y8912D01*
X25823Y8941D01*
X25886Y8989D01*
X25933Y9051D01*
X25963Y9123D01*
X25967Y9151D01*
D02*
G37*
G36*
X25666Y6528D02*
X25589Y6513D01*
X25523Y6469D01*
X25480Y6404D01*
X25464Y6327D01*
X25480Y6250D01*
X25523Y6184D01*
X25577Y6149D01*
X25562Y6099D01*
X25507D01*
Y5849D01*
X25967D01*
X25963Y5877D01*
X25933Y5949D01*
X25886Y6011D01*
X25823Y6059D01*
X25751Y6088D01*
X25743Y6089D01*
X25742Y6140D01*
X25743Y6140D01*
X25809Y6184D01*
X25852Y6250D01*
X25868Y6327D01*
X25852Y6404D01*
X25809Y6469D01*
X25743Y6513D01*
X25666Y6528D01*
D02*
G37*
G36*
X25407Y6099D02*
X25241D01*
X25163Y6088D01*
X25091Y6059D01*
X25029Y6011D01*
X24981Y5949D01*
X24952Y5877D01*
X24948Y5849D01*
X25407D01*
Y6099D01*
D02*
G37*
G36*
X27053D02*
X26985D01*
X26907Y6088D01*
X26835Y6059D01*
X26773Y6011D01*
X26726Y5949D01*
X26696Y5877D01*
X26692Y5849D01*
X27053D01*
Y6099D01*
D02*
G37*
G36*
Y5749D02*
X26692D01*
X26696Y5722D01*
X26726Y5649D01*
X26773Y5587D01*
X26835Y5540D01*
X26907Y5510D01*
X26985Y5500D01*
X27053D01*
Y5749D01*
D02*
G37*
G36*
X25967Y5749D02*
X25507D01*
Y5500D01*
X25674D01*
X25751Y5510D01*
X25823Y5540D01*
X25886Y5587D01*
X25933Y5649D01*
X25963Y5722D01*
X25967Y5749D01*
D02*
G37*
G36*
X25407D02*
X24948D01*
X24952Y5722D01*
X24981Y5649D01*
X25029Y5587D01*
X25091Y5540D01*
X25163Y5510D01*
X25241Y5500D01*
X25407D01*
Y5749D01*
D02*
G37*
G36*
X23600Y11663D02*
X23538Y11651D01*
X23485Y11615D01*
X23449Y11562D01*
X23437Y11500D01*
X23449Y11438D01*
X23485Y11385D01*
X23538Y11349D01*
X23600Y11337D01*
X23604Y11338D01*
X24238Y10704D01*
Y5500D01*
X24238Y5500D01*
X24246Y5457D01*
X24271Y5421D01*
X24621Y5071D01*
X24621Y5071D01*
X24657Y5046D01*
X24700Y5038D01*
X24700Y5038D01*
X26033D01*
X26035Y5035D01*
X26088Y4999D01*
X26150Y4987D01*
X26212Y4999D01*
X26265Y5035D01*
X26301Y5088D01*
X26313Y5150D01*
X26301Y5212D01*
X26265Y5265D01*
X26212Y5301D01*
X26150Y5313D01*
X26088Y5301D01*
X26035Y5265D01*
X26033Y5262D01*
X24746D01*
X24462Y5546D01*
Y10750D01*
X24454Y10793D01*
X24429Y10829D01*
X24429Y10829D01*
X23762Y11496D01*
X23763Y11500D01*
X23751Y11562D01*
X23715Y11615D01*
X23662Y11651D01*
X23600Y11663D01*
D02*
G37*
G36*
X19172Y4632D02*
X19088Y4615D01*
X19016Y4567D01*
X18968Y4495D01*
X18951Y4410D01*
X18968Y4325D01*
X19016Y4253D01*
X19088Y4205D01*
X19172Y4188D01*
X19257Y4205D01*
X19329Y4253D01*
X19377Y4325D01*
X19394Y4410D01*
X19377Y4495D01*
X19329Y4567D01*
X19257Y4615D01*
X19172Y4632D01*
D02*
G37*
G36*
X27018Y983D02*
Y641D01*
X27361D01*
X27354Y694D01*
X27314Y790D01*
X27250Y872D01*
X27168Y936D01*
X27072Y976D01*
X27018Y983D01*
D02*
G37*
G36*
X26918D02*
X26865Y976D01*
X26769Y936D01*
X26687Y872D01*
X26623Y790D01*
X26583Y694D01*
X26576Y641D01*
X26918D01*
Y983D01*
D02*
G37*
G36*
X641D02*
Y641D01*
X983D01*
X976Y694D01*
X936Y790D01*
X872Y872D01*
X790Y936D01*
X694Y976D01*
X641Y983D01*
D02*
G37*
G36*
X541D02*
X487Y976D01*
X391Y936D01*
X309Y872D01*
X245Y790D01*
X205Y694D01*
X198Y641D01*
X541D01*
Y983D01*
D02*
G37*
G36*
X27361Y541D02*
X27018D01*
Y198D01*
X27072Y205D01*
X27168Y245D01*
X27250Y309D01*
X27314Y391D01*
X27354Y487D01*
X27361Y541D01*
D02*
G37*
G36*
X26918D02*
X26576D01*
X26583Y487D01*
X26623Y391D01*
X26687Y309D01*
X26769Y245D01*
X26865Y205D01*
X26918Y198D01*
Y541D01*
D02*
G37*
G36*
X983D02*
X641D01*
Y198D01*
X694Y205D01*
X790Y245D01*
X872Y309D01*
X936Y391D01*
X976Y487D01*
X983Y541D01*
D02*
G37*
G36*
X541D02*
X198D01*
X205Y487D01*
X245Y391D01*
X309Y309D01*
X391Y245D01*
X487Y205D01*
X541Y198D01*
Y541D01*
D02*
G37*
G36*
X9800Y8194D02*
Y8050D01*
X9944D01*
X9938Y8078D01*
X9894Y8144D01*
X9828Y8188D01*
X9800Y8194D01*
D02*
G37*
G36*
X9700D02*
X9672Y8188D01*
X9606Y8144D01*
X9562Y8078D01*
X9556Y8050D01*
X9700D01*
Y8194D01*
D02*
G37*
G36*
X9944Y7950D02*
X9800D01*
Y7806D01*
X9828Y7812D01*
X9894Y7856D01*
X9938Y7922D01*
X9944Y7950D01*
D02*
G37*
G36*
X9700D02*
X9556D01*
X9562Y7922D01*
X9606Y7856D01*
X9672Y7812D01*
X9700Y7806D01*
Y7950D01*
D02*
G37*
G36*
X11144Y6150D02*
X11000D01*
Y6006D01*
X11028Y6012D01*
X11094Y6056D01*
X11138Y6122D01*
X11144Y6150D01*
D02*
G37*
G36*
X10900D02*
X10756D01*
X10762Y6122D01*
X10806Y6056D01*
X10872Y6012D01*
X10900Y6006D01*
Y6150D01*
D02*
G37*
G36*
X12150Y5013D02*
X12088Y5001D01*
X12035Y4965D01*
X12019Y4942D01*
X10850D01*
X10815Y4935D01*
X10785Y4915D01*
X10028Y4158D01*
X10000Y4163D01*
X9938Y4151D01*
X9885Y4115D01*
X9849Y4062D01*
X9837Y4000D01*
X9849Y3938D01*
X9885Y3885D01*
X9938Y3849D01*
X10000Y3837D01*
X10062Y3849D01*
X10115Y3885D01*
X10151Y3938D01*
X10163Y4000D01*
X10158Y4028D01*
X10888Y4758D01*
X12019D01*
X12035Y4735D01*
X12088Y4699D01*
X12150Y4687D01*
X12212Y4699D01*
X12265Y4735D01*
X12301Y4788D01*
X12313Y4850D01*
X12301Y4912D01*
X12265Y4965D01*
X12212Y5001D01*
X12150Y5013D01*
D02*
G37*
G36*
X7733Y4502D02*
Y4358D01*
X7877D01*
X7871Y4386D01*
X7827Y4452D01*
X7761Y4496D01*
X7733Y4502D01*
D02*
G37*
G36*
X7633D02*
X7605Y4496D01*
X7539Y4452D01*
X7495Y4386D01*
X7489Y4358D01*
X7633D01*
Y4502D01*
D02*
G37*
G36*
X7877Y4258D02*
X7733D01*
Y4114D01*
X7761Y4119D01*
X7827Y4164D01*
X7871Y4230D01*
X7877Y4258D01*
D02*
G37*
G36*
X7633D02*
X7489D01*
X7495Y4230D01*
X7539Y4164D01*
X7605Y4119D01*
X7633Y4114D01*
Y4258D01*
D02*
G37*
G36*
X11750Y4144D02*
Y4000D01*
X11894D01*
X11888Y4028D01*
X11844Y4094D01*
X11778Y4138D01*
X11750Y4144D01*
D02*
G37*
G36*
X11650D02*
X11622Y4138D01*
X11556Y4094D01*
X11512Y4028D01*
X11506Y4000D01*
X11650D01*
Y4144D01*
D02*
G37*
G36*
X9650Y4094D02*
Y3950D01*
X9794D01*
X9788Y3978D01*
X9744Y4044D01*
X9678Y4088D01*
X9650Y4094D01*
D02*
G37*
G36*
X9550D02*
X9522Y4088D01*
X9456Y4044D01*
X9412Y3978D01*
X9406Y3950D01*
X9550D01*
Y4094D01*
D02*
G37*
G36*
X11894Y3900D02*
X11750D01*
Y3756D01*
X11778Y3762D01*
X11844Y3806D01*
X11888Y3872D01*
X11894Y3900D01*
D02*
G37*
G36*
X11650D02*
X11506D01*
X11512Y3872D01*
X11556Y3806D01*
X11622Y3762D01*
X11650Y3756D01*
Y3900D01*
D02*
G37*
G36*
X8100Y3894D02*
Y3750D01*
X8244D01*
X8238Y3778D01*
X8194Y3844D01*
X8128Y3888D01*
X8100Y3894D01*
D02*
G37*
G36*
X8000D02*
X7972Y3888D01*
X7906Y3844D01*
X7862Y3778D01*
X7856Y3750D01*
X8000D01*
Y3894D01*
D02*
G37*
G36*
X6800Y4063D02*
X6738Y4051D01*
X6685Y4015D01*
X6669Y3992D01*
X6600D01*
X6565Y3985D01*
X6535Y3965D01*
X6178Y3608D01*
X6150Y3613D01*
X6088Y3601D01*
X6035Y3565D01*
X5999Y3512D01*
X5987Y3450D01*
X5999Y3388D01*
X6035Y3335D01*
X6088Y3299D01*
X6150Y3287D01*
X6212Y3299D01*
X6265Y3335D01*
X6301Y3388D01*
X6313Y3450D01*
X6308Y3478D01*
X6624Y3795D01*
X6681Y3791D01*
X6685Y3785D01*
X6738Y3749D01*
X6800Y3737D01*
X6862Y3749D01*
X6915Y3785D01*
X6951Y3838D01*
X6963Y3900D01*
X6951Y3962D01*
X6915Y4015D01*
X6862Y4051D01*
X6800Y4063D01*
D02*
G37*
G36*
X9794Y3850D02*
X9650D01*
Y3706D01*
X9678Y3712D01*
X9744Y3756D01*
X9788Y3822D01*
X9794Y3850D01*
D02*
G37*
G36*
X9550D02*
X9406D01*
X9412Y3822D01*
X9456Y3756D01*
X9522Y3712D01*
X9550Y3706D01*
Y3850D01*
D02*
G37*
G36*
X8244Y3650D02*
X8100D01*
Y3506D01*
X8128Y3512D01*
X8194Y3556D01*
X8238Y3622D01*
X8244Y3650D01*
D02*
G37*
G36*
X8000D02*
X7856D01*
X7862Y3622D01*
X7906Y3556D01*
X7972Y3512D01*
X8000Y3506D01*
Y3650D01*
D02*
G37*
G36*
X3994Y3900D02*
X3606D01*
X3612Y3872D01*
X3656Y3806D01*
X3708Y3771D01*
Y3496D01*
X3706Y3494D01*
X3662Y3428D01*
X3656Y3400D01*
X4044D01*
X4038Y3428D01*
X3994Y3494D01*
X3928Y3538D01*
X3892Y3546D01*
Y3771D01*
X3944Y3806D01*
X3988Y3872D01*
X3994Y3900D01*
D02*
G37*
G36*
X4044Y3300D02*
X3900D01*
Y3156D01*
X3928Y3162D01*
X3994Y3206D01*
X4038Y3272D01*
X4044Y3300D01*
D02*
G37*
G36*
X3800D02*
X3656D01*
X3662Y3272D01*
X3706Y3206D01*
X3772Y3162D01*
X3800Y3156D01*
Y3300D01*
D02*
G37*
G36*
X9900Y2794D02*
Y2650D01*
X10044D01*
X10038Y2678D01*
X9994Y2744D01*
X9928Y2788D01*
X9900Y2794D01*
D02*
G37*
G36*
X9800D02*
X9772Y2788D01*
X9706Y2744D01*
X9662Y2678D01*
X9656Y2650D01*
X9800D01*
Y2794D01*
D02*
G37*
G36*
X10044Y2550D02*
X9900D01*
Y2406D01*
X9928Y2412D01*
X9994Y2456D01*
X10038Y2522D01*
X10044Y2550D01*
D02*
G37*
G36*
X9800D02*
X9656D01*
X9662Y2522D01*
X9706Y2456D01*
X9772Y2412D01*
X9800Y2406D01*
Y2550D01*
D02*
G37*
G36*
X12900Y9063D02*
X12838Y9051D01*
X12785Y9015D01*
X12749Y8962D01*
X12737Y8900D01*
X12749Y8838D01*
X12785Y8785D01*
X12808Y8769D01*
Y8331D01*
X12785Y8315D01*
X12749Y8262D01*
X12737Y8200D01*
X12749Y8138D01*
X12785Y8085D01*
X12838Y8049D01*
X12900Y8037D01*
X12962Y8049D01*
X13015Y8085D01*
X13051Y8138D01*
X13063Y8200D01*
X13051Y8262D01*
X13015Y8315D01*
X12992Y8331D01*
Y8769D01*
X13015Y8785D01*
X13051Y8838D01*
X13063Y8900D01*
X13051Y8962D01*
X13015Y9015D01*
X12962Y9051D01*
X12900Y9063D01*
D02*
G37*
G36*
X3800Y9194D02*
Y9050D01*
X3944D01*
X3938Y9078D01*
X3894Y9144D01*
X3828Y9188D01*
X3800Y9194D01*
D02*
G37*
G36*
X4150Y9263D02*
X4088Y9251D01*
X4035Y9215D01*
X3999Y9162D01*
X3987Y9100D01*
X3999Y9038D01*
X4035Y8985D01*
X4088Y8949D01*
X4150Y8937D01*
X4212Y8949D01*
X4265Y8985D01*
X4301Y9038D01*
X4313Y9100D01*
X4301Y9162D01*
X4265Y9215D01*
X4212Y9251D01*
X4150Y9263D01*
D02*
G37*
G36*
X4950Y5613D02*
X4888Y5601D01*
X4835Y5565D01*
X4799Y5512D01*
X4787Y5450D01*
X4799Y5388D01*
X4835Y5335D01*
X4888Y5299D01*
X4950Y5287D01*
X5012Y5299D01*
X5065Y5335D01*
X5101Y5388D01*
X5113Y5450D01*
X5101Y5512D01*
X5065Y5565D01*
X5012Y5601D01*
X4950Y5613D01*
D02*
G37*
%LPD*%
D13*
X11669Y9369D02*
X12300Y10000D01*
X11669Y9269D02*
Y9369D01*
X11650Y9250D02*
X11669Y9269D01*
X24350Y5500D02*
Y10750D01*
X23600Y11500D02*
X24350Y10750D01*
X24700Y5150D02*
X26150D01*
X24350Y5500D02*
X24700Y5150D01*
X20703Y1603D02*
X21200D01*
X19386Y286D02*
X20703Y1603D01*
X18064Y286D02*
X19386D01*
X17600Y750D02*
X18064Y286D01*
X7300Y11250D02*
Y12223D01*
X7450Y12373D02*
Y12400D01*
X7300Y12223D02*
X7450Y12373D01*
X13900Y3400D02*
X14550D01*
X14500Y10150D02*
X14893Y10543D01*
X16391D01*
X11300Y8900D02*
X11650Y9250D01*
X11300Y7650D02*
Y8900D01*
X7400Y8000D02*
X7800D01*
X7950Y8150D01*
Y9300D01*
X7010Y9840D02*
X9760D01*
X10000Y9600D01*
X7800Y9450D02*
X7950Y9300D01*
X9800Y1800D02*
X17550D01*
X18600Y750D01*
X9250Y2150D02*
X9450D01*
X9800Y1800D01*
X8950Y2450D02*
X9250Y2150D01*
X4400Y2450D02*
X8950D01*
X4000Y2050D02*
X4400Y2450D01*
X3450Y2050D02*
X4000D01*
X8600Y9450D02*
X8850Y9200D01*
X6100Y8850D02*
X6700Y9450D01*
X7250D02*
X7450Y9250D01*
X6700Y10150D02*
X7010Y9840D01*
X7800Y9450D02*
X8600D01*
X7650D02*
X7800D01*
X7450Y9250D02*
X7650Y9450D01*
X6700D02*
X7250D01*
X6700Y10150D02*
Y10650D01*
X7300Y11250D01*
Y8650D02*
Y8677D01*
X7450Y8827D01*
Y9250D01*
D17*
X8438Y1540D02*
X9044Y934D01*
X5140Y1540D02*
X8438D01*
X2080Y1000D02*
Y8300D01*
X2780Y300D02*
X7900D01*
X2080Y1000D02*
X2780Y300D01*
X2500Y750D02*
X4700D01*
X2200Y1050D02*
X2500Y750D01*
X4700D02*
X5250Y1300D01*
X2200Y1050D02*
Y8250D01*
X2800Y1200D02*
X4500D01*
X2630Y870D02*
X4650D01*
X2500Y1200D02*
X2700Y1000D01*
X2320Y1180D02*
X2630Y870D01*
X2650Y1350D02*
X2800Y1200D01*
X4650Y870D02*
X5200Y1420D01*
X4600Y1000D02*
X5140Y1540D01*
X2700Y1000D02*
X4600D01*
X4500Y1200D02*
X4960Y1660D01*
X2500Y1200D02*
Y4750D01*
X2320Y1180D02*
Y8170D01*
X3260Y3860D02*
X3550Y4150D01*
X3260Y1971D02*
Y3860D01*
X2080Y8300D02*
X2200Y8420D01*
X2010Y9090D02*
X2200Y8900D01*
Y8420D02*
Y8900D01*
Y12200D02*
X4950D01*
X1700Y10500D02*
Y11700D01*
X2200Y12200D01*
X3000Y11550D02*
Y11750D01*
X2800Y11950D02*
X3000Y11750D01*
X3650Y11300D02*
X4550Y10400D01*
X5350D01*
X6173Y12127D02*
X6200Y12100D01*
X6173Y12127D02*
Y12327D01*
X5700Y12800D02*
X6173Y12327D01*
X1500Y12450D02*
X5350D01*
X5690Y12790D02*
X5700Y12800D01*
X5350Y12450D02*
X5690Y12790D01*
X9350Y11050D02*
X9750Y10650D01*
X11150D01*
X11450Y10850D02*
X12075D01*
X12550Y10375D01*
X12750Y9850D02*
Y10900D01*
Y9850D02*
X13100Y9500D01*
Y9850D02*
Y10800D01*
Y9850D02*
X13450Y9500D01*
X23500Y8150D02*
Y8800D01*
X22350Y7000D02*
X23500Y8150D01*
X22350Y5800D02*
Y7000D01*
X24000Y11812D02*
X24050Y11762D01*
Y11750D02*
Y11762D01*
X24000Y11812D02*
Y11850D01*
X24400Y11400D02*
X24600D01*
X24050Y11750D02*
X24400Y11400D01*
X21668Y3068D02*
X21759Y3159D01*
X21200Y3068D02*
X21668D01*
X21200Y3800D02*
X21600D01*
X21759Y3641D01*
Y3159D02*
Y3641D01*
X13550Y11350D02*
X14200Y12000D01*
X19120Y3300D02*
X19200D01*
X19120Y3300D02*
X19120Y3300D01*
X19200D02*
X19921Y2580D01*
X21200D01*
X19250Y3000D02*
X19915Y2335D01*
X21200D01*
X19400Y2500D02*
X19809Y2091D01*
X21200D01*
X19365Y2250D02*
X19767Y1847D01*
X21200D01*
X7900Y300D02*
X8100Y500D01*
X7003Y7958D02*
Y8347D01*
X6280Y8030D02*
X6700Y8450D01*
X6900D01*
X7003Y8347D01*
Y7958D02*
X7282Y7680D01*
X7203Y10497D02*
X7597D01*
X7203Y10103D02*
X7597D01*
X11800Y7980D02*
X11950Y8130D01*
X11900Y8250D02*
X12220D01*
X12170Y8130D02*
X12600Y7700D01*
X11950Y8130D02*
X12170D01*
X12220Y8250D02*
X12802Y7667D01*
X11800Y7750D02*
Y7980D01*
X11500Y7550D02*
Y7850D01*
X11900Y8250D01*
X12150Y300D02*
X12600Y750D01*
X9189Y300D02*
X12150D01*
X9044Y444D02*
X9189Y300D01*
X3850Y3350D02*
Y3388D01*
X3800Y3438D02*
Y3950D01*
Y3438D02*
X3850Y3388D01*
X2800Y11950D02*
Y12000D01*
X1400Y10450D02*
Y11850D01*
X1100Y10420D02*
Y12050D01*
X1700Y10500D02*
X1900Y10300D01*
X1400Y11850D02*
X1870Y12320D01*
X1400Y10450D02*
X1725Y10125D01*
X1870Y12320D02*
X5230D01*
X1100Y10420D02*
X1570Y9950D01*
X1100Y12050D02*
X1500Y12450D01*
X3300Y10500D02*
Y11100D01*
Y10112D02*
Y10500D01*
X3210Y10022D02*
X3300Y10112D01*
X3210Y9640D02*
Y10022D01*
Y9640D02*
X3562Y9288D01*
Y9188D02*
X3750Y9000D01*
X3562Y9188D02*
Y9288D01*
X3400Y9750D02*
X3650Y10000D01*
Y10350D01*
Y9550D02*
X3800Y9700D01*
X2275Y13625D02*
X11675D01*
X6700Y12754D02*
Y13315D01*
Y12754D02*
X6954Y12500D01*
X4200Y13100D02*
X4605Y13505D01*
X11675Y13625D02*
X12200Y13100D01*
X4605Y13505D02*
X6510D01*
X6700Y13315D01*
X850Y12200D02*
X2275Y13625D01*
X5500Y11150D02*
Y11650D01*
X5230Y12320D02*
X5700Y11850D01*
X4950Y12200D02*
X5500Y11650D01*
X2400Y10600D02*
X2925Y10075D01*
X2400Y10600D02*
Y11525D01*
X2425Y11550D01*
X6954Y12500D02*
X7173D01*
X7398Y12725D01*
X7775D02*
X7950Y12550D01*
X7398Y12725D02*
X7775D01*
X7950Y12300D02*
Y12550D01*
X7597Y10497D02*
Y11947D01*
X7950Y12300D01*
X10387Y10013D02*
X10400Y10000D01*
X8487Y10013D02*
X10387D01*
X8200Y10300D02*
X8487Y10013D01*
X9950Y9100D02*
X11460Y10610D01*
X12040D01*
X11550Y10490D02*
X11830D01*
X10040Y8980D02*
X11550Y10490D01*
X9150Y9100D02*
X9950D01*
X9200Y8980D02*
X10040D01*
X8200Y10300D02*
Y13100D01*
X15650Y13400D02*
X15840Y13590D01*
X25720D01*
X18150Y2700D02*
X18750Y3300D01*
X19120D01*
X19050Y3000D02*
X19250D01*
X12802Y7398D02*
Y7667D01*
Y7398D02*
X13650Y6550D01*
X12450Y6850D02*
X12600Y7000D01*
Y7700D01*
X12450Y6000D02*
X13150Y5300D01*
Y4550D02*
Y5300D01*
X13550Y3270D02*
Y4150D01*
X13150Y4550D02*
X13550Y4150D01*
X12250Y5950D02*
Y7750D01*
Y5950D02*
X12900Y5300D01*
X11650Y6500D02*
X12100Y6050D01*
Y5300D02*
Y6050D01*
X9100Y6500D02*
X11650D01*
X12900Y4400D02*
Y5300D01*
Y4400D02*
X13200Y4100D01*
Y3450D02*
X13850Y2800D01*
X13720Y3100D02*
X14581D01*
X13550Y3270D02*
X13720Y3100D01*
X13200Y3450D02*
Y4100D01*
X12550Y8100D02*
X13900Y6750D01*
X14550D01*
X12550Y8100D02*
Y10375D01*
X12450Y6050D02*
Y6850D01*
X13650Y5850D02*
Y6550D01*
X12450Y6000D02*
Y6050D01*
X12450Y6050D01*
X13850Y2800D02*
X14575D01*
X11300Y6950D02*
Y7350D01*
X11500Y7550D01*
X13650Y5850D02*
X13800Y5700D01*
X13350Y6650D02*
X13530Y6470D01*
Y5370D02*
Y6470D01*
Y5370D02*
X13900Y5000D01*
X13800Y5700D02*
X13850D01*
X14200Y5350D01*
Y4750D02*
Y5350D01*
Y4750D02*
X14500Y4450D01*
X13900Y4200D02*
Y5000D01*
X14500Y4450D02*
X15000D01*
X12650Y6650D02*
X13350D01*
X13700Y4500D02*
Y4750D01*
X13400Y5050D02*
X13700Y4750D01*
X16300Y3150D02*
X18150D01*
X15000Y4450D02*
X16300Y3150D01*
X14900Y4100D02*
X16300Y2700D01*
X14000Y4100D02*
X14900D01*
X16300Y2700D02*
X18150D01*
X11350Y2250D02*
X19365D01*
X12850Y2850D02*
X13200Y2500D01*
X19400D01*
X13900Y4200D02*
X14000Y4100D01*
X13128Y6200D02*
X13278Y6350D01*
X12650Y6200D02*
X13128D01*
X13278Y6350D02*
X13300D01*
X14800Y6538D02*
X14900Y6438D01*
Y6400D02*
Y6438D01*
X14800Y6538D02*
Y7600D01*
X15100Y8750D02*
Y9250D01*
X13900Y3750D02*
X14550D01*
X14860Y9960D02*
X14900Y10000D01*
X14400Y9800D02*
X15350D01*
X14190Y10010D02*
X14400Y9800D01*
X14070Y9680D02*
X14400Y9350D01*
X14421Y9960D02*
X14860D01*
X14310Y11210D02*
X16200Y13100D01*
X14310Y10071D02*
Y11210D01*
Y10071D02*
X14421Y9960D01*
X14070Y9680D02*
Y10180D01*
X13100Y11150D02*
X14070Y10180D01*
X14190Y10010D02*
Y10291D01*
X13181Y11300D02*
X14190Y10291D01*
X13000Y11300D02*
X13181D01*
X11200Y13100D02*
X13000Y11300D01*
X12150Y11150D02*
X13100D01*
X10200Y13100D02*
X12150Y11150D01*
X17200Y8850D02*
Y12200D01*
X16650Y12750D02*
X17200Y12200D01*
X17100Y8750D02*
X17200Y8850D01*
X14200Y12000D02*
Y13100D01*
X13300Y8150D02*
X13350Y8200D01*
Y8900D01*
X12900Y8200D02*
Y8900D01*
X11700D02*
X12000D01*
X12200Y9100D01*
X12750Y9250D02*
X13350D01*
X13700Y8900D01*
X14400D02*
X14750Y8550D01*
X13700Y8900D02*
X14400D01*
X14750Y8550D02*
X17300D01*
X15000Y7800D02*
X17700D01*
X14200Y8600D02*
X15000Y7800D01*
X17300Y8550D02*
X17550Y8800D01*
Y9780D01*
X17835Y10065D01*
X17850Y10050D01*
X19900D01*
X21150Y8800D01*
X23500D01*
X9950Y6125D02*
Y6150D01*
X9300Y5475D02*
X9950Y6125D01*
X9300Y5450D02*
Y5475D01*
X10000Y4000D02*
X10850Y4850D01*
X12150D01*
X8850Y5500D02*
Y6250D01*
X9100Y6500D01*
X13200Y11550D02*
X13300Y11450D01*
X13200Y11550D02*
Y13100D01*
X11830Y10490D02*
X11970Y10350D01*
X12100D01*
X12040Y10610D02*
X12050Y10600D01*
X9200Y13100D02*
X11450Y10850D01*
X7282Y7680D02*
X7900D01*
X7850Y7800D02*
X9150Y9100D01*
X7900Y7680D02*
X9200Y8980D01*
X7331Y7800D02*
X7850D01*
X7161Y7971D02*
X7331Y7800D01*
X3800Y9700D02*
X9115D01*
X9150Y9665D01*
Y9650D02*
X9500Y9300D01*
X9150Y9650D02*
Y9665D01*
X7950Y5250D02*
X9100D01*
X9300Y5450D01*
X7700Y5500D02*
Y6200D01*
Y5500D02*
X7950Y5250D01*
X6600Y3900D02*
X6700D01*
X6150Y3450D02*
X6600Y3900D01*
X9250Y1600D02*
X15750D01*
X16600Y750D01*
X8860Y2240D02*
X9250Y1850D01*
X9450Y1800D02*
X9500Y1750D01*
X9250Y1850D02*
X9400D01*
X4590Y2240D02*
X8860D01*
X4960Y1660D02*
X8670D01*
X8730Y2120D02*
X9250Y1600D01*
X8710Y1790D02*
X9150Y1350D01*
X4700Y2120D02*
X8730D01*
X8670Y1660D02*
X9130Y1200D01*
X9044Y444D02*
Y934D01*
X4350Y1400D02*
X4740Y1790D01*
X4750Y2000D02*
X8670D01*
X4740Y1790D02*
X8710D01*
X8670Y2000D02*
X9200Y1470D01*
X4180Y1830D02*
X4590Y2240D01*
X9200Y1470D02*
X14880D01*
X9130Y1200D02*
X13150D01*
X9150Y1350D02*
X14000D01*
X3401Y1830D02*
X4180D01*
X4300Y1550D02*
X4750Y2000D01*
X4290Y1710D02*
X4700Y2120D01*
X5200Y1420D02*
X6100D01*
X5250Y1300D02*
X6050D01*
X2320Y8170D02*
X2760Y8610D01*
X2500Y7515D02*
Y8050D01*
Y7515D02*
X3350Y6665D01*
X2450Y8500D02*
Y8515D01*
X2200Y8250D02*
X2450Y8500D01*
Y8515D02*
X2485Y8550D01*
X2494D01*
X2640Y8696D01*
X3350Y5600D02*
Y6665D01*
X2500Y8050D02*
X2850Y8400D01*
X2010Y9090D02*
Y9316D01*
X2050Y9356D02*
Y9680D01*
X2010Y9316D02*
X2050Y9356D01*
X2015Y9715D02*
X2050Y9680D01*
X1635Y9715D02*
X2015D01*
X1570Y9950D02*
X1950D01*
X800Y10550D02*
Y10850D01*
Y10550D02*
X1635Y9715D01*
X1725Y10125D02*
X2075D01*
X9400Y1850D02*
X9450Y1800D01*
X3020Y4170D02*
X3250Y4400D01*
X3140Y4035D02*
X3385Y4280D01*
X3020Y1780D02*
X3250Y1550D01*
X3260Y1971D02*
X3401Y1830D01*
X3140Y1860D02*
Y4035D01*
X3020Y1780D02*
Y4170D01*
X3140Y1860D02*
X3290Y1710D01*
X3550Y4150D02*
X6250D01*
X6820Y4720D01*
X6580Y4830D02*
Y5478D01*
X6150Y4400D02*
X6580Y4830D01*
X6328Y5730D02*
X6580Y5478D01*
X6700Y4780D02*
Y5620D01*
X6200Y4280D02*
X6700Y4780D01*
X6370Y5950D02*
X6700Y5620D01*
X6820Y4720D02*
Y5880D01*
X6600Y6100D02*
X6820Y5880D01*
X5369Y6960D02*
X5450Y6879D01*
X5585Y6050D02*
X5800D01*
X5450Y6185D02*
X5585Y6050D01*
X5450Y6185D02*
Y6879D01*
X5800Y6450D02*
Y6699D01*
X5774Y6725D02*
X5800Y6699D01*
X5774Y6725D02*
Y6725D01*
X5419Y7080D02*
X5774Y6725D01*
X4020Y7080D02*
X5419D01*
X3840Y6960D02*
X5369D01*
X5469Y7200D02*
X5990Y6679D01*
X6110Y5770D02*
Y6728D01*
X5518Y7320D02*
X6110Y6728D01*
X5990Y5721D02*
Y6679D01*
X4070Y7200D02*
X5469D01*
X4145Y7320D02*
X5518D01*
X3230Y7570D02*
X3840Y6960D01*
X4000Y7100D02*
X4020Y7080D01*
X5600Y7440D02*
X6250Y6790D01*
Y5800D02*
Y6790D01*
X4195Y7440D02*
X5600D01*
X6370Y6620D02*
X6700Y6950D01*
X6250Y5800D02*
X6320Y5730D01*
X6270Y5610D02*
X6278D01*
X6700Y6950D02*
Y7150D01*
X6370Y5950D02*
Y6620D01*
X6320Y5730D02*
X6328D01*
X6150Y7300D02*
X6250D01*
X6500Y7050D01*
X6278Y5610D02*
X6460Y5428D01*
X6110Y5770D02*
X6270Y5610D01*
X4010Y7220D02*
X4050D01*
X4100Y7535D02*
X4195Y7440D01*
X4050Y7220D02*
X4070Y7200D01*
X4125Y7340D02*
X4145Y7320D01*
X4100Y7535D02*
Y8150D01*
X4060Y7340D02*
X4125D01*
X3550Y7680D02*
Y8650D01*
X3230Y7570D02*
Y8385D01*
X3550Y7680D02*
X4010Y7220D01*
X3360Y7610D02*
X3870Y7100D01*
X6340Y5090D02*
Y5379D01*
X3850Y7550D02*
X4060Y7340D01*
X3870Y7100D02*
X4000D01*
X3850Y7550D02*
Y8250D01*
X3550Y8650D02*
X3650Y8750D01*
X3240Y8395D02*
Y9241D01*
X3230Y8385D02*
X3240Y8395D01*
X3050Y9601D02*
X3360Y9291D01*
Y7610D02*
Y9291D01*
X2925Y9556D02*
X3240Y9241D01*
X3650Y8750D02*
X5050D01*
X4100Y8150D02*
X4380Y8430D01*
X3850Y8250D02*
X4150Y8550D01*
X4380Y8430D02*
X5730D01*
X4150Y8550D02*
X5450D01*
X5730Y8430D02*
X5750Y8450D01*
X3050Y7200D02*
X3425Y6825D01*
X3050Y7200D02*
Y9150D01*
X3425Y6825D02*
X4275D01*
X4650Y6450D01*
X3050Y9601D02*
Y10600D01*
X2925Y9556D02*
Y10075D01*
X2760Y9060D02*
X2800Y9100D01*
Y9900D01*
X2400Y10300D02*
X2800Y9900D01*
X2760Y8610D02*
Y9060D01*
X1900Y10300D02*
X2400D01*
X2900Y10750D02*
X3050Y10600D01*
X2900Y11000D02*
X3600Y11650D01*
X2900Y10750D02*
Y11000D01*
X8150Y1200D02*
X8600Y750D01*
X6320Y1200D02*
X8150D01*
X3290Y1710D02*
X4290D01*
X3385Y4280D02*
X6200D01*
X2850Y4750D02*
X5125D01*
X2650Y4550D02*
X2850Y4750D01*
X3100Y4550D02*
X5970D01*
X6150Y4900D02*
X6340Y5090D01*
X5970Y4550D02*
X6460Y5040D01*
X3250Y4400D02*
X6150D01*
X5125Y4750D02*
X5275Y4900D01*
X6150D01*
X2850Y4300D02*
X3100Y4550D01*
X4300Y5000D02*
X5000D01*
X4150Y5150D02*
Y5350D01*
Y5150D02*
X4300Y5000D01*
X5000D02*
X5300Y5300D01*
X6150D01*
X6229Y5490D02*
X6340Y5379D01*
X6460Y5040D02*
Y5428D01*
X6450Y7400D02*
Y7750D01*
Y7400D02*
X6700Y7150D01*
X6200Y8150D02*
X6650Y8600D01*
X6950D01*
X5650Y8150D02*
X6200D01*
X6950Y8600D02*
X7161Y8389D01*
X5959Y7900D02*
X6089Y8030D01*
X6280D01*
X5950Y7900D02*
X5959D01*
X7161Y7971D02*
Y8389D01*
X2650Y1350D02*
Y4550D01*
X5990Y5721D02*
X6221Y5490D01*
X6229D01*
X14880Y1470D02*
X15600Y750D01*
X14000Y1350D02*
X14600Y750D01*
X13150Y1200D02*
X13600Y750D01*
X3250Y1550D02*
X4300D01*
X4650Y5850D02*
Y6450D01*
X5450Y8550D02*
X5700Y8800D01*
X5813D01*
X2950Y1400D02*
X4350D01*
X2850Y1500D02*
X2950Y1400D01*
X2850Y1500D02*
Y4300D01*
X5813Y8800D02*
X6113Y8500D01*
X6100Y1420D02*
X6320Y1200D01*
X6050Y1300D02*
X6600Y750D01*
X2500Y4750D02*
X3350Y5600D01*
X4150Y5350D02*
X4650Y5850D01*
X2640Y8696D02*
Y8868D01*
X2600Y8908D02*
X2640Y8868D01*
X2600Y8908D02*
Y9650D01*
X16650Y12750D02*
Y13400D01*
X25720Y13590D02*
X26650Y12660D01*
Y10650D02*
Y12660D01*
X850Y11650D02*
Y12200D01*
X26600Y10600D02*
X26650Y10650D01*
X6200Y13100D02*
X6200D01*
X2075Y10125D02*
X2400Y9800D01*
X2450Y8775D02*
Y8800D01*
X2400Y8850D02*
X2450Y8800D01*
X2400Y8850D02*
Y9800D01*
X2200Y9200D02*
Y9700D01*
X1950Y9950D02*
X2200Y9700D01*
D95*
X11650Y10250D02*
D03*
X10750Y10450D02*
D03*
X11700Y3950D02*
D03*
X3800D02*
D03*
X2800Y11950D02*
D03*
X3000Y11550D02*
D03*
X3300Y11100D02*
D03*
X2425Y11550D02*
D03*
X16450Y11100D02*
D03*
X2600Y5250D02*
D03*
X10950Y6200D02*
D03*
X9850Y2600D02*
D03*
X3300Y10500D02*
D03*
X3750Y9000D02*
D03*
X650Y12000D02*
D03*
X22350Y5800D02*
D03*
X12250Y7750D02*
D03*
X11800D02*
D03*
X14581Y3100D02*
D03*
X14575Y2800D02*
D03*
X11300Y6950D02*
D03*
X18150Y3150D02*
D03*
X19050Y3000D02*
D03*
X12650Y6650D02*
D03*
X11350Y2250D02*
D03*
X12850Y2850D02*
D03*
X14900Y6400D02*
D03*
X14800Y7600D02*
D03*
X15100Y8750D02*
D03*
Y9250D02*
D03*
X13400Y5050D02*
D03*
X13700Y4500D02*
D03*
X13900Y3750D02*
D03*
X14900Y10000D02*
D03*
X12650Y6200D02*
D03*
X13300Y6350D02*
D03*
Y8150D02*
D03*
X13350Y8900D02*
D03*
X13450Y9500D02*
D03*
X12900Y8200D02*
D03*
Y8900D02*
D03*
X13100Y9500D02*
D03*
X11700Y8900D02*
D03*
X12200Y9100D02*
D03*
X12750Y9250D02*
D03*
X14550Y3400D02*
D03*
X13900D02*
D03*
X12300Y10000D02*
D03*
X14500Y10150D02*
D03*
X16391Y10543D02*
D03*
X14400Y9350D02*
D03*
X14550Y3750D02*
D03*
X14200Y8600D02*
D03*
X17700Y7800D02*
D03*
X14550Y6750D02*
D03*
X23500Y8800D02*
D03*
X10000Y4000D02*
D03*
X12150Y4850D02*
D03*
X12100Y5300D02*
D03*
X9950Y6150D02*
D03*
X13100Y10800D02*
D03*
X12750Y10900D02*
D03*
X13600Y11350D02*
D03*
X13300Y11450D02*
D03*
X26150Y5150D02*
D03*
X23600Y11500D02*
D03*
X24000Y11850D02*
D03*
X24600Y11400D02*
D03*
X12200Y10350D02*
D03*
X12050Y10600D02*
D03*
X11650Y9250D02*
D03*
X11300Y7650D02*
D03*
X11150Y10650D02*
D03*
X9750Y8000D02*
D03*
X9600Y3900D02*
D03*
X8850Y5500D02*
D03*
X9300Y5450D02*
D03*
X7700Y6200D02*
D03*
X7683Y4308D02*
D03*
X6800Y3900D02*
D03*
X6150Y3450D02*
D03*
X8050Y3700D02*
D03*
X8100Y500D02*
D03*
X800Y10850D02*
D03*
X9450Y1800D02*
D03*
X6600Y6100D02*
D03*
X5800Y6450D02*
D03*
X2850Y8400D02*
D03*
X15650Y13400D02*
D03*
X5700Y12800D02*
D03*
X850Y11650D02*
D03*
X5800Y6050D02*
D03*
X6150Y5300D02*
D03*
X3050Y9150D02*
D03*
X15350Y9800D02*
D03*
X16300Y10250D02*
D03*
X10400Y10000D02*
D03*
X10000Y9600D02*
D03*
X17100Y8750D02*
D03*
X16650Y13400D02*
D03*
X26600Y10600D02*
D03*
X8850Y9200D02*
D03*
X7450Y12400D02*
D03*
X9350Y11050D02*
D03*
X4950Y5450D02*
D03*
X2600Y9650D02*
D03*
X2450Y8775D02*
D03*
X3850Y3350D02*
D03*
X3450Y2050D02*
D03*
X2200Y9200D02*
D03*
X3650Y9550D02*
D03*
X4150Y9100D02*
D03*
X5050Y8750D02*
D03*
X5750Y8450D02*
D03*
X6113Y8500D02*
D03*
X5650Y8150D02*
D03*
X5950Y7900D02*
D03*
X6450Y7750D02*
D03*
X6050Y7300D02*
D03*
X6500Y7050D02*
D03*
X6100Y8850D02*
D03*
X7300Y8650D02*
D03*
X7400Y8000D02*
D03*
X9500Y9300D02*
D03*
X3600Y11650D02*
D03*
X5500Y11150D02*
D03*
X3650Y11300D02*
D03*
Y10350D02*
D03*
X3400Y9750D02*
D03*
X5350Y10400D02*
D03*
X6200Y12100D02*
D03*
X5700Y11850D02*
D03*
D96*
X18600Y750D02*
D03*
X17600D02*
D03*
X16600D02*
D03*
X15600D02*
D03*
X14600D02*
D03*
X13600D02*
D03*
X12600D02*
D03*
X11600D02*
D03*
X10600D02*
D03*
X9600D02*
D03*
X8600D02*
D03*
X7600D02*
D03*
X6600D02*
D03*
D97*
X5600D02*
D03*
D98*
X19172Y4410D02*
D03*
Y1969D02*
D03*
D99*
X2850Y6150D02*
D03*
D100*
X3850D02*
D03*
D101*
X20200Y13100D02*
D03*
D102*
X19200D02*
D03*
X18200D02*
D03*
X17200D02*
D03*
X16200D02*
D03*
X15200D02*
D03*
X14200D02*
D03*
X13200D02*
D03*
X12200D02*
D03*
X11200D02*
D03*
X10200D02*
D03*
X9200D02*
D03*
X8200D02*
D03*
X7200D02*
D03*
X6200D02*
D03*
X5200D02*
D03*
X4200D02*
D03*
X3200D02*
D03*
D103*
X18300Y9150D02*
D03*
Y11150D02*
D03*
D104*
X25666Y8673D02*
D03*
Y6327D02*
D03*
D105*
X27103Y9201D02*
D03*
Y5799D02*
D03*
D106*
X25457Y9201D02*
D03*
Y5799D02*
D03*
D107*
X591Y591D02*
D03*
X26969Y13189D02*
D03*
Y591D02*
D03*
X591Y13189D02*
D03*
D108*
X7203Y10103D02*
D03*
Y10497D02*
D03*
X7597Y10103D02*
D03*
Y10497D02*
D03*
D109*
X21200Y1603D02*
D03*
X21200Y1847D02*
D03*
X21200Y2091D02*
D03*
X21200Y2335D02*
D03*
Y2580D02*
D03*
X21200Y2824D02*
D03*
Y3068D02*
D03*
Y3312D02*
D03*
Y3556D02*
D03*
Y3800D02*
D03*
Y4044D02*
D03*
Y4288D02*
D03*
Y4532D02*
D03*
X21200Y4776D02*
D03*
M02*
