G04*
G04 #@! TF.GenerationSoftware,Altium Limited,Altium Designer,21.8.1 (53)*
G04*
G04 Layer_Color=8388736*
%FSLAX24Y24*%
%MOIN*%
G70*
G04*
G04 #@! TF.SameCoordinates,E0417417-2892-4B46-94DD-8EEE6E3CFD50*
G04*
G04*
G04 #@! TF.FilePolarity,Negative*
G04*
G01*
G75*
%ADD53O,0.0789X0.0316*%
G04:AMPARAMS|DCode=54|XSize=28mil|YSize=28mil|CornerRadius=9mil|HoleSize=0mil|Usage=FLASHONLY|Rotation=90.000|XOffset=0mil|YOffset=0mil|HoleType=Round|Shape=RoundedRectangle|*
%AMROUNDEDRECTD54*
21,1,0.0280,0.0100,0,0,90.0*
21,1,0.0100,0.0280,0,0,90.0*
1,1,0.0180,0.0050,0.0050*
1,1,0.0180,0.0050,-0.0050*
1,1,0.0180,-0.0050,-0.0050*
1,1,0.0180,-0.0050,0.0050*
%
%ADD54ROUNDEDRECTD54*%
%ADD55R,0.0296X0.0276*%
%ADD56R,0.0973X0.0753*%
%ADD57O,0.0304X0.0848*%
%ADD58R,0.0513X0.0316*%
%ADD59R,0.0276X0.0296*%
%ADD60R,0.0257X0.0198*%
%ADD61R,0.0198X0.0257*%
%ADD62R,0.1095X0.1095*%
%ADD63O,0.0316X0.0150*%
%ADD64O,0.0150X0.0316*%
%ADD65R,0.0631X0.0552*%
%ADD66R,0.1576X0.1576*%
%ADD67R,0.0342X0.0159*%
%ADD68R,0.0159X0.0342*%
G04:AMPARAMS|DCode=69|XSize=28mil|YSize=28mil|CornerRadius=9mil|HoleSize=0mil|Usage=FLASHONLY|Rotation=180.000|XOffset=0mil|YOffset=0mil|HoleType=Round|Shape=RoundedRectangle|*
%AMROUNDEDRECTD69*
21,1,0.0280,0.0100,0,0,180.0*
21,1,0.0100,0.0280,0,0,180.0*
1,1,0.0180,-0.0050,0.0050*
1,1,0.0180,0.0050,0.0050*
1,1,0.0180,0.0050,-0.0050*
1,1,0.0180,-0.0050,-0.0050*
%
%ADD69ROUNDEDRECTD69*%
%ADD70R,0.0446X0.0466*%
%ADD71R,0.1064X0.0867*%
%ADD72R,0.0572X0.0198*%
%ADD73R,0.0356X0.0572*%
%ADD74R,0.0671X0.0474*%
%ADD75R,0.1001X0.1497*%
%ADD76R,0.1001X0.0466*%
%ADD77R,0.0606X0.0654*%
%ADD78R,0.0572X0.0356*%
%ADD79R,0.0651X0.0316*%
%ADD80R,0.0651X0.0198*%
%ADD81O,0.0966X0.0328*%
%ADD82C,0.0789*%
%ADD83R,0.0789X0.0789*%
%ADD84C,0.0395*%
%ADD85R,0.0867X0.0867*%
%ADD86C,0.0867*%
%ADD87R,0.0710X0.0710*%
%ADD88C,0.0710*%
%ADD89C,0.0880*%
%ADD90C,0.0356*%
%ADD91O,0.0710X0.0474*%
%ADD92O,0.0907X0.0474*%
%ADD93C,0.0280*%
%ADD94C,0.0671*%
D53*
X22847Y8500D02*
D03*
X22847Y9000D02*
D03*
X22847Y9500D02*
D03*
Y10000D02*
D03*
X22847Y10500D02*
D03*
X22847Y11000D02*
D03*
X22847Y11500D02*
D03*
X22847Y12000D02*
D03*
X20800Y8500D02*
D03*
X20800Y9000D02*
D03*
X20800Y9500D02*
D03*
Y10000D02*
D03*
Y10500D02*
D03*
Y11000D02*
D03*
X20800Y11500D02*
D03*
X20800Y12000D02*
D03*
D54*
X5450Y5750D02*
D03*
X5850D02*
D03*
X5450Y4850D02*
D03*
X5850D02*
D03*
X5450Y5300D02*
D03*
X5850D02*
D03*
X12550Y5000D02*
D03*
X12950D02*
D03*
X12550Y5400D02*
D03*
X12950D02*
D03*
X12250Y5800D02*
D03*
X12650D02*
D03*
D55*
X9500Y4333D02*
D03*
Y4667D02*
D03*
X8750Y5865D02*
D03*
Y6200D02*
D03*
X4000Y1750D02*
D03*
Y1415D02*
D03*
X4650Y1750D02*
D03*
Y1415D02*
D03*
X8350Y3033D02*
D03*
Y3367D02*
D03*
X9050Y3400D02*
D03*
Y3065D02*
D03*
X9650Y3400D02*
D03*
Y3065D02*
D03*
X10250D02*
D03*
Y3400D02*
D03*
X12050Y2250D02*
D03*
Y1915D02*
D03*
X10750D02*
D03*
Y2250D02*
D03*
X10850Y3065D02*
D03*
Y3400D02*
D03*
X11450Y3065D02*
D03*
Y3400D02*
D03*
X12050Y3065D02*
D03*
Y3400D02*
D03*
X9400Y5865D02*
D03*
Y6200D02*
D03*
X4800Y6600D02*
D03*
Y6265D02*
D03*
X5350Y6600D02*
D03*
Y6265D02*
D03*
X2550Y8050D02*
D03*
Y7715D02*
D03*
X5000Y7815D02*
D03*
Y8150D02*
D03*
X5300Y12200D02*
D03*
Y11865D02*
D03*
X7000Y6915D02*
D03*
Y7250D02*
D03*
X7600Y6915D02*
D03*
Y7250D02*
D03*
X8250Y7250D02*
D03*
X8250Y6915D02*
D03*
X8900Y6915D02*
D03*
X8900Y7250D02*
D03*
X9450D02*
D03*
Y6915D02*
D03*
X10250D02*
D03*
Y7250D02*
D03*
X10900Y6915D02*
D03*
Y7250D02*
D03*
X12550Y4317D02*
D03*
Y3983D02*
D03*
X10150Y8183D02*
D03*
Y8517D02*
D03*
X10750Y8183D02*
D03*
Y8517D02*
D03*
X11350Y8183D02*
D03*
Y8517D02*
D03*
X16750Y10150D02*
D03*
Y9815D02*
D03*
X19550Y8367D02*
D03*
Y8033D02*
D03*
X19550Y9015D02*
D03*
Y9350D02*
D03*
Y10000D02*
D03*
Y10335D02*
D03*
X21900Y2950D02*
D03*
Y2615D02*
D03*
X24000Y12250D02*
D03*
Y12585D02*
D03*
X24000Y10817D02*
D03*
Y10483D02*
D03*
D56*
X950Y8773D02*
D03*
Y5127D02*
D03*
D57*
X4700Y4915D02*
D03*
X4200D02*
D03*
X3700D02*
D03*
X3200D02*
D03*
X4700Y2785D02*
D03*
X4200D02*
D03*
X3700D02*
D03*
X3200D02*
D03*
D58*
X8116Y5784D02*
D03*
Y5292D02*
D03*
Y4800D02*
D03*
Y4308D02*
D03*
X7250D02*
D03*
Y4800D02*
D03*
Y5292D02*
D03*
Y5784D02*
D03*
D59*
X7415Y3700D02*
D03*
X7750D02*
D03*
X10933Y9250D02*
D03*
X11267D02*
D03*
X11267Y9850D02*
D03*
X10933D02*
D03*
X20983Y5000D02*
D03*
X21317D02*
D03*
X20983Y5600D02*
D03*
X21317D02*
D03*
X16815Y5350D02*
D03*
X17150D02*
D03*
X16865Y7650D02*
D03*
X17200D02*
D03*
X16865Y8250D02*
D03*
X17200D02*
D03*
X16715Y9200D02*
D03*
X17050D02*
D03*
X17100Y10700D02*
D03*
X16765D02*
D03*
X19850Y11000D02*
D03*
X19515D02*
D03*
X26550Y3850D02*
D03*
X26885D02*
D03*
X26885Y4500D02*
D03*
X26550Y4500D02*
D03*
X21917Y7100D02*
D03*
X21583D02*
D03*
X21917Y6450D02*
D03*
X21583D02*
D03*
X23465Y7350D02*
D03*
X23800D02*
D03*
X23465Y8000D02*
D03*
X23800D02*
D03*
D60*
X6848Y2405D02*
D03*
Y2602D02*
D03*
Y2799D02*
D03*
X6848Y2996D02*
D03*
X7852D02*
D03*
X7852Y2799D02*
D03*
Y2602D02*
D03*
Y2405D02*
D03*
D61*
X7055Y3202D02*
D03*
X7252Y3202D02*
D03*
X7448D02*
D03*
X7645Y3202D02*
D03*
X7646Y2198D02*
D03*
X7449Y2198D02*
D03*
X7252D02*
D03*
X7055D02*
D03*
D62*
X10913Y5048D02*
D03*
D63*
X11700Y5541D02*
D03*
Y5344D02*
D03*
Y5147D02*
D03*
X11700Y4950D02*
D03*
Y4753D02*
D03*
Y4556D02*
D03*
X10125D02*
D03*
Y4753D02*
D03*
Y4950D02*
D03*
Y5147D02*
D03*
Y5344D02*
D03*
Y5541D02*
D03*
D64*
X11405Y4261D02*
D03*
X11208D02*
D03*
X11011D02*
D03*
X10814D02*
D03*
X10617D02*
D03*
X10420D02*
D03*
Y5836D02*
D03*
X10617D02*
D03*
X10814D02*
D03*
X11011Y5836D02*
D03*
X11208D02*
D03*
X11405D02*
D03*
D65*
X3417Y8145D02*
D03*
X4283Y8145D02*
D03*
X4283Y7456D02*
D03*
X3417D02*
D03*
D66*
X7400Y10300D02*
D03*
D67*
X8545Y9434D02*
D03*
X8545Y9591D02*
D03*
Y9749D02*
D03*
Y9906D02*
D03*
Y10064D02*
D03*
X8545Y10221D02*
D03*
X8545Y10379D02*
D03*
Y10536D02*
D03*
Y10694D02*
D03*
Y10851D02*
D03*
Y11009D02*
D03*
X8545Y11166D02*
D03*
X6255Y11166D02*
D03*
Y11009D02*
D03*
Y10851D02*
D03*
Y10694D02*
D03*
Y10536D02*
D03*
Y10379D02*
D03*
Y10221D02*
D03*
Y10064D02*
D03*
Y9906D02*
D03*
Y9749D02*
D03*
Y9591D02*
D03*
Y9434D02*
D03*
D68*
X8266Y11445D02*
D03*
X8109Y11445D02*
D03*
X7951D02*
D03*
X7794D02*
D03*
X7636D02*
D03*
X7479D02*
D03*
X7321Y11445D02*
D03*
X7164Y11445D02*
D03*
X7006D02*
D03*
X6849D02*
D03*
X6691D02*
D03*
X6534Y11445D02*
D03*
X6534Y9155D02*
D03*
X6691D02*
D03*
X6849D02*
D03*
X7006D02*
D03*
X7164D02*
D03*
X7321D02*
D03*
X7479D02*
D03*
X7636D02*
D03*
X7794D02*
D03*
X7951D02*
D03*
X8109D02*
D03*
X8266D02*
D03*
D69*
X11800Y7000D02*
D03*
Y7400D02*
D03*
X12250Y7400D02*
D03*
Y7000D02*
D03*
D70*
X19194Y4950D02*
D03*
X19800D02*
D03*
Y5700D02*
D03*
X19194D02*
D03*
D71*
X14850Y5350D02*
D03*
X14850Y11208D02*
D03*
D72*
X15864Y6015D02*
D03*
Y6212D02*
D03*
Y6409D02*
D03*
Y6606D02*
D03*
X15864Y6803D02*
D03*
Y7000D02*
D03*
Y7196D02*
D03*
Y7393D02*
D03*
Y7590D02*
D03*
Y7787D02*
D03*
Y7984D02*
D03*
Y8181D02*
D03*
Y8378D02*
D03*
Y8574D02*
D03*
Y8771D02*
D03*
Y8968D02*
D03*
Y9165D02*
D03*
Y9362D02*
D03*
Y9559D02*
D03*
Y9756D02*
D03*
Y9952D02*
D03*
Y10149D02*
D03*
Y10346D02*
D03*
Y10543D02*
D03*
D73*
X17200Y6008D02*
D03*
X16826Y6992D02*
D03*
X17574D02*
D03*
D74*
X25605Y1250D02*
D03*
X22495D02*
D03*
D75*
X23251Y3790D02*
D03*
D76*
X25510Y4696D02*
D03*
Y3790D02*
D03*
Y2885D02*
D03*
D77*
X22850Y6450D02*
D03*
X23750D02*
D03*
D78*
X24908Y12674D02*
D03*
X24908Y11926D02*
D03*
X25892Y12300D02*
D03*
X24908Y10874D02*
D03*
Y10126D02*
D03*
X25892Y10500D02*
D03*
D79*
X25097Y8768D02*
D03*
Y8465D02*
D03*
Y6535D02*
D03*
Y6230D02*
D03*
D80*
Y8189D02*
D03*
Y7992D02*
D03*
Y7795D02*
D03*
Y7598D02*
D03*
Y7402D02*
D03*
Y7205D02*
D03*
X25103Y7004D02*
D03*
X25097Y6811D02*
D03*
D81*
X1720Y11850D02*
D03*
Y11350D02*
D03*
Y10850D02*
D03*
Y10350D02*
D03*
X4500Y11850D02*
D03*
Y11350D02*
D03*
Y10850D02*
D03*
Y10350D02*
D03*
D82*
X18600Y750D02*
D03*
X17600D02*
D03*
X16600D02*
D03*
X15600D02*
D03*
X14600D02*
D03*
X13600D02*
D03*
X12600D02*
D03*
X11600D02*
D03*
X10600D02*
D03*
X9600D02*
D03*
X8600D02*
D03*
X7600D02*
D03*
X6600D02*
D03*
D83*
X5600D02*
D03*
D84*
X19172Y4410D02*
D03*
Y1969D02*
D03*
D85*
X2850Y6150D02*
D03*
D86*
X3850D02*
D03*
D87*
X20200Y13100D02*
D03*
D88*
X19200D02*
D03*
X18200D02*
D03*
X17200D02*
D03*
X16200D02*
D03*
X15200D02*
D03*
X14200D02*
D03*
X13200D02*
D03*
X12200D02*
D03*
X11200D02*
D03*
X10200D02*
D03*
X9200D02*
D03*
X8200D02*
D03*
X7200D02*
D03*
X6200D02*
D03*
X5200D02*
D03*
X4200D02*
D03*
X3200D02*
D03*
D89*
X18300Y9150D02*
D03*
Y11150D02*
D03*
D90*
X25666Y8673D02*
D03*
Y6327D02*
D03*
D91*
X27103Y9201D02*
D03*
Y5799D02*
D03*
D92*
X25457Y9201D02*
D03*
Y5799D02*
D03*
D93*
X3800Y3950D02*
D03*
D94*
X591Y591D02*
D03*
X26969Y13189D02*
D03*
Y591D02*
D03*
X591Y13189D02*
D03*
M02*
