G04*
G04 #@! TF.GenerationSoftware,Altium Limited,Altium Designer,21.8.1 (53)*
G04*
G04 Layer_Color=128*
%FSLAX24Y24*%
%MOIN*%
G70*
G04*
G04 #@! TF.SameCoordinates,E0417417-2892-4B46-94DD-8EEE6E3CFD50*
G04*
G04*
G04 #@! TF.FilePolarity,Positive*
G04*
G01*
G75*
%ADD111C,0.0020*%
D111*
X11590Y10250D02*
X11710D01*
X11650Y10190D02*
Y10310D01*
X18383Y750D02*
X18817D01*
X18600Y533D02*
Y967D01*
X17383Y750D02*
X17817D01*
X17600Y533D02*
Y967D01*
X16383Y750D02*
X16817D01*
X16600Y533D02*
Y967D01*
X15383Y750D02*
X15817D01*
X15600Y533D02*
Y967D01*
X14383Y750D02*
X14817D01*
X14600Y533D02*
Y967D01*
X13383Y750D02*
X13817D01*
X13600Y533D02*
Y967D01*
X12383Y750D02*
X12817D01*
X12600Y533D02*
Y967D01*
X11383Y750D02*
X11817D01*
X11600Y533D02*
Y967D01*
X10383Y750D02*
X10817D01*
X10600Y533D02*
Y967D01*
X9383Y750D02*
X9817D01*
X9600Y533D02*
Y967D01*
X8383Y750D02*
X8817D01*
X8600Y533D02*
Y967D01*
X7383Y750D02*
X7817D01*
X7600Y533D02*
Y967D01*
X6383Y750D02*
X6817D01*
X6600Y533D02*
Y967D01*
X5383Y750D02*
X5817D01*
X5600Y533D02*
Y967D01*
X19015Y4410D02*
X19330D01*
X19172Y4253D02*
Y4568D01*
X19015Y1969D02*
X19330D01*
X19172Y1812D02*
Y2127D01*
X2614Y6150D02*
X3086D01*
X2850Y5914D02*
Y6386D01*
X3614Y6150D02*
X4086D01*
X3850Y5914D02*
Y6386D01*
X19993Y13100D02*
X20407D01*
X20200Y12893D02*
Y13307D01*
X18993Y13100D02*
X19407D01*
X19200Y12893D02*
Y13307D01*
X17993Y13100D02*
X18407D01*
X18200Y12893D02*
Y13307D01*
X16993Y13100D02*
X17407D01*
X17200Y12893D02*
Y13307D01*
X15993Y13100D02*
X16407D01*
X16200Y12893D02*
Y13307D01*
X14993Y13100D02*
X15407D01*
X15200Y12893D02*
Y13307D01*
X13993Y13100D02*
X14407D01*
X14200Y12893D02*
Y13307D01*
X12993Y13100D02*
X13407D01*
X13200Y12893D02*
Y13307D01*
X11993Y13100D02*
X12407D01*
X12200Y12893D02*
Y13307D01*
X10993Y13100D02*
X11407D01*
X11200Y12893D02*
Y13307D01*
X9993Y13100D02*
X10407D01*
X10200Y12893D02*
Y13307D01*
X8993Y13100D02*
X9407D01*
X9200Y12893D02*
Y13307D01*
X7993Y13100D02*
X8407D01*
X8200Y12893D02*
Y13307D01*
X6993Y13100D02*
X7407D01*
X7200Y12893D02*
Y13307D01*
X5993Y13100D02*
X6407D01*
X6200Y12893D02*
Y13307D01*
X4993Y13100D02*
X5407D01*
X5200Y12893D02*
Y13307D01*
X3993Y13100D02*
X4407D01*
X4200Y12893D02*
Y13307D01*
X2993Y13100D02*
X3407D01*
X3200Y12893D02*
Y13307D01*
X18035Y9150D02*
X18565D01*
X18300Y8885D02*
Y9415D01*
X18035Y11150D02*
X18565D01*
X18300Y10885D02*
Y11415D01*
X25528Y8673D02*
X25804D01*
X25666Y8535D02*
Y8811D01*
X25528Y6327D02*
X25804D01*
X25666Y6189D02*
Y6465D01*
X26985Y9201D02*
X27221D01*
X27103Y9083D02*
Y9319D01*
X26985Y5799D02*
X27221D01*
X27103Y5681D02*
Y5917D01*
X25339Y9201D02*
X25575D01*
X25457Y9083D02*
Y9319D01*
X25339Y5799D02*
X25575D01*
X25457Y5681D02*
Y5917D01*
X10690Y10450D02*
X10810D01*
X10750Y10390D02*
Y10510D01*
X11640Y3950D02*
X11760D01*
X11700Y3890D02*
Y4010D01*
X3740Y3950D02*
X3860D01*
X3800Y3890D02*
Y4010D01*
X2740Y11950D02*
X2860D01*
X2800Y11890D02*
Y12010D01*
X2940Y11550D02*
X3060D01*
X3000Y11490D02*
Y11610D01*
X3240Y11100D02*
X3360D01*
X3300Y11040D02*
Y11160D01*
X2365Y11550D02*
X2485D01*
X2425Y11490D02*
Y11610D01*
X16390Y11100D02*
X16510D01*
X16450Y11040D02*
Y11160D01*
X2540Y5250D02*
X2660D01*
X2600Y5190D02*
Y5310D01*
X10890Y6200D02*
X11010D01*
X10950Y6140D02*
Y6260D01*
X9790Y2600D02*
X9910D01*
X9850Y2540D02*
Y2660D01*
X3240Y10500D02*
X3360D01*
X3300Y10440D02*
Y10560D01*
X3690Y9000D02*
X3810D01*
X3750Y8940D02*
Y9060D01*
X590Y12000D02*
X710D01*
X650Y11940D02*
Y12060D01*
X394Y591D02*
X787D01*
X591Y394D02*
Y787D01*
X26772Y13189D02*
X27165D01*
X26969Y12992D02*
Y13386D01*
X26772Y591D02*
X27165D01*
X26969Y394D02*
Y787D01*
X394Y13189D02*
X787D01*
X591Y12992D02*
Y13386D01*
X22290Y5800D02*
X22410D01*
X22350Y5740D02*
Y5860D01*
X12190Y7750D02*
X12310D01*
X12250Y7690D02*
Y7810D01*
X11740Y7750D02*
X11860D01*
X11800Y7690D02*
Y7810D01*
X14521Y3100D02*
X14641D01*
X14581Y3040D02*
Y3160D01*
X14515Y2800D02*
X14635D01*
X14575Y2740D02*
Y2860D01*
X11240Y6950D02*
X11360D01*
X11300Y6890D02*
Y7010D01*
X18090Y3150D02*
X18210D01*
X18150Y3090D02*
Y3210D01*
X18990Y3000D02*
X19110D01*
X19050Y2940D02*
Y3060D01*
X12590Y6650D02*
X12710D01*
X12650Y6590D02*
Y6710D01*
X11290Y2250D02*
X11410D01*
X11350Y2190D02*
Y2310D01*
X12790Y2850D02*
X12910D01*
X12850Y2790D02*
Y2910D01*
X14840Y6400D02*
X14960D01*
X14900Y6340D02*
Y6460D01*
X14740Y7600D02*
X14860D01*
X14800Y7540D02*
Y7660D01*
X15040Y8750D02*
X15160D01*
X15100Y8690D02*
Y8810D01*
X15040Y9250D02*
X15160D01*
X15100Y9190D02*
Y9310D01*
X13340Y5050D02*
X13460D01*
X13400Y4990D02*
Y5110D01*
X13640Y4500D02*
X13760D01*
X13700Y4440D02*
Y4560D01*
X13840Y3750D02*
X13960D01*
X13900Y3690D02*
Y3810D01*
X14840Y10000D02*
X14960D01*
X14900Y9940D02*
Y10060D01*
X12590Y6200D02*
X12710D01*
X12650Y6140D02*
Y6260D01*
X13240Y6350D02*
X13360D01*
X13300Y6290D02*
Y6410D01*
X13240Y8150D02*
X13360D01*
X13300Y8090D02*
Y8210D01*
X13290Y8900D02*
X13410D01*
X13350Y8840D02*
Y8960D01*
X13390Y9500D02*
X13510D01*
X13450Y9440D02*
Y9560D01*
X12840Y8200D02*
X12960D01*
X12900Y8140D02*
Y8260D01*
X12840Y8900D02*
X12960D01*
X12900Y8840D02*
Y8960D01*
X13040Y9500D02*
X13160D01*
X13100Y9440D02*
Y9560D01*
X11640Y8900D02*
X11760D01*
X11700Y8840D02*
Y8960D01*
X12140Y9100D02*
X12260D01*
X12200Y9040D02*
Y9160D01*
X12690Y9250D02*
X12810D01*
X12750Y9190D02*
Y9310D01*
X14490Y3400D02*
X14610D01*
X14550Y3340D02*
Y3460D01*
X13840Y3400D02*
X13960D01*
X13900Y3340D02*
Y3460D01*
X12240Y10000D02*
X12360D01*
X12300Y9940D02*
Y10060D01*
X14440Y10150D02*
X14560D01*
X14500Y10090D02*
Y10210D01*
X16331Y10543D02*
X16451D01*
X16391Y10483D02*
Y10603D01*
X14340Y9350D02*
X14460D01*
X14400Y9290D02*
Y9410D01*
X14490Y3750D02*
X14610D01*
X14550Y3690D02*
Y3810D01*
X14140Y8600D02*
X14260D01*
X14200Y8540D02*
Y8660D01*
X17640Y7800D02*
X17760D01*
X17700Y7740D02*
Y7860D01*
X14490Y6750D02*
X14610D01*
X14550Y6690D02*
Y6810D01*
X23440Y8800D02*
X23560D01*
X23500Y8740D02*
Y8860D01*
X9940Y4000D02*
X10060D01*
X10000Y3940D02*
Y4060D01*
X12090Y4850D02*
X12210D01*
X12150Y4790D02*
Y4910D01*
X12040Y5300D02*
X12160D01*
X12100Y5240D02*
Y5360D01*
X9890Y6150D02*
X10010D01*
X9950Y6090D02*
Y6210D01*
X13040Y10800D02*
X13160D01*
X13100Y10740D02*
Y10860D01*
X12690Y10900D02*
X12810D01*
X12750Y10840D02*
Y10960D01*
X13540Y11350D02*
X13660D01*
X13600Y11290D02*
Y11410D01*
X13240Y11450D02*
X13360D01*
X13300Y11390D02*
Y11510D01*
X26090Y5150D02*
X26210D01*
X26150Y5090D02*
Y5210D01*
X23540Y11500D02*
X23660D01*
X23600Y11440D02*
Y11560D01*
X23940Y11850D02*
X24060D01*
X24000Y11790D02*
Y11910D01*
X24540Y11400D02*
X24660D01*
X24600Y11340D02*
Y11460D01*
X12140Y10350D02*
X12260D01*
X12200Y10290D02*
Y10410D01*
X11990Y10600D02*
X12110D01*
X12050Y10540D02*
Y10660D01*
X11590Y9250D02*
X11710D01*
X11650Y9190D02*
Y9310D01*
X11240Y7650D02*
X11360D01*
X11300Y7590D02*
Y7710D01*
X11090Y10650D02*
X11210D01*
X11150Y10590D02*
Y10710D01*
X9690Y8000D02*
X9810D01*
X9750Y7940D02*
Y8060D01*
X9540Y3900D02*
X9660D01*
X9600Y3840D02*
Y3960D01*
X8790Y5500D02*
X8910D01*
X8850Y5440D02*
Y5560D01*
X9240Y5450D02*
X9360D01*
X9300Y5390D02*
Y5510D01*
X7640Y6200D02*
X7760D01*
X7700Y6140D02*
Y6260D01*
X7623Y4308D02*
X7743D01*
X7683Y4248D02*
Y4368D01*
X6740Y3900D02*
X6860D01*
X6800Y3840D02*
Y3960D01*
X6090Y3450D02*
X6210D01*
X6150Y3390D02*
Y3510D01*
X7990Y3700D02*
X8110D01*
X8050Y3640D02*
Y3760D01*
X8040Y500D02*
X8160D01*
X8100Y440D02*
Y560D01*
X740Y10850D02*
X860D01*
X800Y10790D02*
Y10910D01*
X9390Y1800D02*
X9510D01*
X9450Y1740D02*
Y1860D01*
X6540Y6100D02*
X6660D01*
X6600Y6040D02*
Y6160D01*
X5740Y6450D02*
X5860D01*
X5800Y6390D02*
Y6510D01*
X2790Y8400D02*
X2910D01*
X2850Y8340D02*
Y8460D01*
X15590Y13400D02*
X15710D01*
X15650Y13340D02*
Y13460D01*
X5640Y12800D02*
X5760D01*
X5700Y12740D02*
Y12860D01*
X790Y11650D02*
X910D01*
X850Y11590D02*
Y11710D01*
X5740Y6050D02*
X5860D01*
X5800Y5990D02*
Y6110D01*
X6090Y5300D02*
X6210D01*
X6150Y5240D02*
Y5360D01*
X2990Y9150D02*
X3110D01*
X3050Y9090D02*
Y9210D01*
X15290Y9800D02*
X15410D01*
X15350Y9740D02*
Y9860D01*
X16240Y10250D02*
X16360D01*
X16300Y10190D02*
Y10310D01*
X10340Y10000D02*
X10460D01*
X10400Y9940D02*
Y10060D01*
X9940Y9600D02*
X10060D01*
X10000Y9540D02*
Y9660D01*
X17040Y8750D02*
X17160D01*
X17100Y8690D02*
Y8810D01*
X16590Y13400D02*
X16710D01*
X16650Y13340D02*
Y13460D01*
X26540Y10600D02*
X26660D01*
X26600Y10540D02*
Y10660D01*
X8790Y9200D02*
X8910D01*
X8850Y9140D02*
Y9260D01*
X7390Y12400D02*
X7510D01*
X7450Y12340D02*
Y12460D01*
X9290Y11050D02*
X9410D01*
X9350Y10990D02*
Y11110D01*
X4890Y5450D02*
X5010D01*
X4950Y5390D02*
Y5510D01*
X2540Y9650D02*
X2660D01*
X2600Y9590D02*
Y9710D01*
X2390Y8775D02*
X2510D01*
X2450Y8715D02*
Y8835D01*
X3790Y3350D02*
X3910D01*
X3850Y3290D02*
Y3410D01*
X3390Y2050D02*
X3510D01*
X3450Y1990D02*
Y2110D01*
X2140Y9200D02*
X2260D01*
X2200Y9140D02*
Y9260D01*
X3590Y9550D02*
X3710D01*
X3650Y9490D02*
Y9610D01*
X4090Y9100D02*
X4210D01*
X4150Y9040D02*
Y9160D01*
X4990Y8750D02*
X5110D01*
X5050Y8690D02*
Y8810D01*
X5690Y8450D02*
X5810D01*
X5750Y8390D02*
Y8510D01*
X6053Y8500D02*
X6173D01*
X6113Y8440D02*
Y8560D01*
X5590Y8150D02*
X5710D01*
X5650Y8090D02*
Y8210D01*
X5890Y7900D02*
X6010D01*
X5950Y7840D02*
Y7960D01*
X6390Y7750D02*
X6510D01*
X6450Y7690D02*
Y7810D01*
X5990Y7300D02*
X6110D01*
X6050Y7240D02*
Y7360D01*
X6440Y7050D02*
X6560D01*
X6500Y6990D02*
Y7110D01*
X6040Y8850D02*
X6160D01*
X6100Y8790D02*
Y8910D01*
X7240Y8650D02*
X7360D01*
X7300Y8590D02*
Y8710D01*
X7340Y8000D02*
X7460D01*
X7400Y7940D02*
Y8060D01*
X9440Y9300D02*
X9560D01*
X9500Y9240D02*
Y9360D01*
X3540Y11650D02*
X3660D01*
X3600Y11590D02*
Y11710D01*
X5440Y11150D02*
X5560D01*
X5500Y11090D02*
Y11210D01*
X3590Y11300D02*
X3710D01*
X3650Y11240D02*
Y11360D01*
X3590Y10350D02*
X3710D01*
X3650Y10290D02*
Y10410D01*
X3340Y9750D02*
X3460D01*
X3400Y9690D02*
Y9810D01*
X5290Y10400D02*
X5410D01*
X5350Y10340D02*
Y10460D01*
X6140Y12100D02*
X6260D01*
X6200Y12040D02*
Y12160D01*
X5640Y11850D02*
X5760D01*
X5700Y11790D02*
Y11910D01*
X7143Y10103D02*
X7263D01*
X7203Y10043D02*
Y10163D01*
X7143Y10497D02*
X7263D01*
X7203Y10437D02*
Y10557D01*
X7537Y10103D02*
X7657D01*
X7597Y10043D02*
Y10163D01*
X7537Y10497D02*
X7657D01*
X7597Y10437D02*
Y10557D01*
M02*
