G04*
G04 #@! TF.GenerationSoftware,Altium Limited,Altium Designer,21.8.1 (53)*
G04*
G04 Layer_Color=2752767*
%FSLAX24Y24*%
%MOIN*%
G70*
G04*
G04 #@! TF.SameCoordinates,E0417417-2892-4B46-94DD-8EEE6E3CFD50*
G04*
G04*
G04 #@! TF.FilePolarity,Positive*
G04*
G01*
G75*
%ADD111C,0.0020*%
%ADD112C,0.0027*%
%ADD113C,0.0013*%
D111*
X11570Y10170D02*
Y10330D01*
X11730D01*
Y10170D01*
X11570D01*
X19172Y4330D02*
X19092Y4490D01*
X19252D01*
X19172Y4330D01*
Y1889D02*
X19092Y2049D01*
X19252D01*
X19172Y1889D01*
X2850Y6070D02*
X2890Y6110D01*
X2930D01*
X2890Y6150D01*
X2930Y6190D01*
X2890D01*
X2850Y6230D01*
X2810Y6190D01*
X2770D01*
X2810Y6150D01*
X2770Y6110D01*
X2810D01*
X2850Y6070D01*
X3850D02*
X3890Y6110D01*
X3930D01*
X3890Y6150D01*
X3930Y6190D01*
X3890D01*
X3850Y6230D01*
X3810Y6190D01*
X3770D01*
X3810Y6150D01*
X3770Y6110D01*
X3810D01*
X3850Y6070D01*
X20120Y13020D02*
X20160Y13100D01*
X20120Y13180D01*
X20200Y13140D01*
X20280Y13180D01*
X20240Y13100D01*
X20280Y13020D01*
X20200Y13060D01*
X20120Y13020D01*
X19120D02*
X19160Y13100D01*
X19120Y13180D01*
X19200Y13140D01*
X19280Y13180D01*
X19240Y13100D01*
X19280Y13020D01*
X19200Y13060D01*
X19120Y13020D01*
X18120D02*
X18160Y13100D01*
X18120Y13180D01*
X18200Y13140D01*
X18280Y13180D01*
X18240Y13100D01*
X18280Y13020D01*
X18200Y13060D01*
X18120Y13020D01*
X17120D02*
X17160Y13100D01*
X17120Y13180D01*
X17200Y13140D01*
X17280Y13180D01*
X17240Y13100D01*
X17280Y13020D01*
X17200Y13060D01*
X17120Y13020D01*
X16120D02*
X16160Y13100D01*
X16120Y13180D01*
X16200Y13140D01*
X16280Y13180D01*
X16240Y13100D01*
X16280Y13020D01*
X16200Y13060D01*
X16120Y13020D01*
X15120D02*
X15160Y13100D01*
X15120Y13180D01*
X15200Y13140D01*
X15280Y13180D01*
X15240Y13100D01*
X15280Y13020D01*
X15200Y13060D01*
X15120Y13020D01*
X14120D02*
X14160Y13100D01*
X14120Y13180D01*
X14200Y13140D01*
X14280Y13180D01*
X14240Y13100D01*
X14280Y13020D01*
X14200Y13060D01*
X14120Y13020D01*
X13120D02*
X13160Y13100D01*
X13120Y13180D01*
X13200Y13140D01*
X13280Y13180D01*
X13240Y13100D01*
X13280Y13020D01*
X13200Y13060D01*
X13120Y13020D01*
X12120D02*
X12160Y13100D01*
X12120Y13180D01*
X12200Y13140D01*
X12280Y13180D01*
X12240Y13100D01*
X12280Y13020D01*
X12200Y13060D01*
X12120Y13020D01*
X11120D02*
X11160Y13100D01*
X11120Y13180D01*
X11200Y13140D01*
X11280Y13180D01*
X11240Y13100D01*
X11280Y13020D01*
X11200Y13060D01*
X11120Y13020D01*
X10120D02*
X10160Y13100D01*
X10120Y13180D01*
X10200Y13140D01*
X10280Y13180D01*
X10240Y13100D01*
X10280Y13020D01*
X10200Y13060D01*
X10120Y13020D01*
X9120D02*
X9160Y13100D01*
X9120Y13180D01*
X9200Y13140D01*
X9280Y13180D01*
X9240Y13100D01*
X9280Y13020D01*
X9200Y13060D01*
X9120Y13020D01*
X8120D02*
X8160Y13100D01*
X8120Y13180D01*
X8200Y13140D01*
X8280Y13180D01*
X8240Y13100D01*
X8280Y13020D01*
X8200Y13060D01*
X8120Y13020D01*
X7120D02*
X7160Y13100D01*
X7120Y13180D01*
X7200Y13140D01*
X7280Y13180D01*
X7240Y13100D01*
X7280Y13020D01*
X7200Y13060D01*
X7120Y13020D01*
X6120D02*
X6160Y13100D01*
X6120Y13180D01*
X6200Y13140D01*
X6280Y13180D01*
X6240Y13100D01*
X6280Y13020D01*
X6200Y13060D01*
X6120Y13020D01*
X5120D02*
X5160Y13100D01*
X5120Y13180D01*
X5200Y13140D01*
X5280Y13180D01*
X5240Y13100D01*
X5280Y13020D01*
X5200Y13060D01*
X5120Y13020D01*
X4120D02*
X4160Y13100D01*
X4120Y13180D01*
X4200Y13140D01*
X4280Y13180D01*
X4240Y13100D01*
X4280Y13020D01*
X4200Y13060D01*
X4120Y13020D01*
X3120D02*
X3160Y13100D01*
X3120Y13180D01*
X3200Y13140D01*
X3280Y13180D01*
X3240Y13100D01*
X3280Y13020D01*
X3200Y13060D01*
X3120Y13020D01*
X18260Y9110D02*
Y9070D01*
X18340D01*
Y9110D01*
X18380D01*
Y9190D01*
X18340D01*
Y9230D01*
X18260D01*
Y9190D01*
X18220D01*
Y9110D01*
X18260D01*
Y11110D02*
Y11070D01*
X18340D01*
Y11110D01*
X18380D01*
Y11190D01*
X18340D01*
Y11230D01*
X18260D01*
Y11190D01*
X18220D01*
Y11110D01*
X18260D01*
X25586Y8593D02*
X25626D01*
X25666Y8633D01*
X25706Y8593D01*
X25746D01*
Y8633D01*
X25706Y8673D01*
X25746Y8713D01*
Y8753D01*
X25706D01*
X25666Y8713D01*
X25626Y8753D01*
X25586D01*
Y8713D01*
X25626Y8673D01*
X25586Y8633D01*
Y8593D01*
Y6247D02*
X25626D01*
X25666Y6287D01*
X25706Y6247D01*
X25746D01*
Y6287D01*
X25706Y6327D01*
X25746Y6367D01*
Y6407D01*
X25706D01*
X25666Y6367D01*
X25626Y6407D01*
X25586D01*
Y6367D01*
X25626Y6327D01*
X25586Y6287D01*
Y6247D01*
X27023Y9201D02*
X27103Y9281D01*
X27183Y9201D01*
X27103Y9121D01*
X27023Y9201D01*
Y5799D02*
X27103Y5879D01*
X27183Y5799D01*
X27103Y5719D01*
X27023Y5799D01*
X25377Y9121D02*
Y9281D01*
X25537D01*
Y9121D01*
X25377D01*
X25417Y9161D02*
Y9241D01*
X25497D01*
Y9161D01*
X25417D01*
X25377Y5719D02*
Y5879D01*
X25537D01*
Y5719D01*
X25377D01*
X25417Y5759D02*
Y5839D01*
X25497D01*
Y5759D01*
X25417D01*
X10670Y10370D02*
Y10530D01*
X10830D01*
Y10370D01*
X10670D01*
X11620Y3870D02*
Y4030D01*
X11780D01*
Y3870D01*
X11620D01*
X3720D02*
Y4030D01*
X3880D01*
Y3870D01*
X3720D01*
X2720Y11870D02*
Y12030D01*
X2880D01*
Y11870D01*
X2720D01*
X2920Y11470D02*
Y11630D01*
X3080D01*
Y11470D01*
X2920D01*
X3220Y11020D02*
Y11180D01*
X3380D01*
Y11020D01*
X3220D01*
X2345Y11470D02*
Y11630D01*
X2505D01*
Y11470D01*
X2345D01*
X16370Y11020D02*
Y11180D01*
X16530D01*
Y11020D01*
X16370D01*
X2520Y5170D02*
Y5330D01*
X2680D01*
Y5170D01*
X2520D01*
X10870Y6120D02*
Y6280D01*
X11030D01*
Y6120D01*
X10870D01*
X9770Y2520D02*
Y2680D01*
X9930D01*
Y2520D01*
X9770D01*
X3220Y10420D02*
Y10580D01*
X3380D01*
Y10420D01*
X3220D01*
X3670Y8920D02*
Y9080D01*
X3830D01*
Y8920D01*
X3670D01*
X570Y11920D02*
Y12080D01*
X730D01*
Y11920D01*
X570D01*
X22270Y5720D02*
Y5880D01*
X22430D01*
Y5720D01*
X22270D01*
X12170Y7670D02*
Y7830D01*
X12330D01*
Y7670D01*
X12170D01*
X11720D02*
Y7830D01*
X11880D01*
Y7670D01*
X11720D01*
X14501Y3020D02*
Y3180D01*
X14661D01*
Y3020D01*
X14501D01*
X14495Y2720D02*
Y2880D01*
X14655D01*
Y2720D01*
X14495D01*
X11220Y6870D02*
Y7030D01*
X11380D01*
Y6870D01*
X11220D01*
X18070Y3070D02*
Y3230D01*
X18230D01*
Y3070D01*
X18070D01*
X18970Y2920D02*
Y3080D01*
X19130D01*
Y2920D01*
X18970D01*
X12570Y6570D02*
Y6730D01*
X12730D01*
Y6570D01*
X12570D01*
X11270Y2170D02*
Y2330D01*
X11430D01*
Y2170D01*
X11270D01*
X12770Y2770D02*
Y2930D01*
X12930D01*
Y2770D01*
X12770D01*
X14820Y6320D02*
Y6480D01*
X14980D01*
Y6320D01*
X14820D01*
X14720Y7520D02*
Y7680D01*
X14880D01*
Y7520D01*
X14720D01*
X15020Y8670D02*
Y8830D01*
X15180D01*
Y8670D01*
X15020D01*
Y9170D02*
Y9330D01*
X15180D01*
Y9170D01*
X15020D01*
X13320Y4970D02*
Y5130D01*
X13480D01*
Y4970D01*
X13320D01*
X13620Y4420D02*
Y4580D01*
X13780D01*
Y4420D01*
X13620D01*
X13820Y3670D02*
Y3830D01*
X13980D01*
Y3670D01*
X13820D01*
X14820Y9920D02*
Y10080D01*
X14980D01*
Y9920D01*
X14820D01*
X12570Y6120D02*
Y6280D01*
X12730D01*
Y6120D01*
X12570D01*
X13220Y6270D02*
Y6430D01*
X13380D01*
Y6270D01*
X13220D01*
Y8070D02*
Y8230D01*
X13380D01*
Y8070D01*
X13220D01*
X13270Y8820D02*
Y8980D01*
X13430D01*
Y8820D01*
X13270D01*
X13370Y9420D02*
Y9580D01*
X13530D01*
Y9420D01*
X13370D01*
X12820Y8120D02*
Y8280D01*
X12980D01*
Y8120D01*
X12820D01*
Y8820D02*
Y8980D01*
X12980D01*
Y8820D01*
X12820D01*
X13020Y9420D02*
Y9580D01*
X13180D01*
Y9420D01*
X13020D01*
X11620Y8820D02*
Y8980D01*
X11780D01*
Y8820D01*
X11620D01*
X12120Y9020D02*
Y9180D01*
X12280D01*
Y9020D01*
X12120D01*
X12670Y9170D02*
Y9330D01*
X12830D01*
Y9170D01*
X12670D01*
X14470Y3320D02*
Y3480D01*
X14630D01*
Y3320D01*
X14470D01*
X13820D02*
Y3480D01*
X13980D01*
Y3320D01*
X13820D01*
X12220Y9920D02*
Y10080D01*
X12380D01*
Y9920D01*
X12220D01*
X14420Y10070D02*
Y10230D01*
X14580D01*
Y10070D01*
X14420D01*
X16311Y10463D02*
Y10623D01*
X16471D01*
Y10463D01*
X16311D01*
X14320Y9270D02*
Y9430D01*
X14480D01*
Y9270D01*
X14320D01*
X14470Y3670D02*
Y3830D01*
X14630D01*
Y3670D01*
X14470D01*
X14120Y8520D02*
Y8680D01*
X14280D01*
Y8520D01*
X14120D01*
X17620Y7720D02*
Y7880D01*
X17780D01*
Y7720D01*
X17620D01*
X14470Y6670D02*
Y6830D01*
X14630D01*
Y6670D01*
X14470D01*
X23420Y8720D02*
Y8880D01*
X23580D01*
Y8720D01*
X23420D01*
X9920Y3920D02*
Y4080D01*
X10080D01*
Y3920D01*
X9920D01*
X12070Y4770D02*
Y4930D01*
X12230D01*
Y4770D01*
X12070D01*
X12020Y5220D02*
Y5380D01*
X12180D01*
Y5220D01*
X12020D01*
X9870Y6070D02*
Y6230D01*
X10030D01*
Y6070D01*
X9870D01*
X13020Y10720D02*
Y10880D01*
X13180D01*
Y10720D01*
X13020D01*
X12670Y10820D02*
Y10980D01*
X12830D01*
Y10820D01*
X12670D01*
X13520Y11270D02*
Y11430D01*
X13680D01*
Y11270D01*
X13520D01*
X13220Y11370D02*
Y11530D01*
X13380D01*
Y11370D01*
X13220D01*
X26070Y5070D02*
Y5230D01*
X26230D01*
Y5070D01*
X26070D01*
X23520Y11420D02*
Y11580D01*
X23680D01*
Y11420D01*
X23520D01*
X23920Y11770D02*
Y11930D01*
X24080D01*
Y11770D01*
X23920D01*
X24520Y11320D02*
Y11480D01*
X24680D01*
Y11320D01*
X24520D01*
X12120Y10270D02*
Y10430D01*
X12280D01*
Y10270D01*
X12120D01*
X11970Y10520D02*
Y10680D01*
X12130D01*
Y10520D01*
X11970D01*
X11570Y9170D02*
Y9330D01*
X11730D01*
Y9170D01*
X11570D01*
X11220Y7570D02*
Y7730D01*
X11380D01*
Y7570D01*
X11220D01*
X11070Y10570D02*
Y10730D01*
X11230D01*
Y10570D01*
X11070D01*
X9670Y7920D02*
Y8080D01*
X9830D01*
Y7920D01*
X9670D01*
X9520Y3820D02*
Y3980D01*
X9680D01*
Y3820D01*
X9520D01*
X8770Y5420D02*
Y5580D01*
X8930D01*
Y5420D01*
X8770D01*
X9220Y5370D02*
Y5530D01*
X9380D01*
Y5370D01*
X9220D01*
X7620Y6120D02*
Y6280D01*
X7780D01*
Y6120D01*
X7620D01*
X7603Y4228D02*
Y4388D01*
X7763D01*
Y4228D01*
X7603D01*
X6720Y3820D02*
Y3980D01*
X6880D01*
Y3820D01*
X6720D01*
X6070Y3370D02*
Y3530D01*
X6230D01*
Y3370D01*
X6070D01*
X7970Y3620D02*
Y3780D01*
X8130D01*
Y3620D01*
X7970D01*
X8020Y420D02*
Y580D01*
X8180D01*
Y420D01*
X8020D01*
X720Y10770D02*
Y10930D01*
X880D01*
Y10770D01*
X720D01*
X9370Y1720D02*
Y1880D01*
X9530D01*
Y1720D01*
X9370D01*
X6520Y6020D02*
Y6180D01*
X6680D01*
Y6020D01*
X6520D01*
X5720Y6370D02*
Y6530D01*
X5880D01*
Y6370D01*
X5720D01*
X2770Y8320D02*
Y8480D01*
X2930D01*
Y8320D01*
X2770D01*
X15570Y13320D02*
Y13480D01*
X15730D01*
Y13320D01*
X15570D01*
X5620Y12720D02*
Y12880D01*
X5780D01*
Y12720D01*
X5620D01*
X770Y11570D02*
Y11730D01*
X930D01*
Y11570D01*
X770D01*
X5720Y5970D02*
Y6130D01*
X5880D01*
Y5970D01*
X5720D01*
X6070Y5220D02*
Y5380D01*
X6230D01*
Y5220D01*
X6070D01*
X2970Y9070D02*
Y9230D01*
X3130D01*
Y9070D01*
X2970D01*
X15270Y9720D02*
Y9880D01*
X15430D01*
Y9720D01*
X15270D01*
X16220Y10170D02*
Y10330D01*
X16380D01*
Y10170D01*
X16220D01*
X10320Y9920D02*
Y10080D01*
X10480D01*
Y9920D01*
X10320D01*
X9920Y9520D02*
Y9680D01*
X10080D01*
Y9520D01*
X9920D01*
X17020Y8670D02*
Y8830D01*
X17180D01*
Y8670D01*
X17020D01*
X16570Y13320D02*
Y13480D01*
X16730D01*
Y13320D01*
X16570D01*
X26520Y10520D02*
Y10680D01*
X26680D01*
Y10520D01*
X26520D01*
X8770Y9120D02*
Y9280D01*
X8930D01*
Y9120D01*
X8770D01*
X7370Y12320D02*
Y12480D01*
X7530D01*
Y12320D01*
X7370D01*
X9270Y10970D02*
Y11130D01*
X9430D01*
Y10970D01*
X9270D01*
X4870Y5370D02*
Y5530D01*
X5030D01*
Y5370D01*
X4870D01*
X2520Y9570D02*
Y9730D01*
X2680D01*
Y9570D01*
X2520D01*
X2370Y8695D02*
Y8855D01*
X2530D01*
Y8695D01*
X2370D01*
X3770Y3270D02*
Y3430D01*
X3930D01*
Y3270D01*
X3770D01*
X3370Y1970D02*
Y2130D01*
X3530D01*
Y1970D01*
X3370D01*
X2120Y9120D02*
Y9280D01*
X2280D01*
Y9120D01*
X2120D01*
X3570Y9470D02*
Y9630D01*
X3730D01*
Y9470D01*
X3570D01*
X4070Y9020D02*
Y9180D01*
X4230D01*
Y9020D01*
X4070D01*
X4970Y8670D02*
Y8830D01*
X5130D01*
Y8670D01*
X4970D01*
X5670Y8370D02*
Y8530D01*
X5830D01*
Y8370D01*
X5670D01*
X6033Y8420D02*
Y8580D01*
X6193D01*
Y8420D01*
X6033D01*
X5570Y8070D02*
Y8230D01*
X5730D01*
Y8070D01*
X5570D01*
X5870Y7820D02*
Y7980D01*
X6030D01*
Y7820D01*
X5870D01*
X6370Y7670D02*
Y7830D01*
X6530D01*
Y7670D01*
X6370D01*
X5970Y7220D02*
Y7380D01*
X6130D01*
Y7220D01*
X5970D01*
X6420Y6970D02*
Y7130D01*
X6580D01*
Y6970D01*
X6420D01*
X6020Y8770D02*
Y8930D01*
X6180D01*
Y8770D01*
X6020D01*
X7220Y8570D02*
Y8730D01*
X7380D01*
Y8570D01*
X7220D01*
X7320Y7920D02*
Y8080D01*
X7480D01*
Y7920D01*
X7320D01*
X9420Y9220D02*
Y9380D01*
X9580D01*
Y9220D01*
X9420D01*
X3520Y11570D02*
Y11730D01*
X3680D01*
Y11570D01*
X3520D01*
X5420Y11070D02*
Y11230D01*
X5580D01*
Y11070D01*
X5420D01*
X3570Y11220D02*
Y11380D01*
X3730D01*
Y11220D01*
X3570D01*
Y10270D02*
Y10430D01*
X3730D01*
Y10270D01*
X3570D01*
X3320Y9670D02*
Y9830D01*
X3480D01*
Y9670D01*
X3320D01*
X5270Y10320D02*
Y10480D01*
X5430D01*
Y10320D01*
X5270D01*
X6120Y12020D02*
Y12180D01*
X6280D01*
Y12020D01*
X6120D01*
X5620Y11770D02*
Y11930D01*
X5780D01*
Y11770D01*
X5620D01*
X7123Y10023D02*
Y10183D01*
X7283D01*
Y10023D01*
X7123D01*
Y10417D02*
Y10577D01*
X7283D01*
Y10417D01*
X7123D01*
X7517Y10023D02*
Y10183D01*
X7677D01*
Y10023D01*
X7517D01*
Y10417D02*
Y10577D01*
X7677D01*
Y10417D01*
X7517D01*
D112*
X18680Y750D02*
G03*
X18680Y750I-80J0D01*
G01*
X17680D02*
G03*
X17680Y750I-80J0D01*
G01*
X16680D02*
G03*
X16680Y750I-80J0D01*
G01*
X15680D02*
G03*
X15680Y750I-80J0D01*
G01*
X14680D02*
G03*
X14680Y750I-80J0D01*
G01*
X13680D02*
G03*
X13680Y750I-80J0D01*
G01*
X12680D02*
G03*
X12680Y750I-80J0D01*
G01*
X11680D02*
G03*
X11680Y750I-80J0D01*
G01*
X10680D02*
G03*
X10680Y750I-80J0D01*
G01*
X9680D02*
G03*
X9680Y750I-80J0D01*
G01*
X8680D02*
G03*
X8680Y750I-80J0D01*
G01*
X7680D02*
G03*
X7680Y750I-80J0D01*
G01*
X6680D02*
G03*
X6680Y750I-80J0D01*
G01*
X5680D02*
G03*
X5680Y750I-80J0D01*
G01*
X671Y591D02*
G03*
X671Y591I-80J0D01*
G01*
X27048Y13189D02*
G03*
X27048Y13189I-80J0D01*
G01*
Y591D02*
G03*
X27048Y591I-80J0D01*
G01*
X671Y13189D02*
G03*
X671Y13189I-80J0D01*
G01*
D113*
X631Y591D02*
G03*
X631Y591I-40J0D01*
G01*
X27009Y13189D02*
G03*
X27009Y13189I-40J0D01*
G01*
Y591D02*
G03*
X27009Y591I-40J0D01*
G01*
X631Y13189D02*
G03*
X631Y13189I-40J0D01*
G01*
M02*
