G04*
G04 #@! TF.GenerationSoftware,Altium Limited,Altium Designer,21.8.1 (53)*
G04*
G04 Layer_Color=16711935*
%FSLAX24Y24*%
%MOIN*%
G70*
G04*
G04 #@! TF.SameCoordinates,E0417417-2892-4B46-94DD-8EEE6E3CFD50*
G04*
G04*
G04 #@! TF.FilePolarity,Negative*
G04*
G01*
G75*
%ADD82C,0.0789*%
%ADD83R,0.0789X0.0789*%
%ADD84C,0.0395*%
%ADD85R,0.0867X0.0867*%
%ADD86C,0.0867*%
%ADD87R,0.0710X0.0710*%
%ADD88C,0.0710*%
%ADD89C,0.0880*%
%ADD90C,0.0356*%
%ADD91O,0.0710X0.0474*%
%ADD92O,0.0907X0.0474*%
%ADD93C,0.0280*%
%ADD94C,0.0671*%
%ADD110R,0.0867X0.0206*%
D82*
X18600Y750D02*
D03*
X17600D02*
D03*
X16600D02*
D03*
X15600D02*
D03*
X14600D02*
D03*
X13600D02*
D03*
X12600D02*
D03*
X11600D02*
D03*
X10600D02*
D03*
X9600D02*
D03*
X8600D02*
D03*
X7600D02*
D03*
X6600D02*
D03*
D83*
X5600D02*
D03*
D84*
X19172Y4410D02*
D03*
Y1969D02*
D03*
D85*
X2850Y6150D02*
D03*
D86*
X3850D02*
D03*
D87*
X20200Y13100D02*
D03*
D88*
X19200D02*
D03*
X18200D02*
D03*
X17200D02*
D03*
X16200D02*
D03*
X15200D02*
D03*
X14200D02*
D03*
X13200D02*
D03*
X12200D02*
D03*
X11200D02*
D03*
X10200D02*
D03*
X9200D02*
D03*
X8200D02*
D03*
X7200D02*
D03*
X6200D02*
D03*
X5200D02*
D03*
X4200D02*
D03*
X3200D02*
D03*
D89*
X18300Y9150D02*
D03*
Y11150D02*
D03*
D90*
X25666Y8673D02*
D03*
Y6327D02*
D03*
D91*
X27103Y9201D02*
D03*
Y5799D02*
D03*
D92*
X25457Y9201D02*
D03*
Y5799D02*
D03*
D93*
X3800Y3950D02*
D03*
D94*
X591Y591D02*
D03*
X26969Y13189D02*
D03*
Y591D02*
D03*
X591Y13189D02*
D03*
D110*
X21200Y1603D02*
D03*
X21200Y1847D02*
D03*
X21200Y2091D02*
D03*
X21200Y2335D02*
D03*
Y2580D02*
D03*
X21200Y2824D02*
D03*
Y3068D02*
D03*
Y3312D02*
D03*
Y3556D02*
D03*
Y3800D02*
D03*
Y4044D02*
D03*
Y4288D02*
D03*
Y4532D02*
D03*
X21200Y4776D02*
D03*
M02*
