G04*
G04 #@! TF.GenerationSoftware,Altium Limited,Altium Designer,21.8.1 (53)*
G04*
G04 Layer_Color=65535*
%FSLAX24Y24*%
%MOIN*%
G70*
G04*
G04 #@! TF.SameCoordinates,E0417417-2892-4B46-94DD-8EEE6E3CFD50*
G04*
G04*
G04 #@! TF.FilePolarity,Positive*
G04*
G01*
G75*
%ADD10C,0.0157*%
%ADD11C,0.0118*%
%ADD12C,0.0079*%
%ADD13C,0.0100*%
%ADD14C,0.0197*%
%ADD15C,0.0098*%
%ADD16C,0.0059*%
%ADD17C,0.0060*%
%ADD18C,0.0010*%
%ADD19C,0.0080*%
%ADD20C,0.0080*%
%ADD21C,0.0060*%
%ADD22C,0.0050*%
%ADD23R,0.0118X0.0472*%
G36*
X11895Y7135D02*
X11860Y7135D01*
X11860Y7265D01*
X11895D01*
X11895Y7135D01*
D02*
G37*
G36*
X11740D02*
X11705Y7135D01*
X11705Y7265D01*
X11740D01*
Y7135D01*
D02*
G37*
G36*
X5715Y5810D02*
X5585D01*
Y5845D01*
X5715D01*
Y5810D01*
D02*
G37*
G36*
Y5655D02*
X5585D01*
X5585Y5690D01*
X5715D01*
X5715Y5655D01*
D02*
G37*
G36*
Y5360D02*
X5585D01*
Y5395D01*
X5715D01*
Y5360D01*
D02*
G37*
G36*
Y5205D02*
X5585D01*
X5585Y5240D01*
X5715D01*
X5715Y5205D01*
D02*
G37*
G36*
Y4910D02*
X5585D01*
Y4945D01*
X5715D01*
Y4910D01*
D02*
G37*
G36*
Y4755D02*
X5585D01*
X5585Y4790D01*
X5715D01*
X5715Y4755D01*
D02*
G37*
G36*
X12815Y4905D02*
X12685D01*
X12685Y4940D01*
X12815D01*
X12815Y4905D01*
D02*
G37*
G36*
X12685Y5095D02*
X12815D01*
Y5060D01*
X12685D01*
Y5095D01*
D02*
G37*
G36*
X12815Y5305D02*
X12685D01*
X12685Y5340D01*
X12815D01*
X12815Y5305D01*
D02*
G37*
G36*
X12685Y5495D02*
X12815D01*
Y5460D01*
X12685D01*
X12685Y5495D01*
D02*
G37*
G36*
X12515Y5705D02*
X12385Y5705D01*
X12385Y5740D01*
X12515D01*
X12515Y5705D01*
D02*
G37*
G36*
X12385Y5895D02*
X12515Y5895D01*
Y5860D01*
X12385D01*
X12385Y5895D01*
D02*
G37*
G36*
X12155Y7135D02*
X12155Y7265D01*
X12190Y7265D01*
Y7135D01*
X12155D01*
D02*
G37*
G36*
X12345Y7265D02*
X12345Y7135D01*
X12310Y7135D01*
Y7265D01*
X12345Y7265D01*
D02*
G37*
D10*
X21627Y11943D02*
G03*
X21627Y11943I-79J0D01*
G01*
D11*
X20741Y12317D02*
G03*
X20741Y12317I-59J0D01*
G01*
X3259Y3350D02*
G03*
X3259Y3350I-59J0D01*
G01*
X2609Y11850D02*
G03*
X2609Y11850I-59J0D01*
G01*
X1780Y12152D02*
G03*
X1780Y12152I-59J0D01*
G01*
D12*
X9640Y4116D02*
G03*
X9726Y4203I0J87D01*
G01*
X9274D02*
G03*
X9360Y4116I87J0D01*
G01*
X9726Y4797D02*
G03*
X9640Y4884I-87J0D01*
G01*
X9360D02*
G03*
X9274Y4797I0J-87D01*
G01*
X4510Y1967D02*
G03*
X4424Y1880I0J-87D01*
G01*
X4876D02*
G03*
X4790Y1967I-87J0D01*
G01*
X4424Y1285D02*
G03*
X4510Y1199I87J0D01*
G01*
X4790D02*
G03*
X4876Y1285I0J87D01*
G01*
X7199Y3560D02*
G03*
X7285Y3474I87J0D01*
G01*
Y3926D02*
G03*
X7199Y3840I0J-87D01*
G01*
X7880Y3474D02*
G03*
X7967Y3560I0J87D01*
G01*
Y3840D02*
G03*
X7880Y3926I-87J0D01*
G01*
X8490Y2816D02*
G03*
X8576Y2903I0J87D01*
G01*
X8124D02*
G03*
X8210Y2816I87J0D01*
G01*
X8576Y3497D02*
G03*
X8490Y3584I-87J0D01*
G01*
X8210D02*
G03*
X8124Y3497I0J-87D01*
G01*
X8910Y3617D02*
G03*
X8824Y3530I0J-87D01*
G01*
X9276D02*
G03*
X9190Y3617I-87J0D01*
G01*
X8824Y2935D02*
G03*
X8910Y2849I87J0D01*
G01*
X9190D02*
G03*
X9276Y2935I0J87D01*
G01*
X9510Y3617D02*
G03*
X9424Y3530I0J-87D01*
G01*
X9876D02*
G03*
X9790Y3617I-87J0D01*
G01*
X9424Y2935D02*
G03*
X9510Y2849I87J0D01*
G01*
X9790D02*
G03*
X9876Y2935I0J87D01*
G01*
X10390Y2849D02*
G03*
X10476Y2935I0J87D01*
G01*
X10024D02*
G03*
X10110Y2849I87J0D01*
G01*
X10476Y3530D02*
G03*
X10390Y3617I-87J0D01*
G01*
X10110D02*
G03*
X10024Y3530I0J-87D01*
G01*
X10890Y1699D02*
G03*
X10976Y1785I0J87D01*
G01*
X10524D02*
G03*
X10610Y1699I87J0D01*
G01*
X10976Y2380D02*
G03*
X10890Y2467I-87J0D01*
G01*
X10610D02*
G03*
X10524Y2380I0J-87D01*
G01*
X10990Y2849D02*
G03*
X11076Y2935I0J87D01*
G01*
X10624D02*
G03*
X10710Y2849I87J0D01*
G01*
X11076Y3530D02*
G03*
X10990Y3617I-87J0D01*
G01*
X10710D02*
G03*
X10624Y3530I0J-87D01*
G01*
X11590Y2849D02*
G03*
X11676Y2935I0J87D01*
G01*
X11224D02*
G03*
X11310Y2849I87J0D01*
G01*
X11676Y3530D02*
G03*
X11590Y3617I-87J0D01*
G01*
X11310D02*
G03*
X11224Y3530I0J-87D01*
G01*
X12190Y2849D02*
G03*
X12276Y2935I0J87D01*
G01*
X11824D02*
G03*
X11910Y2849I87J0D01*
G01*
X12276Y3530D02*
G03*
X12190Y3617I-87J0D01*
G01*
X11910D02*
G03*
X11824Y3530I0J-87D01*
G01*
X5210Y6817D02*
G03*
X5124Y6730I0J-87D01*
G01*
X5576D02*
G03*
X5490Y6817I-87J0D01*
G01*
X5124Y6135D02*
G03*
X5210Y6049I87J0D01*
G01*
X5490D02*
G03*
X5576Y6135I0J87D01*
G01*
X2410Y8267D02*
G03*
X2324Y8180I0J-87D01*
G01*
X2776D02*
G03*
X2690Y8267I-87J0D01*
G01*
X2324Y7585D02*
G03*
X2410Y7499I87J0D01*
G01*
X2690D02*
G03*
X2776Y7585I0J87D01*
G01*
X5140Y7599D02*
G03*
X5226Y7685I0J87D01*
G01*
X4774D02*
G03*
X4860Y7599I87J0D01*
G01*
X5226Y8280D02*
G03*
X5140Y8367I-87J0D01*
G01*
X4860D02*
G03*
X4774Y8280I0J-87D01*
G01*
X5160Y12417D02*
G03*
X5074Y12330I0J-87D01*
G01*
X5526D02*
G03*
X5440Y12417I-87J0D01*
G01*
X5074Y11735D02*
G03*
X5160Y11649I87J0D01*
G01*
X5440D02*
G03*
X5526Y11735I0J87D01*
G01*
X8110Y7467D02*
G03*
X8024Y7380I0J-87D01*
G01*
X8476D02*
G03*
X8390Y7467I-87J0D01*
G01*
X8024Y6785D02*
G03*
X8110Y6699I87J0D01*
G01*
X8390D02*
G03*
X8476Y6785I0J87D01*
G01*
X9040Y6699D02*
G03*
X9126Y6785I0J87D01*
G01*
X8674D02*
G03*
X8760Y6699I87J0D01*
G01*
X9126Y7380D02*
G03*
X9040Y7467I-87J0D01*
G01*
X8760D02*
G03*
X8674Y7380I0J-87D01*
G01*
X12410Y4534D02*
G03*
X12324Y4447I0J-87D01*
G01*
X12776D02*
G03*
X12690Y4534I-87J0D01*
G01*
X12324Y3853D02*
G03*
X12410Y3766I87J0D01*
G01*
X12690D02*
G03*
X12776Y3853I0J87D01*
G01*
X10290Y7966D02*
G03*
X10376Y8053I0J87D01*
G01*
X9924D02*
G03*
X10010Y7966I87J0D01*
G01*
X10376Y8647D02*
G03*
X10290Y8734I-87J0D01*
G01*
X10010D02*
G03*
X9924Y8647I0J-87D01*
G01*
X10890Y7966D02*
G03*
X10976Y8053I0J87D01*
G01*
X10524D02*
G03*
X10610Y7966I87J0D01*
G01*
X10976Y8647D02*
G03*
X10890Y8734I-87J0D01*
G01*
X10610D02*
G03*
X10524Y8647I0J-87D01*
G01*
X11490Y7966D02*
G03*
X11576Y8053I0J87D01*
G01*
X11124D02*
G03*
X11210Y7966I87J0D01*
G01*
X11576Y8647D02*
G03*
X11490Y8734I-87J0D01*
G01*
X11210D02*
G03*
X11124Y8647I0J-87D01*
G01*
X19410Y8584D02*
G03*
X19324Y8497I0J-87D01*
G01*
X19776D02*
G03*
X19690Y8584I-87J0D01*
G01*
X19324Y7903D02*
G03*
X19410Y7816I87J0D01*
G01*
X19690D02*
G03*
X19776Y7903I0J87D01*
G01*
X19690Y8799D02*
G03*
X19776Y8885I0J87D01*
G01*
X19324D02*
G03*
X19410Y8799I87J0D01*
G01*
X19776Y9480D02*
G03*
X19690Y9567I-87J0D01*
G01*
X19410D02*
G03*
X19324Y9480I0J-87D01*
G01*
X19690Y9783D02*
G03*
X19776Y9870I0J87D01*
G01*
X19324D02*
G03*
X19410Y9783I87J0D01*
G01*
X19776Y10465D02*
G03*
X19690Y10551I-87J0D01*
G01*
X19410D02*
G03*
X19324Y10465I0J-87D01*
G01*
X26333Y3710D02*
G03*
X26420Y3624I87J0D01*
G01*
Y4076D02*
G03*
X26333Y3990I0J-87D01*
G01*
X27015Y3624D02*
G03*
X27101Y3710I0J87D01*
G01*
Y3990D02*
G03*
X27015Y4076I-87J0D01*
G01*
X27101Y4640D02*
G03*
X27015Y4726I-87J0D01*
G01*
Y4274D02*
G03*
X27101Y4360I0J87D01*
G01*
X26420Y4726D02*
G03*
X26333Y4640I0J-87D01*
G01*
Y4360D02*
G03*
X26420Y4274I87J0D01*
G01*
X22134Y7240D02*
G03*
X22047Y7326I-87J0D01*
G01*
Y6874D02*
G03*
X22134Y6960I0J87D01*
G01*
X21453Y7326D02*
G03*
X21366Y7240I0J-87D01*
G01*
Y6960D02*
G03*
X21453Y6874I87J0D01*
G01*
X22134Y6590D02*
G03*
X22047Y6676I-87J0D01*
G01*
Y6224D02*
G03*
X22134Y6310I0J87D01*
G01*
X21453Y6676D02*
G03*
X21366Y6590I0J-87D01*
G01*
Y6310D02*
G03*
X21453Y6224I87J0D01*
G01*
X9360Y4116D02*
X9640Y4116D01*
X9726Y4205D02*
Y4382D01*
X9274Y4205D02*
Y4382D01*
X9726Y4618D02*
X9726Y4795D01*
X9274Y4618D02*
Y4795D01*
X9360Y4884D02*
X9640D01*
X8524Y6417D02*
X8976D01*
X8524Y5649D02*
X8976D01*
Y6151D02*
Y6417D01*
Y5649D02*
Y5915D01*
X8524Y6151D02*
Y6417D01*
Y5649D02*
Y5915D01*
X3774Y1199D02*
X4226D01*
X3774Y1967D02*
X4226D01*
X3774Y1199D02*
Y1465D01*
Y1701D02*
Y1967D01*
X4226Y1199D02*
Y1465D01*
Y1701D02*
Y1967D01*
X4510D02*
X4790D01*
X4424Y1701D02*
Y1878D01*
X4876Y1701D02*
Y1878D01*
X4424Y1287D02*
Y1465D01*
X4876Y1287D02*
Y1465D01*
X4510Y1199D02*
X4790D01*
X7093Y4062D02*
X8274D01*
X7093Y6030D02*
X8274D01*
X7199Y3840D02*
X7199Y3560D01*
X7287Y3474D02*
X7465D01*
X7287Y3926D02*
X7465Y3926D01*
X7701Y3474D02*
X7878Y3474D01*
X7701Y3926D02*
X7878Y3926D01*
X7967Y3560D02*
Y3840D01*
X8210Y2816D02*
X8490D01*
X8576Y2905D02*
Y3082D01*
X8124Y2905D02*
X8124Y3082D01*
X8576Y3318D02*
Y3495D01*
X8124Y3318D02*
Y3495D01*
X8210Y3584D02*
X8490Y3584D01*
X8910Y3617D02*
X9190D01*
X8824Y3351D02*
Y3528D01*
X9276Y3351D02*
Y3528D01*
X8824Y2937D02*
Y3115D01*
X9276Y2937D02*
Y3115D01*
X8910Y2849D02*
X9190D01*
X9510Y3617D02*
X9790D01*
X9424Y3351D02*
Y3528D01*
X9876Y3351D02*
Y3528D01*
X9424Y2937D02*
Y3115D01*
X9876Y2937D02*
Y3115D01*
X9510Y2849D02*
X9790D01*
X10110D02*
X10390D01*
X10476Y2937D02*
Y3115D01*
X10024Y2937D02*
Y3115D01*
X10476Y3351D02*
Y3528D01*
X10024Y3351D02*
Y3528D01*
X10110Y3617D02*
X10390D01*
X11824Y1699D02*
X12276D01*
X11824Y2467D02*
X12276D01*
X11824Y1699D02*
Y1965D01*
Y2201D02*
Y2467D01*
X12276Y1699D02*
Y1965D01*
Y2201D02*
Y2467D01*
X10610Y1699D02*
X10890D01*
X10976Y1787D02*
Y1965D01*
X10524Y1787D02*
Y1965D01*
X10976Y2201D02*
Y2378D01*
X10524Y2201D02*
Y2378D01*
X10610Y2467D02*
X10890D01*
X10710Y2849D02*
X10990D01*
X11076Y2937D02*
Y3115D01*
X10624Y2937D02*
Y3115D01*
X11076Y3351D02*
Y3528D01*
X10624Y3351D02*
Y3528D01*
X10710Y3617D02*
X10990D01*
X11310Y2849D02*
X11590D01*
X11676Y2937D02*
Y3115D01*
X11224Y2937D02*
Y3115D01*
X11676Y3351D02*
Y3528D01*
X11224Y3351D02*
Y3528D01*
X11310Y3617D02*
X11590D01*
X11910Y2849D02*
X12190D01*
X12276Y2937D02*
Y3115D01*
X11824Y2937D02*
Y3115D01*
X12276Y3351D02*
Y3528D01*
X11824Y3351D02*
Y3528D01*
X11910Y3617D02*
X12190D01*
X10066Y5737D02*
Y5895D01*
X10224D01*
X10066Y4202D02*
Y4359D01*
Y4202D02*
X10224D01*
X11602D02*
X11759D01*
Y4359D01*
Y5737D02*
Y5895D01*
X11602D02*
X11759D01*
X9174Y6417D02*
X9626D01*
X9174Y5649D02*
X9626Y5649D01*
Y6151D02*
Y6417D01*
Y5649D02*
Y5915D01*
X9174Y6417D02*
X9174Y6151D01*
X9174Y5915D02*
X9174Y5649D01*
X4574Y6049D02*
X5026D01*
X4574Y6817D02*
X5026D01*
X4574Y6049D02*
Y6315D01*
Y6551D02*
Y6817D01*
X5026Y6049D02*
Y6315D01*
Y6551D02*
Y6817D01*
X5210D02*
X5490D01*
X5124Y6551D02*
Y6728D01*
X5576Y6551D02*
Y6728D01*
X5124Y6137D02*
Y6315D01*
X5576Y6137D02*
Y6315D01*
X5210Y6049D02*
X5490D01*
X2410Y8267D02*
X2690Y8267D01*
X2324Y8001D02*
Y8178D01*
X2776Y8001D02*
Y8178D01*
X2324Y7587D02*
X2324Y7765D01*
X2776Y7587D02*
Y7765D01*
X2410Y7499D02*
X2690D01*
X4860Y7599D02*
X5140D01*
X5226Y7687D02*
Y7865D01*
X4774Y7687D02*
Y7865D01*
X5226Y8101D02*
Y8278D01*
X4774Y8101D02*
Y8278D01*
X4860Y8367D02*
X5140D01*
X5160Y12417D02*
X5440Y12417D01*
X5074Y12151D02*
Y12328D01*
X5526Y12328D02*
X5526Y12151D01*
X5074Y11737D02*
Y11915D01*
X5526Y11737D02*
Y11915D01*
X5160Y11649D02*
X5440Y11649D01*
X7226Y7467D02*
X7226Y7201D01*
X7226Y6965D02*
X7226Y6699D01*
X6774Y7201D02*
Y7467D01*
Y6699D02*
Y6965D01*
Y7467D02*
X7226Y7467D01*
X6774Y6699D02*
X7226D01*
X7826Y7467D02*
X7826Y7201D01*
X7826Y6965D02*
X7826Y6699D01*
X7374Y7201D02*
Y7467D01*
Y6699D02*
Y6965D01*
Y7467D02*
X7826Y7467D01*
X7374Y6699D02*
X7826D01*
X8110Y7467D02*
X8390D01*
X8024Y7201D02*
Y7378D01*
X8476Y7201D02*
Y7378D01*
X8024Y6965D02*
X8024Y6787D01*
X8476Y6965D02*
X8476Y6787D01*
X8110Y6699D02*
X8390D01*
X8760Y6699D02*
X9040Y6699D01*
X9126Y6787D02*
X9126Y6965D01*
X8674Y6965D02*
X8674Y6787D01*
X9126Y7201D02*
Y7378D01*
X8674Y7201D02*
Y7378D01*
X8760Y7467D02*
X9040D01*
X9224Y6699D02*
X9676D01*
X9224Y7467D02*
X9676D01*
X9224Y6699D02*
Y6965D01*
Y7201D02*
Y7467D01*
X9676Y6699D02*
Y6965D01*
Y7201D02*
Y7467D01*
X10024Y7467D02*
X10476D01*
X10024Y6699D02*
X10476Y6699D01*
Y7201D02*
X10476Y7467D01*
X10476Y6699D02*
X10476Y6965D01*
X10024Y7201D02*
Y7467D01*
Y6699D02*
Y6965D01*
X10674Y7467D02*
X11126Y7467D01*
X10674Y6699D02*
X11126Y6699D01*
Y7201D02*
Y7467D01*
Y6699D02*
Y6965D01*
X10674Y7201D02*
Y7467D01*
Y6699D02*
Y6965D01*
X12410Y4534D02*
X12690D01*
X12324Y4268D02*
X12324Y4445D01*
X12776Y4445D02*
X12776Y4268D01*
X12324Y4032D02*
X12324Y3855D01*
X12776Y3855D02*
Y4032D01*
X12410Y3766D02*
X12690Y3766D01*
X10010Y7966D02*
X10290D01*
X10376Y8055D02*
X10376Y8232D01*
X9924Y8055D02*
Y8232D01*
X10376Y8645D02*
X10376Y8468D01*
X9924Y8468D02*
Y8645D01*
X10010Y8734D02*
X10290D01*
X10610Y7966D02*
X10890D01*
X10976Y8055D02*
Y8232D01*
X10524Y8055D02*
Y8232D01*
X10976Y8468D02*
Y8645D01*
X10524Y8468D02*
Y8645D01*
X10610Y8734D02*
X10890D01*
X11210Y7966D02*
X11490Y7966D01*
X11576Y8055D02*
Y8232D01*
X11124Y8055D02*
Y8232D01*
X11576Y8468D02*
X11576Y8645D01*
X11124Y8468D02*
Y8645D01*
X11210Y8734D02*
X11490D01*
X11218Y9024D02*
X11484D01*
X10716D02*
X10982D01*
X11218Y9476D02*
X11484D01*
X10716D02*
X10982D01*
X11484Y9024D02*
Y9476D01*
X10716Y9024D02*
Y9476D01*
X10716Y10076D02*
X10982Y10076D01*
X11218Y10076D02*
X11484Y10076D01*
X10716Y9624D02*
X10982D01*
X11218D02*
X11484D01*
X10716Y10076D02*
X10716Y9624D01*
X11484D02*
Y10076D01*
X21534Y4774D02*
Y5226D01*
X20766Y4774D02*
Y5226D01*
X21268Y4774D02*
X21534D01*
X20766D02*
X21032D01*
X21268Y5226D02*
X21534D01*
X20766D02*
X21032D01*
X21534Y5374D02*
Y5826D01*
X20766Y5374D02*
Y5826D01*
X21268Y5374D02*
X21534D01*
X20766D02*
X21032D01*
X21268Y5826D02*
X21534D01*
X20766D02*
X21032D01*
X18906Y4715D02*
X18985Y4639D01*
X18906Y5185D02*
X18985Y5261D01*
X19339D01*
X20101Y4639D02*
Y5261D01*
X18906Y4715D02*
Y5185D01*
X19654Y5261D02*
X20101D01*
X18985Y4639D02*
X19339D01*
X19654D02*
X20101D01*
X19654Y5389D02*
X20101D01*
X18985D02*
X19339D01*
X19654Y6011D02*
X20101D01*
X18906Y5465D02*
Y5935D01*
X20101Y5389D02*
Y6011D01*
X18985D02*
X19339D01*
X18906Y5935D02*
X18985Y6011D01*
X18906Y5465D02*
X18985Y5389D01*
X17367Y5124D02*
Y5576D01*
X16599Y5576D02*
X16599Y5124D01*
X17101D02*
X17367D01*
X16599D02*
X16865D01*
X17101Y5576D02*
X17367Y5576D01*
X16599Y5576D02*
X16865Y5576D01*
X17082Y6854D02*
X17318D01*
X17417Y7424D02*
Y7876D01*
X16649Y7424D02*
Y7876D01*
X17151Y7424D02*
X17417D01*
X16649D02*
X16915D01*
X17151Y7876D02*
X17417D01*
X16649D02*
X16915D01*
X17417Y8024D02*
Y8476D01*
X16649Y8024D02*
Y8476D01*
X17151Y8024D02*
X17417D01*
X16649D02*
X16915D01*
X17151Y8476D02*
X17417D01*
X16649D02*
X16915D01*
X17267Y8974D02*
Y9426D01*
X16499Y8974D02*
Y9426D01*
X17001Y8974D02*
X17267D01*
X16499D02*
X16765D01*
X17001Y9426D02*
X17267D01*
X16499D02*
X16765D01*
X16524Y9599D02*
X16976D01*
X16524Y10367D02*
X16976Y10367D01*
X16524Y9599D02*
Y9865D01*
Y10101D02*
Y10367D01*
X16976Y9865D02*
X16976Y9599D01*
X16976Y10367D02*
X16976Y10101D01*
X16549Y10926D02*
X16815D01*
X17051D02*
X17317D01*
X16549Y10474D02*
X16815D01*
X17051D02*
X17317D01*
X16549D02*
Y10926D01*
X17317Y10474D02*
Y10926D01*
X19410Y8584D02*
X19690Y8584D01*
X19324Y8318D02*
Y8495D01*
X19776Y8318D02*
Y8495D01*
X19324Y8082D02*
X19324Y7905D01*
X19776D02*
X19776Y8082D01*
X19410Y7816D02*
X19690D01*
X19410Y8799D02*
X19690Y8799D01*
X19776Y8887D02*
Y9065D01*
X19324Y8887D02*
Y9065D01*
X19776Y9478D02*
X19776Y9301D01*
X19324Y9301D02*
X19324Y9478D01*
X19410Y9567D02*
X19690D01*
X19410Y9783D02*
X19690D01*
X19776Y9872D02*
Y10049D01*
X19324Y9872D02*
X19324Y10049D01*
X19776Y10285D02*
Y10463D01*
X19324Y10285D02*
Y10463D01*
X19410Y10551D02*
X19690Y10551D01*
X19299Y11226D02*
X19565D01*
X19801D02*
X20067D01*
X19299Y10774D02*
X19565D01*
X19801D02*
X20067D01*
X19299D02*
Y11226D01*
X20067Y10774D02*
Y11226D01*
X21674Y2399D02*
X22126D01*
X21674Y3167D02*
X22126D01*
X21674Y2399D02*
Y2665D01*
Y2901D02*
Y3167D01*
X22126Y2399D02*
Y2665D01*
Y2901D02*
Y3167D01*
X26333Y3710D02*
Y3990D01*
X26422Y3624D02*
X26599D01*
X26422Y4076D02*
X26599Y4076D01*
X26835Y3624D02*
X27013D01*
X26835Y4076D02*
X27013D01*
X27101Y3710D02*
X27101Y3990D01*
X27101Y4360D02*
X27101Y4640D01*
X26835Y4726D02*
X27013D01*
X26835Y4274D02*
X27013D01*
X26422Y4726D02*
X26599D01*
X26422Y4274D02*
X26599D01*
X26333Y4360D02*
Y4640D01*
X22134Y6960D02*
Y7240D01*
X21868Y7326D02*
X22045D01*
X21868Y6874D02*
X22045D01*
X21455Y7326D02*
X21632D01*
X21455Y6874D02*
X21632D01*
X21366Y6960D02*
Y7240D01*
X22134Y6310D02*
Y6590D01*
X21868Y6676D02*
X22045D01*
X21868Y6224D02*
X22045D01*
X21455Y6676D02*
X21632D01*
X21455Y6224D02*
X21632D01*
X21366Y6310D02*
Y6590D01*
X24017Y7124D02*
Y7576D01*
X23249Y7576D02*
X23249Y7124D01*
X23751D02*
X24017D01*
X23249D02*
X23515D01*
X23751Y7576D02*
X24017Y7576D01*
X23249Y7576D02*
X23515Y7576D01*
X24017Y7774D02*
Y8226D01*
X23249Y7774D02*
Y8226D01*
X23751Y7774D02*
X24017D01*
X23249D02*
X23515D01*
X23751Y8226D02*
X24017D01*
X23249D02*
X23515D01*
X23774Y12801D02*
X24226D01*
X23774Y12033D02*
X24226Y12033D01*
Y12535D02*
Y12801D01*
Y12033D02*
Y12299D01*
X23774Y12801D02*
X23774Y12535D01*
X23774Y12299D02*
X23774Y12033D01*
Y10266D02*
X24226D01*
X23774Y11034D02*
X24226D01*
X23774Y10266D02*
Y10532D01*
Y10768D02*
Y11034D01*
X24226Y10266D02*
Y10532D01*
Y10768D02*
Y11034D01*
X25046Y12182D02*
Y12418D01*
Y10382D02*
Y10618D01*
D13*
X2966Y3564D02*
G03*
X2968Y4136I-16J286D01*
G01*
X6710Y1913D02*
G03*
X6710Y1913I-49J0D01*
G01*
X16057Y10770D02*
G03*
X16057Y10770I-50J0D01*
G01*
X21272Y8291D02*
X22375D01*
X21272Y12209D02*
X22375D01*
Y8291D02*
Y12209D01*
X21272Y8291D02*
Y12209D01*
X19100Y250D02*
Y1250D01*
X5100Y1250D02*
X19100Y1250D01*
X5100Y250D02*
X19100Y250D01*
X5100Y250D02*
Y1250D01*
X4934Y3259D02*
Y4441D01*
X4898Y4600D02*
X4934D01*
Y4441D02*
Y4600D01*
X2966Y3100D02*
X3002D01*
X2966D02*
Y3259D01*
X4898Y3100D02*
X4934D01*
Y3259D01*
X2966Y4600D02*
X3002D01*
X2966Y4441D02*
Y4600D01*
Y4136D02*
Y4441D01*
Y3259D02*
Y3564D01*
X7786Y2109D02*
X7941D01*
X6759D02*
X6915D01*
X7785Y3291D02*
X7941D01*
X6759D02*
X6915D01*
X7941Y3136D02*
Y3291D01*
Y2109D02*
Y2265D01*
X6759Y2109D02*
Y2265D01*
Y3136D02*
Y3291D01*
X13817Y11507D02*
X14267D01*
X15751Y10693D02*
Y11507D01*
X15433D02*
X15751D01*
X13817Y5051D02*
X13817Y11507D01*
X13817Y5051D02*
X14267Y5051D01*
X15757Y5829D02*
X15757Y5051D01*
X15433D02*
X15757D01*
X16625Y6244D02*
X16885D01*
X16625D02*
X16885D01*
X16625D02*
X16885D01*
X16625D02*
Y6565D01*
X17775Y6244D02*
Y6565D01*
X17515Y6244D02*
X17775D01*
X17550Y8250D02*
X17800Y8000D01*
X17417Y8250D02*
X17550D01*
X19736Y12608D02*
X19736Y13592D01*
X2653Y12608D02*
X20747D01*
X2653Y13592D02*
X2653Y12608D01*
X20747D02*
X20747Y13592D01*
X2653D02*
X20747D01*
X22830Y522D02*
Y971D01*
Y1529D02*
Y1978D01*
X25270Y1529D02*
Y1978D01*
Y522D02*
Y971D01*
X23600Y1000D02*
X24600D01*
X23600D02*
Y1450D01*
X24600Y1450D01*
Y1000D02*
Y1450D01*
X25050Y750D02*
Y1750D01*
X23100D02*
X25050D01*
X23100Y750D02*
Y1750D01*
Y750D02*
X25050D01*
X22830Y1978D02*
X25270Y1978D01*
X22830Y522D02*
X25270Y522D01*
X23801Y2481D02*
X24960D01*
Y5100D01*
X23801D02*
X24960D01*
X23801Y2481D02*
Y5100D01*
X25656Y12875D02*
X25656Y12615D01*
X25335Y12875D02*
X25656Y12875D01*
X25335Y11725D02*
X25656D01*
Y11985D01*
Y11725D02*
Y11985D01*
Y11725D02*
Y11985D01*
Y10815D02*
Y11075D01*
X25335D02*
X25656D01*
X25335Y9925D02*
X25656D01*
Y10185D01*
Y9925D02*
Y10185D01*
Y9925D02*
Y10185D01*
X24900Y5800D02*
X24900Y6021D01*
X24900Y9200D02*
X24953D01*
X24900Y8977D02*
Y9200D01*
X25962D02*
X26697D01*
X27509Y5800D02*
X28100D01*
Y9200D01*
X27509D02*
X28100D01*
X25962Y5800D02*
X26697D01*
X24900D02*
X24953D01*
X2000Y4250D02*
Y4550D01*
X1850Y4250D02*
X2000D01*
Y4850D01*
X1800Y9750D02*
X2000D01*
X100Y4250D02*
X1850D01*
X2000Y4850D02*
Y9750D01*
X50D02*
X1800D01*
D14*
X6833Y5796D02*
G03*
X6833Y5796I-50J0D01*
G01*
D15*
X11749Y6072D02*
G03*
X11749Y6072I-49J0D01*
G01*
D16*
X8823Y9434D02*
G03*
X8823Y9434I-30J0D01*
G01*
D17*
X19186Y11391D02*
G03*
X17414Y11400I-886J9D01*
G01*
X17414Y8899D02*
G03*
X19186Y8890I886J-9D01*
G01*
X19050Y11400D02*
G03*
X17550Y11400I-750J0D01*
G01*
Y8900D02*
G03*
X19050Y8900I750J0D01*
G01*
X1486Y8466D02*
Y9199D01*
X414D02*
X1486D01*
X414Y8466D02*
Y9199D01*
X1486Y4701D02*
Y5434D01*
X414Y4701D02*
X1486D01*
X414D02*
Y5434D01*
X3051Y7139D02*
X4650Y7150D01*
Y7800D01*
Y8450D01*
X3051Y8450D02*
X4650Y8450D01*
X3051Y7139D02*
Y8450D01*
X6189Y9089D02*
X6415D01*
X6189D02*
Y9315D01*
Y11511D02*
X6415D01*
X6189Y11285D02*
Y11511D01*
X8385Y9089D02*
X8611D01*
Y9315D01*
X8385Y11511D02*
X8611D01*
Y11285D02*
Y11511D01*
X19186Y8890D02*
Y11391D01*
X17414Y8899D02*
Y11400D01*
X17550Y8900D02*
Y11400D01*
X19050Y8900D02*
Y11400D01*
X22497Y6827D02*
X23083D01*
X22497Y6073D02*
Y6827D01*
Y6073D02*
X23083D01*
X23517Y6827D02*
X24103D01*
Y6073D02*
Y6827D01*
X23517Y6073D02*
X24103D01*
X2253Y12139D02*
X3967D01*
Y10061D02*
Y12139D01*
X2253Y10061D02*
X3967D01*
X2253D02*
Y12139D01*
D18*
X5585Y5845D02*
X5715D01*
Y5810D02*
Y5845D01*
X5585Y5810D02*
X5715D01*
X5585D02*
Y5845D01*
X5715Y5690D02*
X5715Y5655D01*
X5585Y5690D02*
X5715D01*
X5585Y5655D02*
X5585Y5690D01*
X5585Y5655D02*
X5715D01*
X5585Y4945D02*
X5715D01*
Y4910D02*
Y4945D01*
X5585Y4910D02*
X5715D01*
X5585D02*
Y4945D01*
X5715Y4790D02*
X5715Y4755D01*
X5585Y4790D02*
X5715D01*
X5585Y4755D02*
X5585Y4790D01*
X5585Y4755D02*
X5715D01*
X5585Y5395D02*
X5715D01*
Y5360D02*
Y5395D01*
X5585Y5360D02*
X5715D01*
X5585D02*
Y5395D01*
X5715Y5240D02*
X5715Y5205D01*
X5585Y5240D02*
X5715D01*
X5585Y5205D02*
X5585Y5240D01*
X5585Y5205D02*
X5715D01*
X12685Y5095D02*
X12815D01*
Y5060D02*
Y5095D01*
X12685Y5060D02*
X12815D01*
X12685D02*
Y5095D01*
X12815Y4940D02*
X12815Y4905D01*
X12685Y4940D02*
X12815D01*
X12685Y4905D02*
X12685Y4940D01*
X12685Y4905D02*
X12815D01*
X12685Y5495D02*
X12815D01*
Y5460D02*
Y5495D01*
X12685Y5460D02*
X12815D01*
X12685D02*
X12685Y5495D01*
X12815Y5340D02*
X12815Y5305D01*
X12685Y5340D02*
X12815D01*
X12685Y5305D02*
X12685Y5340D01*
X12685Y5305D02*
X12815D01*
X12385Y5895D02*
X12515Y5895D01*
Y5860D02*
Y5895D01*
X12385Y5860D02*
X12515D01*
X12385D02*
X12385Y5895D01*
X12515Y5740D02*
X12515Y5705D01*
X12385Y5740D02*
X12515D01*
X12385Y5705D02*
X12385Y5740D01*
X12385Y5705D02*
X12515Y5705D01*
X11705Y7135D02*
X11705Y7265D01*
X11740D01*
Y7135D02*
Y7265D01*
X11705Y7135D02*
X11740Y7135D01*
X11860Y7265D02*
X11895D01*
X11860Y7135D02*
X11860Y7265D01*
X11860Y7135D02*
X11895Y7135D01*
X11895Y7265D01*
X12345Y7135D02*
X12345Y7265D01*
X12310Y7135D02*
X12345Y7135D01*
X12310Y7135D02*
Y7265D01*
X12345Y7265D01*
X12155Y7135D02*
X12190D01*
Y7265D01*
X12155Y7265D02*
X12190Y7265D01*
X12155Y7265D02*
X12155Y7135D01*
D19*
X4350Y5650D02*
Y6650D01*
X2350Y5650D02*
X4350D01*
X2350D02*
Y6650D01*
X3100D01*
D20*
X4350D01*
D21*
X2950Y7050D02*
X3150D01*
X2950D02*
Y7250D01*
D22*
X21650Y12750D02*
Y12500D01*
X21700Y12450D01*
X21800D01*
X21850Y12500D01*
Y12750D01*
X21950Y12450D02*
X22050D01*
X22000D01*
Y12750D01*
X21950Y12700D01*
X5400Y1350D02*
Y1650D01*
X5550D01*
X5600Y1600D01*
Y1500D01*
X5550Y1450D01*
X5400D01*
X5700Y1600D02*
X5750Y1650D01*
X5850D01*
X5900Y1600D01*
Y1400D01*
X5850Y1350D01*
X5750D01*
X5700Y1400D01*
Y1600D01*
X6408Y1342D02*
Y1642D01*
X6558D01*
X6608Y1592D01*
Y1492D01*
X6558Y1442D01*
X6408D01*
X6858Y1342D02*
Y1642D01*
X6708Y1492D01*
X6908D01*
X7300Y1400D02*
Y1700D01*
X7450D01*
X7500Y1650D01*
Y1550D01*
X7450Y1500D01*
X7300D01*
X7600Y1400D02*
X7700D01*
X7650D01*
Y1700D01*
X7600Y1650D01*
X8050Y1700D02*
X7950Y1650D01*
X7850Y1550D01*
Y1450D01*
X7900Y1400D01*
X8000D01*
X8050Y1450D01*
Y1500D01*
X8000Y1550D01*
X7850D01*
X8250Y1400D02*
Y1700D01*
X8400D01*
X8450Y1650D01*
Y1550D01*
X8400Y1500D01*
X8250D01*
X8550Y1400D02*
X8650D01*
X8600D01*
Y1700D01*
X8550Y1650D01*
X8800Y1700D02*
X9000D01*
Y1650D01*
X8800Y1450D01*
Y1400D01*
X9350Y1350D02*
Y1650D01*
X9500D01*
X9550Y1600D01*
Y1500D01*
X9500Y1450D01*
X9350D01*
X9650Y1400D02*
X9700Y1350D01*
X9800D01*
X9850Y1400D01*
Y1600D01*
X9800Y1650D01*
X9700D01*
X9650Y1600D01*
Y1550D01*
X9700Y1500D01*
X9850D01*
X10150Y1350D02*
Y1650D01*
X10300D01*
X10350Y1600D01*
Y1500D01*
X10300Y1450D01*
X10150D01*
X10450Y1350D02*
X10550D01*
X10500D01*
Y1650D01*
X10450Y1600D01*
X10700D02*
X10750Y1650D01*
X10850D01*
X10900Y1600D01*
Y1400D01*
X10850Y1350D01*
X10750D01*
X10700Y1400D01*
Y1600D01*
X11300Y1350D02*
Y1650D01*
X11450D01*
X11500Y1600D01*
Y1500D01*
X11450Y1450D01*
X11300D01*
X11800Y1650D02*
X11600D01*
Y1500D01*
X11700Y1550D01*
X11750D01*
X11800Y1500D01*
Y1400D01*
X11750Y1350D01*
X11650D01*
X11600Y1400D01*
X12300Y1350D02*
Y1650D01*
X12450D01*
X12500Y1600D01*
Y1500D01*
X12450Y1450D01*
X12300D01*
X12600Y1350D02*
X12700D01*
X12650D01*
Y1650D01*
X12600Y1600D01*
X12850D02*
X12900Y1650D01*
X13000D01*
X13050Y1600D01*
Y1550D01*
X13000Y1500D01*
X13050Y1450D01*
Y1400D01*
X13000Y1350D01*
X12900D01*
X12850Y1400D01*
Y1450D01*
X12900Y1500D01*
X12850Y1550D01*
Y1600D01*
X12900Y1500D02*
X13000D01*
X13250Y1400D02*
Y1700D01*
X13400D01*
X13450Y1650D01*
Y1550D01*
X13400Y1500D01*
X13250D01*
X13750Y1400D02*
X13550D01*
X13750Y1600D01*
Y1650D01*
X13700Y1700D01*
X13600D01*
X13550Y1650D01*
X13850D02*
X13900Y1700D01*
X14000D01*
X14050Y1650D01*
Y1600D01*
X14000Y1550D01*
X13950D01*
X14000D01*
X14050Y1500D01*
Y1450D01*
X14000Y1400D01*
X13900D01*
X13850Y1450D01*
X14300Y1400D02*
Y1700D01*
X14450D01*
X14500Y1650D01*
Y1550D01*
X14450Y1500D01*
X14300D01*
X14600Y1400D02*
X14700D01*
X14650D01*
Y1700D01*
X14600Y1650D01*
X14850Y1450D02*
X14900Y1400D01*
X15000D01*
X15050Y1450D01*
Y1650D01*
X15000Y1700D01*
X14900D01*
X14850Y1650D01*
Y1600D01*
X14900Y1550D01*
X15050D01*
X15250Y1400D02*
Y1700D01*
X15400D01*
X15450Y1650D01*
Y1550D01*
X15400Y1500D01*
X15250D01*
X15750Y1400D02*
X15550D01*
X15750Y1600D01*
Y1650D01*
X15700Y1700D01*
X15600D01*
X15550Y1650D01*
X16050Y1400D02*
X15850D01*
X16050Y1600D01*
Y1650D01*
X16000Y1700D01*
X15900D01*
X15850Y1650D01*
X16300Y1400D02*
Y1700D01*
X16450D01*
X16500Y1650D01*
Y1550D01*
X16450Y1500D01*
X16300D01*
X16800Y1400D02*
X16600D01*
X16800Y1600D01*
Y1650D01*
X16750Y1700D01*
X16650D01*
X16600Y1650D01*
X16900Y1400D02*
X17000D01*
X16950D01*
Y1700D01*
X16900Y1650D01*
X17150D02*
X17200Y1700D01*
X17300D01*
X17350Y1650D01*
Y1600D01*
X17300Y1550D01*
X17250D01*
X17300D01*
X17350Y1500D01*
Y1450D01*
X17300Y1400D01*
X17200D01*
X17150Y1450D01*
X17450Y1700D02*
Y1500D01*
X17550Y1400D01*
X17650Y1500D01*
Y1700D01*
X17750Y1650D02*
X17800Y1700D01*
X17900D01*
X17950Y1650D01*
Y1600D01*
X17900Y1550D01*
X17850D01*
X17900D01*
X17950Y1500D01*
Y1450D01*
X17900Y1400D01*
X17800D01*
X17750Y1450D01*
X18300Y1700D02*
X18100D01*
Y1550D01*
X18200Y1600D01*
X18250D01*
X18300Y1550D01*
Y1450D01*
X18250Y1400D01*
X18150D01*
X18100Y1450D01*
X18400Y1700D02*
Y1500D01*
X18500Y1400D01*
X18600Y1500D01*
Y1700D01*
X1900Y13250D02*
X1850Y13300D01*
X1750D01*
X1700Y13250D01*
Y13050D01*
X1750Y13000D01*
X1850D01*
X1900Y13050D01*
Y13150D01*
X1800D01*
X2000Y13000D02*
Y13300D01*
X2200Y13000D01*
Y13300D01*
X2300D02*
Y13000D01*
X2450D01*
X2500Y13050D01*
Y13250D01*
X2450Y13300D01*
X2300D01*
X3750Y12450D02*
X3700Y12500D01*
X3600D01*
X3550Y12450D01*
Y12250D01*
X3600Y12200D01*
X3700D01*
X3750Y12250D01*
Y12350D01*
X3650D01*
X3850Y12200D02*
Y12500D01*
X4050Y12200D01*
Y12500D01*
X4150D02*
Y12200D01*
X4300D01*
X4350Y12250D01*
Y12450D01*
X4300Y12500D01*
X4150D01*
X4500Y12200D02*
Y12500D01*
X4650D01*
X4700Y12450D01*
Y12350D01*
X4650Y12300D01*
X4500D01*
X5000Y12200D02*
X4800D01*
X5000Y12400D01*
Y12450D01*
X4950Y12500D01*
X4850D01*
X4800Y12450D01*
X5750Y12150D02*
Y12450D01*
X5900D01*
X5950Y12400D01*
Y12300D01*
X5900Y12250D01*
X5750D01*
X6050Y12150D02*
X6150D01*
X6100D01*
Y12450D01*
X6050Y12400D01*
X6500Y12450D02*
X6300D01*
Y12300D01*
X6400Y12350D01*
X6450D01*
X6500Y12300D01*
Y12200D01*
X6450Y12150D01*
X6350D01*
X6300Y12200D01*
X6800Y12100D02*
Y12400D01*
X6950D01*
X7000Y12350D01*
Y12250D01*
X6950Y12200D01*
X6800D01*
X7100Y12100D02*
X7200D01*
X7150D01*
Y12400D01*
X7100Y12350D01*
X7350D02*
X7400Y12400D01*
X7500D01*
X7550Y12350D01*
Y12300D01*
X7500Y12250D01*
X7450D01*
X7500D01*
X7550Y12200D01*
Y12150D01*
X7500Y12100D01*
X7400D01*
X7350Y12150D01*
X7800Y12150D02*
Y12450D01*
X7950D01*
X8000Y12400D01*
Y12300D01*
X7950Y12250D01*
X7800D01*
X8100Y12150D02*
X8200D01*
X8150D01*
Y12450D01*
X8100Y12400D01*
X8550Y12150D02*
X8350D01*
X8550Y12350D01*
Y12400D01*
X8500Y12450D01*
X8400D01*
X8350Y12400D01*
X8850Y12150D02*
Y12450D01*
X9000D01*
X9050Y12400D01*
Y12300D01*
X9000Y12250D01*
X8850D01*
X9150Y12150D02*
X9250D01*
X9200D01*
Y12450D01*
X9150Y12400D01*
X9550Y12150D02*
Y12450D01*
X9400Y12300D01*
X9600D01*
X9850Y12150D02*
Y12450D01*
X10000D01*
X10050Y12400D01*
Y12300D01*
X10000Y12250D01*
X9850D01*
X10350Y12150D02*
X10150D01*
X10350Y12350D01*
Y12400D01*
X10300Y12450D01*
X10200D01*
X10150Y12400D01*
X10450Y12450D02*
X10650D01*
Y12400D01*
X10450Y12200D01*
Y12150D01*
X10800D02*
Y12450D01*
X10950D01*
X11000Y12400D01*
Y12300D01*
X10950Y12250D01*
X10800D01*
X11300Y12150D02*
X11100D01*
X11300Y12350D01*
Y12400D01*
X11250Y12450D01*
X11150D01*
X11100Y12400D01*
X11600Y12450D02*
X11500Y12400D01*
X11400Y12300D01*
Y12200D01*
X11450Y12150D01*
X11550D01*
X11600Y12200D01*
Y12250D01*
X11550Y12300D01*
X11400D01*
X11750Y12150D02*
Y12450D01*
X11900D01*
X11950Y12400D01*
Y12300D01*
X11900Y12250D01*
X11750D01*
X12250Y12150D02*
X12050D01*
X12250Y12350D01*
Y12400D01*
X12200Y12450D01*
X12100D01*
X12050Y12400D01*
X12550Y12450D02*
X12350D01*
Y12300D01*
X12450Y12350D01*
X12500D01*
X12550Y12300D01*
Y12200D01*
X12500Y12150D01*
X12400D01*
X12350Y12200D01*
X12750Y12150D02*
Y12450D01*
X12900D01*
X12950Y12400D01*
Y12300D01*
X12900Y12250D01*
X12750D01*
X13050Y12400D02*
X13100Y12450D01*
X13200D01*
X13250Y12400D01*
Y12350D01*
X13200Y12300D01*
X13150D01*
X13200D01*
X13250Y12250D01*
Y12200D01*
X13200Y12150D01*
X13100D01*
X13050Y12200D01*
X13350Y12400D02*
X13400Y12450D01*
X13500D01*
X13550Y12400D01*
Y12350D01*
X13500Y12300D01*
X13450D01*
X13500D01*
X13550Y12250D01*
Y12200D01*
X13500Y12150D01*
X13400D01*
X13350Y12200D01*
X13800Y12150D02*
Y12450D01*
X13950D01*
X14000Y12400D01*
Y12300D01*
X13950Y12250D01*
X13800D01*
X14100Y12400D02*
X14150Y12450D01*
X14250D01*
X14300Y12400D01*
Y12350D01*
X14250Y12300D01*
X14200D01*
X14250D01*
X14300Y12250D01*
Y12200D01*
X14250Y12150D01*
X14150D01*
X14100Y12200D01*
X14600Y12150D02*
X14400D01*
X14600Y12350D01*
Y12400D01*
X14550Y12450D01*
X14450D01*
X14400Y12400D01*
X14800Y12150D02*
Y12450D01*
X14950D01*
X15000Y12400D01*
Y12300D01*
X14950Y12250D01*
X14800D01*
X15100Y12400D02*
X15150Y12450D01*
X15250D01*
X15300Y12400D01*
Y12350D01*
X15250Y12300D01*
X15200D01*
X15250D01*
X15300Y12250D01*
Y12200D01*
X15250Y12150D01*
X15150D01*
X15100Y12200D01*
X15600Y12450D02*
X15400D01*
Y12300D01*
X15500Y12350D01*
X15550D01*
X15600Y12300D01*
Y12200D01*
X15550Y12150D01*
X15450D01*
X15400Y12200D01*
X15900Y12150D02*
Y12450D01*
X16050D01*
X16100Y12400D01*
Y12300D01*
X16050Y12250D01*
X15900D01*
X16200Y12400D02*
X16250Y12450D01*
X16350D01*
X16400Y12400D01*
Y12350D01*
X16350Y12300D01*
X16300D01*
X16350D01*
X16400Y12250D01*
Y12200D01*
X16350Y12150D01*
X16250D01*
X16200Y12200D01*
X16650Y12150D02*
Y12450D01*
X16500Y12300D01*
X16700D01*
X17000Y12500D02*
Y12300D01*
X17100Y12200D01*
X17200Y12300D01*
Y12500D01*
X17300Y12200D02*
Y12500D01*
X17500Y12200D01*
Y12500D01*
X17800Y12300D02*
Y12600D01*
X17950D01*
X18000Y12550D01*
Y12450D01*
X17950Y12400D01*
X17800D01*
X18100Y12550D02*
X18150Y12600D01*
X18250D01*
X18300Y12550D01*
Y12500D01*
X18250Y12450D01*
X18200D01*
X18250D01*
X18300Y12400D01*
Y12350D01*
X18250Y12300D01*
X18150D01*
X18100Y12350D01*
X18400Y12550D02*
X18450Y12600D01*
X18550D01*
X18600Y12550D01*
Y12500D01*
X18550Y12450D01*
X18600Y12400D01*
Y12350D01*
X18550Y12300D01*
X18450D01*
X18400Y12350D01*
Y12400D01*
X18450Y12450D01*
X18400Y12500D01*
Y12550D01*
X18450Y12450D02*
X18550D01*
X18850Y12200D02*
Y12500D01*
X19000D01*
X19050Y12450D01*
Y12350D01*
X19000Y12300D01*
X18850D01*
X19150Y12450D02*
X19200Y12500D01*
X19300D01*
X19350Y12450D01*
Y12400D01*
X19300Y12350D01*
X19250D01*
X19300D01*
X19350Y12300D01*
Y12250D01*
X19300Y12200D01*
X19200D01*
X19150Y12250D01*
X19450Y12500D02*
X19650D01*
Y12450D01*
X19450Y12250D01*
Y12200D01*
X19950Y12500D02*
Y12300D01*
X20050Y12200D01*
X20150Y12300D01*
Y12500D01*
X20250Y12200D02*
Y12500D01*
X20400D01*
X20450Y12450D01*
Y12350D01*
X20400Y12300D01*
X20250D01*
X6140Y5840D02*
X6040D01*
X6090D01*
Y5590D01*
X6040Y5540D01*
X5990D01*
X5940Y5590D01*
X6440Y5840D02*
X6340Y5790D01*
X6240Y5690D01*
Y5590D01*
X6290Y5540D01*
X6390D01*
X6440Y5590D01*
Y5640D01*
X6390Y5690D01*
X6240D01*
X5600Y4600D02*
X5500D01*
X5550D01*
Y4350D01*
X5500Y4300D01*
X5450D01*
X5400Y4350D01*
X5900Y4600D02*
X5700D01*
Y4450D01*
X5800Y4500D01*
X5850D01*
X5900Y4450D01*
Y4350D01*
X5850Y4300D01*
X5750D01*
X5700Y4350D01*
X4912Y5242D02*
X4812D01*
X4862D01*
Y4992D01*
X4812Y4942D01*
X4762D01*
X4712Y4992D01*
X5162Y4942D02*
Y5242D01*
X5012Y5092D01*
X5212D01*
X19250Y850D02*
Y550D01*
Y700D01*
X19450D01*
Y850D01*
Y550D01*
X19550Y800D02*
X19600Y850D01*
X19700D01*
X19750Y800D01*
Y750D01*
X19700Y700D01*
X19650D01*
X19700D01*
X19750Y650D01*
Y600D01*
X19700Y550D01*
X19600D01*
X19550Y600D01*
X8450Y4700D02*
X8400Y4750D01*
X8300D01*
X8250Y4700D01*
Y4500D01*
X8300Y4450D01*
X8400D01*
X8450Y4500D01*
X8750Y4450D02*
X8550D01*
X8750Y4650D01*
Y4700D01*
X8700Y4750D01*
X8600D01*
X8550Y4700D01*
X8850D02*
X8900Y4750D01*
X9000D01*
X9050Y4700D01*
Y4500D01*
X9000Y4450D01*
X8900D01*
X8850Y4500D01*
Y4700D01*
X1500Y7050D02*
Y6750D01*
X1700D01*
X1800D02*
X1900D01*
X1850D01*
Y7050D01*
X1800Y7000D01*
X8225Y5100D02*
Y5400D01*
X8375D01*
X8425Y5350D01*
Y5250D01*
X8375Y5200D01*
X8225D01*
X8325D02*
X8425Y5100D01*
X8525D02*
X8625D01*
X8575D01*
Y5400D01*
X8525Y5350D01*
X8975Y5100D02*
X8775D01*
X8975Y5300D01*
Y5350D01*
X8925Y5400D01*
X8825D01*
X8775Y5350D01*
X2500Y3600D02*
X2750D01*
X2800Y3650D01*
Y3750D01*
X2750Y3800D01*
X2500D01*
X2550Y3900D02*
X2500Y3950D01*
Y4050D01*
X2550Y4100D01*
X2600D01*
X2650Y4050D01*
X2700Y4100D01*
X2750D01*
X2800Y4050D01*
Y3950D01*
X2750Y3900D01*
X2700D01*
X2650Y3950D01*
X2600Y3900D01*
X2550D01*
X2650Y3950D02*
Y4050D01*
X3275Y700D02*
Y1000D01*
X3425D01*
X3475Y950D01*
Y850D01*
X3425Y800D01*
X3275D01*
X3375D02*
X3475Y700D01*
X3575D02*
X3675D01*
X3625D01*
Y1000D01*
X3575Y950D01*
X3825Y1000D02*
X4025D01*
Y950D01*
X3825Y750D01*
Y700D01*
X4400Y950D02*
X4350Y1000D01*
X4250D01*
X4200Y950D01*
Y750D01*
X4250Y700D01*
X4350D01*
X4400Y750D01*
X4700Y700D02*
X4500D01*
X4700Y900D01*
Y950D01*
X4650Y1000D01*
X4550D01*
X4500Y950D01*
X5000Y1000D02*
X4800D01*
Y850D01*
X4900Y900D01*
X4950D01*
X5000Y850D01*
Y750D01*
X4950Y700D01*
X4850D01*
X4800Y750D01*
X6400Y4800D02*
Y4550D01*
X6450Y4500D01*
X6550D01*
X6600Y4550D01*
Y4800D01*
X6700D02*
X6900D01*
Y4750D01*
X6700Y4550D01*
Y4500D01*
X6525Y3750D02*
X6475Y3800D01*
X6375D01*
X6325Y3750D01*
Y3550D01*
X6375Y3500D01*
X6475D01*
X6525Y3550D01*
X6625Y3500D02*
X6725D01*
X6675D01*
Y3800D01*
X6625Y3750D01*
X6875Y3550D02*
X6925Y3500D01*
X7025D01*
X7075Y3550D01*
Y3750D01*
X7025Y3800D01*
X6925D01*
X6875Y3750D01*
Y3700D01*
X6925Y3650D01*
X7075D01*
X6000Y2650D02*
Y2400D01*
X6050Y2350D01*
X6150D01*
X6200Y2400D01*
Y2650D01*
X6500D02*
X6400Y2600D01*
X6300Y2500D01*
Y2400D01*
X6350Y2350D01*
X6450D01*
X6500Y2400D01*
Y2450D01*
X6450Y2500D01*
X6300D01*
X8225Y2650D02*
X8175Y2700D01*
X8075D01*
X8025Y2650D01*
Y2450D01*
X8075Y2400D01*
X8175D01*
X8225Y2450D01*
X8325Y2400D02*
X8425D01*
X8375D01*
Y2700D01*
X8325Y2650D01*
X8575Y2700D02*
X8775D01*
Y2650D01*
X8575Y2450D01*
Y2400D01*
X8750Y4000D02*
X8700Y4050D01*
X8600D01*
X8550Y4000D01*
Y3800D01*
X8600Y3750D01*
X8700D01*
X8750Y3800D01*
X9050Y3750D02*
X8850D01*
X9050Y3950D01*
Y4000D01*
X9000Y4050D01*
X8900D01*
X8850Y4000D01*
X9150Y4050D02*
X9350D01*
Y4000D01*
X9150Y3800D01*
Y3750D01*
X9450Y2700D02*
X9400Y2750D01*
X9300D01*
X9250Y2700D01*
Y2500D01*
X9300Y2450D01*
X9400D01*
X9450Y2500D01*
X9750Y2450D02*
X9550D01*
X9750Y2650D01*
Y2700D01*
X9700Y2750D01*
X9600D01*
X9550Y2700D01*
X10050Y2750D02*
X9950Y2700D01*
X9850Y2600D01*
Y2500D01*
X9900Y2450D01*
X10000D01*
X10050Y2500D01*
Y2550D01*
X10000Y2600D01*
X9850D01*
X9900Y3950D02*
X9850Y4000D01*
X9750D01*
X9700Y3950D01*
Y3750D01*
X9750Y3700D01*
X9850D01*
X9900Y3750D01*
X10200Y3700D02*
X10000D01*
X10200Y3900D01*
Y3950D01*
X10150Y4000D01*
X10050D01*
X10000Y3950D01*
X10300D02*
X10350Y4000D01*
X10450D01*
X10500Y3950D01*
Y3900D01*
X10450Y3850D01*
X10400D01*
X10450D01*
X10500Y3800D01*
Y3750D01*
X10450Y3700D01*
X10350D01*
X10300Y3750D01*
X12400Y1900D02*
Y2200D01*
X12550D01*
X12600Y2150D01*
Y2050D01*
X12550Y2000D01*
X12400D01*
X12500D02*
X12600Y1900D01*
X12900D02*
X12700D01*
X12900Y2100D01*
Y2150D01*
X12850Y2200D01*
X12750D01*
X12700Y2150D01*
X13000D02*
X13050Y2200D01*
X13150D01*
X13200Y2150D01*
Y1950D01*
X13150Y1900D01*
X13050D01*
X13000Y1950D01*
Y2150D01*
X9800D02*
X9750Y2200D01*
X9650D01*
X9600Y2150D01*
Y1950D01*
X9650Y1900D01*
X9750D01*
X9800Y1950D01*
X10100Y1900D02*
X9900D01*
X10100Y2100D01*
Y2150D01*
X10050Y2200D01*
X9950D01*
X9900Y2150D01*
X10200D02*
X10250Y2200D01*
X10350D01*
X10400Y2150D01*
Y2100D01*
X10350Y2050D01*
X10400Y2000D01*
Y1950D01*
X10350Y1900D01*
X10250D01*
X10200Y1950D01*
Y2000D01*
X10250Y2050D01*
X10200Y2100D01*
Y2150D01*
X10250Y2050D02*
X10350D01*
X10375Y2750D02*
X10325Y2800D01*
X10225D01*
X10175Y2750D01*
Y2550D01*
X10225Y2500D01*
X10325D01*
X10375Y2550D01*
X10475Y2500D02*
X10575D01*
X10525D01*
Y2800D01*
X10475Y2750D01*
X10725D02*
X10775Y2800D01*
X10875D01*
X10925Y2750D01*
Y2700D01*
X10875Y2650D01*
X10925Y2600D01*
Y2550D01*
X10875Y2500D01*
X10775D01*
X10725Y2550D01*
Y2600D01*
X10775Y2650D01*
X10725Y2700D01*
Y2750D01*
X10775Y2650D02*
X10875D01*
X11200Y2700D02*
X11150Y2750D01*
X11050D01*
X11000Y2700D01*
Y2500D01*
X11050Y2450D01*
X11150D01*
X11200Y2500D01*
X11500Y2450D02*
X11300D01*
X11500Y2650D01*
Y2700D01*
X11450Y2750D01*
X11350D01*
X11300Y2700D01*
X11600Y2450D02*
X11700D01*
X11650D01*
Y2750D01*
X11600Y2700D01*
X12600Y3150D02*
X12650Y3200D01*
Y3300D01*
X12600Y3350D01*
X12400D01*
X12350Y3300D01*
Y3200D01*
X12400Y3150D01*
X12350Y2850D02*
Y3050D01*
X12550Y2850D01*
X12600D01*
X12650Y2900D01*
Y3000D01*
X12600Y3050D01*
X12350Y2550D02*
Y2750D01*
X12550Y2550D01*
X12600D01*
X12650Y2600D01*
Y2700D01*
X12600Y2750D01*
X10650Y4000D02*
Y3750D01*
X10700Y3700D01*
X10800D01*
X10850Y3750D01*
Y4000D01*
X11150D02*
X10950D01*
Y3850D01*
X11050Y3900D01*
X11100D01*
X11150Y3850D01*
Y3750D01*
X11100Y3700D01*
X11000D01*
X10950Y3750D01*
X9425Y5200D02*
Y5500D01*
X9575D01*
X9625Y5450D01*
Y5350D01*
X9575Y5300D01*
X9425D01*
X9525D02*
X9625Y5200D01*
X9725D02*
X9825D01*
X9775D01*
Y5500D01*
X9725Y5450D01*
X9975Y5200D02*
X10075D01*
X10025D01*
Y5500D01*
X9975Y5450D01*
X4375Y5650D02*
Y5950D01*
X4525D01*
X4575Y5900D01*
Y5800D01*
X4525Y5750D01*
X4375D01*
X4475D02*
X4575Y5650D01*
X4675D02*
X4775D01*
X4725D01*
Y5950D01*
X4675Y5900D01*
X5125Y5950D02*
X4925D01*
Y5800D01*
X5025Y5850D01*
X5075D01*
X5125Y5800D01*
Y5700D01*
X5075Y5650D01*
X4975D01*
X4925Y5700D01*
X5550Y7150D02*
X5500Y7200D01*
X5400D01*
X5350Y7150D01*
Y6950D01*
X5400Y6900D01*
X5500D01*
X5550Y6950D01*
X5850Y6900D02*
X5650D01*
X5850Y7100D01*
Y7150D01*
X5800Y7200D01*
X5700D01*
X5650Y7150D01*
X6100Y6900D02*
Y7200D01*
X5950Y7050D01*
X6150D01*
X2375Y7300D02*
X2325Y7350D01*
X2225D01*
X2175Y7300D01*
Y7100D01*
X2225Y7050D01*
X2325D01*
X2375Y7100D01*
X2475Y7050D02*
X2575D01*
X2525D01*
Y7350D01*
X2475Y7300D01*
X2725D02*
X2775Y7350D01*
X2875D01*
X2925Y7300D01*
Y7250D01*
X2875Y7200D01*
X2825D01*
X2875D01*
X2925Y7150D01*
Y7100D01*
X2875Y7050D01*
X2775D01*
X2725Y7100D01*
X3250Y7000D02*
Y6700D01*
Y6850D01*
X3450D01*
Y7000D01*
Y6700D01*
X3550D02*
X3650D01*
X3600D01*
Y7000D01*
X3550Y6950D01*
X3750Y8850D02*
X3950Y8550D01*
Y8850D02*
X3750Y8550D01*
X4050D02*
X4150D01*
X4100D01*
Y8850D01*
X4050Y8800D01*
X4875Y8750D02*
X4825Y8800D01*
X4725D01*
X4675Y8750D01*
Y8550D01*
X4725Y8500D01*
X4825D01*
X4875Y8550D01*
X4975Y8500D02*
X5075D01*
X5025D01*
Y8800D01*
X4975Y8750D01*
X5425Y8800D02*
X5325Y8750D01*
X5225Y8650D01*
Y8550D01*
X5275Y8500D01*
X5375D01*
X5425Y8550D01*
Y8600D01*
X5375Y8650D01*
X5225D01*
X5225Y11500D02*
X5175Y11550D01*
X5075D01*
X5025Y11500D01*
Y11300D01*
X5075Y11250D01*
X5175D01*
X5225Y11300D01*
X5325Y11250D02*
X5425D01*
X5375D01*
Y11550D01*
X5325Y11500D01*
X5575Y11250D02*
X5675D01*
X5625D01*
Y11550D01*
X5575Y11500D01*
X8800Y10500D02*
Y10250D01*
X8850Y10200D01*
X8950D01*
X9000Y10250D01*
Y10500D01*
X9300Y10200D02*
X9100D01*
X9300Y10400D01*
Y10450D01*
X9250Y10500D01*
X9150D01*
X9100Y10450D01*
X6750Y7600D02*
Y7900D01*
X6900D01*
X6950Y7850D01*
Y7750D01*
X6900Y7700D01*
X6750D01*
X6850D02*
X6950Y7600D01*
X7050Y7650D02*
X7100Y7600D01*
X7200D01*
X7250Y7650D01*
Y7850D01*
X7200Y7900D01*
X7100D01*
X7050Y7850D01*
Y7800D01*
X7100Y7750D01*
X7250D01*
X7175Y6300D02*
Y6600D01*
X7325D01*
X7375Y6550D01*
Y6450D01*
X7325Y6400D01*
X7175D01*
X7275D02*
X7375Y6300D01*
X7475D02*
X7575D01*
X7525D01*
Y6600D01*
X7475Y6550D01*
X7725D02*
X7775Y6600D01*
X7875D01*
X7925Y6550D01*
Y6350D01*
X7875Y6300D01*
X7775D01*
X7725Y6350D01*
Y6550D01*
X7825Y7800D02*
X7775Y7850D01*
X7675D01*
X7625Y7800D01*
Y7600D01*
X7675Y7550D01*
X7775D01*
X7825Y7600D01*
X7925Y7550D02*
X8025D01*
X7975D01*
Y7850D01*
X7925Y7800D01*
X8325Y7550D02*
Y7850D01*
X8175Y7700D01*
X8375D01*
X8625Y7800D02*
X8575Y7850D01*
X8475D01*
X8425Y7800D01*
Y7600D01*
X8475Y7550D01*
X8575D01*
X8625Y7600D01*
X8725Y7550D02*
X8825D01*
X8775D01*
Y7850D01*
X8725Y7800D01*
X9175Y7550D02*
X8975D01*
X9175Y7750D01*
Y7800D01*
X9125Y7850D01*
X9025D01*
X8975Y7800D01*
X9250Y7550D02*
Y7850D01*
X9400D01*
X9450Y7800D01*
Y7700D01*
X9400Y7650D01*
X9250D01*
X9350D02*
X9450Y7550D01*
X9750D02*
X9550D01*
X9750Y7750D01*
Y7800D01*
X9700Y7850D01*
X9600D01*
X9550Y7800D01*
X9825Y6300D02*
Y6600D01*
X9975D01*
X10025Y6550D01*
Y6450D01*
X9975Y6400D01*
X9825D01*
X9925D02*
X10025Y6300D01*
X10125D02*
X10225D01*
X10175D01*
Y6600D01*
X10125Y6550D01*
X10375Y6350D02*
X10425Y6300D01*
X10525D01*
X10575Y6350D01*
Y6550D01*
X10525Y6600D01*
X10425D01*
X10375Y6550D01*
Y6500D01*
X10425Y6450D01*
X10575D01*
X10625Y6300D02*
Y6600D01*
X10775D01*
X10825Y6550D01*
Y6450D01*
X10775Y6400D01*
X10625D01*
X10725D02*
X10825Y6300D01*
X10925D02*
X11025D01*
X10975D01*
Y6600D01*
X10925Y6550D01*
X11175D02*
X11225Y6600D01*
X11325D01*
X11375Y6550D01*
Y6500D01*
X11325Y6450D01*
X11375Y6400D01*
Y6350D01*
X11325Y6300D01*
X11225D01*
X11175Y6350D01*
Y6400D01*
X11225Y6450D01*
X11175Y6500D01*
Y6550D01*
X11225Y6450D02*
X11325D01*
X12625Y3650D02*
X12575Y3700D01*
X12475D01*
X12425Y3650D01*
Y3450D01*
X12475Y3400D01*
X12575D01*
X12625Y3450D01*
X12725Y3400D02*
X12825D01*
X12775D01*
Y3700D01*
X12725Y3650D01*
X13175Y3700D02*
X12975D01*
Y3550D01*
X13075Y3600D01*
X13125D01*
X13175Y3550D01*
Y3450D01*
X13125Y3400D01*
X13025D01*
X12975Y3450D01*
X13050Y4850D02*
X12950D01*
X13000D01*
Y4600D01*
X12950Y4550D01*
X12900D01*
X12850Y4600D01*
X13150Y4800D02*
X13200Y4850D01*
X13300D01*
X13350Y4800D01*
Y4750D01*
X13300Y4700D01*
X13250D01*
X13300D01*
X13350Y4650D01*
Y4600D01*
X13300Y4550D01*
X13200D01*
X13150Y4600D01*
X13350Y5550D02*
X13250D01*
X13300D01*
Y5300D01*
X13250Y5250D01*
X13200D01*
X13150Y5300D01*
X13650Y5250D02*
X13450D01*
X13650Y5450D01*
Y5500D01*
X13600Y5550D01*
X13500D01*
X13450Y5500D01*
X12250Y6350D02*
X12150D01*
X12200D01*
Y6100D01*
X12150Y6050D01*
X12100D01*
X12050Y6100D01*
X12350Y6050D02*
X12450D01*
X12400D01*
Y6350D01*
X12350Y6300D01*
X11750Y6800D02*
X11650D01*
X11700D01*
Y6550D01*
X11650Y6500D01*
X11600D01*
X11550Y6550D01*
X11850Y6800D02*
X12050D01*
Y6750D01*
X11850Y6550D01*
Y6500D01*
X12750Y7300D02*
Y7400D01*
Y7350D01*
X12500D01*
X12450Y7400D01*
Y7450D01*
X12500Y7500D01*
X12700Y7200D02*
X12750Y7150D01*
Y7050D01*
X12700Y7000D01*
X12650D01*
X12600Y7050D01*
X12550Y7000D01*
X12500D01*
X12450Y7050D01*
Y7150D01*
X12500Y7200D01*
X12550D01*
X12600Y7150D01*
X12650Y7200D01*
X12700D01*
X12600Y7150D02*
Y7050D01*
X9800Y8400D02*
X9850Y8450D01*
Y8550D01*
X9800Y8600D01*
X9600D01*
X9550Y8550D01*
Y8450D01*
X9600Y8400D01*
Y8300D02*
X9550Y8250D01*
Y8150D01*
X9600Y8100D01*
X9800D01*
X9850Y8150D01*
Y8250D01*
X9800Y8300D01*
X9750D01*
X9700Y8250D01*
Y8100D01*
X10075Y9100D02*
X10025Y9150D01*
X9925D01*
X9875Y9100D01*
Y8900D01*
X9925Y8850D01*
X10025D01*
X10075Y8900D01*
X10175Y8850D02*
X10275D01*
X10225D01*
Y9150D01*
X10175Y9100D01*
X10425D02*
X10475Y9150D01*
X10575D01*
X10625Y9100D01*
Y8900D01*
X10575Y8850D01*
X10475D01*
X10425Y8900D01*
Y9100D01*
X11950Y8350D02*
X12000Y8400D01*
Y8500D01*
X11950Y8550D01*
X11750D01*
X11700Y8500D01*
Y8400D01*
X11750Y8350D01*
X11950Y8250D02*
X12000Y8200D01*
Y8100D01*
X11950Y8050D01*
X11900D01*
X11850Y8100D01*
X11800Y8050D01*
X11750D01*
X11700Y8100D01*
Y8200D01*
X11750Y8250D01*
X11800D01*
X11850Y8200D01*
X11900Y8250D01*
X11950D01*
X11850Y8200D02*
Y8100D01*
X11650Y9100D02*
Y9400D01*
X11800D01*
X11850Y9350D01*
Y9250D01*
X11800Y9200D01*
X11650D01*
X11750D02*
X11850Y9100D01*
X12150Y9400D02*
X12050Y9350D01*
X11950Y9250D01*
Y9150D01*
X12000Y9100D01*
X12100D01*
X12150Y9150D01*
Y9200D01*
X12100Y9250D01*
X11950D01*
X10950Y10200D02*
Y10500D01*
X11100D01*
X11150Y10450D01*
Y10350D01*
X11100Y10300D01*
X10950D01*
X11050D02*
X11150Y10200D01*
X11250D02*
X11350D01*
X11300D01*
Y10500D01*
X11250Y10450D01*
X21675Y4850D02*
Y5150D01*
X21825D01*
X21875Y5100D01*
Y5000D01*
X21825Y4950D01*
X21675D01*
X21775D02*
X21875Y4850D01*
X21975D02*
X22075D01*
X22025D01*
Y5150D01*
X21975Y5100D01*
X22425Y5150D02*
X22325Y5100D01*
X22225Y5000D01*
Y4900D01*
X22275Y4850D01*
X22375D01*
X22425Y4900D01*
Y4950D01*
X22375Y5000D01*
X22225D01*
X21625Y5450D02*
Y5750D01*
X21775D01*
X21825Y5700D01*
Y5600D01*
X21775Y5550D01*
X21625D01*
X21725D02*
X21825Y5450D01*
X21925D02*
X22025D01*
X21975D01*
Y5750D01*
X21925Y5700D01*
X22325Y5450D02*
Y5750D01*
X22175Y5600D01*
X22375D01*
X18150Y5100D02*
Y4800D01*
X18300D01*
X18350Y4850D01*
Y5050D01*
X18300Y5100D01*
X18150D01*
X18650Y4800D02*
X18450D01*
X18650Y5000D01*
Y5050D01*
X18600Y5100D01*
X18500D01*
X18450Y5050D01*
X18250Y5850D02*
Y5550D01*
X18400D01*
X18450Y5600D01*
Y5800D01*
X18400Y5850D01*
X18250D01*
X18550Y5550D02*
X18650D01*
X18600D01*
Y5850D01*
X18550Y5800D01*
X16600Y4700D02*
Y5000D01*
X16750D01*
X16800Y4950D01*
Y4850D01*
X16750Y4800D01*
X16600D01*
X16700D02*
X16800Y4700D01*
X17100D02*
X16900D01*
X17100Y4900D01*
Y4950D01*
X17050Y5000D01*
X16950D01*
X16900Y4950D01*
X17200Y4700D02*
X17300D01*
X17250D01*
Y5000D01*
X17200Y4950D01*
X14600Y4800D02*
X14400D01*
Y4650D01*
X14500D01*
X14400D01*
Y4500D01*
X14700D02*
Y4800D01*
X14850D01*
X14900Y4750D01*
Y4650D01*
X14850Y4600D01*
X14700D01*
X15200Y4750D02*
X15150Y4800D01*
X15050D01*
X15000Y4750D01*
Y4550D01*
X15050Y4500D01*
X15150D01*
X15200Y4550D01*
X15300Y4500D02*
X15400D01*
X15350D01*
Y4800D01*
X15300Y4750D01*
X16600Y5850D02*
Y6050D01*
X16550Y6100D01*
X16450D01*
X16400Y6050D01*
Y5850D01*
X16450Y5800D01*
X16550D01*
X16500Y5900D02*
X16600Y5800D01*
X16550D02*
X16600Y5850D01*
X16700Y6050D02*
X16750Y6100D01*
X16850D01*
X16900Y6050D01*
Y6000D01*
X16850Y5950D01*
X16800D01*
X16850D01*
X16900Y5900D01*
Y5850D01*
X16850Y5800D01*
X16750D01*
X16700Y5850D01*
X17750Y7200D02*
Y7500D01*
X17900D01*
X17950Y7450D01*
Y7350D01*
X17900Y7300D01*
X17750D01*
X17850D02*
X17950Y7200D01*
X18250D02*
X18050D01*
X18250Y7400D01*
Y7450D01*
X18200Y7500D01*
X18100D01*
X18050Y7450D01*
X18550Y7500D02*
X18350D01*
Y7350D01*
X18450Y7400D01*
X18500D01*
X18550Y7350D01*
Y7250D01*
X18500Y7200D01*
X18400D01*
X18350Y7250D01*
X17900Y7600D02*
Y7900D01*
X18050D01*
X18100Y7850D01*
Y7750D01*
X18050Y7700D01*
X17900D01*
X18000D02*
X18100Y7600D01*
X18400D02*
X18200D01*
X18400Y7800D01*
Y7850D01*
X18350Y7900D01*
X18250D01*
X18200Y7850D01*
X18500D02*
X18550Y7900D01*
X18650D01*
X18700Y7850D01*
Y7800D01*
X18650Y7750D01*
X18600D01*
X18650D01*
X18700Y7700D01*
Y7650D01*
X18650Y7600D01*
X18550D01*
X18500Y7650D01*
X16450Y8600D02*
Y8900D01*
X16600D01*
X16650Y8850D01*
Y8750D01*
X16600Y8700D01*
X16450D01*
X16550D02*
X16650Y8600D01*
X16950D02*
X16750D01*
X16950Y8800D01*
Y8850D01*
X16900Y8900D01*
X16800D01*
X16750Y8850D01*
X17200Y8600D02*
Y8900D01*
X17050Y8750D01*
X17250D01*
X17050Y10350D02*
X17350D01*
Y10200D01*
X17300Y10150D01*
X17200D01*
X17150Y10200D01*
Y10350D01*
Y10250D02*
X17050Y10150D01*
Y9850D02*
Y10050D01*
X17250Y9850D01*
X17300D01*
X17350Y9900D01*
Y10000D01*
X17300Y10050D01*
X17050Y9550D02*
Y9750D01*
X17250Y9550D01*
X17300D01*
X17350Y9600D01*
Y9700D01*
X17300Y9750D01*
X16500Y11050D02*
Y11350D01*
X16650D01*
X16700Y11300D01*
Y11200D01*
X16650Y11150D01*
X16500D01*
X16600D02*
X16700Y11050D01*
X17000D02*
X16800D01*
X17000Y11250D01*
Y11300D01*
X16950Y11350D01*
X16850D01*
X16800Y11300D01*
X17300Y11350D02*
X17200Y11300D01*
X17100Y11200D01*
Y11100D01*
X17150Y11050D01*
X17250D01*
X17300Y11100D01*
Y11150D01*
X17250Y11200D01*
X17100D01*
X11550Y11800D02*
Y11500D01*
Y11650D01*
X11750D01*
Y11800D01*
Y11500D01*
X12050D02*
X11850D01*
X12050Y11700D01*
Y11750D01*
X12000Y11800D01*
X11900D01*
X11850Y11750D01*
X17650Y10250D02*
Y10200D01*
X17750Y10100D01*
X17850Y10200D01*
Y10250D01*
X17750Y10100D02*
Y9950D01*
X17950D02*
X18050D01*
X18000D01*
Y10250D01*
X17950Y10200D01*
X20200Y8300D02*
X20250Y8350D01*
Y8450D01*
X20200Y8500D01*
X20000D01*
X19950Y8450D01*
Y8350D01*
X20000Y8300D01*
X20250Y8000D02*
Y8200D01*
X20100D01*
X20150Y8100D01*
Y8050D01*
X20100Y8000D01*
X20000D01*
X19950Y8050D01*
Y8150D01*
X20000Y8200D01*
X20150Y9250D02*
X20200Y9300D01*
Y9400D01*
X20150Y9450D01*
X19950D01*
X19900Y9400D01*
Y9300D01*
X19950Y9250D01*
X19900Y9000D02*
X20200D01*
X20050Y9150D01*
Y8950D01*
X20200Y10250D02*
X20250Y10300D01*
Y10400D01*
X20200Y10450D01*
X20000D01*
X19950Y10400D01*
Y10300D01*
X20000Y10250D01*
X20200Y10150D02*
X20250Y10100D01*
Y10000D01*
X20200Y9950D01*
X20150D01*
X20100Y10000D01*
Y10050D01*
Y10000D01*
X20050Y9950D01*
X20000D01*
X19950Y10000D01*
Y10100D01*
X20000Y10150D01*
X19450Y11350D02*
Y11650D01*
X19600D01*
X19650Y11600D01*
Y11500D01*
X19600Y11450D01*
X19450D01*
X19550D02*
X19650Y11350D01*
X19750Y11600D02*
X19800Y11650D01*
X19900D01*
X19950Y11600D01*
Y11550D01*
X19900Y11500D01*
X19950Y11450D01*
Y11400D01*
X19900Y11350D01*
X19800D01*
X19750Y11400D01*
Y11450D01*
X19800Y11500D01*
X19750Y11550D01*
Y11600D01*
X19800Y11500D02*
X19900D01*
X22600Y2375D02*
X22300D01*
Y2525D01*
X22350Y2575D01*
X22450D01*
X22500Y2525D01*
Y2375D01*
Y2475D02*
X22600Y2575D01*
Y2675D02*
Y2775D01*
Y2725D01*
X22300D01*
X22350Y2675D01*
Y2925D02*
X22300Y2975D01*
Y3075D01*
X22350Y3125D01*
X22400D01*
X22450Y3075D01*
Y3025D01*
Y3075D01*
X22500Y3125D01*
X22550D01*
X22600Y3075D01*
Y2975D01*
X22550Y2925D01*
X25700Y2000D02*
X25650Y2050D01*
X25550D01*
X25500Y2000D01*
Y1950D01*
X25550Y1900D01*
X25650D01*
X25700Y1850D01*
Y1800D01*
X25650Y1750D01*
X25550D01*
X25500Y1800D01*
X25800Y2050D02*
Y1750D01*
X25900Y1850D01*
X26000Y1750D01*
Y2050D01*
X26100Y1750D02*
X26200D01*
X26150D01*
Y2050D01*
X26100Y2000D01*
X24150Y5550D02*
Y5300D01*
X24200Y5250D01*
X24300D01*
X24350Y5300D01*
Y5550D01*
X24450Y5500D02*
X24500Y5550D01*
X24600D01*
X24650Y5500D01*
Y5450D01*
X24600Y5400D01*
X24550D01*
X24600D01*
X24650Y5350D01*
Y5300D01*
X24600Y5250D01*
X24500D01*
X24450Y5300D01*
X26650Y3450D02*
X26600Y3500D01*
X26500D01*
X26450Y3450D01*
Y3250D01*
X26500Y3200D01*
X26600D01*
X26650Y3250D01*
X26950Y3500D02*
X26850Y3450D01*
X26750Y3350D01*
Y3250D01*
X26800Y3200D01*
X26900D01*
X26950Y3250D01*
Y3300D01*
X26900Y3350D01*
X26750D01*
X26650Y5100D02*
X26600Y5150D01*
X26500D01*
X26450Y5100D01*
Y4900D01*
X26500Y4850D01*
X26600D01*
X26650Y4900D01*
X26750Y5150D02*
X26950D01*
Y5100D01*
X26750Y4900D01*
Y4850D01*
X20950Y7200D02*
X20900Y7250D01*
X20800D01*
X20750Y7200D01*
Y7000D01*
X20800Y6950D01*
X20900D01*
X20950Y7000D01*
X21250Y6950D02*
X21050D01*
X21250Y7150D01*
Y7200D01*
X21200Y7250D01*
X21100D01*
X21050Y7200D01*
X21050Y6550D02*
X21000Y6600D01*
X20900D01*
X20850Y6550D01*
Y6350D01*
X20900Y6300D01*
X21000D01*
X21050Y6350D01*
X21150Y6300D02*
X21250D01*
X21200D01*
Y6600D01*
X21150Y6550D01*
X23350Y5950D02*
X23150D01*
Y5800D01*
X23250D01*
X23150D01*
Y5650D01*
X23450D02*
X23550D01*
X23500D01*
Y5950D01*
X23450Y5900D01*
X22650Y7200D02*
Y7500D01*
X22800D01*
X22850Y7450D01*
Y7350D01*
X22800Y7300D01*
X22650D01*
X22750D02*
X22850Y7200D01*
X22950Y7500D02*
X23150D01*
Y7450D01*
X22950Y7250D01*
Y7200D01*
X22650Y7900D02*
Y8200D01*
X22800D01*
X22850Y8150D01*
Y8050D01*
X22800Y8000D01*
X22650D01*
X22750D02*
X22850Y7900D01*
X23150Y8200D02*
X22950D01*
Y8050D01*
X23050Y8100D01*
X23100D01*
X23150Y8050D01*
Y7950D01*
X23100Y7900D01*
X23000D01*
X22950Y7950D01*
X23650Y12150D02*
X23350D01*
Y12300D01*
X23400Y12350D01*
X23500D01*
X23550Y12300D01*
Y12150D01*
Y12250D02*
X23650Y12350D01*
X23400Y12450D02*
X23350Y12500D01*
Y12600D01*
X23400Y12650D01*
X23450D01*
X23500Y12600D01*
Y12550D01*
Y12600D01*
X23550Y12650D01*
X23600D01*
X23650Y12600D01*
Y12500D01*
X23600Y12450D01*
X23650Y10400D02*
X23350D01*
Y10550D01*
X23400Y10600D01*
X23500D01*
X23550Y10550D01*
Y10400D01*
Y10500D02*
X23650Y10600D01*
Y10850D02*
X23350D01*
X23500Y10700D01*
Y10900D01*
X26350Y12300D02*
X26550D01*
X26600Y12350D01*
Y12450D01*
X26550Y12500D01*
X26350D01*
X26300Y12450D01*
Y12350D01*
X26400Y12400D02*
X26300Y12300D01*
Y12350D02*
X26350Y12300D01*
X26300Y12200D02*
Y12100D01*
Y12150D01*
X26600D01*
X26550Y12200D01*
X26350Y10200D02*
X26550D01*
X26600Y10250D01*
Y10350D01*
X26550Y10400D01*
X26350D01*
X26300Y10350D01*
Y10250D01*
X26400Y10300D02*
X26300Y10200D01*
Y10250D02*
X26350Y10200D01*
X26300Y9900D02*
Y10100D01*
X26500Y9900D01*
X26550D01*
X26600Y9950D01*
Y10050D01*
X26550Y10100D01*
X26200Y7650D02*
Y7400D01*
X26250Y7350D01*
X26350D01*
X26400Y7400D01*
Y7650D01*
X26700Y7600D02*
X26650Y7650D01*
X26550D01*
X26500Y7600D01*
Y7550D01*
X26550Y7500D01*
X26650D01*
X26700Y7450D01*
Y7400D01*
X26650Y7350D01*
X26550D01*
X26500Y7400D01*
X26800Y7650D02*
Y7350D01*
X26950D01*
X27000Y7400D01*
Y7450D01*
X26950Y7500D01*
X26800D01*
X26950D01*
X27000Y7550D01*
Y7600D01*
X26950Y7650D01*
X26800D01*
X27100Y7350D02*
X27200D01*
X27150D01*
Y7650D01*
X27100Y7600D01*
X2800Y12500D02*
Y12250D01*
X2850Y12200D01*
X2950D01*
X3000Y12250D01*
Y12500D01*
X3250Y12200D02*
Y12500D01*
X3100Y12350D01*
X3300D01*
D23*
X18778Y4950D02*
D03*
X18778Y5700D02*
D03*
M02*
