G04*
G04 #@! TF.GenerationSoftware,Altium Limited,Altium Designer,21.8.1 (53)*
G04*
G04 Layer_Physical_Order=1*
G04 Layer_Color=255*
%FSLAX24Y24*%
%MOIN*%
G70*
G04*
G04 #@! TF.SameCoordinates,E0417417-2892-4B46-94DD-8EEE6E3CFD50*
G04*
G04*
G04 #@! TF.FilePolarity,Positive*
G04*
G01*
G75*
%ADD13C,0.0100*%
%ADD17C,0.0060*%
%ADD24O,0.0709X0.0236*%
G04:AMPARAMS|DCode=25|XSize=20mil|YSize=20mil|CornerRadius=5mil|HoleSize=0mil|Usage=FLASHONLY|Rotation=90.000|XOffset=0mil|YOffset=0mil|HoleType=Round|Shape=RoundedRectangle|*
%AMROUNDEDRECTD25*
21,1,0.0200,0.0100,0,0,90.0*
21,1,0.0100,0.0200,0,0,90.0*
1,1,0.0100,0.0050,0.0050*
1,1,0.0100,0.0050,-0.0050*
1,1,0.0100,-0.0050,-0.0050*
1,1,0.0100,-0.0050,0.0050*
%
%ADD25ROUNDEDRECTD25*%
%ADD26R,0.0256X0.0236*%
%ADD27R,0.0893X0.0673*%
%ADD28O,0.0224X0.0768*%
%ADD29R,0.0433X0.0236*%
%ADD30R,0.0236X0.0256*%
%ADD31R,0.0177X0.0118*%
%ADD32R,0.0118X0.0177*%
%ADD33R,0.1055X0.1055*%
%ADD34O,0.0276X0.0110*%
%ADD35O,0.0110X0.0276*%
%ADD36R,0.0551X0.0472*%
%ADD37R,0.1496X0.1496*%
%ADD38R,0.0262X0.0079*%
%ADD39R,0.0079X0.0262*%
G04:AMPARAMS|DCode=40|XSize=20mil|YSize=20mil|CornerRadius=5mil|HoleSize=0mil|Usage=FLASHONLY|Rotation=180.000|XOffset=0mil|YOffset=0mil|HoleType=Round|Shape=RoundedRectangle|*
%AMROUNDEDRECTD40*
21,1,0.0200,0.0100,0,0,180.0*
21,1,0.0100,0.0200,0,0,180.0*
1,1,0.0100,-0.0050,0.0050*
1,1,0.0100,0.0050,0.0050*
1,1,0.0100,0.0050,-0.0050*
1,1,0.0100,-0.0050,-0.0050*
%
%ADD40ROUNDEDRECTD40*%
%ADD41R,0.0366X0.0386*%
%ADD42R,0.0984X0.0787*%
%ADD43R,0.0492X0.0118*%
%ADD44R,0.0276X0.0492*%
%ADD45R,0.0591X0.0394*%
%ADD46R,0.0921X0.1417*%
%ADD47R,0.0921X0.0386*%
%ADD48R,0.0526X0.0574*%
%ADD49R,0.0492X0.0276*%
%ADD50R,0.0571X0.0236*%
%ADD51R,0.0571X0.0118*%
%ADD52O,0.0886X0.0248*%
%ADD95C,0.0200*%
%ADD96C,0.0709*%
%ADD97R,0.0709X0.0709*%
%ADD98C,0.0315*%
%ADD99R,0.0787X0.0787*%
%ADD100C,0.0787*%
%ADD101R,0.0630X0.0630*%
%ADD102C,0.0630*%
%ADD103C,0.0800*%
%ADD104C,0.0276*%
%ADD105O,0.0630X0.0394*%
%ADD106O,0.0827X0.0394*%
%ADD107C,0.0591*%
%ADD108C,0.0240*%
G36*
X16464Y13456D02*
X16461Y13435D01*
X16408Y13413D01*
X16389Y13428D01*
X16298Y13465D01*
X16200Y13478D01*
X16102Y13465D01*
X16011Y13428D01*
X15933Y13367D01*
X15872Y13289D01*
X15835Y13198D01*
X15822Y13100D01*
X15835Y13002D01*
X15872Y12911D01*
X15876Y12906D01*
X15242Y12272D01*
X14567D01*
X14548Y12318D01*
X15006Y12776D01*
X15011Y12772D01*
X15102Y12735D01*
X15200Y12722D01*
X15298Y12735D01*
X15389Y12772D01*
X15467Y12833D01*
X15528Y12911D01*
X15565Y13002D01*
X15578Y13100D01*
X15565Y13198D01*
X15561Y13207D01*
X15571Y13223D01*
X15599Y13247D01*
X15650Y13237D01*
X15712Y13249D01*
X15765Y13285D01*
X15801Y13338D01*
X15813Y13400D01*
X15801Y13462D01*
X15787Y13483D01*
X15814Y13533D01*
X16387D01*
X16464Y13456D01*
D02*
G37*
G36*
X14923Y13396D02*
X14929Y13363D01*
X14872Y13289D01*
X14835Y13198D01*
X14822Y13100D01*
X14835Y13002D01*
X14872Y12911D01*
X14876Y12906D01*
X14362Y12392D01*
X13337D01*
X13318Y12438D01*
X13595Y12715D01*
X13920D01*
X13956Y12722D01*
X13985Y12742D01*
X14014Y12771D01*
X14102Y12735D01*
X14200Y12722D01*
X14298Y12735D01*
X14389Y12772D01*
X14467Y12833D01*
X14528Y12911D01*
X14565Y13002D01*
X14578Y13100D01*
X14565Y13198D01*
X14528Y13289D01*
X14471Y13363D01*
X14477Y13396D01*
X14483Y13413D01*
X14917D01*
X14923Y13396D01*
D02*
G37*
G36*
X11923D02*
X11929Y13363D01*
X11872Y13289D01*
X11835Y13198D01*
X11822Y13100D01*
X11835Y13002D01*
X11872Y12911D01*
X11876Y12906D01*
X11092Y12122D01*
X10417D01*
X10398Y12168D01*
X11006Y12776D01*
X11011Y12772D01*
X11102Y12735D01*
X11200Y12722D01*
X11298Y12735D01*
X11389Y12772D01*
X11467Y12833D01*
X11528Y12911D01*
X11565Y13002D01*
X11578Y13100D01*
X11565Y13198D01*
X11528Y13289D01*
X11471Y13363D01*
X11477Y13396D01*
X11483Y13413D01*
X11917D01*
X11923Y13396D01*
D02*
G37*
G36*
X10923D02*
X10929Y13363D01*
X10872Y13289D01*
X10835Y13198D01*
X10822Y13100D01*
X10835Y13002D01*
X10872Y12911D01*
X10876Y12906D01*
X10212Y12242D01*
X9537D01*
X9518Y12288D01*
X10006Y12776D01*
X10011Y12772D01*
X10102Y12735D01*
X10200Y12722D01*
X10298Y12735D01*
X10389Y12772D01*
X10467Y12833D01*
X10528Y12911D01*
X10565Y13002D01*
X10578Y13100D01*
X10565Y13198D01*
X10528Y13289D01*
X10471Y13363D01*
X10477Y13396D01*
X10483Y13413D01*
X10917D01*
X10923Y13396D01*
D02*
G37*
G36*
X9923D02*
X9929Y13363D01*
X9872Y13289D01*
X9835Y13198D01*
X9822Y13100D01*
X9835Y13002D01*
X9872Y12911D01*
X9876Y12906D01*
X9355Y12384D01*
X8535D01*
X8514Y12434D01*
X8914Y12834D01*
X8933Y12833D01*
X9011Y12772D01*
X9102Y12735D01*
X9200Y12722D01*
X9298Y12735D01*
X9389Y12772D01*
X9467Y12833D01*
X9528Y12911D01*
X9565Y13002D01*
X9578Y13100D01*
X9565Y13198D01*
X9528Y13289D01*
X9471Y13363D01*
X9477Y13396D01*
X9483Y13413D01*
X9917D01*
X9923Y13396D01*
D02*
G37*
G36*
X6923D02*
X6929Y13363D01*
X6872Y13289D01*
X6835Y13198D01*
X6822Y13100D01*
X6835Y13002D01*
X6872Y12911D01*
X6933Y12833D01*
X7011Y12772D01*
X7081Y12743D01*
Y12419D01*
X7031Y12398D01*
X6524Y12906D01*
X6528Y12911D01*
X6565Y13002D01*
X6578Y13100D01*
X6565Y13198D01*
X6528Y13289D01*
X6471Y13363D01*
X6477Y13396D01*
X6483Y13413D01*
X6917D01*
X6923Y13396D01*
D02*
G37*
G36*
X5072Y11982D02*
X5027Y11970D01*
X4960D01*
X4952Y11983D01*
X4891Y12023D01*
X4819Y12038D01*
X4181D01*
X4109Y12023D01*
X4048Y11983D01*
X4008Y11922D01*
X3993Y11850D01*
X4008Y11778D01*
X4048Y11717D01*
X4109Y11677D01*
X4181Y11662D01*
X4819D01*
X4891Y11677D01*
X4952Y11717D01*
X4970Y11746D01*
X5112D01*
Y11687D01*
X5319D01*
X5638Y11369D01*
Y11310D01*
X5588Y11284D01*
X5562Y11301D01*
X5500Y11313D01*
X5438Y11301D01*
X5385Y11265D01*
X5349Y11212D01*
X5339Y11161D01*
X5307Y11145D01*
X5288Y11142D01*
X5051Y11379D01*
X5021Y11399D01*
X4996Y11404D01*
X4992Y11422D01*
X4952Y11483D01*
X4891Y11523D01*
X4819Y11538D01*
X4181D01*
X4109Y11523D01*
X4048Y11483D01*
X4021Y11442D01*
X3938D01*
X3758Y11622D01*
X3763Y11650D01*
X3751Y11712D01*
X3715Y11765D01*
X3662Y11801D01*
X3600Y11813D01*
X3538Y11801D01*
X3485Y11765D01*
X3449Y11712D01*
X3447Y11703D01*
X3393Y11687D01*
X3275Y11805D01*
X3245Y11825D01*
X3210Y11832D01*
X3017D01*
X2990Y11882D01*
X2994Y11900D01*
X2606D01*
X2610Y11882D01*
X2583Y11832D01*
X2388D01*
X2318Y11901D01*
X2289Y11921D01*
X2253Y11928D01*
X2208D01*
X2172Y11983D01*
X2111Y12023D01*
X2039Y12038D01*
X1402D01*
X1330Y12023D01*
X1269Y11983D01*
X1228Y11922D01*
X1214Y11850D01*
X1228Y11778D01*
X1269Y11717D01*
X1286Y11706D01*
X1271Y11656D01*
X1012D01*
X1001Y11712D01*
X965Y11765D01*
X912Y11801D01*
X850Y11813D01*
X808Y11805D01*
X788Y11852D01*
X794Y11856D01*
X838Y11922D01*
X844Y11950D01*
X650D01*
Y12050D01*
X844D01*
X838Y12078D01*
X834Y12084D01*
X988Y12238D01*
X2893D01*
X2912Y12192D01*
X2862Y12142D01*
X2850Y12144D01*
Y12000D01*
X2994D01*
X2992Y12012D01*
X3218Y12238D01*
X5072D01*
Y11982D01*
D02*
G37*
G36*
X7923Y13396D02*
X7929Y13363D01*
X7872Y13289D01*
X7835Y13198D01*
X7822Y13100D01*
X7835Y13002D01*
X7872Y12911D01*
X7933Y12833D01*
X8011Y12772D01*
X8054Y12755D01*
X8066Y12696D01*
X7480Y12109D01*
X7433Y12129D01*
Y12191D01*
X7450Y12237D01*
X7512Y12249D01*
X7565Y12285D01*
X7601Y12338D01*
X7613Y12400D01*
X7601Y12462D01*
X7565Y12515D01*
X7512Y12551D01*
X7450Y12563D01*
X7388Y12551D01*
X7335Y12515D01*
X7315Y12486D01*
X7265Y12501D01*
Y12730D01*
X7298Y12735D01*
X7389Y12772D01*
X7467Y12833D01*
X7528Y12911D01*
X7565Y13002D01*
X7578Y13100D01*
X7565Y13198D01*
X7528Y13289D01*
X7471Y13363D01*
X7477Y13396D01*
X7483Y13413D01*
X7917D01*
X7923Y13396D01*
D02*
G37*
G36*
X5933Y12833D02*
X6011Y12772D01*
X6102Y12735D01*
X6200Y12722D01*
X6298Y12735D01*
X6389Y12772D01*
X6394Y12776D01*
X6915Y12256D01*
Y12036D01*
X6865Y12015D01*
X6315Y12565D01*
X6285Y12585D01*
X6250Y12592D01*
X5730D01*
X5725Y12642D01*
X5762Y12649D01*
X5815Y12685D01*
X5851Y12738D01*
X5863Y12800D01*
X5862Y12807D01*
X5902Y12863D01*
X5908Y12864D01*
X5933Y12833D01*
D02*
G37*
G36*
X12869Y12920D02*
X12872Y12911D01*
X12933Y12833D01*
X13011Y12772D01*
X13102Y12735D01*
X13200Y12722D01*
X13282Y12733D01*
X13307Y12686D01*
X13162Y12542D01*
X12600D01*
X12565Y12535D01*
X12535Y12515D01*
X11902Y11882D01*
X11627D01*
X11608Y11928D01*
X12188Y12508D01*
X12348D01*
X12383Y12515D01*
X12413Y12535D01*
X12810Y12932D01*
X12869Y12920D01*
D02*
G37*
G36*
X8923Y13396D02*
X8929Y13363D01*
X8872Y13289D01*
X8835Y13198D01*
X8822Y13100D01*
X8833Y13013D01*
X7620Y11800D01*
X7570Y11821D01*
Y11941D01*
X8260Y12630D01*
X8280Y12660D01*
X8287Y12695D01*
Y12733D01*
X8298Y12735D01*
X8389Y12772D01*
X8467Y12833D01*
X8528Y12911D01*
X8565Y13002D01*
X8578Y13100D01*
X8565Y13198D01*
X8528Y13289D01*
X8471Y13363D01*
X8477Y13396D01*
X8483Y13413D01*
X8917D01*
X8923Y13396D01*
D02*
G37*
G36*
X6757Y11863D02*
Y11743D01*
X6707Y11723D01*
X6358Y12072D01*
X6363Y12100D01*
X6351Y12162D01*
X6315Y12215D01*
X6262Y12251D01*
X6200Y12263D01*
X6138Y12251D01*
X6085Y12215D01*
X6049Y12162D01*
X6037Y12100D01*
X6049Y12038D01*
X6085Y11985D01*
X6138Y11949D01*
X6200Y11937D01*
X6228Y11942D01*
X6483Y11687D01*
X6462Y11637D01*
X6292D01*
X5982Y11948D01*
Y12110D01*
X5975Y12145D01*
X5955Y12175D01*
X5768Y12362D01*
X5787Y12408D01*
X6212D01*
X6757Y11863D01*
D02*
G37*
G36*
X2804Y11600D02*
X3000D01*
Y11500D01*
X2806D01*
X2812Y11472D01*
X2856Y11406D01*
X2915Y11366D01*
X2915Y11365D01*
X2935Y11335D01*
X3108Y11162D01*
X3106Y11150D01*
X3300D01*
Y11050D01*
X3106D01*
X3112Y11022D01*
X3132Y10992D01*
X3105Y10942D01*
X2199D01*
X2172Y10983D01*
X2111Y11023D01*
X2039Y11038D01*
X1402D01*
X1330Y11023D01*
X1269Y10983D01*
X1242Y10942D01*
X931D01*
X915Y10965D01*
X862Y11001D01*
X800Y11013D01*
X738Y11001D01*
X685Y10965D01*
X649Y10912D01*
X637Y10850D01*
X649Y10788D01*
X685Y10735D01*
X738Y10699D01*
X800Y10687D01*
X862Y10699D01*
X915Y10735D01*
X931Y10758D01*
X1242D01*
X1269Y10717D01*
X1330Y10677D01*
X1402Y10662D01*
X2039D01*
X2111Y10677D01*
X2172Y10717D01*
X2199Y10758D01*
X3410D01*
X3445Y10765D01*
X3475Y10785D01*
X3662Y10972D01*
X3988D01*
X4012Y10928D01*
X4008Y10922D01*
X3993Y10850D01*
X4008Y10778D01*
X4048Y10717D01*
X4109Y10677D01*
X4181Y10662D01*
X4754D01*
Y10636D01*
X4761Y10601D01*
X4769Y10588D01*
X4747Y10538D01*
X4181D01*
X4109Y10523D01*
X4048Y10483D01*
X4021Y10442D01*
X3781D01*
X3765Y10465D01*
X3712Y10501D01*
X3650Y10513D01*
X3588Y10501D01*
X3550Y10476D01*
X3514Y10495D01*
X3504Y10502D01*
X3488Y10578D01*
X3444Y10644D01*
X3378Y10688D01*
X3350Y10694D01*
Y10500D01*
Y10306D01*
X3378Y10312D01*
X3439Y10353D01*
X3444Y10352D01*
X3463Y10347D01*
X3490Y10334D01*
X3499Y10288D01*
X3535Y10235D01*
X3588Y10199D01*
X3650Y10187D01*
X3712Y10199D01*
X3765Y10235D01*
X3781Y10258D01*
X4021D01*
X4048Y10217D01*
X4109Y10177D01*
X4181Y10162D01*
X4819D01*
X4891Y10177D01*
X4952Y10217D01*
X4992Y10278D01*
X4995Y10294D01*
X5043Y10308D01*
X5226Y10126D01*
X5256Y10106D01*
X5291Y10099D01*
X5499D01*
X5534Y10106D01*
X5564Y10126D01*
X5568Y10129D01*
X5624D01*
X5645Y10079D01*
X5607Y10042D01*
X938D01*
X562Y10418D01*
Y11182D01*
X638Y11258D01*
X1242D01*
X1269Y11217D01*
X1330Y11177D01*
X1402Y11162D01*
X2039D01*
X2111Y11177D01*
X2172Y11217D01*
X2213Y11278D01*
X2227Y11350D01*
X2213Y11422D01*
X2208Y11428D01*
X2232Y11472D01*
X2285D01*
X2310Y11435D01*
X2363Y11399D01*
X2425Y11387D01*
X2487Y11399D01*
X2540Y11435D01*
X2576Y11488D01*
X2588Y11550D01*
X2579Y11598D01*
X2607Y11648D01*
X2770D01*
X2804Y11600D01*
D02*
G37*
G36*
X27165Y13667D02*
X27238Y13657D01*
X27306Y13629D01*
X27364Y13585D01*
X27409Y13526D01*
X27437Y13459D01*
X27446Y13386D01*
X27447D01*
Y9465D01*
X27397Y9440D01*
X27371Y9460D01*
X27299Y9490D01*
X27221Y9500D01*
X27153D01*
Y9201D01*
Y8901D01*
X27221D01*
X27299Y8912D01*
X27371Y8941D01*
X27397Y8962D01*
X27447Y8937D01*
Y6063D01*
X27397Y6038D01*
X27371Y6059D01*
X27299Y6088D01*
X27221Y6099D01*
X27153D01*
Y5799D01*
Y5500D01*
X27221D01*
X27299Y5510D01*
X27371Y5540D01*
X27397Y5560D01*
X27447Y5535D01*
Y394D01*
X27446D01*
X27437Y321D01*
X27409Y253D01*
X27364Y195D01*
X27306Y150D01*
X27238Y122D01*
X27165Y113D01*
Y112D01*
X394D01*
Y113D01*
X321Y122D01*
X253Y150D01*
X195Y195D01*
X150Y253D01*
X122Y321D01*
X113Y394D01*
X112D01*
Y4270D01*
X858D01*
Y988D01*
X799Y929D01*
X790Y936D01*
X694Y976D01*
X641Y983D01*
Y641D01*
X983D01*
X976Y694D01*
X936Y790D01*
X929Y799D01*
X1015Y885D01*
X1035Y915D01*
X1042Y950D01*
Y4270D01*
X1970D01*
X1920Y4320D01*
Y9308D01*
X2027D01*
X2047Y9270D01*
X2048Y9258D01*
X2037Y9200D01*
X2049Y9138D01*
X2085Y9085D01*
X2108Y9069D01*
Y1380D01*
X2115Y1345D01*
X2135Y1315D01*
X2765Y685D01*
X2795Y665D01*
X2830Y658D01*
X5186D01*
Y336D01*
X6014D01*
Y536D01*
X6064Y541D01*
X6065Y537D01*
X6085Y507D01*
X6357Y235D01*
X6387Y215D01*
X6422Y208D01*
X7000D01*
X7035Y215D01*
X7065Y235D01*
X7286Y456D01*
X7304Y454D01*
X7391Y388D01*
X7492Y346D01*
X7600Y332D01*
X7708Y346D01*
X7809Y388D01*
X7896Y454D01*
X7949Y441D01*
X7949Y438D01*
X7985Y385D01*
X8038Y349D01*
X8100Y337D01*
X8128Y342D01*
X8229Y241D01*
X8259Y221D01*
X8294Y214D01*
X10156D01*
X10191Y221D01*
X10221Y241D01*
X10378Y398D01*
X10391Y388D01*
X10492Y346D01*
X10600Y332D01*
X10708Y346D01*
X10809Y388D01*
X10896Y454D01*
X10962Y541D01*
X11004Y642D01*
X11018Y750D01*
X11004Y858D01*
X10962Y959D01*
X10896Y1045D01*
X10809Y1112D01*
X10708Y1154D01*
X10600Y1168D01*
X10492Y1154D01*
X10391Y1112D01*
X10304Y1045D01*
X10238Y959D01*
X10196Y858D01*
X10182Y750D01*
X10196Y642D01*
X10238Y541D01*
X10248Y528D01*
X10118Y397D01*
X9899D01*
X9883Y445D01*
X9895Y454D01*
X9962Y541D01*
X10004Y642D01*
X10018Y750D01*
X10004Y858D01*
X9962Y959D01*
X9895Y1045D01*
X9809Y1112D01*
X9708Y1154D01*
X9600Y1168D01*
X9569Y1195D01*
Y1689D01*
X9601Y1738D01*
X9613Y1800D01*
X9603Y1853D01*
X9631Y1898D01*
X9669Y1901D01*
X9835Y1735D01*
X9865Y1715D01*
X9900Y1708D01*
X10454D01*
X11228Y934D01*
X11196Y858D01*
X11182Y750D01*
X11196Y642D01*
X11238Y541D01*
X11305Y454D01*
X11391Y388D01*
X11492Y346D01*
X11600Y332D01*
X11708Y346D01*
X11809Y388D01*
X11896Y454D01*
X11962Y541D01*
X12004Y642D01*
X12018Y750D01*
X12004Y858D01*
X11962Y959D01*
X11896Y1045D01*
X11809Y1112D01*
X11708Y1154D01*
X11600Y1168D01*
X11492Y1154D01*
X11391Y1112D01*
X11345Y1077D01*
X10771Y1651D01*
X10790Y1697D01*
X10978D01*
Y1865D01*
X10750D01*
Y1965D01*
X10978D01*
Y2133D01*
X11018Y2158D01*
X11219D01*
X11235Y2135D01*
X11288Y2099D01*
X11350Y2087D01*
X11412Y2099D01*
X11465Y2135D01*
X11501Y2188D01*
X11513Y2250D01*
X11501Y2312D01*
X11465Y2365D01*
X11412Y2401D01*
X11350Y2413D01*
X11288Y2401D01*
X11235Y2365D01*
X11219Y2342D01*
X10938D01*
Y2428D01*
X10562D01*
Y2133D01*
X10522D01*
Y1916D01*
X10492Y1892D01*
X9938D01*
X9765Y2065D01*
X9735Y2085D01*
X9700Y2092D01*
X9300D01*
X9265Y2085D01*
X9235Y2065D01*
X9085Y1915D01*
X9065Y1885D01*
X9058Y1850D01*
Y1438D01*
X8962Y1342D01*
X6338D01*
X5815Y1865D01*
X5785Y1885D01*
X5750Y1892D01*
X5342D01*
Y2675D01*
X5392Y2680D01*
X5396Y2657D01*
X5421Y2621D01*
X6221Y1821D01*
X6221Y1821D01*
X6257Y1796D01*
X6300Y1788D01*
X6300Y1788D01*
X7060D01*
X7060Y1788D01*
X7103Y1796D01*
X7140Y1821D01*
X7322Y2003D01*
X7322Y2003D01*
X7347Y2040D01*
X7349Y2050D01*
X7527D01*
Y2050D01*
X7765D01*
Y2286D01*
X8001D01*
Y2483D01*
Y2877D01*
X8001D01*
Y2941D01*
X8162D01*
Y2855D01*
X8538D01*
Y3189D01*
Y3545D01*
X8442D01*
Y3750D01*
X8435Y3785D01*
X8415Y3815D01*
X8318Y3912D01*
X8337Y3958D01*
X8400D01*
X8435Y3965D01*
X8465Y3985D01*
X8665Y4185D01*
X8685Y4215D01*
X8692Y4250D01*
Y5359D01*
X8713Y5372D01*
X8742Y5380D01*
X8788Y5349D01*
X8850Y5337D01*
X8912Y5349D01*
X8965Y5385D01*
X9001Y5438D01*
X9013Y5500D01*
X9001Y5562D01*
X8965Y5615D01*
X8933Y5637D01*
X8938Y5687D01*
X8938D01*
Y6088D01*
X9212D01*
Y5794D01*
X9208Y5775D01*
Y5581D01*
X9185Y5565D01*
X9149Y5512D01*
X9137Y5450D01*
X9149Y5388D01*
X9185Y5335D01*
X9238Y5299D01*
X9300Y5287D01*
X9309Y5289D01*
X9334Y5243D01*
X8912Y4821D01*
X8888Y4784D01*
X8879Y4741D01*
X8879Y4741D01*
Y4134D01*
X8879Y4134D01*
X8888Y4091D01*
X8912Y4055D01*
X8938Y4029D01*
Y3578D01*
X8862D01*
Y3283D01*
X8822D01*
Y3115D01*
X9050D01*
X9278D01*
Y3283D01*
X9326Y3288D01*
X9374D01*
X9422Y3283D01*
Y3115D01*
X9650D01*
X9878D01*
Y3283D01*
X9926Y3288D01*
X9974D01*
X10022Y3283D01*
Y3115D01*
X10250D01*
X10478D01*
Y3283D01*
X10526Y3288D01*
X10574D01*
X10622Y3283D01*
Y3115D01*
X10850D01*
X11078D01*
Y3283D01*
X11126Y3288D01*
X11174D01*
X11222Y3283D01*
Y3115D01*
X11450D01*
X11678D01*
Y3283D01*
X11726Y3288D01*
X11774D01*
X11822Y3283D01*
Y3115D01*
X12050D01*
X12278D01*
Y3283D01*
X12326Y3288D01*
X13783D01*
X13785Y3285D01*
X13838Y3249D01*
X13900Y3237D01*
X13962Y3249D01*
X14006Y3278D01*
X14040Y3268D01*
X14056Y3256D01*
Y2336D01*
X12822Y1102D01*
X12809Y1112D01*
X12708Y1154D01*
X12600Y1168D01*
X12492Y1154D01*
X12391Y1112D01*
X12305Y1045D01*
X12238Y959D01*
X12196Y858D01*
X12182Y750D01*
X12196Y642D01*
X12238Y541D01*
X12305Y454D01*
X12391Y388D01*
X12492Y346D01*
X12600Y332D01*
X12708Y346D01*
X12809Y388D01*
X12895Y454D01*
X12962Y541D01*
X13004Y642D01*
X13018Y750D01*
X13004Y858D01*
X12962Y959D01*
X12952Y972D01*
X14130Y2150D01*
X14176Y2131D01*
Y1456D01*
X13822Y1102D01*
X13809Y1112D01*
X13708Y1154D01*
X13600Y1168D01*
X13492Y1154D01*
X13391Y1112D01*
X13305Y1045D01*
X13238Y959D01*
X13196Y858D01*
X13182Y750D01*
X13196Y642D01*
X13238Y541D01*
X13305Y454D01*
X13391Y388D01*
X13492Y346D01*
X13600Y332D01*
X13708Y346D01*
X13809Y388D01*
X13895Y454D01*
X13962Y541D01*
X14004Y642D01*
X14018Y750D01*
X14004Y858D01*
X13962Y959D01*
X13952Y972D01*
X14333Y1353D01*
X14353Y1383D01*
X14360Y1418D01*
Y3307D01*
X14410Y3322D01*
X14435Y3285D01*
X14457Y3270D01*
X14466Y3216D01*
X14463Y3210D01*
X14431Y3162D01*
X14418Y3100D01*
X14431Y3038D01*
X14466Y2985D01*
X14470Y2982D01*
Y2922D01*
X14460Y2915D01*
X14424Y2862D01*
X14412Y2800D01*
X14424Y2738D01*
X14460Y2685D01*
X14513Y2649D01*
X14575Y2637D01*
X14637Y2649D01*
X14687Y2683D01*
X15508Y1862D01*
Y1156D01*
X15492Y1154D01*
X15391Y1112D01*
X15304Y1045D01*
X15238Y959D01*
X15196Y858D01*
X15182Y750D01*
X15196Y642D01*
X15238Y541D01*
X15304Y454D01*
X15391Y388D01*
X15492Y346D01*
X15600Y332D01*
X15708Y346D01*
X15809Y388D01*
X15896Y454D01*
X15962Y541D01*
X16004Y642D01*
X16018Y750D01*
X16004Y858D01*
X15962Y959D01*
X15896Y1045D01*
X15809Y1112D01*
X15708Y1154D01*
X15692Y1156D01*
Y1900D01*
X15685Y1935D01*
X15665Y1965D01*
X14765Y2865D01*
X14735Y2885D01*
X14707Y2890D01*
X14690Y2915D01*
X14714Y2959D01*
X14737Y2978D01*
X14743Y2977D01*
X16508Y1212D01*
Y1156D01*
X16492Y1154D01*
X16391Y1112D01*
X16305Y1045D01*
X16238Y959D01*
X16196Y858D01*
X16182Y750D01*
X16196Y642D01*
X16238Y541D01*
X16305Y454D01*
X16391Y388D01*
X16492Y346D01*
X16600Y332D01*
X16708Y346D01*
X16809Y388D01*
X16896Y454D01*
X16962Y541D01*
X17004Y642D01*
X17018Y750D01*
X17004Y858D01*
X16962Y959D01*
X16896Y1045D01*
X16809Y1112D01*
X16708Y1154D01*
X16692Y1156D01*
Y1250D01*
X16685Y1285D01*
X16665Y1315D01*
X14836Y3144D01*
X14806Y3164D01*
X14771Y3171D01*
X14727D01*
X14697Y3215D01*
X14685Y3223D01*
X14700Y3273D01*
X14918D01*
X17236Y955D01*
X17196Y858D01*
X17182Y750D01*
X17196Y642D01*
X17238Y541D01*
X17305Y454D01*
X17391Y388D01*
X17492Y346D01*
X17600Y332D01*
X17708Y346D01*
X17805Y386D01*
X17985Y206D01*
X17985Y206D01*
X18021Y182D01*
X18064Y174D01*
X18064Y174D01*
X23886D01*
X23886Y174D01*
X23929Y182D01*
X23965Y206D01*
X24729Y971D01*
X24729Y971D01*
X24754Y1007D01*
X24762Y1050D01*
X24762Y1050D01*
Y2854D01*
X24904Y2995D01*
X24950Y2976D01*
Y2935D01*
X25460D01*
Y3178D01*
X25152D01*
X25133Y3224D01*
X25179Y3271D01*
X25179Y3271D01*
X25203Y3307D01*
X25212Y3350D01*
X25212Y3350D01*
Y3538D01*
X26031D01*
Y3738D01*
X26372D01*
Y3662D01*
X26667D01*
Y3622D01*
X26835D01*
Y3850D01*
Y4078D01*
X26667D01*
X26662Y4126D01*
Y4224D01*
X26667Y4272D01*
X26835D01*
Y4500D01*
Y4728D01*
X26667D01*
Y4688D01*
X26372D01*
Y4312D01*
X26438D01*
Y4038D01*
X26372D01*
Y3962D01*
X26031D01*
Y4043D01*
X24990D01*
Y3658D01*
X24988Y3648D01*
X24988Y3648D01*
Y3396D01*
X24571Y2979D01*
X24546Y2943D01*
X24538Y2900D01*
X24538Y2900D01*
Y1096D01*
X23839Y398D01*
X18899D01*
X18883Y445D01*
X18895Y454D01*
X18962Y541D01*
X19004Y642D01*
X19004Y648D01*
X23110D01*
X23110Y648D01*
X23153Y656D01*
X23189Y681D01*
X24279Y1771D01*
X24279Y1771D01*
X24304Y1807D01*
X24312Y1850D01*
X24312Y1850D01*
Y4245D01*
X24651Y4584D01*
X24990D01*
Y4443D01*
X26031D01*
Y4790D01*
X26210Y4969D01*
X26210Y4969D01*
X26234Y5006D01*
X26236Y5015D01*
X26265Y5035D01*
X26301Y5088D01*
X26313Y5150D01*
X26301Y5212D01*
X26265Y5265D01*
X26212Y5301D01*
X26150Y5313D01*
X26088Y5301D01*
X26035Y5265D01*
X25999Y5212D01*
X25987Y5150D01*
X25999Y5088D01*
X26004Y5080D01*
X25872Y4949D01*
X24990D01*
Y4808D01*
X24651D01*
X23173Y6286D01*
Y6797D01*
X22527D01*
Y6562D01*
X22095D01*
Y6638D01*
X22029D01*
Y6912D01*
X22095D01*
Y7288D01*
X21801D01*
Y7328D01*
X21633D01*
Y7100D01*
Y6872D01*
X21801D01*
X21805Y6824D01*
Y6726D01*
X21801Y6678D01*
X21633D01*
Y6450D01*
Y6222D01*
X21801D01*
Y6262D01*
X22095D01*
Y6338D01*
X22527D01*
Y6103D01*
X23039D01*
X24446Y4696D01*
X24121Y4371D01*
X24096Y4335D01*
X24088Y4292D01*
X24088Y4292D01*
Y1896D01*
X23064Y872D01*
X18998D01*
X18962Y959D01*
X18895Y1045D01*
X18883Y1055D01*
X18899Y1102D01*
X20564D01*
X20564Y1102D01*
X20607Y1111D01*
X20644Y1135D01*
X21397Y1888D01*
X21397Y1888D01*
X21421Y1924D01*
X21429Y1967D01*
Y4812D01*
X21495D01*
Y5188D01*
X21429D01*
Y5412D01*
X21495D01*
Y5788D01*
X21346D01*
X21329Y5814D01*
X21329Y5814D01*
X20352Y6791D01*
X20315Y6815D01*
X20273Y6824D01*
X20273Y6824D01*
X18538D01*
X17760Y7602D01*
X17775Y7658D01*
X17815Y7685D01*
X17851Y7738D01*
X17863Y7800D01*
X17851Y7862D01*
X17815Y7915D01*
X17762Y7951D01*
X17700Y7963D01*
X17638Y7951D01*
X17627Y7943D01*
X17378Y8192D01*
Y8438D01*
X16687D01*
Y8062D01*
X16774D01*
Y7838D01*
X16687D01*
Y7462D01*
X16886D01*
X16889Y7458D01*
X16962Y7384D01*
X16943Y7338D01*
X16876D01*
Y7042D01*
X17064D01*
Y7218D01*
X17110Y7237D01*
X17204Y7143D01*
X17233Y7123D01*
X17268Y7116D01*
X17376D01*
Y6686D01*
X17772D01*
Y7207D01*
X17818Y7226D01*
X18412Y6632D01*
X18448Y6608D01*
X18491Y6600D01*
X18491Y6600D01*
X20226D01*
X20992Y5834D01*
X20972Y5788D01*
X20805D01*
Y5692D01*
X20043D01*
Y5953D01*
X19557D01*
Y5447D01*
X20043D01*
Y5508D01*
X20805D01*
Y5412D01*
X21205D01*
Y5188D01*
X20805D01*
Y5092D01*
X20043D01*
Y5203D01*
X19557D01*
Y4697D01*
X20043D01*
Y4908D01*
X20805D01*
Y4812D01*
X21205D01*
Y2014D01*
X20518Y1326D01*
X18064D01*
X18064Y1326D01*
X18021Y1318D01*
X17985Y1294D01*
X17985Y1294D01*
X17805Y1114D01*
X17708Y1154D01*
X17600Y1168D01*
X17492Y1154D01*
X17395Y1114D01*
X15044Y3465D01*
X15008Y3489D01*
X14965Y3497D01*
X14965Y3497D01*
X14677D01*
X14665Y3515D01*
X14615Y3549D01*
X14612Y3570D01*
Y3580D01*
X14615Y3601D01*
X14665Y3635D01*
X14681Y3658D01*
X16270D01*
X16305Y3665D01*
X16335Y3685D01*
X17508Y4858D01*
X18951D01*
Y4697D01*
X19437D01*
Y5203D01*
X18951D01*
Y5042D01*
X17470D01*
X17435Y5035D01*
X17405Y5015D01*
X16232Y3842D01*
X14681D01*
X14665Y3865D01*
X14612Y3901D01*
X14550Y3913D01*
X14488Y3901D01*
X14435Y3865D01*
X14410Y3828D01*
X14360Y3843D01*
Y4896D01*
X15402D01*
Y5703D01*
X15448Y5722D01*
X15885Y5285D01*
X15915Y5265D01*
X15950Y5258D01*
X16637D01*
Y5162D01*
X17328D01*
Y5538D01*
X17242D01*
Y5702D01*
X17398D01*
Y6314D01*
X17002D01*
Y5702D01*
X17058D01*
Y5538D01*
X16637D01*
Y5442D01*
X15988D01*
X15620Y5810D01*
X15639Y5856D01*
X15814D01*
Y6015D01*
X15864D01*
Y6065D01*
X16210D01*
Y6162D01*
X15864D01*
Y6262D01*
X16210D01*
Y6371D01*
X16170D01*
Y6644D01*
X16210D01*
Y6753D01*
X15864D01*
X15518D01*
Y6698D01*
X14747D01*
X14711Y6739D01*
X14713Y6750D01*
X14701Y6812D01*
X14665Y6865D01*
X14612Y6901D01*
X14550Y6913D01*
X14488Y6901D01*
X14435Y6865D01*
X14410Y6828D01*
X14360Y6843D01*
Y6962D01*
X14556Y7158D01*
X15050D01*
X15085Y7165D01*
X15115Y7185D01*
X15465Y7535D01*
X15468Y7539D01*
X15518Y7524D01*
Y7443D01*
X15864D01*
X16210D01*
Y7540D01*
X15864D01*
Y7640D01*
X16210D01*
Y7737D01*
X15864D01*
Y7837D01*
X16210D01*
Y7934D01*
X15864D01*
Y8034D01*
X16210D01*
Y8131D01*
X15864D01*
Y8231D01*
X16210D01*
Y8340D01*
X16170D01*
Y8669D01*
X16962D01*
X16985Y8635D01*
X17038Y8599D01*
X17100Y8587D01*
X17162Y8599D01*
X17215Y8635D01*
X17251Y8688D01*
X17263Y8750D01*
X17251Y8812D01*
X17215Y8865D01*
X17162Y8901D01*
X17100Y8913D01*
X17038Y8901D01*
X16985Y8865D01*
X16976Y8852D01*
X16170D01*
Y9073D01*
X16537D01*
Y9012D01*
X16832D01*
Y8972D01*
X17000D01*
Y9200D01*
Y9428D01*
X16832D01*
Y9388D01*
X16537D01*
Y9257D01*
X16170D01*
Y9467D01*
X16501D01*
X16536Y9474D01*
X16566Y9494D01*
X16710Y9637D01*
X16938D01*
Y9855D01*
X16950Y9857D01*
X16980Y9877D01*
X17165Y10062D01*
X17185Y10092D01*
X17192Y10127D01*
Y10300D01*
X17185Y10335D01*
X17165Y10365D01*
X17104Y10426D01*
X17123Y10472D01*
X17318D01*
Y10650D01*
X17100D01*
Y10750D01*
X17318D01*
Y10928D01*
X17192D01*
Y10965D01*
X17185Y11000D01*
X17165Y11030D01*
X17030Y11165D01*
X17002Y11183D01*
X17002Y11187D01*
X17019Y11233D01*
X17125D01*
X17160Y11240D01*
X17190Y11260D01*
X17488Y11558D01*
X17994D01*
X18011Y11508D01*
X17972Y11478D01*
X17898Y11382D01*
X17852Y11270D01*
X17836Y11150D01*
X17852Y11030D01*
X17898Y10918D01*
X17972Y10822D01*
X18068Y10748D01*
X18180Y10702D01*
X18300Y10686D01*
X18308Y10679D01*
Y10100D01*
X18315Y10065D01*
X18335Y10035D01*
X18808Y9562D01*
Y9197D01*
X18758Y9194D01*
X18748Y9270D01*
X18702Y9382D01*
X18628Y9478D01*
X18532Y9552D01*
X18420Y9598D01*
X18300Y9614D01*
X18180Y9598D01*
X18068Y9552D01*
X17972Y9478D01*
X17898Y9382D01*
X17852Y9270D01*
X17836Y9150D01*
X17852Y9030D01*
X17898Y8918D01*
X17972Y8822D01*
X18068Y8748D01*
X18180Y8702D01*
X18300Y8686D01*
X18420Y8702D01*
X18532Y8748D01*
X18555Y8766D01*
X19018Y8302D01*
X19048Y8283D01*
X19083Y8276D01*
X19282D01*
X19322Y8251D01*
Y8083D01*
X19550D01*
X19778D01*
Y8251D01*
X19818Y8276D01*
X20402D01*
X20437Y8283D01*
X20467Y8302D01*
X20496Y8332D01*
X20564Y8318D01*
X21036D01*
X21106Y8332D01*
X21165Y8372D01*
X21204Y8431D01*
X21218Y8500D01*
X21204Y8569D01*
X21165Y8628D01*
X21106Y8668D01*
X21036Y8682D01*
X20564D01*
X20494Y8668D01*
X20435Y8628D01*
X20396Y8569D01*
X20382Y8500D01*
X20345Y8459D01*
X19738D01*
Y8545D01*
X19362D01*
Y8459D01*
X19121D01*
X18684Y8895D01*
X18702Y8918D01*
X18748Y9030D01*
X18761Y9130D01*
X18812Y9131D01*
X18815Y9115D01*
X18835Y9085D01*
X18970Y8950D01*
X19000Y8931D01*
X19035Y8924D01*
X19362D01*
Y8837D01*
X19738D01*
Y8908D01*
X20411D01*
X20435Y8872D01*
X20494Y8832D01*
X20564Y8818D01*
X21036D01*
X21106Y8832D01*
X21165Y8872D01*
X21204Y8931D01*
X21218Y9000D01*
X21204Y9069D01*
X21165Y9128D01*
X21106Y9168D01*
X21036Y9182D01*
X20564D01*
X20494Y9168D01*
X20435Y9128D01*
X20411Y9092D01*
X19802D01*
X19778Y9132D01*
Y9300D01*
X19550D01*
X19322D01*
Y9132D01*
X19282Y9107D01*
X19073D01*
X18992Y9188D01*
Y9600D01*
X18985Y9635D01*
X18965Y9665D01*
X18492Y10138D01*
Y10732D01*
X18532Y10748D01*
X18628Y10822D01*
X18702Y10918D01*
X18748Y11030D01*
X18764Y11150D01*
X18748Y11270D01*
X18702Y11382D01*
X18628Y11478D01*
X18589Y11508D01*
X18606Y11558D01*
X18827D01*
X19337Y11048D01*
Y10812D01*
X20028D01*
Y10908D01*
X20411D01*
X20435Y10872D01*
X20494Y10832D01*
X20564Y10818D01*
X21036D01*
X21106Y10832D01*
X21165Y10872D01*
X21204Y10931D01*
X21218Y11000D01*
X21204Y11069D01*
X21165Y11128D01*
X21106Y11168D01*
X21036Y11182D01*
X20564D01*
X20494Y11168D01*
X20435Y11128D01*
X20411Y11092D01*
X20028D01*
Y11188D01*
X19457D01*
X19033Y11612D01*
X19051Y11665D01*
X19078Y11668D01*
X19312Y11435D01*
X19341Y11415D01*
X19377Y11408D01*
X20411D01*
X20435Y11372D01*
X20494Y11332D01*
X20564Y11318D01*
X21036D01*
X21106Y11332D01*
X21165Y11372D01*
X21204Y11431D01*
X21218Y11500D01*
X21204Y11569D01*
X21165Y11628D01*
X21106Y11668D01*
X21036Y11682D01*
X20564D01*
X20494Y11668D01*
X20435Y11628D01*
X20411Y11592D01*
X19415D01*
X19171Y11835D01*
X19150Y11849D01*
X19139Y11886D01*
X19137Y11907D01*
X19955Y12725D01*
X20575D01*
Y13475D01*
X19825D01*
Y12855D01*
X18952Y11982D01*
X17127D01*
X17108Y12028D01*
X17588Y12508D01*
X18700D01*
X18735Y12515D01*
X18765Y12535D01*
X19006Y12776D01*
X19011Y12772D01*
X19102Y12735D01*
X19200Y12722D01*
X19298Y12735D01*
X19389Y12772D01*
X19467Y12833D01*
X19528Y12911D01*
X19565Y13002D01*
X19578Y13100D01*
X19565Y13198D01*
X19528Y13289D01*
X19467Y13367D01*
X19389Y13428D01*
X19298Y13465D01*
X19200Y13478D01*
X19102Y13465D01*
X19011Y13428D01*
X18933Y13367D01*
X18872Y13289D01*
X18835Y13198D01*
X18822Y13100D01*
X18835Y13002D01*
X18872Y12911D01*
X18876Y12906D01*
X18662Y12692D01*
X18325D01*
X18315Y12742D01*
X18389Y12772D01*
X18467Y12833D01*
X18528Y12911D01*
X18565Y13002D01*
X18578Y13100D01*
X18565Y13198D01*
X18528Y13289D01*
X18467Y13367D01*
X18389Y13428D01*
X18298Y13465D01*
X18200Y13478D01*
X18102Y13465D01*
X18011Y13428D01*
X17933Y13367D01*
X17872Y13289D01*
X17835Y13198D01*
X17833Y13187D01*
X17795D01*
X17760Y13180D01*
X17730Y13160D01*
X17622Y13052D01*
X17575Y13075D01*
X17578Y13100D01*
X17565Y13198D01*
X17528Y13289D01*
X17467Y13367D01*
X17389Y13428D01*
X17298Y13465D01*
X17200Y13478D01*
X17102Y13465D01*
X17011Y13428D01*
X16933Y13367D01*
X16872Y13289D01*
X16835Y13198D01*
X16822Y13100D01*
X16835Y13002D01*
X16872Y12911D01*
X16876Y12906D01*
X16114Y12144D01*
X15439D01*
X15420Y12190D01*
X16006Y12776D01*
X16011Y12772D01*
X16102Y12735D01*
X16200Y12722D01*
X16298Y12735D01*
X16389Y12772D01*
X16467Y12833D01*
X16528Y12911D01*
X16565Y13002D01*
X16578Y13100D01*
X16565Y13198D01*
X16561Y13207D01*
X16571Y13223D01*
X16599Y13247D01*
X16650Y13237D01*
X16712Y13249D01*
X16765Y13285D01*
X16801Y13338D01*
X16813Y13400D01*
X16801Y13462D01*
X16765Y13515D01*
X16712Y13551D01*
X16650Y13563D01*
X16622Y13558D01*
X16559Y13621D01*
X16578Y13667D01*
X27165D01*
Y13667D01*
D02*
G37*
G36*
X8354Y11108D02*
X8354D01*
Y10909D01*
Y10752D01*
Y10594D01*
Y10437D01*
Y10279D01*
X8354D01*
Y10163D01*
X8354D01*
Y9964D01*
Y9807D01*
Y9649D01*
Y9492D01*
X8354D01*
Y9346D01*
X6446D01*
Y9492D01*
Y9649D01*
Y9807D01*
Y9964D01*
Y10122D01*
Y10279D01*
Y10437D01*
Y10594D01*
Y10752D01*
Y10909D01*
Y11067D01*
Y11254D01*
X6592D01*
Y11254D01*
X7263D01*
Y11254D01*
X7379D01*
Y11254D01*
X8208D01*
Y11254D01*
X8354D01*
Y11108D01*
D02*
G37*
G36*
X14298Y10755D02*
X15169D01*
X15195Y10705D01*
X15186Y10692D01*
X13273D01*
X13253Y10730D01*
X13252Y10742D01*
X13263Y10800D01*
X13253Y10849D01*
X13593Y11188D01*
X13600Y11187D01*
X13662Y11199D01*
X13715Y11235D01*
X13751Y11288D01*
X13763Y11350D01*
X13751Y11412D01*
X13715Y11465D01*
X13662Y11501D01*
X13600Y11513D01*
X13538Y11501D01*
X13508Y11481D01*
X13453Y11501D01*
X13451Y11512D01*
X13427Y11548D01*
X13449Y11598D01*
X14298D01*
Y10755D01*
D02*
G37*
G36*
X16269Y11189D02*
X16262Y11178D01*
X16256Y11150D01*
X16450D01*
Y11100D01*
X16500D01*
Y10906D01*
X16528Y10912D01*
X16594Y10956D01*
X16629Y11008D01*
X16927D01*
X16961Y10974D01*
X16942Y10928D01*
X16882D01*
Y10888D01*
X16587D01*
Y10621D01*
X16568Y10614D01*
X16537Y10613D01*
X16507Y10658D01*
X16454Y10694D01*
X16391Y10706D01*
X16329Y10694D01*
X16276Y10658D01*
X16274Y10655D01*
X16170D01*
Y10662D01*
X15682D01*
X15662Y10708D01*
X16188Y11233D01*
X16245D01*
X16269Y11189D01*
D02*
G37*
G36*
X15257Y10237D02*
X15095Y10075D01*
X15035Y10086D01*
X15015Y10115D01*
X14962Y10151D01*
X14900Y10163D01*
X14838Y10151D01*
X14785Y10115D01*
X14749Y10062D01*
X14737Y10000D01*
X14749Y9938D01*
X14785Y9885D01*
X14808Y9869D01*
Y9738D01*
X14560Y9489D01*
X14515Y9465D01*
X14462Y9501D01*
X14400Y9513D01*
X14338Y9501D01*
X14285Y9465D01*
X14249Y9412D01*
X14237Y9350D01*
X14249Y9288D01*
X14285Y9235D01*
X14308Y9219D01*
Y8773D01*
X14270Y8753D01*
X14258Y8752D01*
X14200Y8763D01*
X14138Y8751D01*
X14085Y8715D01*
X14069Y8692D01*
X13380D01*
X13375Y8742D01*
X13412Y8749D01*
X13465Y8785D01*
X13501Y8838D01*
X13513Y8900D01*
X13508Y8928D01*
X13515Y8935D01*
X13535Y8965D01*
X13542Y9000D01*
Y9369D01*
X13565Y9385D01*
X13601Y9438D01*
X13613Y9500D01*
X13601Y9562D01*
X13565Y9615D01*
X13512Y9651D01*
X13450Y9663D01*
X13388Y9651D01*
X13335Y9615D01*
X13301Y9565D01*
X13280Y9562D01*
X13270D01*
X13249Y9565D01*
X13215Y9615D01*
X13162Y9651D01*
X13100Y9663D01*
X13038Y9651D01*
X12985Y9615D01*
X12949Y9562D01*
X12937Y9500D01*
X12949Y9438D01*
X12985Y9385D01*
X13008Y9369D01*
Y9138D01*
X12928Y9058D01*
X12900Y9063D01*
X12838Y9051D01*
X12785Y9015D01*
X12749Y8962D01*
X12737Y8900D01*
X12749Y8838D01*
X12785Y8785D01*
X12838Y8749D01*
X12875Y8742D01*
X12870Y8692D01*
X12388D01*
X12192Y8888D01*
X12195Y8907D01*
X12211Y8939D01*
X12262Y8949D01*
X12315Y8985D01*
X12351Y9038D01*
X12363Y9100D01*
X12359Y9120D01*
X12393Y9158D01*
X12619D01*
X12635Y9135D01*
X12688Y9099D01*
X12750Y9087D01*
X12812Y9099D01*
X12865Y9135D01*
X12901Y9188D01*
X12913Y9250D01*
X12901Y9312D01*
X12865Y9365D01*
X12812Y9401D01*
X12750Y9413D01*
X12688Y9401D01*
X12635Y9365D01*
X12619Y9342D01*
X12350D01*
X12315Y9335D01*
X12285Y9315D01*
X12228Y9258D01*
X12200Y9263D01*
X12142Y9252D01*
X12130Y9253D01*
X12092Y9273D01*
Y9970D01*
X12142Y9975D01*
X12149Y9938D01*
X12185Y9885D01*
X12238Y9849D01*
X12300Y9837D01*
X12362Y9849D01*
X12415Y9885D01*
X12451Y9938D01*
X12463Y10000D01*
X12462Y10004D01*
X12496Y10038D01*
X14383D01*
X14385Y10035D01*
X14438Y9999D01*
X14500Y9987D01*
X14562Y9999D01*
X14615Y10035D01*
X14651Y10088D01*
X14663Y10150D01*
X14652Y10208D01*
X14653Y10220D01*
X14673Y10258D01*
X15175D01*
X15210Y10265D01*
X15225Y10275D01*
X15257Y10237D01*
D02*
G37*
G36*
X5191Y13621D02*
X5135Y13565D01*
X5115Y13535D01*
X5108Y13500D01*
Y13466D01*
X5102Y13465D01*
X5011Y13428D01*
X4933Y13367D01*
X4872Y13289D01*
X4835Y13198D01*
X4822Y13100D01*
X4835Y13002D01*
X4872Y12911D01*
X4933Y12833D01*
X5011Y12772D01*
X5102Y12735D01*
X5108Y12734D01*
Y12700D01*
X5115Y12665D01*
X5135Y12635D01*
X5178Y12592D01*
X5173Y12565D01*
X5160Y12542D01*
X700D01*
X665Y12535D01*
X635Y12515D01*
X285Y12165D01*
X265Y12135D01*
X258Y12100D01*
Y10200D01*
X265Y10165D01*
X285Y10135D01*
X604Y9817D01*
X584Y9770D01*
X112D01*
Y13386D01*
X113D01*
X122Y13459D01*
X150Y13526D01*
X195Y13585D01*
X253Y13629D01*
X321Y13657D01*
X394Y13667D01*
Y13667D01*
X5172D01*
X5191Y13621D01*
D02*
G37*
G36*
X11003Y10718D02*
X10999Y10712D01*
X10987Y10650D01*
X10999Y10588D01*
X11035Y10535D01*
X11088Y10499D01*
X11150Y10487D01*
X11212Y10499D01*
X11265Y10535D01*
X11281Y10558D01*
X11524D01*
X11594Y10488D01*
X11580Y10440D01*
X11572Y10438D01*
X11506Y10394D01*
X11462Y10328D01*
X11456Y10300D01*
X11650D01*
Y10250D01*
X11700D01*
Y10056D01*
X11728Y10062D01*
X11744Y10072D01*
X11788Y10049D01*
Y9410D01*
X11738Y9383D01*
X11712Y9401D01*
X11650Y9413D01*
X11588Y9401D01*
X11535Y9365D01*
X11533Y9362D01*
X11445D01*
Y9438D01*
X10755D01*
Y9425D01*
X10705Y9404D01*
X10283Y9826D01*
X10315Y9864D01*
X10338Y9849D01*
X10400Y9837D01*
X10462Y9849D01*
X10515Y9885D01*
X10551Y9938D01*
X10563Y10000D01*
X10556Y10036D01*
X10602Y10061D01*
X10755Y9908D01*
Y9662D01*
X11049D01*
Y9622D01*
X11217D01*
Y9850D01*
Y10112D01*
X10942Y10388D01*
X10944Y10400D01*
X10556D01*
X10562Y10372D01*
X10582Y10342D01*
X10555Y10292D01*
X10242D01*
Y10462D01*
X10548Y10768D01*
X10976D01*
X11003Y10718D01*
D02*
G37*
G36*
X5572Y9365D02*
X5573Y9353D01*
X5462Y9242D01*
X4226D01*
X4212Y9251D01*
X4150Y9263D01*
X4088Y9251D01*
X4035Y9215D01*
X3999Y9162D01*
X3990Y9117D01*
X3977Y9106D01*
X3914Y9115D01*
X3894Y9144D01*
X3835Y9184D01*
X3815Y9235D01*
X3988Y9408D01*
X5535D01*
X5572Y9365D01*
D02*
G37*
G36*
X9837Y9600D02*
X9849Y9538D01*
X9885Y9485D01*
X9938Y9449D01*
X10000Y9437D01*
X10004Y9438D01*
X10288Y9154D01*
Y8814D01*
X10199Y8725D01*
X10190Y8722D01*
X10132Y8726D01*
X10080Y8779D01*
X10044Y8803D01*
X10001Y8812D01*
X10001Y8812D01*
X9396D01*
X9012Y9195D01*
X9013Y9200D01*
X9001Y9262D01*
X8965Y9315D01*
X8912Y9351D01*
X8850Y9363D01*
X8845Y9362D01*
X8758Y9450D01*
X8779Y9500D01*
X9121D01*
X9341Y9279D01*
X9349Y9238D01*
X9385Y9185D01*
X9438Y9149D01*
X9500Y9137D01*
X9562Y9149D01*
X9615Y9185D01*
X9651Y9238D01*
X9663Y9300D01*
X9651Y9362D01*
X9615Y9415D01*
X9562Y9451D01*
X9500Y9463D01*
X9438Y9451D01*
X9432Y9447D01*
X9289Y9590D01*
X9308Y9637D01*
X9804D01*
X9837Y9600D01*
D02*
G37*
G36*
X6434Y9205D02*
X6430Y9198D01*
X6422Y9155D01*
Y9131D01*
X6263Y8972D01*
X6215Y8965D01*
X6162Y9001D01*
X6100Y9013D01*
X6038Y9001D01*
X5985Y8965D01*
X5949Y8912D01*
X5937Y8850D01*
X5949Y8788D01*
X5985Y8735D01*
X6038Y8699D01*
X6040Y8699D01*
X6046Y8670D01*
X6045Y8647D01*
X5998Y8615D01*
X5962Y8562D01*
X5952Y8511D01*
X5901D01*
X5901Y8512D01*
X5865Y8565D01*
X5812Y8601D01*
X5750Y8613D01*
X5688Y8601D01*
X5635Y8565D01*
X5599Y8512D01*
X5587Y8450D01*
X5599Y8388D01*
X5619Y8358D01*
X5599Y8303D01*
X5588Y8301D01*
X5542Y8270D01*
X5513Y8278D01*
X5492Y8291D01*
Y8515D01*
X5485Y8550D01*
X5465Y8580D01*
X5430Y8615D01*
X5415Y8625D01*
X5409Y8672D01*
X5411Y8683D01*
X5415Y8685D01*
X6031Y9301D01*
X6064Y9334D01*
Y9334D01*
X6064Y9334D01*
X6434D01*
Y9205D01*
D02*
G37*
G36*
X5478Y9008D02*
X5312Y8842D01*
X5181D01*
X5165Y8865D01*
X5112Y8901D01*
X5050Y8913D01*
X4988Y8901D01*
X4935Y8865D01*
X4899Y8812D01*
X4887Y8750D01*
X4898Y8692D01*
X4897Y8680D01*
X4877Y8642D01*
X3890D01*
X3877Y8665D01*
X3872Y8692D01*
X4122Y8942D01*
X4150Y8937D01*
X4212Y8949D01*
X4265Y8985D01*
X4301Y9038D01*
X4305Y9058D01*
X5458D01*
X5478Y9008D01*
D02*
G37*
G36*
X10800Y7965D02*
X10864D01*
X10885Y7915D01*
X10812Y7842D01*
X10150D01*
X10115Y7835D01*
X10085Y7815D01*
X9785Y7515D01*
X9765Y7485D01*
X9758Y7450D01*
Y7315D01*
X9684Y7241D01*
X9638Y7260D01*
Y7428D01*
X9562D01*
Y7838D01*
X9612Y7852D01*
X9672Y7812D01*
X9700Y7806D01*
Y8000D01*
X9800D01*
Y7806D01*
X9828Y7812D01*
X9894Y7856D01*
X9938Y7922D01*
X9947Y7965D01*
X10100D01*
Y8183D01*
X10200D01*
Y7965D01*
X10378D01*
Y8091D01*
X10522D01*
Y7965D01*
X10700D01*
Y8183D01*
X10800D01*
Y7965D01*
D02*
G37*
G36*
X15558Y8429D02*
X15534Y8413D01*
X15335Y8214D01*
X15315Y8184D01*
X15308Y8149D01*
Y7638D01*
X15012Y7342D01*
X14518D01*
X14483Y7335D01*
X14453Y7315D01*
X14286Y7148D01*
X14240Y7167D01*
Y7902D01*
X14785Y8447D01*
X14805Y8477D01*
X14812Y8512D01*
Y8862D01*
X14826Y8876D01*
X14932D01*
X14959Y8826D01*
X14949Y8812D01*
X14937Y8750D01*
X14949Y8688D01*
X14985Y8635D01*
X15008Y8619D01*
Y7988D01*
X14785Y7765D01*
X14781Y7759D01*
X14738Y7751D01*
X14685Y7715D01*
X14649Y7662D01*
X14637Y7600D01*
X14649Y7538D01*
X14685Y7485D01*
X14738Y7449D01*
X14800Y7437D01*
X14862Y7449D01*
X14915Y7485D01*
X14951Y7538D01*
X14963Y7600D01*
X14951Y7662D01*
X14947Y7668D01*
X15165Y7885D01*
X15185Y7915D01*
X15192Y7950D01*
Y8619D01*
X15215Y8635D01*
X15251Y8688D01*
X15263Y8750D01*
X15251Y8812D01*
X15241Y8826D01*
X15268Y8876D01*
X15558D01*
Y8429D01*
D02*
G37*
G36*
X8174Y7824D02*
Y7428D01*
X8062D01*
Y7342D01*
X7788D01*
Y7428D01*
X7412D01*
X7392Y7470D01*
Y7512D01*
X7638Y7758D01*
X8000D01*
X8035Y7765D01*
X8065Y7785D01*
X8124Y7845D01*
X8174Y7824D01*
D02*
G37*
G36*
X5473Y8091D02*
X5502Y8083D01*
X5503Y8082D01*
X5535Y8035D01*
X5588Y7999D01*
X5650Y7987D01*
X5712Y7999D01*
X5738Y8016D01*
X5772Y8008D01*
X5799Y7962D01*
X5787Y7900D01*
X5799Y7838D01*
X5835Y7785D01*
X5888Y7749D01*
X5950Y7737D01*
X6012Y7749D01*
X6065Y7785D01*
X6101Y7838D01*
X6113Y7900D01*
X6120Y7908D01*
X6309D01*
X6322Y7887D01*
X6330Y7858D01*
X6299Y7812D01*
X6287Y7750D01*
X6299Y7688D01*
X6335Y7635D01*
X6388Y7599D01*
X6450Y7587D01*
X6512Y7599D01*
X6565Y7635D01*
X6601Y7688D01*
X6613Y7750D01*
X6601Y7812D01*
X6592Y7826D01*
Y7962D01*
X6662Y8032D01*
X6708Y8013D01*
Y7688D01*
X6250Y7230D01*
X6204Y7255D01*
X6213Y7300D01*
X6201Y7362D01*
X6165Y7415D01*
X6112Y7451D01*
X6050Y7463D01*
X5988Y7451D01*
X5935Y7415D01*
X5919Y7392D01*
X4938D01*
X4783Y7547D01*
X4785Y7597D01*
X4950D01*
Y7815D01*
X5000D01*
Y7865D01*
X5228D01*
Y7876D01*
X5230Y7877D01*
X5447Y8094D01*
X5473Y8091D01*
D02*
G37*
G36*
X3874Y7597D02*
X3904Y7577D01*
X3907Y7576D01*
Y7506D01*
X4283D01*
Y7456D01*
X4333D01*
Y7119D01*
X4659D01*
Y7346D01*
X4705Y7365D01*
X4835Y7235D01*
X4865Y7215D01*
X4900Y7208D01*
X5919D01*
X5935Y7185D01*
X5988Y7149D01*
X6050Y7137D01*
X6095Y7146D01*
X6120Y7100D01*
X6062Y7042D01*
X3688D01*
X3617Y7113D01*
X3636Y7159D01*
X3753D01*
Y7653D01*
X3799Y7672D01*
X3874Y7597D01*
D02*
G37*
G36*
X10712Y6737D02*
X11088D01*
Y6824D01*
X11201D01*
X11238Y6799D01*
X11300Y6787D01*
X11362Y6799D01*
X11415Y6835D01*
X11446Y6880D01*
X11474Y6908D01*
X11646D01*
X11646Y6907D01*
X11671Y6871D01*
X11707Y6846D01*
X11750Y6838D01*
X11850D01*
X11893Y6846D01*
X11902Y6852D01*
X11934Y6814D01*
X11782Y6662D01*
X10418D01*
X10397Y6688D01*
X10420Y6737D01*
X10438D01*
Y7138D01*
X10712D01*
Y6737D01*
D02*
G37*
G36*
X10782Y6308D02*
X10762Y6278D01*
X10756Y6250D01*
X10950D01*
Y6150D01*
X10756D01*
X10762Y6122D01*
X10788Y6082D01*
X10769Y6027D01*
X10751Y6015D01*
X10716Y6006D01*
X10680Y6015D01*
X10662Y6027D01*
X10617Y6036D01*
X10572Y6027D01*
X10555Y6015D01*
X10519Y6006D01*
X10483Y6015D01*
X10465Y6027D01*
X10420Y6036D01*
X10376Y6027D01*
X10337Y6001D01*
X10312Y5963D01*
X10303Y5918D01*
Y5753D01*
X10312Y5708D01*
X10327Y5686D01*
X10325Y5636D01*
X10275Y5634D01*
X10253Y5649D01*
X10208Y5658D01*
X10043D01*
X9998Y5649D01*
X9960Y5624D01*
X9914Y5637D01*
X9886Y5663D01*
Y5893D01*
X9886Y5893D01*
X9877Y5936D01*
X9863Y5957D01*
X9874Y5976D01*
X9897Y5997D01*
X9950Y5987D01*
X10012Y5999D01*
X10065Y6035D01*
X10101Y6088D01*
X10113Y6150D01*
X10108Y6178D01*
X10288Y6358D01*
X10755D01*
X10782Y6308D01*
D02*
G37*
G36*
X8562Y6219D02*
Y5807D01*
X8562Y5807D01*
X8393D01*
Y5962D01*
X7840D01*
Y5962D01*
X7792Y5968D01*
Y6069D01*
X7815Y6085D01*
X7851Y6138D01*
X7863Y6200D01*
X7854Y6248D01*
X7883Y6298D01*
X8484D01*
X8562Y6219D01*
D02*
G37*
G36*
X14435Y6635D02*
X14488Y6599D01*
X14550Y6587D01*
X14578Y6592D01*
X14629Y6541D01*
X14659Y6521D01*
X14694Y6514D01*
X14731D01*
X14754Y6470D01*
X14749Y6462D01*
X14737Y6400D01*
X14749Y6338D01*
X14785Y6285D01*
X14838Y6249D01*
X14900Y6237D01*
X14928Y6242D01*
X15320Y5850D01*
X15301Y5804D01*
X14360D01*
Y6657D01*
X14410Y6672D01*
X14435Y6635D01*
D02*
G37*
G36*
X12088Y5832D02*
Y5768D01*
X11953Y5632D01*
X11853D01*
X11828Y5649D01*
X11783Y5658D01*
X11617D01*
X11583Y5651D01*
X11557Y5679D01*
X11550Y5692D01*
X11551Y5693D01*
X11563Y5753D01*
Y5786D01*
X11405D01*
Y5836D01*
X11355D01*
Y6107D01*
X11196Y6265D01*
X11167Y6285D01*
X11163Y6286D01*
X11151Y6308D01*
X11182Y6358D01*
X11562D01*
X12088Y5832D01*
D02*
G37*
G36*
X6973Y5606D02*
X7138D01*
Y5470D01*
X6973D01*
Y5404D01*
X6794D01*
X6794Y5404D01*
X6751Y5396D01*
X6715Y5371D01*
X6715Y5371D01*
X6288Y4945D01*
X6242Y4964D01*
Y5169D01*
X6265Y5185D01*
X6301Y5238D01*
X6313Y5300D01*
X6301Y5362D01*
X6265Y5415D01*
X6212Y5451D01*
X6150Y5463D01*
X6111Y5455D01*
X6086Y5501D01*
X6257Y5672D01*
X6973D01*
Y5606D01*
D02*
G37*
G36*
X8502Y9330D02*
X8545Y9322D01*
X8569D01*
X8687Y9203D01*
X8687Y9200D01*
X8699Y9138D01*
X8735Y9085D01*
X8788Y9049D01*
X8850Y9037D01*
X8853Y9037D01*
X9270Y8620D01*
X9270Y8620D01*
X9306Y8596D01*
X9349Y8587D01*
X9413D01*
X9432Y8541D01*
X9371Y8479D01*
X9346Y8443D01*
X9338Y8400D01*
X9338Y8400D01*
Y7428D01*
X9262D01*
Y7072D01*
Y6737D01*
X9638D01*
Y6955D01*
X9650Y6957D01*
X9680Y6977D01*
X9915Y7212D01*
X9935Y7242D01*
X9942Y7277D01*
Y7412D01*
X10188Y7658D01*
X10850D01*
X10885Y7665D01*
X10915Y7685D01*
X11082Y7853D01*
X11102Y7882D01*
X11109Y7917D01*
Y7920D01*
X11122Y7965D01*
X11300D01*
Y8183D01*
X11350D01*
Y8233D01*
X11578D01*
Y8401D01*
X11538D01*
Y8566D01*
X11711Y8739D01*
X11762Y8749D01*
X11815Y8785D01*
X11851Y8838D01*
X11861Y8889D01*
X11871Y8899D01*
X11932Y8889D01*
X11935Y8885D01*
X12285Y8535D01*
X12315Y8515D01*
X12350Y8508D01*
X14069D01*
X14085Y8485D01*
X14126Y8457D01*
X14141Y8402D01*
X13835Y8096D01*
X13815Y8066D01*
X13808Y8031D01*
Y5238D01*
X13612Y5042D01*
X13593Y5045D01*
X13561Y5061D01*
X13551Y5112D01*
X13515Y5165D01*
X13462Y5201D01*
X13400Y5213D01*
X13338Y5201D01*
X13285Y5165D01*
X13249Y5112D01*
X13245Y5092D01*
X13104D01*
X13104Y5093D01*
X13079Y5129D01*
X13043Y5154D01*
X13000Y5162D01*
X12900D01*
X12857Y5154D01*
X12821Y5129D01*
X12796Y5093D01*
X12788Y5050D01*
Y4950D01*
X12796Y4907D01*
X12821Y4871D01*
X12857Y4846D01*
X12900Y4838D01*
X13000D01*
X13043Y4846D01*
X13079Y4871D01*
X13104Y4907D01*
X13104Y4908D01*
X13312D01*
X13321Y4910D01*
X13338Y4899D01*
X13389Y4889D01*
X13405Y4857D01*
X13408Y4838D01*
X13285Y4715D01*
X13265Y4685D01*
X13258Y4650D01*
Y4035D01*
X13265Y4000D01*
X13285Y3970D01*
X13570Y3685D01*
X13600Y3665D01*
X13635Y3658D01*
X13769D01*
X13785Y3635D01*
X13835Y3601D01*
X13838Y3580D01*
Y3570D01*
X13835Y3549D01*
X13785Y3515D01*
X13783Y3512D01*
X12238D01*
Y3578D01*
X11862D01*
Y3512D01*
X11638D01*
Y3578D01*
X11262D01*
Y3512D01*
X11038D01*
Y3578D01*
X10662D01*
Y3512D01*
X10574D01*
X10533Y3561D01*
X10533Y3561D01*
Y4036D01*
X10548Y4049D01*
X10583Y4068D01*
X10617Y4061D01*
X10662Y4070D01*
X10700Y4095D01*
X10731D01*
X10769Y4070D01*
X10814Y4061D01*
X10859Y4070D01*
X10897Y4095D01*
X10928D01*
X10966Y4070D01*
X11011Y4061D01*
X11056Y4070D01*
X11094Y4095D01*
X11125D01*
X11163Y4070D01*
X11208Y4061D01*
X11253Y4070D01*
X11258Y4073D01*
X11293Y4067D01*
X11344Y4032D01*
X11355Y4030D01*
Y4261D01*
X11405D01*
Y4311D01*
X11563D01*
Y4344D01*
X11551Y4404D01*
X11550Y4405D01*
X11557Y4418D01*
X11583Y4446D01*
X11617Y4439D01*
X11783D01*
X11828Y4448D01*
X11866Y4473D01*
X11868Y4476D01*
X11932Y4482D01*
X12074Y4341D01*
X12104Y4321D01*
X12139Y4314D01*
X12362D01*
Y4201D01*
X12322D01*
Y4033D01*
X12550D01*
X12778D01*
Y4201D01*
X12738D01*
Y4495D01*
X12471D01*
X12462Y4497D01*
X12177D01*
X11895Y4779D01*
X11891Y4798D01*
X11866Y4836D01*
Y4867D01*
X11891Y4905D01*
X11900Y4950D01*
X11891Y4995D01*
X11866Y5033D01*
Y5064D01*
X11891Y5102D01*
X11900Y5147D01*
X11898Y5155D01*
X11930Y5194D01*
X11979Y5193D01*
X11985Y5185D01*
X12038Y5149D01*
X12100Y5137D01*
X12162Y5149D01*
X12215Y5185D01*
X12251Y5238D01*
X12262Y5294D01*
X12276Y5308D01*
X12396D01*
X12396Y5307D01*
X12421Y5271D01*
X12457Y5246D01*
X12500Y5238D01*
X12600D01*
X12643Y5246D01*
X12679Y5271D01*
X12704Y5307D01*
X12712Y5350D01*
Y5450D01*
X12704Y5493D01*
X12679Y5529D01*
X12643Y5554D01*
X12600Y5562D01*
X12500D01*
X12457Y5554D01*
X12421Y5529D01*
X12396Y5493D01*
X12396Y5492D01*
X12238D01*
X12203Y5485D01*
X12173Y5465D01*
X12159Y5451D01*
X12111Y5461D01*
X12095Y5493D01*
X12092Y5512D01*
X12218Y5638D01*
X12300D01*
X12343Y5646D01*
X12379Y5671D01*
X12404Y5707D01*
X12412Y5750D01*
Y5850D01*
X12404Y5893D01*
X12379Y5929D01*
X12343Y5954D01*
X12300Y5962D01*
X12218D01*
X11748Y6432D01*
X11767Y6478D01*
X11820D01*
X11855Y6485D01*
X11885Y6505D01*
X12218Y6838D01*
X12282D01*
X12491Y6629D01*
X12499Y6588D01*
X12535Y6535D01*
X12588Y6499D01*
X12650Y6487D01*
X12712Y6499D01*
X12758Y6530D01*
X12787Y6522D01*
X12808Y6509D01*
Y6400D01*
X12815Y6365D01*
X12835Y6335D01*
X13158Y6012D01*
Y5738D01*
X12982Y5562D01*
X12900D01*
X12857Y5554D01*
X12821Y5529D01*
X12796Y5493D01*
X12788Y5450D01*
Y5350D01*
X12796Y5307D01*
X12821Y5271D01*
X12857Y5246D01*
X12900Y5238D01*
X13000D01*
X13043Y5246D01*
X13079Y5271D01*
X13104Y5307D01*
X13112Y5350D01*
Y5432D01*
X13315Y5635D01*
X13335Y5665D01*
X13342Y5700D01*
Y6050D01*
X13335Y6085D01*
X13315Y6115D01*
X13292Y6138D01*
X13295Y6157D01*
X13311Y6189D01*
X13362Y6199D01*
X13415Y6235D01*
X13451Y6288D01*
X13463Y6350D01*
X13451Y6412D01*
X13415Y6465D01*
X13392Y6481D01*
Y8019D01*
X13415Y8035D01*
X13451Y8088D01*
X13463Y8150D01*
X13451Y8212D01*
X13415Y8265D01*
X13362Y8301D01*
X13300Y8313D01*
X13238Y8301D01*
X13185Y8265D01*
X13149Y8212D01*
X13137Y8150D01*
X13149Y8088D01*
X13185Y8035D01*
X13208Y8019D01*
Y6481D01*
X13185Y6465D01*
X13149Y6412D01*
X13139Y6361D01*
X13107Y6345D01*
X13088Y6342D01*
X12992Y6438D01*
Y8069D01*
X13015Y8085D01*
X13051Y8138D01*
X13063Y8200D01*
X13051Y8262D01*
X13015Y8315D01*
X12962Y8351D01*
X12900Y8363D01*
X12838Y8351D01*
X12785Y8315D01*
X12749Y8262D01*
X12737Y8200D01*
X12749Y8138D01*
X12785Y8085D01*
X12808Y8069D01*
Y6791D01*
X12787Y6778D01*
X12758Y6770D01*
X12712Y6801D01*
X12650Y6813D01*
X12588Y6801D01*
X12582Y6797D01*
X12412Y6968D01*
Y7050D01*
X12404Y7093D01*
X12379Y7129D01*
X12343Y7154D01*
X12300Y7162D01*
X12200D01*
X12157Y7154D01*
X12121Y7129D01*
X12096Y7093D01*
X12088Y7050D01*
Y6968D01*
X11986Y6866D01*
X11948Y6898D01*
X11954Y6907D01*
X11962Y6950D01*
Y7050D01*
X11954Y7093D01*
X11929Y7129D01*
X11893Y7154D01*
X11850Y7162D01*
X11750D01*
X11707Y7154D01*
X11671Y7129D01*
X11646Y7093D01*
X11646Y7092D01*
X11436D01*
X11401Y7085D01*
X11394Y7080D01*
X11362Y7101D01*
X11300Y7113D01*
X11238Y7101D01*
X11185Y7065D01*
X11149Y7012D01*
X11148Y7007D01*
X11088D01*
Y7269D01*
X11307Y7488D01*
X11362Y7499D01*
X11415Y7535D01*
X11451Y7588D01*
X11463Y7650D01*
X11451Y7712D01*
X11415Y7765D01*
X11362Y7801D01*
X11300Y7813D01*
X11238Y7801D01*
X11185Y7765D01*
X11149Y7712D01*
X11137Y7650D01*
X11139Y7638D01*
X10929Y7428D01*
X10712D01*
Y7362D01*
X10438D01*
Y7428D01*
X10062D01*
Y7279D01*
X10036Y7261D01*
X10036Y7261D01*
X9759Y6984D01*
X9734Y6948D01*
X9726Y6905D01*
X9726Y6905D01*
Y6675D01*
X9429Y6378D01*
X9212D01*
Y6312D01*
X8938D01*
Y6378D01*
X8721D01*
X8609Y6489D01*
X8573Y6514D01*
X8530Y6522D01*
X8530Y6522D01*
X7319D01*
X7276Y6514D01*
X7239Y6489D01*
X7239Y6489D01*
X7171Y6421D01*
X7146Y6384D01*
X7138Y6341D01*
X7138Y6341D01*
Y5962D01*
X6973D01*
Y5896D01*
X6653D01*
X6648Y5946D01*
X6662Y5949D01*
X6715Y5985D01*
X6751Y6038D01*
X6763Y6100D01*
X6751Y6162D01*
X6715Y6215D01*
X6662Y6251D01*
X6600Y6263D01*
X6538Y6251D01*
X6502Y6227D01*
X6215Y6515D01*
X6185Y6535D01*
X6150Y6542D01*
X5931D01*
X5915Y6565D01*
X5862Y6601D01*
X5800Y6613D01*
X5738Y6601D01*
X5685Y6565D01*
X5649Y6512D01*
X5637Y6450D01*
X5649Y6388D01*
X5685Y6335D01*
X5738Y6299D01*
X5800Y6287D01*
X5862Y6299D01*
X5915Y6335D01*
X5931Y6358D01*
X6112D01*
X6435Y6035D01*
X6464Y6016D01*
X6485Y5985D01*
X6538Y5949D01*
X6552Y5946D01*
X6547Y5896D01*
X6211D01*
X6168Y5888D01*
X6131Y5864D01*
X6131Y5864D01*
X6057Y5789D01*
X6010Y5813D01*
X6004Y5843D01*
X5979Y5879D01*
X5947Y5901D01*
X5941Y5911D01*
X5930Y5957D01*
X5951Y5988D01*
X5963Y6050D01*
X5951Y6112D01*
X5915Y6165D01*
X5862Y6201D01*
X5800Y6213D01*
X5738Y6201D01*
X5685Y6165D01*
X5649Y6112D01*
X5637Y6050D01*
X5649Y5988D01*
X5685Y5935D01*
X5699Y5925D01*
X5721Y5879D01*
X5696Y5843D01*
X5688Y5800D01*
Y5700D01*
X5675Y5685D01*
X5656D01*
X5612Y5730D01*
Y5800D01*
X5604Y5843D01*
X5579Y5879D01*
X5543Y5904D01*
X5500Y5912D01*
X5400D01*
X5357Y5904D01*
X5321Y5879D01*
X5296Y5843D01*
X5288Y5800D01*
Y5792D01*
X4600D01*
X4565Y5785D01*
X4535Y5765D01*
X4377Y5607D01*
X4357Y5577D01*
X4350Y5542D01*
Y5354D01*
X4300Y5327D01*
X4267Y5349D01*
X4200Y5362D01*
X4162Y5355D01*
X3942Y5575D01*
Y5704D01*
X3968Y5708D01*
X4079Y5754D01*
X4174Y5826D01*
X4246Y5921D01*
X4292Y6032D01*
X4299Y6085D01*
X5262D01*
X5271Y6087D01*
X5538D01*
Y6422D01*
Y6778D01*
X5162D01*
Y6725D01*
X4988D01*
Y6778D01*
X4612D01*
Y6725D01*
X3334D01*
X3299Y6718D01*
X3269Y6699D01*
X3174Y6604D01*
X2424D01*
Y7068D01*
X2424Y7068D01*
Y7537D01*
X2738D01*
Y7691D01*
X3013D01*
X3081Y7622D01*
Y7159D01*
X3358D01*
Y7150D01*
X3365Y7115D01*
X3385Y7085D01*
X3585Y6885D01*
X3615Y6865D01*
X3650Y6858D01*
X6100D01*
X6135Y6865D01*
X6165Y6885D01*
X6293Y7013D01*
X6347Y6997D01*
X6349Y6988D01*
X6385Y6935D01*
X6438Y6899D01*
X6500Y6887D01*
X6528Y6892D01*
X6570Y6850D01*
X6600Y6831D01*
X6635Y6824D01*
X6812D01*
Y6737D01*
X7188D01*
Y7092D01*
X7226Y7108D01*
X7238Y7109D01*
X7370Y6977D01*
X7400Y6957D01*
X7412Y6955D01*
Y6737D01*
X7788D01*
Y6824D01*
X8062D01*
Y6737D01*
X8438D01*
Y7072D01*
X8438D01*
Y7085D01*
X8484Y7104D01*
X8650Y6939D01*
X8679Y6919D01*
X8712Y6912D01*
Y6737D01*
X9088D01*
Y7032D01*
X9128D01*
Y7200D01*
X8900D01*
Y7250D01*
X8850D01*
Y7468D01*
X8672D01*
Y7241D01*
X8626Y7222D01*
X8533Y7315D01*
X8503Y7335D01*
X8468Y7342D01*
X8438D01*
Y7428D01*
X8358D01*
Y8964D01*
X8366D01*
Y9334D01*
X8495D01*
X8502Y9330D01*
D02*
G37*
G36*
X7546Y6248D02*
X7537Y6200D01*
X7549Y6138D01*
X7585Y6085D01*
X7608Y6069D01*
Y5738D01*
X7615Y5703D01*
X7635Y5674D01*
X7838Y5471D01*
Y5380D01*
X7840Y5371D01*
Y5244D01*
X7738Y5142D01*
X7527D01*
Y5470D01*
X7362D01*
Y5606D01*
X7527D01*
Y5962D01*
X7362D01*
Y6295D01*
X7365Y6298D01*
X7517D01*
X7546Y6248D01*
D02*
G37*
G36*
X2858Y5650D02*
X2865Y5615D01*
X2885Y5585D01*
X2935Y5535D01*
X2965Y5515D01*
X3000Y5508D01*
X3262D01*
X3534Y5236D01*
X3525Y5187D01*
Y4728D01*
X3479Y4709D01*
X3467Y4720D01*
X3437Y4740D01*
X3402Y4747D01*
X3375D01*
Y5187D01*
X3362Y5254D01*
X3324Y5311D01*
X3267Y5349D01*
X3200Y5362D01*
X3133Y5349D01*
X3076Y5311D01*
X3038Y5254D01*
X3025Y5187D01*
Y4643D01*
X3038Y4576D01*
X3076Y4519D01*
X3133Y4481D01*
X3200Y4468D01*
X3267Y4481D01*
X3324Y4519D01*
X3330Y4527D01*
X3394Y4534D01*
X3551Y4376D01*
X3581Y4356D01*
X3616Y4349D01*
X4284D01*
X4319Y4356D01*
X4349Y4376D01*
X4507Y4534D01*
X4566Y4534D01*
X4576Y4519D01*
X4588Y4511D01*
Y4214D01*
X4166Y3792D01*
X3995D01*
X3968Y3842D01*
X3988Y3872D01*
X3994Y3900D01*
X3800D01*
Y3950D01*
X3750D01*
Y4144D01*
X3722Y4138D01*
X3656Y4094D01*
X3621Y4042D01*
X3275D01*
X3240Y4035D01*
X3210Y4015D01*
X3087Y3892D01*
X2692D01*
Y5071D01*
X2744Y5106D01*
X2788Y5172D01*
X2794Y5200D01*
X2600D01*
Y5250D01*
X2550D01*
Y5444D01*
X2522Y5438D01*
X2474Y5406D01*
X2424Y5429D01*
Y5696D01*
X2858D01*
Y5650D01*
D02*
G37*
G36*
X8508Y4295D02*
X8480Y4272D01*
X8433Y4293D01*
Y4526D01*
X8166D01*
Y4308D01*
X8066D01*
Y4526D01*
X7800D01*
Y4526D01*
X7750Y4499D01*
X7733Y4502D01*
Y4308D01*
X7633D01*
Y4502D01*
X7617Y4499D01*
X7567Y4526D01*
Y4526D01*
X7342D01*
Y4582D01*
X7567D01*
Y4750D01*
X6933D01*
Y4582D01*
X7158D01*
Y4526D01*
X6933D01*
Y4358D01*
X7250D01*
Y4258D01*
X6933D01*
Y4138D01*
X6915Y4135D01*
X6885Y4115D01*
X6828Y4058D01*
X6800Y4063D01*
X6738Y4051D01*
X6685Y4015D01*
X6649Y3962D01*
X6642Y3925D01*
X6592Y3930D01*
Y4762D01*
X6788Y4958D01*
X6933D01*
Y4850D01*
X7567D01*
Y4958D01*
X7776D01*
X7790Y4961D01*
X7834Y4933D01*
X7840Y4924D01*
Y4622D01*
X8393D01*
Y4978D01*
X7904D01*
X7883Y5028D01*
X7969Y5114D01*
X8393D01*
Y5470D01*
X8021D01*
Y5509D01*
X8014Y5544D01*
X8006Y5556D01*
X8029Y5606D01*
X8393D01*
Y5624D01*
X8508D01*
Y4295D01*
D02*
G37*
G36*
X3554Y6495D02*
X3526Y6474D01*
X3454Y6379D01*
X3408Y6268D01*
X3392Y6150D01*
X3408Y6032D01*
X3454Y5921D01*
X3526Y5826D01*
X3621Y5754D01*
X3732Y5708D01*
X3758Y5704D01*
Y5537D01*
X3765Y5502D01*
X3785Y5472D01*
X4032Y5225D01*
X4025Y5187D01*
Y4643D01*
X4037Y4583D01*
X4024Y4550D01*
X4015Y4533D01*
X3885D01*
X3876Y4550D01*
X3863Y4583D01*
X3875Y4643D01*
Y5187D01*
X3862Y5254D01*
X3824Y5311D01*
X3767Y5349D01*
X3700Y5362D01*
X3673Y5357D01*
X3365Y5665D01*
X3335Y5685D01*
X3304Y5696D01*
Y6474D01*
X3372Y6542D01*
X3538D01*
X3554Y6495D01*
D02*
G37*
G36*
X9930Y4579D02*
X9925Y4556D01*
X9934Y4511D01*
X9960Y4473D01*
X9998Y4448D01*
X10033Y4441D01*
Y4207D01*
X10000Y4163D01*
X9938Y4151D01*
X9885Y4115D01*
X9849Y4062D01*
X9837Y4000D01*
X9849Y3938D01*
X9885Y3885D01*
X9938Y3849D01*
X10000Y3837D01*
X10062Y3849D01*
X10115Y3885D01*
X10151Y3938D01*
X10163Y4000D01*
X10158Y4028D01*
X10190Y4060D01*
X10210Y4090D01*
X10217Y4125D01*
Y4441D01*
X10253Y4448D01*
X10275Y4463D01*
X10325Y4461D01*
X10327Y4411D01*
X10312Y4389D01*
X10303Y4344D01*
Y4178D01*
X10308Y4152D01*
Y3607D01*
X10279Y3578D01*
X10062D01*
Y3512D01*
X9838D01*
Y3578D01*
X9462D01*
Y3512D01*
X9238D01*
Y3578D01*
X9162D01*
Y4075D01*
X9154Y4118D01*
X9129Y4155D01*
X9129Y4155D01*
X9104Y4181D01*
Y4281D01*
X9154Y4302D01*
X9170Y4285D01*
X9200Y4265D01*
X9235Y4258D01*
X9272D01*
Y4115D01*
X9408D01*
Y4000D01*
X9412Y3979D01*
X9412Y3978D01*
X9406Y3950D01*
X9794D01*
X9788Y3978D01*
X9744Y4044D01*
X9714Y4065D01*
X9728Y4115D01*
X9728D01*
Y4283D01*
X9500D01*
Y4383D01*
X9728D01*
Y4392D01*
X9827Y4491D01*
X9847Y4521D01*
X9854Y4556D01*
Y4576D01*
X9886Y4602D01*
X9930Y4579D01*
D02*
G37*
G36*
X13928Y5033D02*
Y4858D01*
X13728Y4658D01*
X13700Y4663D01*
X13638Y4651D01*
X13585Y4615D01*
X13549Y4562D01*
X13537Y4500D01*
X13549Y4438D01*
X13585Y4385D01*
X13638Y4349D01*
X13700Y4337D01*
X13762Y4349D01*
X13815Y4385D01*
X13851Y4438D01*
X13863Y4500D01*
X13858Y4528D01*
X14010Y4680D01*
X14056Y4661D01*
Y3894D01*
X14040Y3882D01*
X14006Y3872D01*
X13962Y3901D01*
X13900Y3913D01*
X13838Y3901D01*
X13785Y3865D01*
X13769Y3842D01*
X13673D01*
X13442Y4073D01*
Y4612D01*
X13882Y5052D01*
X13928Y5033D01*
D02*
G37*
G36*
X3593Y3842D02*
X3565Y3792D01*
X3380D01*
X3380Y3792D01*
X3337Y3784D01*
X3301Y3759D01*
X3301Y3759D01*
X2886Y3344D01*
X2861Y3308D01*
X2853Y3265D01*
X2853Y3265D01*
Y1835D01*
X2853Y1835D01*
X2861Y1792D01*
X2886Y1756D01*
X3305Y1336D01*
X3342Y1312D01*
X3385Y1303D01*
X3385Y1303D01*
X3812D01*
Y1237D01*
X4188D01*
Y1658D01*
X4382D01*
X4422Y1633D01*
Y1465D01*
X4650D01*
X4878D01*
Y1633D01*
X4838D01*
Y1928D01*
X4792D01*
Y2368D01*
X4824Y2389D01*
X4832Y2401D01*
X4899Y2411D01*
X4908Y2404D01*
Y1700D01*
X4915Y1665D01*
X4935Y1635D01*
X5035Y1535D01*
X5065Y1515D01*
X5100Y1508D01*
X5718D01*
X5795Y1431D01*
X5776Y1385D01*
X5307D01*
X5272Y1378D01*
X5242Y1358D01*
X4846Y962D01*
X4382D01*
X4363Y1008D01*
X4552Y1197D01*
X4600D01*
Y1365D01*
X4422D01*
Y1327D01*
X4187Y1092D01*
X3338D01*
X2692Y1738D01*
Y3708D01*
X3125D01*
X3160Y3715D01*
X3190Y3735D01*
X3313Y3858D01*
X3583D01*
X3593Y3842D01*
D02*
G37*
G36*
X7124Y3912D02*
X6990Y3778D01*
X6970Y3748D01*
X6963Y3713D01*
Y3351D01*
X6936D01*
Y3115D01*
X6699D01*
Y2918D01*
X6699D01*
Y2671D01*
X6653Y2652D01*
X6592Y2713D01*
Y3870D01*
X6642Y3875D01*
X6649Y3838D01*
X6685Y3785D01*
X6738Y3749D01*
X6800Y3737D01*
X6862Y3749D01*
X6915Y3785D01*
X6951Y3838D01*
X6963Y3900D01*
X6959Y3920D01*
X6993Y3958D01*
X7105D01*
X7124Y3912D01*
D02*
G37*
G36*
X4608Y3683D02*
Y3202D01*
X4576Y3181D01*
X4538Y3124D01*
X4525Y3057D01*
Y2513D01*
X4538Y2446D01*
X4576Y2389D01*
X4608Y2368D01*
Y1928D01*
X4462D01*
Y1842D01*
X4188D01*
Y1928D01*
X3843D01*
X3830Y1949D01*
X3824Y1978D01*
X4186Y2340D01*
X4200Y2338D01*
X4267Y2351D01*
X4324Y2389D01*
X4362Y2446D01*
X4375Y2513D01*
Y3057D01*
X4362Y3124D01*
X4324Y3181D01*
X4267Y3219D01*
X4200Y3232D01*
X4133Y3219D01*
X4076Y3181D01*
X4038Y3124D01*
X4025Y3057D01*
Y2513D01*
X4027Y2499D01*
X3948Y2420D01*
X3902Y2445D01*
X3916Y2513D01*
Y2735D01*
X3750D01*
Y2307D01*
X3768Y2311D01*
X3793Y2265D01*
X3691Y2162D01*
X3567D01*
X3565Y2165D01*
X3512Y2201D01*
X3450Y2213D01*
X3388Y2201D01*
X3335Y2165D01*
X3299Y2112D01*
X3287Y2050D01*
X3299Y1988D01*
X3335Y1935D01*
X3388Y1899D01*
X3450Y1887D01*
X3512Y1899D01*
X3565Y1935D01*
X3567Y1938D01*
X3737D01*
X3737Y1938D01*
X3769Y1944D01*
X3802Y1919D01*
X3812Y1908D01*
Y1528D01*
X3431D01*
X3077Y1881D01*
Y2335D01*
X3121Y2359D01*
X3133Y2351D01*
X3200Y2338D01*
X3267Y2351D01*
X3324Y2389D01*
X3362Y2446D01*
X3375Y2513D01*
Y3057D01*
X3362Y3124D01*
X3324Y3181D01*
X3292Y3202D01*
Y3264D01*
X3476Y3448D01*
X3620D01*
X3654Y3400D01*
X4046D01*
X4080Y3448D01*
X4270D01*
X4305Y3455D01*
X4335Y3475D01*
X4562Y3702D01*
X4608Y3683D01*
D02*
G37*
G36*
X6402Y4436D02*
X6408Y4431D01*
Y3387D01*
X6362Y3368D01*
X6308Y3422D01*
X6313Y3450D01*
X6301Y3512D01*
X6265Y3565D01*
X6212Y3601D01*
X6150Y3613D01*
X6088Y3601D01*
X6035Y3565D01*
X5999Y3512D01*
X5987Y3450D01*
X5999Y3388D01*
X6035Y3335D01*
X6088Y3299D01*
X6150Y3287D01*
X6178Y3292D01*
X6288Y3182D01*
Y2599D01*
X6295Y2563D01*
X6315Y2534D01*
X6716Y2133D01*
X6745Y2113D01*
X6780Y2106D01*
X6901D01*
X6936Y2071D01*
Y2050D01*
X6906Y2012D01*
X6346D01*
X5612Y2746D01*
Y3704D01*
X6358Y4450D01*
X6402Y4436D01*
D02*
G37*
G36*
X2508Y5063D02*
Y3800D01*
Y1700D01*
X2515Y1665D01*
X2535Y1635D01*
X3162Y1008D01*
X3143Y962D01*
X2918D01*
X2424Y1456D01*
Y5071D01*
X2466Y5090D01*
X2508Y5063D01*
D02*
G37*
G36*
X9299Y1738D02*
X9335Y1685D01*
X9385Y1651D01*
Y1107D01*
X9305Y1045D01*
X9238Y959D01*
X9196Y858D01*
X9182Y750D01*
X9196Y642D01*
X9238Y541D01*
X9305Y454D01*
X9317Y445D01*
X9301Y397D01*
X8899D01*
X8883Y445D01*
X8895Y454D01*
X8962Y541D01*
X9004Y642D01*
X9018Y750D01*
X9004Y858D01*
X8962Y959D01*
X8895Y1045D01*
X8814Y1108D01*
X8814Y1124D01*
X8828Y1158D01*
X9000D01*
X9035Y1165D01*
X9065Y1185D01*
X9215Y1335D01*
X9235Y1365D01*
X9242Y1400D01*
Y1770D01*
X9292Y1775D01*
X9299Y1738D01*
D02*
G37*
%LPC*%
G36*
X2750Y12144D02*
X2722Y12138D01*
X2656Y12094D01*
X2612Y12028D01*
X2606Y12000D01*
X2750D01*
Y12144D01*
D02*
G37*
G36*
X3250Y10694D02*
X3222Y10688D01*
X3156Y10644D01*
X3112Y10578D01*
X3106Y10550D01*
X3250D01*
Y10694D01*
D02*
G37*
G36*
X1670Y10578D02*
X1402D01*
X1314Y10561D01*
X1240Y10512D01*
X1191Y10437D01*
X1183Y10400D01*
X1670D01*
Y10578D01*
D02*
G37*
G36*
X2039D02*
X1770D01*
Y10350D01*
Y10122D01*
X2039D01*
X2127Y10139D01*
X2201Y10188D01*
X2247Y10258D01*
X3150D01*
X3185Y10265D01*
X3215Y10285D01*
X3238Y10308D01*
X3250Y10306D01*
Y10450D01*
X3075D01*
X3068Y10442D01*
X2247D01*
X2201Y10512D01*
X2127Y10561D01*
X2039Y10578D01*
D02*
G37*
G36*
X1670Y10300D02*
X1183D01*
X1191Y10263D01*
X1240Y10188D01*
X1314Y10139D01*
X1402Y10122D01*
X1670D01*
Y10300D01*
D02*
G37*
G36*
X27018Y13581D02*
Y13239D01*
X27361D01*
X27354Y13292D01*
X27314Y13388D01*
X27250Y13471D01*
X27168Y13534D01*
X27072Y13574D01*
X27018Y13581D01*
D02*
G37*
G36*
X26918D02*
X26865Y13574D01*
X26769Y13534D01*
X26687Y13471D01*
X26623Y13388D01*
X26583Y13292D01*
X26576Y13239D01*
X26918D01*
Y13581D01*
D02*
G37*
G36*
X27361Y13139D02*
X27018D01*
Y12797D01*
X27072Y12804D01*
X27168Y12844D01*
X27250Y12907D01*
X27314Y12990D01*
X27354Y13086D01*
X27361Y13139D01*
D02*
G37*
G36*
X26918D02*
X26576D01*
X26583Y13086D01*
X26623Y12990D01*
X26687Y12907D01*
X26769Y12844D01*
X26865Y12804D01*
X26918Y12797D01*
Y13139D01*
D02*
G37*
G36*
X25214Y12872D02*
X24602D01*
Y12676D01*
X24188D01*
Y12763D01*
X23812D01*
Y12407D01*
Y12072D01*
X23908D01*
Y11981D01*
X23885Y11965D01*
X23849Y11912D01*
X23837Y11850D01*
X23849Y11788D01*
X23885Y11735D01*
X23938Y11699D01*
X24000Y11687D01*
X24062Y11699D01*
X24115Y11735D01*
X24151Y11788D01*
X24163Y11850D01*
X24151Y11912D01*
X24115Y11965D01*
X24092Y11981D01*
Y12072D01*
X24188D01*
Y12493D01*
X24602D01*
Y12476D01*
X25214D01*
Y12872D01*
D02*
G37*
G36*
X21036Y12222D02*
X20850D01*
Y12050D01*
X21249D01*
X21242Y12085D01*
X21193Y12157D01*
X21121Y12205D01*
X21036Y12222D01*
D02*
G37*
G36*
X20750D02*
X20564D01*
X20479Y12205D01*
X20407Y12157D01*
X20358Y12085D01*
X20351Y12050D01*
X20750D01*
Y12222D01*
D02*
G37*
G36*
X21249Y11950D02*
X20850D01*
Y11778D01*
X21036D01*
X21121Y11795D01*
X21193Y11843D01*
X21242Y11915D01*
X21249Y11950D01*
D02*
G37*
G36*
X20750D02*
X20351D01*
X20358Y11915D01*
X20407Y11843D01*
X20479Y11795D01*
X20564Y11778D01*
X20750D01*
Y11950D01*
D02*
G37*
G36*
X23083Y12182D02*
X22611D01*
X22542Y12168D01*
X22483Y12128D01*
X22443Y12069D01*
X22429Y12000D01*
X22443Y11931D01*
X22483Y11872D01*
X22542Y11832D01*
X22611Y11818D01*
X23083D01*
X23116Y11825D01*
X23438Y11504D01*
X23437Y11500D01*
X23449Y11438D01*
X23485Y11385D01*
X23538Y11349D01*
X23600Y11337D01*
X23662Y11349D01*
X23715Y11385D01*
X23751Y11438D01*
X23763Y11500D01*
X23751Y11562D01*
X23715Y11615D01*
X23662Y11651D01*
X23600Y11663D01*
X23596Y11662D01*
X23264Y11995D01*
X23265Y12000D01*
X23251Y12069D01*
X23212Y12128D01*
X23153Y12168D01*
X23083Y12182D01*
D02*
G37*
G36*
X23083Y11682D02*
X22611D01*
X22542Y11668D01*
X22483Y11628D01*
X22443Y11569D01*
X22429Y11500D01*
X22443Y11431D01*
X22483Y11372D01*
X22542Y11332D01*
X22611Y11318D01*
X23083D01*
X23153Y11332D01*
X23212Y11372D01*
X23251Y11431D01*
X23265Y11500D01*
X23251Y11569D01*
X23212Y11628D01*
X23153Y11668D01*
X23083Y11682D01*
D02*
G37*
G36*
X25214Y12124D02*
X24602D01*
Y11858D01*
X23935Y11191D01*
X23915Y11161D01*
X23908Y11126D01*
Y10995D01*
X23812D01*
Y10909D01*
X23304D01*
X23256Y10957D01*
X23265Y11000D01*
X23251Y11069D01*
X23212Y11128D01*
X23153Y11168D01*
X23083Y11182D01*
X22611D01*
X22542Y11168D01*
X22483Y11128D01*
X22443Y11069D01*
X22429Y11000D01*
X22443Y10931D01*
X22483Y10872D01*
X22542Y10832D01*
X22611Y10818D01*
X23083D01*
X23127Y10827D01*
X23201Y10752D01*
X23231Y10733D01*
X23266Y10726D01*
X23812D01*
Y10305D01*
X24188D01*
Y10479D01*
X24243D01*
X24278Y10486D01*
X24308Y10506D01*
X24552Y10750D01*
X24602Y10729D01*
Y10676D01*
X25214D01*
Y10676D01*
X25223Y10673D01*
X25237Y10617D01*
X25059Y10439D01*
X25039Y10409D01*
X25032Y10374D01*
Y10324D01*
X24602D01*
Y10110D01*
X23570D01*
X23250Y10429D01*
X23251Y10431D01*
X23265Y10500D01*
X23251Y10569D01*
X23212Y10628D01*
X23153Y10668D01*
X23083Y10682D01*
X22990D01*
X22985Y10685D01*
X22950Y10692D01*
X22915Y10685D01*
X22910Y10682D01*
X22611D01*
X22542Y10668D01*
X22483Y10628D01*
X22443Y10569D01*
X22429Y10500D01*
X22443Y10431D01*
X22483Y10372D01*
X22542Y10332D01*
X22611Y10318D01*
X23083D01*
X23099Y10321D01*
X23485Y9935D01*
X23515Y9915D01*
X23550Y9908D01*
X23585Y9915D01*
X23602Y9926D01*
X24800D01*
X24809Y9928D01*
X25214D01*
Y10225D01*
X25216Y10234D01*
Y10336D01*
X25415Y10535D01*
X25435Y10565D01*
X25442Y10600D01*
Y11300D01*
X25435Y11335D01*
X25415Y11365D01*
X25365Y11415D01*
X25335Y11435D01*
X25300Y11442D01*
X24755D01*
X24751Y11462D01*
X24715Y11515D01*
X24662Y11551D01*
X24631Y11557D01*
X24615Y11611D01*
X24732Y11728D01*
X25214D01*
Y12124D01*
D02*
G37*
G36*
X26198Y12498D02*
X25586D01*
Y12102D01*
X26198D01*
Y12208D01*
X26362D01*
X26698Y11872D01*
Y10782D01*
X26648Y10754D01*
X26600Y10763D01*
X26538Y10751D01*
X26485Y10715D01*
X26469Y10692D01*
X26198D01*
Y10698D01*
X25586D01*
Y10302D01*
X26198D01*
Y10508D01*
X26469D01*
X26485Y10485D01*
X26538Y10449D01*
X26600Y10437D01*
X26648Y10446D01*
X26698Y10418D01*
Y10178D01*
X26262Y9742D01*
X24350D01*
X24315Y9735D01*
X24285Y9715D01*
X23528Y8958D01*
X23500Y8963D01*
X23438Y8951D01*
X23385Y8915D01*
X23349Y8862D01*
X23337Y8800D01*
X23349Y8738D01*
X23385Y8685D01*
X23438Y8649D01*
X23500Y8637D01*
X23562Y8649D01*
X23615Y8685D01*
X23651Y8738D01*
X23663Y8800D01*
X23658Y8828D01*
X24388Y9558D01*
X26300D01*
X26335Y9565D01*
X26365Y9585D01*
X26855Y10075D01*
X26875Y10105D01*
X26882Y10140D01*
Y11910D01*
X26875Y11945D01*
X26855Y11975D01*
X26465Y12365D01*
X26435Y12385D01*
X26400Y12392D01*
X26198D01*
Y12498D01*
D02*
G37*
G36*
X21036Y10682D02*
X20564D01*
X20494Y10668D01*
X20435Y10628D01*
X20396Y10569D01*
X20382Y10500D01*
X20389Y10464D01*
X20356Y10426D01*
X19738D01*
Y10513D01*
X19362D01*
Y10218D01*
X19322D01*
Y10050D01*
X19550D01*
X19778D01*
Y10218D01*
X19818Y10243D01*
X20398D01*
X20434Y10250D01*
X20463Y10270D01*
X20521Y10327D01*
X20564Y10318D01*
X21036D01*
X21106Y10332D01*
X21165Y10372D01*
X21204Y10431D01*
X21218Y10500D01*
X21204Y10569D01*
X21165Y10628D01*
X21106Y10668D01*
X21036Y10682D01*
D02*
G37*
G36*
X23083Y10182D02*
X22611D01*
X22542Y10168D01*
X22483Y10128D01*
X22443Y10069D01*
X22429Y10000D01*
X22443Y9931D01*
X22483Y9872D01*
X22542Y9832D01*
X22611Y9818D01*
X23083D01*
X23153Y9832D01*
X23212Y9872D01*
X23251Y9931D01*
X23265Y10000D01*
X23251Y10069D01*
X23212Y10128D01*
X23153Y10168D01*
X23083Y10182D01*
D02*
G37*
G36*
X19778Y9950D02*
X19600D01*
Y9782D01*
X19778D01*
Y9950D01*
D02*
G37*
G36*
X19500D02*
X19322D01*
Y9782D01*
X19500D01*
Y9950D01*
D02*
G37*
G36*
X19778Y9568D02*
X19600D01*
Y9400D01*
X19778D01*
Y9568D01*
D02*
G37*
G36*
X19500D02*
X19322D01*
Y9400D01*
X19500D01*
Y9568D01*
D02*
G37*
G36*
X21036Y10182D02*
X20564D01*
X20494Y10168D01*
X20435Y10128D01*
X20396Y10069D01*
X20382Y10000D01*
X20396Y9931D01*
X20435Y9872D01*
X20494Y9832D01*
X20564Y9818D01*
X21036D01*
X21106Y9832D01*
X21165Y9872D01*
X21172Y9883D01*
X21232Y9888D01*
X21708Y9412D01*
Y9340D01*
X21685Y9327D01*
X21658Y9322D01*
X21415Y9565D01*
X21385Y9585D01*
X21350Y9592D01*
X21189D01*
X21165Y9628D01*
X21106Y9668D01*
X21036Y9682D01*
X20564D01*
X20494Y9668D01*
X20435Y9628D01*
X20396Y9569D01*
X20382Y9500D01*
X20396Y9431D01*
X20435Y9372D01*
X20494Y9332D01*
X20564Y9318D01*
X21036D01*
X21106Y9332D01*
X21165Y9372D01*
X21189Y9408D01*
X21312D01*
X21508Y9212D01*
Y8500D01*
X21515Y8465D01*
X21535Y8435D01*
X22437Y7534D01*
X22466Y7514D01*
X22502Y7507D01*
X23247D01*
Y7400D01*
X23465D01*
Y7350D01*
X23515D01*
Y7122D01*
X23683D01*
Y7162D01*
X23848D01*
X24071Y6939D01*
X24101Y6919D01*
X24136Y6912D01*
X24752D01*
Y6648D01*
X24073D01*
Y6797D01*
X23427D01*
Y6103D01*
X24073D01*
Y6423D01*
X24712D01*
Y6280D01*
X25097D01*
Y6180D01*
X24712D01*
Y6012D01*
X24967D01*
X24992Y5962D01*
X24981Y5949D01*
X24952Y5877D01*
X24948Y5849D01*
X25457D01*
X25967D01*
X25963Y5877D01*
X25933Y5949D01*
X25886Y6011D01*
X25823Y6059D01*
X25751Y6088D01*
X25743Y6089D01*
X25742Y6140D01*
X25743Y6140D01*
X25809Y6184D01*
X25852Y6250D01*
X25868Y6327D01*
X25852Y6404D01*
X25809Y6469D01*
X25743Y6513D01*
X25666Y6528D01*
X25589Y6513D01*
X25524Y6470D01*
X25492Y6454D01*
X25465Y6464D01*
X25461Y6519D01*
X25469Y6524D01*
X25929Y6985D01*
X25929Y6985D01*
X25954Y7021D01*
X25962Y7064D01*
Y7936D01*
X25954Y7979D01*
X25929Y8015D01*
X25929Y8015D01*
X25469Y8476D01*
X25463Y8479D01*
X25469Y8535D01*
X25492Y8545D01*
X25524Y8530D01*
X25589Y8487D01*
X25666Y8472D01*
X25743Y8487D01*
X25809Y8531D01*
X25852Y8596D01*
X25868Y8673D01*
X25852Y8750D01*
X25809Y8816D01*
X25743Y8860D01*
X25742Y8860D01*
X25743Y8911D01*
X25751Y8912D01*
X25823Y8941D01*
X25886Y8989D01*
X25933Y9051D01*
X25963Y9123D01*
X25967Y9151D01*
X25457D01*
X24948D01*
X24952Y9123D01*
X24981Y9051D01*
X24993Y9036D01*
X24968Y8986D01*
X24712D01*
Y8818D01*
X25097D01*
Y8718D01*
X24712D01*
Y8550D01*
X24752D01*
Y8281D01*
X23979D01*
X23944Y8274D01*
X23914Y8254D01*
X23848Y8188D01*
X23683D01*
Y8228D01*
X23515D01*
Y8000D01*
X23465D01*
Y7950D01*
X23247D01*
Y7874D01*
X22706D01*
X21892Y8688D01*
Y9450D01*
X21885Y9485D01*
X21865Y9515D01*
X21315Y10065D01*
X21285Y10085D01*
X21250Y10092D01*
X21189D01*
X21165Y10128D01*
X21106Y10168D01*
X21036Y10182D01*
D02*
G37*
G36*
X23083Y9682D02*
X22611D01*
X22542Y9668D01*
X22483Y9628D01*
X22443Y9569D01*
X22429Y9500D01*
X22443Y9431D01*
X22483Y9372D01*
X22542Y9332D01*
X22611Y9318D01*
X23083D01*
X23153Y9332D01*
X23212Y9372D01*
X23251Y9431D01*
X23265Y9500D01*
X23251Y9569D01*
X23212Y9628D01*
X23153Y9668D01*
X23083Y9682D01*
D02*
G37*
G36*
X25674Y9500D02*
X25507D01*
Y9251D01*
X25967D01*
X25963Y9278D01*
X25933Y9351D01*
X25886Y9413D01*
X25823Y9460D01*
X25751Y9490D01*
X25674Y9500D01*
D02*
G37*
G36*
X25407D02*
X25241D01*
X25163Y9490D01*
X25091Y9460D01*
X25029Y9413D01*
X24981Y9351D01*
X24952Y9278D01*
X24948Y9251D01*
X25407D01*
Y9500D01*
D02*
G37*
G36*
X27053D02*
X26985D01*
X26907Y9490D01*
X26835Y9460D01*
X26773Y9413D01*
X26726Y9351D01*
X26696Y9278D01*
X26692Y9251D01*
X27053D01*
Y9500D01*
D02*
G37*
G36*
X17268Y9428D02*
X17100D01*
Y9250D01*
X17268D01*
Y9428D01*
D02*
G37*
G36*
Y9150D02*
X17100D01*
Y8972D01*
X17268D01*
Y9150D01*
D02*
G37*
G36*
X27053Y9151D02*
X26692D01*
X26696Y9123D01*
X26726Y9051D01*
X26773Y8989D01*
X26835Y8941D01*
X26907Y8912D01*
X26985Y8901D01*
X27053D01*
Y9151D01*
D02*
G37*
G36*
X23083Y9182D02*
X22611D01*
X22542Y9168D01*
X22483Y9128D01*
X22443Y9069D01*
X22429Y9000D01*
X22443Y8931D01*
X22483Y8872D01*
X22542Y8832D01*
X22611Y8818D01*
X23083D01*
X23153Y8832D01*
X23212Y8872D01*
X23251Y8931D01*
X23265Y9000D01*
X23251Y9069D01*
X23212Y9128D01*
X23153Y9168D01*
X23083Y9182D01*
D02*
G37*
G36*
X23083Y8682D02*
X22611D01*
X22542Y8668D01*
X22483Y8628D01*
X22443Y8569D01*
X22429Y8500D01*
X22443Y8431D01*
X22483Y8372D01*
X22542Y8332D01*
X22611Y8318D01*
X23083D01*
X23153Y8332D01*
X23212Y8372D01*
X23251Y8431D01*
X23265Y8500D01*
X23251Y8569D01*
X23212Y8628D01*
X23153Y8668D01*
X23083Y8682D01*
D02*
G37*
G36*
X23415Y8228D02*
X23247D01*
Y8050D01*
X23415D01*
Y8228D01*
D02*
G37*
G36*
X19778Y7983D02*
X19600D01*
Y7815D01*
X19778D01*
Y7983D01*
D02*
G37*
G36*
X19500D02*
X19322D01*
Y7815D01*
X19500D01*
Y7983D01*
D02*
G37*
G36*
X16210Y7343D02*
X15864D01*
X15518D01*
Y7246D01*
X15864D01*
X16210D01*
Y7343D01*
D02*
G37*
G36*
X21533Y7328D02*
X21365D01*
Y7150D01*
X21533D01*
Y7328D01*
D02*
G37*
G36*
X23415Y7300D02*
X23247D01*
Y7122D01*
X23415D01*
Y7300D01*
D02*
G37*
G36*
X16210Y7146D02*
X15864D01*
X15518D01*
Y7050D01*
X15864D01*
X16210D01*
Y7146D01*
D02*
G37*
G36*
X16776Y7338D02*
X16588D01*
Y7042D01*
X16776D01*
Y7338D01*
D02*
G37*
G36*
X21533Y7050D02*
X21365D01*
Y6872D01*
X21533D01*
Y7050D01*
D02*
G37*
G36*
X16210Y6950D02*
X15864D01*
X15518D01*
Y6853D01*
X15864D01*
X16210D01*
Y6950D01*
D02*
G37*
G36*
X17064Y6942D02*
X16876D01*
Y6646D01*
X17064D01*
Y6942D01*
D02*
G37*
G36*
X16776D02*
X16588D01*
Y6646D01*
X16776D01*
Y6942D01*
D02*
G37*
G36*
X21533Y6678D02*
X21365D01*
Y6500D01*
X21533D01*
Y6678D01*
D02*
G37*
G36*
Y6400D02*
X21365D01*
Y6222D01*
X21533D01*
Y6400D01*
D02*
G37*
G36*
X16210Y5965D02*
X15914D01*
Y5856D01*
X16210D01*
Y5965D01*
D02*
G37*
G36*
X27053Y6099D02*
X26985D01*
X26907Y6088D01*
X26835Y6059D01*
X26773Y6011D01*
X26726Y5949D01*
X26696Y5877D01*
X26692Y5849D01*
X27053D01*
Y6099D01*
D02*
G37*
G36*
X19477Y5993D02*
X19244D01*
Y5750D01*
X19477D01*
Y5993D01*
D02*
G37*
G36*
X19144D02*
X18911D01*
Y5750D01*
X19144D01*
Y5993D01*
D02*
G37*
G36*
X22350Y5963D02*
X22288Y5951D01*
X22235Y5915D01*
X22199Y5862D01*
X22187Y5800D01*
X22192Y5772D01*
X21835Y5415D01*
X21815Y5385D01*
X21808Y5350D01*
Y3128D01*
X21712D01*
Y2772D01*
Y2437D01*
X21958D01*
X22403Y1992D01*
Y1507D01*
X22140D01*
Y993D01*
X22850D01*
Y1507D01*
X22587D01*
Y2030D01*
X22580Y2065D01*
X22560Y2095D01*
X22088Y2567D01*
Y2772D01*
Y3128D01*
X21992D01*
Y5312D01*
X22322Y5642D01*
X22350Y5637D01*
X22412Y5649D01*
X22465Y5685D01*
X22501Y5738D01*
X22513Y5800D01*
X22501Y5862D01*
X22465Y5915D01*
X22412Y5951D01*
X22350Y5963D01*
D02*
G37*
G36*
X27053Y5749D02*
X26692D01*
X26696Y5722D01*
X26726Y5649D01*
X26773Y5587D01*
X26835Y5540D01*
X26907Y5510D01*
X26985Y5500D01*
X27053D01*
Y5749D01*
D02*
G37*
G36*
X25967Y5749D02*
X25507D01*
Y5500D01*
X25674D01*
X25751Y5510D01*
X25823Y5540D01*
X25886Y5587D01*
X25933Y5649D01*
X25963Y5722D01*
X25967Y5749D01*
D02*
G37*
G36*
X25407D02*
X24948D01*
X24952Y5722D01*
X24981Y5649D01*
X25029Y5587D01*
X25091Y5540D01*
X25163Y5510D01*
X25241Y5500D01*
X25407D01*
Y5749D01*
D02*
G37*
G36*
X19477Y5650D02*
X19244D01*
Y5407D01*
X19477D01*
Y5650D01*
D02*
G37*
G36*
X19144D02*
X18911D01*
Y5407D01*
X19144D01*
Y5650D01*
D02*
G37*
G36*
X27103Y4728D02*
X26935D01*
Y4550D01*
X27103D01*
Y4728D01*
D02*
G37*
G36*
Y4450D02*
X26935D01*
Y4272D01*
X27103D01*
Y4450D01*
D02*
G37*
G36*
X19172Y4632D02*
X19088Y4615D01*
X19016Y4567D01*
X18968Y4495D01*
X18951Y4410D01*
X18968Y4325D01*
X19016Y4253D01*
X19088Y4205D01*
X19172Y4188D01*
X19257Y4205D01*
X19329Y4253D01*
X19377Y4325D01*
X19394Y4410D01*
X19377Y4495D01*
X19329Y4567D01*
X19257Y4615D01*
X19172Y4632D01*
D02*
G37*
G36*
X26935Y4078D02*
Y3900D01*
X27103D01*
Y4078D01*
X26935D01*
D02*
G37*
G36*
X27103Y3800D02*
X26935D01*
Y3622D01*
X27103D01*
Y3800D01*
D02*
G37*
G36*
X23771Y4559D02*
X22730D01*
Y3022D01*
X23771D01*
Y4559D01*
D02*
G37*
G36*
X26071Y3178D02*
X25560D01*
Y2935D01*
X26071D01*
Y3178D01*
D02*
G37*
G36*
X12278Y3015D02*
X12100D01*
Y2847D01*
X12278D01*
Y3015D01*
D02*
G37*
G36*
X12000D02*
X11822D01*
Y2847D01*
X12000D01*
Y3015D01*
D02*
G37*
G36*
X11678D02*
X11500D01*
Y2847D01*
X11678D01*
Y3015D01*
D02*
G37*
G36*
X11400D02*
X11222D01*
Y2847D01*
X11400D01*
Y3015D01*
D02*
G37*
G36*
X11078D02*
X10900D01*
Y2847D01*
X11078D01*
Y3015D01*
D02*
G37*
G36*
X10800D02*
X10622D01*
Y2847D01*
X10800D01*
Y3015D01*
D02*
G37*
G36*
X10478Y3015D02*
X10300D01*
Y2847D01*
X10478D01*
Y3015D01*
D02*
G37*
G36*
X10200D02*
X10022D01*
Y2847D01*
X10200D01*
Y3015D01*
D02*
G37*
G36*
X9278D02*
X9100D01*
Y2847D01*
X9278D01*
Y3015D01*
D02*
G37*
G36*
X9000D02*
X8822D01*
Y2847D01*
X9000D01*
Y3015D01*
D02*
G37*
G36*
X18150Y3313D02*
X18088Y3301D01*
X18035Y3265D01*
X17999Y3212D01*
X17987Y3150D01*
X17999Y3088D01*
X18035Y3035D01*
X18088Y2999D01*
X18150Y2987D01*
X18178Y2992D01*
X18235Y2935D01*
X18265Y2915D01*
X18300Y2908D01*
X18919D01*
X18935Y2885D01*
X18988Y2849D01*
X19050Y2837D01*
X19112Y2849D01*
X19165Y2885D01*
X19201Y2938D01*
X19213Y3000D01*
X19201Y3062D01*
X19165Y3115D01*
X19112Y3151D01*
X19050Y3163D01*
X18988Y3151D01*
X18935Y3115D01*
X18919Y3092D01*
X18343D01*
X18309Y3130D01*
X18313Y3150D01*
X18301Y3212D01*
X18265Y3265D01*
X18212Y3301D01*
X18150Y3313D01*
D02*
G37*
G36*
X12850Y3013D02*
X12788Y3001D01*
X12735Y2965D01*
X12719Y2942D01*
X12660D01*
X12625Y2935D01*
X12595Y2915D01*
X12108Y2428D01*
X11862D01*
Y2133D01*
X11822D01*
Y1965D01*
X12050D01*
X12278D01*
Y2133D01*
X12238D01*
Y2298D01*
X12676Y2736D01*
X12735Y2735D01*
X12788Y2699D01*
X12850Y2687D01*
X12912Y2699D01*
X12965Y2735D01*
X13001Y2788D01*
X13013Y2850D01*
X13001Y2912D01*
X12965Y2965D01*
X12912Y3001D01*
X12850Y3013D01*
D02*
G37*
G36*
X9878Y3015D02*
X9650D01*
X9422D01*
Y2847D01*
X9558D01*
Y2800D01*
X9565Y2765D01*
X9585Y2735D01*
X9658Y2662D01*
X9656Y2650D01*
X10044D01*
X10038Y2678D01*
X9994Y2744D01*
X9928Y2788D01*
X9880Y2798D01*
X9878Y2847D01*
X9878D01*
Y3015D01*
D02*
G37*
G36*
X26071Y2835D02*
X25560D01*
Y2592D01*
X26071D01*
Y2835D01*
D02*
G37*
G36*
X25460D02*
X24950D01*
Y2592D01*
X25460D01*
Y2835D01*
D02*
G37*
G36*
X10044Y2550D02*
X9900D01*
Y2406D01*
X9928Y2412D01*
X9994Y2456D01*
X10038Y2522D01*
X10044Y2550D01*
D02*
G37*
G36*
X9800D02*
X9656D01*
X9662Y2522D01*
X9706Y2456D01*
X9772Y2412D01*
X9800Y2406D01*
Y2550D01*
D02*
G37*
G36*
X19172Y2191D02*
X19088Y2174D01*
X19016Y2126D01*
X18968Y2054D01*
X18951Y1969D01*
X18968Y1884D01*
X19016Y1812D01*
X19088Y1764D01*
X19172Y1747D01*
X19257Y1764D01*
X19329Y1812D01*
X19377Y1884D01*
X19394Y1969D01*
X19377Y2054D01*
X19329Y2126D01*
X19257Y2174D01*
X19172Y2191D01*
D02*
G37*
G36*
X12278Y1865D02*
X12100D01*
Y1697D01*
X12278D01*
Y1865D01*
D02*
G37*
G36*
X12000D02*
X11822D01*
Y1697D01*
X12000D01*
Y1865D01*
D02*
G37*
G36*
X26000Y1547D02*
X25655D01*
Y1300D01*
X26000D01*
Y1547D01*
D02*
G37*
G36*
X25555D02*
X25210D01*
Y1300D01*
X25555D01*
Y1547D01*
D02*
G37*
G36*
X26000Y1200D02*
X25655D01*
Y953D01*
X26000D01*
Y1200D01*
D02*
G37*
G36*
X25555D02*
X25210D01*
Y953D01*
X25555D01*
Y1200D01*
D02*
G37*
G36*
X27018Y983D02*
Y641D01*
X27361D01*
X27354Y694D01*
X27314Y790D01*
X27250Y872D01*
X27168Y936D01*
X27072Y976D01*
X27018Y983D01*
D02*
G37*
G36*
X26918D02*
X26865Y976D01*
X26769Y936D01*
X26687Y872D01*
X26623Y790D01*
X26583Y694D01*
X26576Y641D01*
X26918D01*
Y983D01*
D02*
G37*
G36*
X541D02*
X487Y976D01*
X391Y936D01*
X309Y872D01*
X245Y790D01*
X205Y694D01*
X198Y641D01*
X541D01*
Y983D01*
D02*
G37*
G36*
X14600Y1168D02*
X14492Y1154D01*
X14391Y1112D01*
X14304Y1045D01*
X14238Y959D01*
X14196Y858D01*
X14182Y750D01*
X14196Y642D01*
X14238Y541D01*
X14304Y454D01*
X14391Y388D01*
X14492Y346D01*
X14600Y332D01*
X14708Y346D01*
X14809Y388D01*
X14895Y454D01*
X14962Y541D01*
X15004Y642D01*
X15018Y750D01*
X15004Y858D01*
X14962Y959D01*
X14895Y1045D01*
X14809Y1112D01*
X14708Y1154D01*
X14600Y1168D01*
D02*
G37*
G36*
X27361Y541D02*
X27018D01*
Y198D01*
X27072Y205D01*
X27168Y245D01*
X27250Y309D01*
X27314Y391D01*
X27354Y487D01*
X27361Y541D01*
D02*
G37*
G36*
X26918D02*
X26576D01*
X26583Y487D01*
X26623Y391D01*
X26687Y309D01*
X26769Y245D01*
X26865Y205D01*
X26918Y198D01*
Y541D01*
D02*
G37*
G36*
X983D02*
X641D01*
Y198D01*
X694Y205D01*
X790Y245D01*
X872Y309D01*
X936Y391D01*
X976Y487D01*
X983Y541D01*
D02*
G37*
G36*
X541D02*
X198D01*
X205Y487D01*
X245Y391D01*
X309Y309D01*
X391Y245D01*
X487Y205D01*
X541Y198D01*
Y541D01*
D02*
G37*
%LPD*%
G36*
X24443Y11369D02*
X24449Y11338D01*
X24485Y11285D01*
X24538Y11249D01*
X24600Y11237D01*
X24662Y11249D01*
X24676Y11258D01*
X25258D01*
Y11086D01*
X25214Y11072D01*
Y11072D01*
X24602D01*
Y10966D01*
X24546D01*
X24511Y10959D01*
X24482Y10939D01*
X24238Y10695D01*
X24188Y10716D01*
Y10995D01*
X24092D01*
Y11088D01*
X24389Y11385D01*
X24443Y11369D01*
D02*
G37*
G36*
X24630Y7498D02*
Y7305D01*
X24637Y7270D01*
X24657Y7240D01*
X24728Y7169D01*
X24752Y7153D01*
Y7096D01*
X24174D01*
X23978Y7292D01*
Y7507D01*
X24623D01*
X24630Y7498D01*
D02*
G37*
G36*
X25738Y7890D02*
Y7110D01*
X25489Y6861D01*
X25488Y6862D01*
X25448Y6892D01*
Y7123D01*
X25442D01*
Y7350D01*
X25466Y7366D01*
X25537Y7437D01*
X25557Y7467D01*
X25564Y7502D01*
Y7695D01*
X25557Y7730D01*
X25537Y7760D01*
X25466Y7831D01*
X25442Y7847D01*
Y8120D01*
X25489Y8139D01*
X25738Y7890D01*
D02*
G37*
%LPC*%
G36*
X8248Y11148D02*
X7450D01*
Y10350D01*
X8248D01*
Y11148D01*
D02*
G37*
G36*
X7350D02*
X6552D01*
Y10350D01*
X7350D01*
Y11148D01*
D02*
G37*
G36*
X8248Y10250D02*
X7450D01*
Y9452D01*
X8248D01*
Y10250D01*
D02*
G37*
G36*
X7350D02*
X6552D01*
Y9452D01*
X7350D01*
Y10250D01*
D02*
G37*
G36*
X16400Y11050D02*
X16256D01*
X16262Y11022D01*
X16306Y10956D01*
X16372Y10912D01*
X16400Y10906D01*
Y11050D01*
D02*
G37*
G36*
X541Y13581D02*
X487Y13574D01*
X391Y13534D01*
X309Y13471D01*
X245Y13388D01*
X205Y13292D01*
X198Y13239D01*
X541D01*
Y13581D01*
D02*
G37*
G36*
X3250Y13512D02*
Y13150D01*
X3612D01*
X3604Y13208D01*
X3562Y13309D01*
X3496Y13396D01*
X3409Y13462D01*
X3308Y13504D01*
X3250Y13512D01*
D02*
G37*
G36*
X4250Y13512D02*
Y13150D01*
X4612D01*
X4604Y13208D01*
X4562Y13309D01*
X4496Y13396D01*
X4409Y13462D01*
X4308Y13504D01*
X4250Y13512D01*
D02*
G37*
G36*
X4150D02*
X4092Y13504D01*
X3991Y13462D01*
X3904Y13396D01*
X3838Y13309D01*
X3796Y13208D01*
X3788Y13150D01*
X4150D01*
Y13512D01*
D02*
G37*
G36*
X541Y13139D02*
X198D01*
X205Y13086D01*
X245Y12990D01*
X309Y12907D01*
X391Y12844D01*
X487Y12804D01*
X541Y12797D01*
Y13139D01*
D02*
G37*
G36*
X3612Y13050D02*
X3250D01*
Y12688D01*
X3308Y12696D01*
X3409Y12738D01*
X3496Y12804D01*
X3562Y12891D01*
X3604Y12992D01*
X3612Y13050D01*
D02*
G37*
G36*
X4612D02*
X4250D01*
Y12688D01*
X4308Y12696D01*
X4409Y12738D01*
X4496Y12804D01*
X4562Y12891D01*
X4604Y12992D01*
X4612Y13050D01*
D02*
G37*
G36*
X4150D02*
X3788D01*
X3796Y12992D01*
X3838Y12891D01*
X3904Y12804D01*
X3991Y12738D01*
X4092Y12696D01*
X4150Y12688D01*
Y13050D01*
D02*
G37*
G36*
X641Y13581D02*
Y13189D01*
Y12797D01*
X694Y12804D01*
X790Y12844D01*
X872Y12907D01*
X936Y12990D01*
X962Y13053D01*
X2788D01*
X2796Y12992D01*
X2838Y12891D01*
X2904Y12804D01*
X2991Y12738D01*
X3092Y12696D01*
X3150Y12688D01*
Y13100D01*
Y13512D01*
X3092Y13504D01*
X2991Y13462D01*
X2904Y13396D01*
X2838Y13309D01*
X2807Y13236D01*
X983D01*
X976Y13292D01*
X936Y13388D01*
X872Y13471D01*
X790Y13534D01*
X694Y13574D01*
X641Y13581D01*
D02*
G37*
G36*
X10800Y10644D02*
Y10500D01*
X10944D01*
X10938Y10528D01*
X10894Y10594D01*
X10828Y10638D01*
X10800Y10644D01*
D02*
G37*
G36*
X10700D02*
X10672Y10638D01*
X10606Y10594D01*
X10562Y10528D01*
X10556Y10500D01*
X10700D01*
Y10644D01*
D02*
G37*
G36*
X11600Y10200D02*
X11456D01*
X11460Y10182D01*
X11356Y10078D01*
X11317D01*
Y9900D01*
X11485D01*
Y9948D01*
X11594Y10057D01*
X11600Y10056D01*
Y10200D01*
D02*
G37*
G36*
X11485Y9800D02*
X11317D01*
Y9622D01*
X11485D01*
Y9800D01*
D02*
G37*
G36*
X5228Y7765D02*
X5050D01*
Y7597D01*
X5228D01*
Y7765D01*
D02*
G37*
G36*
X4233Y7406D02*
X3907D01*
Y7119D01*
X4233D01*
Y7406D01*
D02*
G37*
G36*
X11455Y6067D02*
Y5886D01*
X11563D01*
Y5919D01*
X11551Y5979D01*
X11517Y6030D01*
X11465Y6065D01*
X11455Y6067D01*
D02*
G37*
G36*
X11578Y8133D02*
X11400D01*
Y7965D01*
X11578D01*
Y8133D01*
D02*
G37*
G36*
X9128Y7468D02*
X8950D01*
Y7300D01*
X9128D01*
Y7468D01*
D02*
G37*
G36*
X11800Y7913D02*
X11738Y7901D01*
X11685Y7865D01*
X11649Y7812D01*
X11637Y7750D01*
X11649Y7688D01*
X11685Y7635D01*
X11708Y7619D01*
Y7554D01*
X11707Y7554D01*
X11671Y7529D01*
X11646Y7493D01*
X11638Y7450D01*
Y7350D01*
X11646Y7307D01*
X11671Y7271D01*
X11707Y7246D01*
X11750Y7238D01*
X11850D01*
X11893Y7246D01*
X11929Y7271D01*
X11954Y7307D01*
X11962Y7350D01*
Y7450D01*
X11954Y7493D01*
X11929Y7529D01*
X11893Y7554D01*
X11892Y7554D01*
Y7619D01*
X11915Y7635D01*
X11951Y7688D01*
X11963Y7750D01*
X11951Y7812D01*
X11915Y7865D01*
X11862Y7901D01*
X11800Y7913D01*
D02*
G37*
G36*
X12250D02*
X12188Y7901D01*
X12135Y7865D01*
X12099Y7812D01*
X12087Y7750D01*
X12099Y7688D01*
X12135Y7635D01*
X12158Y7619D01*
Y7554D01*
X12157Y7554D01*
X12121Y7529D01*
X12096Y7493D01*
X12088Y7450D01*
Y7350D01*
X12096Y7307D01*
X12121Y7271D01*
X12157Y7246D01*
X12200Y7238D01*
X12300D01*
X12343Y7246D01*
X12379Y7271D01*
X12404Y7307D01*
X12412Y7350D01*
Y7450D01*
X12404Y7493D01*
X12379Y7529D01*
X12343Y7554D01*
X12342Y7554D01*
Y7619D01*
X12365Y7635D01*
X12401Y7688D01*
X12413Y7750D01*
X12401Y7812D01*
X12365Y7865D01*
X12312Y7901D01*
X12250Y7913D01*
D02*
G37*
G36*
X12650Y6363D02*
X12588Y6351D01*
X12535Y6315D01*
X12499Y6262D01*
X12487Y6200D01*
X12499Y6138D01*
X12535Y6085D01*
X12558Y6069D01*
Y5954D01*
X12557Y5954D01*
X12521Y5929D01*
X12496Y5893D01*
X12488Y5850D01*
Y5750D01*
X12496Y5707D01*
X12521Y5671D01*
X12557Y5646D01*
X12600Y5638D01*
X12700D01*
X12743Y5646D01*
X12779Y5671D01*
X12804Y5707D01*
X12812Y5750D01*
Y5850D01*
X12804Y5893D01*
X12779Y5929D01*
X12743Y5954D01*
X12742Y5954D01*
Y6069D01*
X12765Y6085D01*
X12801Y6138D01*
X12813Y6200D01*
X12801Y6262D01*
X12765Y6315D01*
X12712Y6351D01*
X12650Y6363D01*
D02*
G37*
G36*
X12600Y5162D02*
X12500D01*
X12457Y5154D01*
X12421Y5129D01*
X12396Y5093D01*
X12396Y5092D01*
X12300D01*
X12265Y5085D01*
X12235Y5065D01*
X12178Y5008D01*
X12150Y5013D01*
X12088Y5001D01*
X12035Y4965D01*
X11999Y4912D01*
X11987Y4850D01*
X11999Y4788D01*
X12035Y4735D01*
X12088Y4699D01*
X12150Y4687D01*
X12212Y4699D01*
X12265Y4735D01*
X12301Y4788D01*
X12313Y4850D01*
X12309Y4870D01*
X12343Y4908D01*
X12396D01*
X12396Y4907D01*
X12421Y4871D01*
X12457Y4846D01*
X12500Y4838D01*
X12600D01*
X12643Y4846D01*
X12679Y4871D01*
X12704Y4907D01*
X12712Y4950D01*
Y5050D01*
X12704Y5093D01*
X12679Y5129D01*
X12643Y5154D01*
X12600Y5162D01*
D02*
G37*
G36*
X11750Y4144D02*
Y4000D01*
X11894D01*
X11888Y4028D01*
X11844Y4094D01*
X11778Y4138D01*
X11750Y4144D01*
D02*
G37*
G36*
X12778Y3933D02*
X12600D01*
Y3765D01*
X12778D01*
Y3933D01*
D02*
G37*
G36*
X12500D02*
X12322D01*
Y3765D01*
X12500D01*
Y3933D01*
D02*
G37*
G36*
X11894Y3900D02*
X11750D01*
Y3756D01*
X11778Y3762D01*
X11844Y3806D01*
X11888Y3872D01*
X11894Y3900D01*
D02*
G37*
G36*
X11563Y4211D02*
X11455D01*
Y3999D01*
X11497Y3956D01*
X11496Y3950D01*
X11512Y3872D01*
X11556Y3806D01*
X11622Y3762D01*
X11650Y3756D01*
Y3950D01*
Y4144D01*
X11622Y4138D01*
X11593Y4119D01*
X11558Y4155D01*
X11563Y4178D01*
Y4211D01*
D02*
G37*
G36*
X2650Y5444D02*
Y5300D01*
X2794D01*
X2788Y5328D01*
X2744Y5394D01*
X2678Y5438D01*
X2650Y5444D01*
D02*
G37*
G36*
X3850Y4144D02*
Y4000D01*
X3994D01*
X3988Y4028D01*
X3944Y4094D01*
X3878Y4138D01*
X3850Y4144D01*
D02*
G37*
G36*
X9794Y3850D02*
X9650D01*
Y3706D01*
X9678Y3712D01*
X9744Y3756D01*
X9788Y3822D01*
X9794Y3850D01*
D02*
G37*
G36*
X9550D02*
X9406D01*
X9412Y3822D01*
X9456Y3756D01*
X9522Y3712D01*
X9550Y3706D01*
Y3850D01*
D02*
G37*
G36*
X4878Y1365D02*
X4700D01*
Y1197D01*
X4878D01*
Y1365D01*
D02*
G37*
G36*
X4044Y3300D02*
X3656D01*
X3662Y3272D01*
X3659Y3265D01*
X3617Y3257D01*
X3547Y3210D01*
X3500Y3140D01*
X3484Y3057D01*
Y2835D01*
X3916D01*
Y3057D01*
X3904Y3119D01*
X3928Y3162D01*
X3994Y3206D01*
X4038Y3272D01*
X4044Y3300D01*
D02*
G37*
G36*
X3650Y2735D02*
X3484D01*
Y2513D01*
X3500Y2430D01*
X3547Y2360D01*
X3617Y2313D01*
X3650Y2307D01*
Y2735D01*
D02*
G37*
%LPD*%
D13*
X4700Y4168D02*
Y4915D01*
X2965Y3265D02*
X3380Y3680D01*
X4212D01*
X4700Y4168D01*
X2965Y1835D02*
Y3265D01*
X21917Y6450D02*
X22850D01*
X22850Y6450D01*
X25390Y6604D02*
X25850Y7064D01*
X25097Y6535D02*
X25165Y6604D01*
X25390D01*
X7321Y11445D02*
Y12271D01*
X7400Y12350D01*
X14965Y3385D02*
X17600Y750D01*
X14565Y3385D02*
X14965D01*
X14550Y3400D02*
X14565Y3385D01*
X12050Y3400D02*
X13900D01*
X12300Y10000D02*
X12450Y10150D01*
X14500D01*
X21249Y5668D02*
X21317Y5600D01*
X21249Y5668D02*
Y5735D01*
X20273Y6712D02*
X21249Y5735D01*
X18491Y6712D02*
X20273D01*
X17553Y7650D02*
X18491Y6712D01*
X17200Y7650D02*
X17553D01*
X18064Y1214D02*
X20564D01*
X17600Y750D02*
X18064Y1214D01*
X21317Y1967D02*
Y5000D01*
X20564Y1214D02*
X21317Y1967D01*
Y5000D02*
Y5600D01*
X25243Y3790D02*
X25510D01*
X25100Y3648D02*
X25243Y3790D01*
X25100Y3350D02*
Y3648D01*
X24650Y2900D02*
X25100Y3350D01*
X24650Y1050D02*
Y2900D01*
X23886Y286D02*
X24650Y1050D01*
X18064Y286D02*
X23886D01*
X17600Y750D02*
X18064Y286D01*
X18610Y760D02*
X23110D01*
X18600Y750D02*
X18610Y760D01*
X23110D02*
X24200Y1850D01*
Y4292D01*
X24604Y4696D01*
X26131Y5049D02*
Y5131D01*
X26150Y5150D01*
X25510Y4696D02*
X25778D01*
X26131Y5049D01*
X22847Y12000D02*
X23100D01*
X23600Y11500D01*
X26550Y3850D02*
Y4500D01*
X25570Y3850D02*
X26550D01*
X25510Y3790D02*
X25570Y3850D01*
X6290Y4540D02*
Y4788D01*
X5500Y3750D02*
X6290Y4540D01*
X6794Y5292D02*
X7250D01*
X6290Y4788D02*
X6794Y5292D01*
X5500Y2700D02*
Y3750D01*
Y2700D02*
X6300Y1900D01*
X7243Y2189D02*
X7252Y2198D01*
X7243Y2083D02*
Y2189D01*
X7060Y1900D02*
X7243Y2083D01*
X6300Y1900D02*
X7060D01*
X15864Y10543D02*
X16391D01*
Y10499D02*
X16740Y10150D01*
X16391Y10499D02*
Y10543D01*
X11267Y9250D02*
X11267Y9250D01*
X11650D01*
X11300Y7640D02*
Y7650D01*
X10900Y7250D02*
X10910D01*
X11300Y7640D01*
X9450Y7250D02*
Y8400D01*
X9567Y8517D01*
X10140D01*
X8615Y9434D02*
X9349Y8699D01*
X10072Y8585D02*
Y8628D01*
X10001Y8699D02*
X10072Y8628D01*
X10140Y8517D02*
X10150D01*
X10072Y8585D02*
X10140Y8517D01*
X9349Y8699D02*
X10001D01*
X9838Y6905D02*
X10115Y7182D01*
X9838Y6628D02*
Y6905D01*
X10040Y5344D02*
X10125D01*
X9594D02*
X10040D01*
X9050Y3400D02*
Y4075D01*
X8991Y4741D02*
X9594Y5344D01*
X8991Y4134D02*
X9050Y4075D01*
X8991Y4134D02*
Y4741D01*
X9400Y6200D02*
X9468Y6132D01*
X9535D01*
X9774Y5893D01*
Y5576D02*
Y5893D01*
X9974Y5375D02*
X10008D01*
X9774Y5576D02*
X9974Y5375D01*
X10008D02*
X10040Y5344D01*
X10260Y3400D02*
X10850D01*
X10260D02*
X10420Y3561D01*
Y4261D01*
X10250Y3400D02*
X10260D01*
X11450D02*
X12050D01*
X10850D02*
X11450D01*
X9650D02*
X10250D01*
X9050D02*
X9650D01*
X10250Y7250D02*
X10900D01*
X10250Y7250D02*
X10250Y7250D01*
X10115Y7182D02*
X10182D01*
X10250Y7250D01*
X9400Y6200D02*
X9410D01*
X9838Y6628D01*
X8750Y6200D02*
X9400D01*
X8740D02*
X8750D01*
X7319Y6410D02*
X8530D01*
X7250Y6341D02*
X7319Y6410D01*
X7250Y5784D02*
Y6341D01*
X8530Y6410D02*
X8740Y6200D01*
X6857Y2987D02*
X6963D01*
X7252Y2198D02*
Y2698D01*
X6963Y2987D02*
X7252Y2698D01*
X6848Y2996D02*
X6857Y2987D01*
X6211Y5784D02*
X7250D01*
X5966Y5540D02*
X6211Y5784D01*
X5364Y5540D02*
X5966D01*
X5274Y5450D02*
X5364Y5540D01*
X4950Y5450D02*
X5274D01*
X7250Y5292D02*
Y5784D01*
X16717Y10117D02*
X16750Y10150D01*
X16521Y10117D02*
X16717D01*
X16740Y10150D02*
X16750D01*
X16356Y9952D02*
X16521Y10117D01*
X16168Y9765D02*
X16356Y9952D01*
X15864Y9756D02*
X15873Y9765D01*
X16168D01*
X15864Y9952D02*
X16356D01*
X4700Y5200D02*
X4950Y5450D01*
X4700Y4915D02*
Y5200D01*
X2965Y1835D02*
X3385Y1415D01*
X3450Y2050D02*
X3737D01*
X4200Y2513D01*
Y2785D01*
X3385Y1415D02*
X4000D01*
X25850Y7064D02*
Y7936D01*
X6100Y8850D02*
X6299D01*
X6534Y9085D02*
Y9155D01*
X6299Y8850D02*
X6534Y9085D01*
X7300Y8650D02*
X7479Y8829D01*
Y9155D01*
X7400Y8000D02*
X7800D01*
X7951Y8151D02*
Y9155D01*
X7800Y8000D02*
X7951Y8151D01*
X5378Y11787D02*
X5750Y11415D01*
Y11100D02*
X5841Y11009D01*
X5750Y11100D02*
Y11415D01*
X5378Y11787D02*
Y11797D01*
X5310Y11865D02*
X5378Y11797D01*
X5841Y11009D02*
X6255D01*
X5300Y11865D02*
X5310D01*
X4500Y11850D02*
X4508Y11858D01*
X5292D01*
X5300Y11865D01*
X8545Y9434D02*
X8615D01*
X10160Y8517D02*
X10750D01*
X10228Y8595D02*
X10400Y8767D01*
X10150Y8517D02*
X10160D01*
X10228Y8585D01*
Y8595D01*
X9851Y9749D02*
X10400Y9200D01*
Y8767D02*
Y9200D01*
X8545Y9749D02*
X9851D01*
X10150Y8517D02*
X10150Y8517D01*
X10760D02*
X10933Y8690D01*
Y9250D01*
X10750Y8517D02*
X10760D01*
X10044Y9906D02*
X10700Y9250D01*
X10933D01*
X8545Y9906D02*
X10044D01*
X23087Y6213D02*
X24604Y4696D01*
X22850Y6426D02*
Y6450D01*
Y6426D02*
X23063Y6213D01*
X23087D01*
X24604Y4696D02*
X25510D01*
X21917Y6450D02*
Y7100D01*
X23835Y6535D02*
X25097D01*
X23750Y6450D02*
X23835Y6535D01*
X25390Y8396D02*
X25850Y7936D01*
X25097Y8465D02*
X25165Y8396D01*
X25390D01*
D17*
X5200Y12700D02*
Y13100D01*
X5450Y12650D02*
X5600Y12500D01*
X5200Y12700D02*
X5250Y12650D01*
X5450D01*
X2880Y870D02*
X4884D01*
X3300Y5600D02*
X3700Y5200D01*
Y4915D02*
Y5200D01*
X2850Y6150D02*
X2950Y6050D01*
Y5650D02*
Y6050D01*
X3000Y5600D02*
X3300D01*
X2950Y5650D02*
X3000Y5600D01*
X3877Y6177D02*
X5262D01*
X3850Y5537D02*
Y6150D01*
Y5537D02*
X4200Y5187D01*
Y4915D02*
Y5187D01*
X5350Y6265D02*
X5400D01*
X5262Y6177D02*
X5350Y6265D01*
X3850Y6150D02*
X3877Y6177D01*
X3334Y6634D02*
X5316D01*
X5350Y6600D01*
X2332Y1418D02*
Y7068D01*
X2332Y7068D02*
X2332Y7068D01*
X2332Y7068D02*
Y8624D01*
X2450Y8742D01*
Y8775D01*
X950Y12330D02*
X3180D01*
X2800Y11950D02*
X3180Y12330D01*
X5160D01*
X3400Y9750D02*
X5615D01*
X5535Y9500D02*
X5784Y9749D01*
X3950Y9500D02*
X5535D01*
X5784Y9749D02*
X6255D01*
X5941Y9591D02*
X6255D01*
X5500Y9150D02*
X5941Y9591D01*
X4200Y9150D02*
X5500D01*
X4845Y10636D02*
X5291Y10191D01*
X5499D01*
X5530Y10221D02*
X6255D01*
X5499Y10191D02*
X5530Y10221D01*
X4845Y10636D02*
Y10763D01*
X4500Y10850D02*
X4758D01*
X4845Y10763D01*
X11521Y10860D02*
X12000Y10381D01*
X10510Y10860D02*
X11521D01*
X12750Y10900D02*
X13300Y11450D01*
X13100Y10825D02*
X13600Y11325D01*
Y11350D01*
X13100Y10800D02*
Y10825D01*
X16450Y11100D02*
X16965D01*
X17100Y10700D02*
Y10965D01*
X16965Y11100D02*
X17100Y10965D01*
X20800Y9500D02*
X21350D01*
X21600Y9250D01*
X20800Y10000D02*
X21250D01*
X21800Y9450D01*
Y8650D02*
Y9450D01*
X22502Y7598D02*
X25097D01*
X21600Y8500D02*
Y9250D01*
X26790Y10140D02*
Y11910D01*
X26400Y12300D02*
X26790Y11910D01*
X25892Y12300D02*
X26400D01*
X950Y950D02*
Y5127D01*
X8294Y306D02*
X10156D01*
X8100Y500D02*
X8294Y306D01*
X10156D02*
X10600Y750D01*
X11267Y9860D02*
X11650Y10243D01*
Y10250D01*
X11267Y9850D02*
Y9860D01*
X11880Y9037D02*
Y10332D01*
X11562Y10650D02*
X11880Y10332D01*
X12000Y8950D02*
Y10381D01*
X10200Y10200D02*
X10593D01*
X10150Y10250D02*
X10200Y10200D01*
X10150Y10500D02*
X10510Y10860D01*
X10200Y10200D02*
X10400Y10000D01*
X10150Y10250D02*
Y10500D01*
X10750Y10450D02*
X11179Y10021D01*
Y9938D02*
X11267Y9850D01*
X11179Y9938D02*
Y10021D01*
X11150Y10650D02*
X11562D01*
X10593Y10200D02*
X10933Y9860D01*
X11360Y8517D02*
X11880Y9037D01*
X10933Y9850D02*
Y9860D01*
X11405Y4178D02*
X11633Y3950D01*
X11405Y4178D02*
Y4261D01*
X11633Y3950D02*
X11700D01*
X14603Y3079D02*
X14771D01*
X14581Y3100D02*
X14603Y3079D01*
X14771D02*
X16600Y1250D01*
X591Y591D02*
X950Y950D01*
X3438Y3540D02*
X4270D01*
X3200Y3302D02*
X3438Y3540D01*
X4270D02*
X5200Y4470D01*
Y5250D01*
X4700Y3800D02*
X5450Y4550D01*
X4700Y2785D02*
Y3800D01*
Y1800D02*
Y2785D01*
X5450Y4550D02*
Y4850D01*
X2600Y3800D02*
Y5250D01*
Y1700D02*
Y3800D01*
X3125D02*
X3275Y3950D01*
X2600Y3800D02*
X3125D01*
X3275Y3950D02*
X3800D01*
X3200Y2785D02*
Y3302D01*
X3900Y11350D02*
X4500D01*
X3600Y11650D02*
X3900Y11350D01*
X2350Y11740D02*
X3210D01*
X2253Y11837D02*
X2350Y11740D01*
X1734Y11837D02*
X2253D01*
X1720Y11850D02*
X1734Y11837D01*
X3210Y11740D02*
X3650Y11300D01*
X5290Y12200D02*
X5300D01*
X5160Y12330D02*
X5290Y12200D01*
X650Y12000D02*
Y12030D01*
X950Y12330D01*
X3000Y11400D02*
X3300Y11100D01*
X3000Y11400D02*
Y11550D01*
X3500Y9400D02*
X3650Y9550D01*
X1687Y9400D02*
X3500D01*
X3417Y8145D02*
X3456D01*
X3939Y7662D01*
X4077D01*
X4283Y7456D01*
X2560Y8050D02*
X3322D01*
X2550D02*
X2560D01*
X3322D02*
X3417Y8145D01*
X350Y10200D02*
Y12100D01*
X2600Y1700D02*
X3300Y1000D01*
X4225D02*
X4640Y1415D01*
X3300Y1000D02*
X4225D01*
X4640Y1415D02*
X4650D01*
X11405Y5836D02*
Y5927D01*
X11132Y6200D02*
X11405Y5927D01*
X10950Y6200D02*
X11132D01*
X11600Y6450D02*
X12250Y5800D01*
X11820Y6570D02*
X12250Y7000D01*
X9950Y6150D02*
X10250Y6450D01*
Y6685D02*
X10365Y6570D01*
X11820D01*
X10250Y6450D02*
X11600D01*
X9650Y2800D02*
X9850Y2600D01*
X9650Y2800D02*
Y3065D01*
X1720Y10350D02*
X3150D01*
X3300Y10500D01*
X3520Y8870D02*
X3650Y9000D01*
X2885Y8870D02*
X3520D01*
X2648Y8138D02*
Y8633D01*
X2885Y8870D01*
X2560Y8050D02*
X2648Y8138D01*
X3456Y8145D02*
X3862Y8550D01*
X5365D01*
X5400Y8515D01*
Y8177D02*
Y8515D01*
X2935Y8485D02*
Y8750D01*
X3800D02*
X4150Y9100D01*
X2935Y8750D02*
X3800D01*
X2850Y8400D02*
X2935Y8485D01*
X4150Y9100D02*
X4200Y9150D01*
X5010Y7815D02*
X5136Y7942D01*
X5165D01*
X5000Y7815D02*
X5010D01*
X5165Y7942D02*
X5400Y8177D01*
X591Y13189D02*
X635Y13144D01*
X3156D02*
X3200Y13100D01*
X635Y13144D02*
X3156D01*
X350Y12100D02*
X700Y12450D01*
X21900Y2950D02*
Y5350D01*
X22350Y5800D01*
X21600Y8500D02*
X22502Y7598D01*
X22668Y7782D02*
X23955D01*
X23969Y7795D02*
X25097D01*
X23955Y7782D02*
X23969Y7795D01*
X21800Y8650D02*
X22668Y7782D01*
X25126Y7431D02*
X25401D01*
X25472Y7502D01*
X25401Y7766D02*
X25472Y7695D01*
X25097Y7402D02*
X25126Y7431D01*
X25472Y7502D02*
Y7695D01*
X24722Y7305D02*
Y7498D01*
X24781Y7557D02*
Y7569D01*
X24722Y7498D02*
X24781Y7557D01*
X24722Y7305D02*
X24793Y7234D01*
X24781Y7569D02*
X25068D01*
X25097Y7598D01*
X25126Y7766D02*
X25401D01*
X25097Y7795D02*
X25126Y7766D01*
X17470Y4950D02*
X19194D01*
X16270Y3750D02*
X17470Y4950D01*
X12250Y7400D02*
Y7750D01*
X11800Y7400D02*
Y7750D01*
X14575Y2800D02*
X14700D01*
X15600Y1900D01*
Y750D02*
Y1900D01*
X13600Y750D02*
X14268Y1418D01*
Y7000D01*
X14148Y2298D02*
Y7940D01*
X12600Y750D02*
X14148Y2298D01*
X10900Y6915D02*
X11351D01*
X18150Y3150D02*
X18300Y3000D01*
X19050D01*
X12250Y7000D02*
X12600Y6650D01*
X12650D01*
X16600Y750D02*
Y1250D01*
X14550Y3750D02*
X16270D01*
X12900Y6400D02*
Y8200D01*
Y6400D02*
X13250Y6050D01*
X13300Y6350D02*
Y8150D01*
X10750Y2250D02*
X11350D01*
X12660Y2850D02*
X12850D01*
X12060Y2250D02*
X12660Y2850D01*
X12050Y2250D02*
X12060D01*
X15100Y7950D02*
Y8750D01*
X14850Y7700D02*
X15100Y7950D01*
X14268Y7000D02*
X14518Y7250D01*
X15050D01*
X15400Y7600D01*
Y8149D02*
X15599Y8349D01*
X15835D02*
X15864Y8378D01*
X15599Y8349D02*
X15835D01*
X15400Y7600D02*
Y8149D01*
X14720Y8512D02*
Y8900D01*
X14788Y8968D02*
X15864D01*
X14720Y8900D02*
X14788Y8968D01*
X14148Y7940D02*
X14720Y8512D01*
X14020Y7982D02*
X14600Y8562D01*
Y9400D01*
X14900Y9700D01*
Y10000D01*
X13362Y5050D02*
X13400D01*
X12950Y5000D02*
X13312D01*
X13362Y5050D01*
X12300Y5000D02*
X12550D01*
X12150Y4850D02*
X12300Y5000D01*
X12238Y5400D02*
X12550D01*
X12950D02*
X13250Y5700D01*
X13350Y4035D02*
X13635Y3750D01*
X13900D01*
X13750Y4550D02*
X14020Y4820D01*
X13900Y5200D02*
Y8031D01*
X13350Y4035D02*
Y4650D01*
X13900Y5200D01*
X14020Y4820D02*
Y7982D01*
X13900Y8031D02*
X14400Y8531D01*
Y9350D01*
X15100Y9250D02*
Y9950D01*
X12852Y12052D02*
X16152D01*
X14321Y11692D02*
X16812D01*
X12982Y11932D02*
X16632D01*
X12430Y10980D02*
X13140Y11690D01*
X14319D01*
X14321Y11692D01*
X13032Y11812D02*
X16762D01*
X12050Y11650D02*
X12700Y12300D01*
X9326Y11650D02*
X12050D01*
X12700Y12300D02*
X14400D01*
X9260Y11790D02*
X11940D01*
X12600Y12450D02*
X13200D01*
X11940Y11790D02*
X12600Y12450D01*
X12650Y5800D02*
Y6200D01*
X13250Y5700D02*
Y6050D01*
X13350Y8900D02*
X13450Y9000D01*
Y9500D01*
X12900Y8900D02*
X13100Y9100D01*
Y9500D01*
X12200Y9100D02*
X12350Y9250D01*
X12750D01*
X12000Y8950D02*
X12350Y8600D01*
X14900Y6400D02*
X15950Y5350D01*
X16815D01*
X12350Y8600D02*
X14200D01*
X17200Y8240D02*
X17640Y7800D01*
X17700D01*
X17200Y8240D02*
Y8250D01*
X14550Y6750D02*
X14694Y6606D01*
X15864D01*
X12200Y10350D02*
X15175D01*
X16150Y11325D01*
X11791Y4753D02*
X12139Y4405D01*
X12462D01*
X12550Y4317D01*
X11700Y5541D02*
X11991D01*
X12250Y5800D01*
X17150Y5350D02*
Y5958D01*
X17200Y6008D01*
X16865Y7650D02*
Y8250D01*
X17466Y7208D02*
X17574Y7100D01*
X16953Y7523D02*
X17268Y7208D01*
X16865Y7650D02*
X16953Y7562D01*
X17574Y6992D02*
Y7100D01*
X17268Y7208D02*
X17466D01*
X16953Y7523D02*
Y7562D01*
X23500Y8800D02*
X24350Y9650D01*
X26300D01*
X26790Y10140D01*
X19800Y4950D02*
X19850Y5000D01*
X20983D01*
X19800Y5700D02*
X19900Y5600D01*
X20983D01*
X18300Y9150D02*
X19083Y8367D01*
X19550D01*
X20402D01*
X21910Y2615D02*
X22495Y2030D01*
Y1250D02*
Y2030D01*
X11350Y8517D02*
X11360D01*
X11340D02*
X11350D01*
X10250Y6685D02*
Y6915D01*
X11436Y7000D02*
X11800D01*
X11351Y6915D02*
X11436Y7000D01*
X10000Y4000D02*
X10125Y4125D01*
Y4556D01*
X11796Y5344D02*
X11840Y5300D01*
X12100D01*
X11700Y5344D02*
X11796D01*
X12138Y5300D02*
X12238Y5400D01*
X12100Y5300D02*
X12138D01*
X12050Y10600D02*
X15255D01*
X15600Y10945D01*
X24000Y11850D02*
Y12250D01*
X24600Y11400D02*
X24650Y11350D01*
X25300D01*
X6500Y4800D02*
X6750Y5050D01*
X6500Y2675D02*
Y4800D01*
X6750Y5050D02*
X7776D01*
X6150Y4800D02*
Y5300D01*
X5250Y3900D02*
X6150Y4800D01*
X5250Y1835D02*
Y3900D01*
X5810Y4660D02*
Y4810D01*
X5000Y3850D02*
X5810Y4660D01*
Y4810D02*
X5850Y4850D01*
X5000Y1700D02*
X5100Y1600D01*
X5000Y1700D02*
Y3850D01*
X5250Y1835D02*
X5285Y1800D01*
X17125Y11325D02*
X17450Y11650D01*
X16150Y11325D02*
X17125D01*
X15600Y10945D02*
Y11300D01*
X17050Y11500D02*
X17320Y11770D01*
X15600Y11300D02*
X15800Y11500D01*
X17050D01*
X10150Y7750D02*
X10850D01*
X9850Y7277D02*
Y7450D01*
X10150Y7750D01*
X9586Y7042D02*
X9615D01*
X9450Y6915D02*
X9460D01*
X9586Y7042D01*
X9615D02*
X9850Y7277D01*
X9933Y8183D02*
X10150D01*
X9750Y8000D02*
X9933Y8183D01*
X10150D02*
X10750D01*
X11214Y8391D02*
X11340Y8517D01*
X11185Y8391D02*
X11214D01*
X11017Y7917D02*
Y8223D01*
X11185Y8391D01*
X10850Y7750D02*
X11017Y7917D01*
X9500Y4000D02*
X9600Y3900D01*
X9500Y4000D02*
Y4333D01*
X9762Y4618D02*
X9897Y4753D01*
X9762Y4556D02*
Y4618D01*
X9897Y4753D02*
X10125D01*
X9627Y4421D02*
X9762Y4556D01*
X9588Y4421D02*
X9627D01*
X9500Y4333D02*
X9588Y4421D01*
X9235Y4350D02*
X9483D01*
X9200Y4385D02*
X9235Y4350D01*
X9200Y4385D02*
Y4741D01*
X9483Y4350D02*
X9500Y4333D01*
X9200Y4741D02*
X9606Y5147D01*
X10125D01*
X8600Y4250D02*
Y5715D01*
X8400Y4050D02*
X8600Y4250D01*
X6950Y4050D02*
X8400D01*
X11700Y4753D02*
X11791D01*
X9510Y4667D02*
X9793Y4950D01*
X10125D01*
X9500Y4667D02*
X9510D01*
X8750Y5600D02*
Y5865D01*
Y5600D02*
X8850Y5500D01*
X9300Y5775D02*
X9390Y5865D01*
X9400D01*
X9300Y5450D02*
Y5775D01*
X7700Y5738D02*
Y6200D01*
X7930Y5380D02*
X8018Y5292D01*
X7930Y5380D02*
Y5509D01*
X8018Y5292D02*
X8116D01*
X7700Y5738D02*
X7930Y5509D01*
X7250Y4308D02*
X8116D01*
X7250D02*
Y4800D01*
X8185Y5715D02*
X8600D01*
X8116Y5784D02*
X8185Y5715D01*
X8600D02*
X8652Y5767D01*
X8740Y5865D02*
X8750D01*
X8652Y5777D02*
X8740Y5865D01*
X8652Y5767D02*
Y5777D01*
X6800Y3900D02*
X6950Y4050D01*
X6150Y3450D02*
X6380Y3220D01*
Y2599D02*
Y3220D01*
Y2599D02*
X6780Y2198D01*
X7055D01*
X7776Y5050D02*
X8018Y5292D01*
X6500Y2675D02*
X6741Y2435D01*
X6819D02*
X6848Y2405D01*
X6741Y2435D02*
X6819D01*
X7750Y3700D02*
X8050D01*
X7645Y3231D02*
X7750Y3336D01*
Y3700D01*
X7645Y3202D02*
Y3231D01*
Y3045D02*
Y3202D01*
X7550Y2950D02*
X7645Y3045D01*
X7281Y3095D02*
X7425Y2950D01*
X7550D01*
X7252Y3202D02*
X7281Y3173D01*
Y3095D02*
Y3173D01*
X7852Y2996D02*
X7882D01*
X7918Y3033D02*
X8350D01*
X7882Y2996D02*
X7918Y3033D01*
X8350Y3367D02*
Y3750D01*
X7055Y3713D02*
X7260Y3918D01*
X8182D01*
X8350Y3750D01*
X7055Y3202D02*
Y3713D01*
X7415Y3700D02*
X7448Y3667D01*
Y3202D02*
Y3667D01*
X9700Y2000D02*
X9900Y1800D01*
X9150Y1850D02*
X9300Y2000D01*
X9700D01*
X9150Y1400D02*
Y1850D01*
X9000Y1250D02*
X9150Y1400D01*
X6300Y1250D02*
X9000D01*
X5285Y1800D02*
X5750D01*
X6300Y1250D01*
X5307Y1293D02*
X5893D01*
X5100Y1600D02*
X5756D01*
X6600Y756D01*
X5893Y1293D02*
X6150Y1036D01*
Y572D02*
Y1036D01*
X6600Y750D02*
Y756D01*
X10492Y1800D02*
X11542Y750D01*
X11600D01*
X9900Y1800D02*
X10492D01*
X800Y10850D02*
X1720D01*
X470Y10380D02*
X900Y9950D01*
X5645D01*
X780Y9830D02*
X2565D01*
X350Y10200D02*
X725Y9825D01*
X775D01*
X780Y9830D01*
X470Y10380D02*
Y11220D01*
X600Y11350D01*
X1720D01*
X9450Y1800D02*
X9477Y1773D01*
Y873D02*
Y1773D01*
Y873D02*
X9600Y750D01*
X6150Y6450D02*
X6500Y6100D01*
X5800Y6450D02*
X6150D01*
X5825Y5775D02*
Y6025D01*
Y5775D02*
X5850Y5750D01*
X5800Y6050D02*
X5825Y6025D01*
X5950Y8000D02*
X6330D01*
X6113Y8500D02*
X6176D01*
X6050D02*
X6113D01*
X2200Y1380D02*
Y9200D01*
Y1380D02*
X2830Y750D01*
X5700Y13173D02*
X6032Y13505D01*
X5700Y12800D02*
Y13173D01*
X6032Y13505D02*
X15545D01*
X5200Y13500D02*
X5325Y13625D01*
X16425D02*
X16650Y13400D01*
X15545Y13505D02*
X15600Y13450D01*
X5325Y13625D02*
X16425D01*
X5200Y13100D02*
Y13500D01*
X850Y11650D02*
X936Y11564D01*
X2411D02*
X2425Y11550D01*
X936Y11564D02*
X2411D01*
X3650Y6950D02*
X6100D01*
X6800Y7650D01*
X3450Y7150D02*
X3650Y6950D01*
X5850Y5300D02*
X6150D01*
X3050Y9150D02*
X3600D01*
X1060Y8773D02*
X1687Y9400D01*
X3600Y9150D02*
X3950Y9500D01*
X5645Y9950D02*
X5759Y10064D01*
X5615Y9750D02*
X5771Y9906D01*
X5759Y10064D02*
X6255D01*
X9371Y10221D02*
X10250Y11100D01*
X9236Y10536D02*
X10080Y11380D01*
X8640Y11910D02*
X11460D01*
X10250Y11100D02*
X12320D01*
X12180Y11380D02*
X12852Y12052D01*
X9400Y11500D02*
X12050Y11521D01*
X11460Y11910D02*
X12150Y12600D01*
X10350Y10980D02*
X12430D01*
X8118Y11594D02*
X8554Y12030D01*
X9434Y10064D02*
X10350Y10980D01*
X8554Y12030D02*
X11130D01*
X10200Y11250D02*
X12300D01*
X11130Y12030D02*
X12200Y13100D01*
X8694Y11018D02*
X9326Y11650D01*
X12300Y11250D02*
X12982Y11932D01*
X8636Y11166D02*
X9260Y11790D01*
X10080Y11380D02*
X12180D01*
X12320Y11100D02*
X13032Y11812D01*
X12150Y12600D02*
X12348D01*
X8266Y11536D02*
X8640Y11910D01*
X9329Y10379D02*
X10200Y11250D01*
X10250Y12150D02*
X11200Y13100D01*
X8504Y12150D02*
X10250D01*
X16915Y9942D02*
X17100Y10127D01*
X16750Y9815D02*
X16760D01*
X16886Y9942D01*
X16915D01*
X17100Y10127D02*
Y10300D01*
X16853Y10547D02*
Y10612D01*
Y10547D02*
X17100Y10300D01*
X16765Y10700D02*
X16853Y10612D01*
X17450Y11650D02*
X18865D01*
X18990Y11890D02*
X20200Y13100D01*
X19107Y11770D02*
X19377Y11500D01*
X17010Y11890D02*
X18990D01*
X16812Y11692D02*
X17010Y11890D01*
X18865Y11650D02*
X19417Y11098D01*
X17320Y11770D02*
X19107D01*
X15599Y9391D02*
X15835D01*
X15350Y9640D02*
X15599Y9391D01*
X15835D02*
X15864Y9362D01*
X15350Y9640D02*
Y9800D01*
X16680Y9165D02*
X16715Y9200D01*
X15864Y9165D02*
X16680D01*
X15864Y10149D02*
X16199D01*
X16300Y10250D01*
X15496Y10346D02*
X15864D01*
X15100Y9950D02*
X15496Y10346D01*
X16501Y9559D02*
X16733Y9790D01*
Y9800D01*
X15864Y9559D02*
X16501D01*
X8195Y13095D02*
X8200Y13100D01*
X7961Y11606D02*
X8504Y12150D01*
X8477Y12293D02*
X9393D01*
X7803Y11619D02*
X8477Y12293D01*
X8266Y11445D02*
Y11536D01*
X15874Y8761D02*
X17089D01*
X15864Y8771D02*
X15874Y8761D01*
X17089D02*
X17100Y8750D01*
X9393Y12293D02*
X10200Y13100D01*
X7636Y11686D02*
X9050Y13100D01*
X7794Y11445D02*
X7803Y11454D01*
Y11619D01*
X9050Y13100D02*
X9200D01*
X7636Y11445D02*
Y11686D01*
X9346Y11500D02*
X9400D01*
X8545Y11009D02*
X8554Y11018D01*
Y10861D02*
X8706D01*
X9346Y11500D01*
X8554Y11018D02*
X8694D01*
X8545Y10851D02*
X8554Y10861D01*
X8545Y11166D02*
X8636D01*
X16762Y11812D02*
X17550Y12600D01*
X16632Y11932D02*
X17795Y13095D01*
X18195D01*
X17550Y12600D02*
X18700D01*
X18195Y13095D02*
X18200Y13100D01*
X18700Y12600D02*
X19200Y13100D01*
X15280Y12180D02*
X16200Y13100D01*
X12091Y11521D02*
X12750Y12180D01*
X15280D01*
X16152Y12052D02*
X17200Y13100D01*
X5423Y12450D02*
X5523Y12350D01*
X700Y12450D02*
X5423D01*
X13147Y13047D02*
X13200Y13100D01*
X12348Y12600D02*
X12795Y13047D01*
X13147D01*
X5523Y12350D02*
X5650D01*
X5890Y12110D01*
Y11910D02*
Y12110D01*
X3624Y11064D02*
X4986D01*
X5514Y10536D01*
X3410Y10850D02*
X3624Y11064D01*
X1720Y10850D02*
X3410D01*
X5514Y10536D02*
X6255D01*
X7173Y11454D02*
Y13073D01*
X6200Y13100D02*
X7006Y12294D01*
X6849Y11445D02*
Y11901D01*
X6250Y12500D02*
X6849Y11901D01*
X7164Y11445D02*
X7173Y11454D01*
Y13073D02*
X7200Y13100D01*
X7006Y11445D02*
Y12294D01*
X7479Y11979D02*
X8195Y12695D01*
Y13095D01*
X7479Y11445D02*
Y11979D01*
X5600Y12500D02*
X6250D01*
X8545Y10379D02*
X9329D01*
X8545Y10064D02*
X9434D01*
X8545Y10221D02*
X9371D01*
X25992Y10600D02*
X26600D01*
X25892Y10500D02*
X25992Y10600D01*
X5200Y5250D02*
X5250Y5300D01*
X5450D01*
X4884Y870D02*
X5307Y1293D01*
X4284Y4441D02*
X4442Y4599D01*
Y5542D01*
X4600Y5700D01*
X3616Y4441D02*
X4284D01*
X7450Y750D02*
X7600D01*
X7000Y300D02*
X7450Y750D01*
X6422Y300D02*
X7000D01*
X6150Y572D02*
X6422Y300D01*
X2565Y9830D02*
X2600Y9795D01*
Y9650D02*
Y9795D01*
X2830Y750D02*
X5600D01*
X2332Y1418D02*
X2880Y870D01*
X3850Y3207D02*
Y3350D01*
X3700Y2785D02*
Y3057D01*
X3850Y3207D01*
X4650Y1750D02*
X4700Y1800D01*
X4000Y1750D02*
X4650D01*
X2850Y6150D02*
X3334Y6634D01*
X4322Y8145D02*
X4689Y7778D01*
Y7511D02*
Y7778D01*
Y7511D02*
X4900Y7300D01*
X4283Y8145D02*
X4322D01*
X4900Y7300D02*
X6050D01*
X4600Y5700D02*
X5400D01*
X5450Y5750D01*
X3402Y4656D02*
X3616Y4441D01*
X3276Y4656D02*
X3402D01*
X3200Y4731D02*
X3276Y4656D01*
X3200Y4731D02*
Y4915D01*
X19427Y11098D02*
X19515Y11010D01*
X19417Y11098D02*
X19427D01*
X19515Y11000D02*
Y11010D01*
X19377Y11500D02*
X20800D01*
X25068Y7234D02*
X25097Y7205D01*
X24793Y7234D02*
X25068D01*
X950Y8773D02*
X1060D01*
X3378Y7456D02*
X3417D01*
X2550Y7783D02*
X3051D01*
X3378Y7456D01*
X6500Y7800D02*
Y8000D01*
X6450Y7750D02*
X6500Y7800D01*
Y7050D02*
X6635Y6915D01*
X7000D01*
X6800Y7650D02*
Y8100D01*
X4283Y8145D02*
X4288Y8150D01*
X5000D01*
X5050Y8750D02*
X5350D01*
X6034Y9434D01*
X6255D01*
X6176Y8500D02*
X6682Y9006D01*
Y9146D01*
X6582Y8736D02*
X6839Y8994D01*
X6981Y8626D02*
X7312Y8957D01*
X7154Y8969D02*
Y9146D01*
X6702Y8552D02*
Y8686D01*
X6981Y8481D02*
Y8626D01*
X6861Y8676D02*
X7154Y8969D01*
X6997Y8981D02*
Y9146D01*
X6839Y8994D02*
Y9146D01*
X7312Y8957D02*
Y9146D01*
X6702Y8686D02*
X6997Y8981D01*
X6582Y8601D02*
Y8736D01*
X6861Y8531D02*
Y8676D01*
X6682Y9146D02*
X6691Y9155D01*
X7312Y9146D02*
X7321Y9155D01*
X5800Y8350D02*
X5900Y8250D01*
X6230D01*
X6582Y8601D01*
X5750Y8150D02*
X5780Y8120D01*
X6330Y8000D02*
X6861Y8531D01*
X5780Y8120D02*
X6270D01*
X6702Y8552D01*
X6500Y8000D02*
X6981Y8481D01*
X6800Y8100D02*
X7050Y8350D01*
X7350D01*
X7000Y7250D02*
Y8050D01*
X7180Y8230D01*
X6839Y9146D02*
X6849Y9155D01*
X6997Y9146D02*
X7006Y9155D01*
X7154Y9146D02*
X7164Y9155D01*
X7480Y8230D02*
X7794Y8544D01*
X7180Y8230D02*
X7480D01*
X7350Y8350D02*
X7636Y8636D01*
X3417Y7456D02*
X3450Y7423D01*
Y7150D02*
Y7423D01*
X7636Y8636D02*
Y9155D01*
X7794Y8544D02*
Y9155D01*
X8000Y7850D02*
X8109Y7959D01*
Y9155D01*
X7300Y7550D02*
X7600Y7850D01*
X8000D01*
X7300Y7177D02*
X7435Y7042D01*
X7300Y7177D02*
Y7550D01*
X7590Y6915D02*
X7600D01*
X7464Y7042D02*
X7590Y6915D01*
X7435Y7042D02*
X7464D01*
X7600Y6915D02*
X7600Y6915D01*
X8250D01*
X7600Y7250D02*
X7600Y7250D01*
X8250D01*
X8812Y7003D02*
X8900Y6915D01*
X8250Y7250D02*
X8468D01*
X8714Y7003D01*
X8812D01*
X8266Y7266D02*
Y9155D01*
X8250Y7250D02*
X8266Y7266D01*
X8890Y6915D02*
X8900D01*
X3650Y10350D02*
X4500D01*
X5771Y9906D02*
X6255D01*
X5371Y10379D02*
X6255D01*
X5350Y10400D02*
X5371Y10379D01*
X4986Y11314D02*
X5606Y10694D01*
X6255D01*
X4536Y11314D02*
X4986D01*
X4500Y11350D02*
X4536Y11314D01*
X5500Y11150D02*
X5799Y10851D01*
X6255D01*
X5700Y11800D02*
X5900Y11600D01*
X5700Y11800D02*
Y11850D01*
X5900Y11300D02*
Y11600D01*
X6034Y11166D02*
X6255D01*
X5900Y11300D02*
X6034Y11166D01*
X6254Y11546D02*
X6524D01*
X5890Y11910D02*
X6254Y11546D01*
X6524D02*
X6534Y11536D01*
Y11445D02*
Y11536D01*
X9450Y9300D02*
X9500D01*
X9159Y9591D02*
X9450Y9300D01*
X8545Y9591D02*
X9159D01*
X8545Y10536D02*
X9236D01*
X12050Y11521D02*
X12091D01*
X13200Y12450D02*
X13557Y12807D01*
X13920D01*
X14400Y12300D02*
X15200Y13100D01*
X8994Y10694D02*
X9300Y11000D01*
X8545Y10694D02*
X8994D01*
X13920Y12807D02*
X14200Y13086D01*
Y13100D01*
X8118Y11454D02*
Y11594D01*
X7961Y11454D02*
Y11606D01*
X8109Y11445D02*
X8118Y11454D01*
X7951Y11445D02*
X7961Y11454D01*
X6200Y12100D02*
X6682Y11618D01*
Y11454D02*
Y11618D01*
Y11454D02*
X6691Y11445D01*
X25350Y10600D02*
Y11300D01*
X25300Y11350D02*
X25350Y11300D01*
X24000Y10817D02*
Y11126D01*
X24800Y11926D01*
X25124Y10374D02*
X25350Y10600D01*
X24908Y10126D02*
X25016D01*
X25124Y10234D01*
Y10374D01*
X23050Y10500D02*
X23550Y10000D01*
X22950Y10600D02*
X23050Y10500D01*
X23568Y10018D02*
X24800D01*
X23550Y10000D02*
X23568Y10018D01*
X24800D02*
X24908Y10126D01*
X22847Y10500D02*
X23050D01*
X22847Y11000D02*
X23083D01*
X23266Y10817D02*
X24000D01*
X23083Y11000D02*
X23266Y10817D01*
X24800Y11926D02*
X24908D01*
X24000Y12585D02*
X24818D01*
X24908Y12674D01*
X19850Y11000D02*
X20800D01*
X20398Y10335D02*
X20564Y10500D01*
X20800D01*
X19550Y10335D02*
X20398D01*
X20402Y8367D02*
X20535Y8500D01*
X20800D01*
X19565Y9000D02*
X20800D01*
X19550Y9015D02*
X19565Y9000D01*
X19035Y9015D02*
X19550D01*
X18900Y9150D02*
X19035Y9015D01*
X18900Y9150D02*
Y9600D01*
X18400Y10100D02*
X18900Y9600D01*
X18400Y10100D02*
Y11050D01*
X18300Y11150D02*
X18400Y11050D01*
X24243Y10571D02*
X24546Y10874D01*
X24000Y10483D02*
X24088Y10571D01*
X24546Y10874D02*
X24908D01*
X24088Y10571D02*
X24243D01*
X21900Y2615D02*
X21910D01*
X23800Y7340D02*
X24136Y7004D01*
X25103D01*
X23800Y7340D02*
Y7350D01*
Y8010D02*
X23979Y8189D01*
X23800Y8000D02*
Y8010D01*
X23979Y8189D02*
X25097D01*
D24*
X22847Y8500D02*
D03*
X22847Y9000D02*
D03*
X22847Y9500D02*
D03*
Y10000D02*
D03*
X22847Y10500D02*
D03*
X22847Y11000D02*
D03*
X22847Y11500D02*
D03*
X22847Y12000D02*
D03*
X20800Y8500D02*
D03*
X20800Y9000D02*
D03*
X20800Y9500D02*
D03*
Y10000D02*
D03*
Y10500D02*
D03*
Y11000D02*
D03*
X20800Y11500D02*
D03*
X20800Y12000D02*
D03*
D25*
X5450Y5750D02*
D03*
X5850D02*
D03*
X5450Y4850D02*
D03*
X5850D02*
D03*
X5450Y5300D02*
D03*
X5850D02*
D03*
X12550Y5000D02*
D03*
X12950D02*
D03*
X12550Y5400D02*
D03*
X12950D02*
D03*
X12250Y5800D02*
D03*
X12650D02*
D03*
D26*
X9500Y4333D02*
D03*
Y4667D02*
D03*
X8750Y5865D02*
D03*
Y6200D02*
D03*
X4000Y1750D02*
D03*
Y1415D02*
D03*
X4650Y1750D02*
D03*
Y1415D02*
D03*
X8350Y3033D02*
D03*
Y3367D02*
D03*
X9050Y3400D02*
D03*
Y3065D02*
D03*
X9650Y3400D02*
D03*
Y3065D02*
D03*
X10250D02*
D03*
Y3400D02*
D03*
X12050Y2250D02*
D03*
Y1915D02*
D03*
X10750D02*
D03*
Y2250D02*
D03*
X10850Y3065D02*
D03*
Y3400D02*
D03*
X11450Y3065D02*
D03*
Y3400D02*
D03*
X12050Y3065D02*
D03*
Y3400D02*
D03*
X9400Y5865D02*
D03*
Y6200D02*
D03*
X4800Y6600D02*
D03*
Y6265D02*
D03*
X5350Y6600D02*
D03*
Y6265D02*
D03*
X2550Y8050D02*
D03*
Y7715D02*
D03*
X5000Y7815D02*
D03*
Y8150D02*
D03*
X5300Y12200D02*
D03*
Y11865D02*
D03*
X7000Y6915D02*
D03*
Y7250D02*
D03*
X7600Y6915D02*
D03*
Y7250D02*
D03*
X8250Y7250D02*
D03*
X8250Y6915D02*
D03*
X8900Y6915D02*
D03*
X8900Y7250D02*
D03*
X9450D02*
D03*
Y6915D02*
D03*
X10250D02*
D03*
Y7250D02*
D03*
X10900Y6915D02*
D03*
Y7250D02*
D03*
X12550Y4317D02*
D03*
Y3983D02*
D03*
X10150Y8183D02*
D03*
Y8517D02*
D03*
X10750Y8183D02*
D03*
Y8517D02*
D03*
X11350Y8183D02*
D03*
Y8517D02*
D03*
X16750Y10150D02*
D03*
Y9815D02*
D03*
X19550Y8367D02*
D03*
Y8033D02*
D03*
X19550Y9015D02*
D03*
Y9350D02*
D03*
Y10000D02*
D03*
Y10335D02*
D03*
X21900Y2950D02*
D03*
Y2615D02*
D03*
X24000Y12250D02*
D03*
Y12585D02*
D03*
X24000Y10817D02*
D03*
Y10483D02*
D03*
D27*
X950Y8773D02*
D03*
Y5127D02*
D03*
D28*
X4700Y4915D02*
D03*
X4200D02*
D03*
X3700D02*
D03*
X3200D02*
D03*
X4700Y2785D02*
D03*
X4200D02*
D03*
X3700D02*
D03*
X3200D02*
D03*
D29*
X8116Y5784D02*
D03*
Y5292D02*
D03*
Y4800D02*
D03*
Y4308D02*
D03*
X7250D02*
D03*
Y4800D02*
D03*
Y5292D02*
D03*
Y5784D02*
D03*
D30*
X7415Y3700D02*
D03*
X7750D02*
D03*
X10933Y9250D02*
D03*
X11267D02*
D03*
X11267Y9850D02*
D03*
X10933D02*
D03*
X20983Y5000D02*
D03*
X21317D02*
D03*
X20983Y5600D02*
D03*
X21317D02*
D03*
X16815Y5350D02*
D03*
X17150D02*
D03*
X16865Y7650D02*
D03*
X17200D02*
D03*
X16865Y8250D02*
D03*
X17200D02*
D03*
X16715Y9200D02*
D03*
X17050D02*
D03*
X17100Y10700D02*
D03*
X16765D02*
D03*
X19850Y11000D02*
D03*
X19515D02*
D03*
X26550Y3850D02*
D03*
X26885D02*
D03*
X26885Y4500D02*
D03*
X26550Y4500D02*
D03*
X21917Y7100D02*
D03*
X21583D02*
D03*
X21917Y6450D02*
D03*
X21583D02*
D03*
X23465Y7350D02*
D03*
X23800D02*
D03*
X23465Y8000D02*
D03*
X23800D02*
D03*
D31*
X6848Y2405D02*
D03*
Y2602D02*
D03*
Y2799D02*
D03*
X6848Y2996D02*
D03*
X7852D02*
D03*
X7852Y2799D02*
D03*
Y2602D02*
D03*
Y2405D02*
D03*
D32*
X7055Y3202D02*
D03*
X7252Y3202D02*
D03*
X7448D02*
D03*
X7645Y3202D02*
D03*
X7646Y2198D02*
D03*
X7449Y2198D02*
D03*
X7252D02*
D03*
X7055D02*
D03*
D33*
X10913Y5048D02*
D03*
D34*
X11700Y5541D02*
D03*
Y5344D02*
D03*
Y5147D02*
D03*
X11700Y4950D02*
D03*
Y4753D02*
D03*
Y4556D02*
D03*
X10125D02*
D03*
Y4753D02*
D03*
Y4950D02*
D03*
Y5147D02*
D03*
Y5344D02*
D03*
Y5541D02*
D03*
D35*
X11405Y4261D02*
D03*
X11208D02*
D03*
X11011D02*
D03*
X10814D02*
D03*
X10617D02*
D03*
X10420D02*
D03*
Y5836D02*
D03*
X10617D02*
D03*
X10814D02*
D03*
X11011Y5836D02*
D03*
X11208D02*
D03*
X11405D02*
D03*
D36*
X3417Y8145D02*
D03*
X4283Y8145D02*
D03*
X4283Y7456D02*
D03*
X3417D02*
D03*
D37*
X7400Y10300D02*
D03*
D38*
X8545Y9434D02*
D03*
X8545Y9591D02*
D03*
Y9749D02*
D03*
Y9906D02*
D03*
Y10064D02*
D03*
X8545Y10221D02*
D03*
X8545Y10379D02*
D03*
Y10536D02*
D03*
Y10694D02*
D03*
Y10851D02*
D03*
Y11009D02*
D03*
X8545Y11166D02*
D03*
X6255Y11166D02*
D03*
Y11009D02*
D03*
Y10851D02*
D03*
Y10694D02*
D03*
Y10536D02*
D03*
Y10379D02*
D03*
Y10221D02*
D03*
Y10064D02*
D03*
Y9906D02*
D03*
Y9749D02*
D03*
Y9591D02*
D03*
Y9434D02*
D03*
D39*
X8266Y11445D02*
D03*
X8109Y11445D02*
D03*
X7951D02*
D03*
X7794D02*
D03*
X7636D02*
D03*
X7479D02*
D03*
X7321Y11445D02*
D03*
X7164Y11445D02*
D03*
X7006D02*
D03*
X6849D02*
D03*
X6691D02*
D03*
X6534Y11445D02*
D03*
X6534Y9155D02*
D03*
X6691D02*
D03*
X6849D02*
D03*
X7006D02*
D03*
X7164D02*
D03*
X7321D02*
D03*
X7479D02*
D03*
X7636D02*
D03*
X7794D02*
D03*
X7951D02*
D03*
X8109D02*
D03*
X8266D02*
D03*
D40*
X11800Y7000D02*
D03*
Y7400D02*
D03*
X12250Y7400D02*
D03*
Y7000D02*
D03*
D41*
X19194Y4950D02*
D03*
X19800D02*
D03*
Y5700D02*
D03*
X19194D02*
D03*
D42*
X14850Y5350D02*
D03*
X14850Y11208D02*
D03*
D43*
X15864Y6015D02*
D03*
Y6212D02*
D03*
Y6409D02*
D03*
Y6606D02*
D03*
X15864Y6803D02*
D03*
Y7000D02*
D03*
Y7196D02*
D03*
Y7393D02*
D03*
Y7590D02*
D03*
Y7787D02*
D03*
Y7984D02*
D03*
Y8181D02*
D03*
Y8378D02*
D03*
Y8574D02*
D03*
Y8771D02*
D03*
Y8968D02*
D03*
Y9165D02*
D03*
Y9362D02*
D03*
Y9559D02*
D03*
Y9756D02*
D03*
Y9952D02*
D03*
Y10149D02*
D03*
Y10346D02*
D03*
Y10543D02*
D03*
D44*
X17200Y6008D02*
D03*
X16826Y6992D02*
D03*
X17574D02*
D03*
D45*
X25605Y1250D02*
D03*
X22495D02*
D03*
D46*
X23251Y3790D02*
D03*
D47*
X25510Y4696D02*
D03*
Y3790D02*
D03*
Y2885D02*
D03*
D48*
X22850Y6450D02*
D03*
X23750D02*
D03*
D49*
X24908Y12674D02*
D03*
X24908Y11926D02*
D03*
X25892Y12300D02*
D03*
X24908Y10874D02*
D03*
Y10126D02*
D03*
X25892Y10500D02*
D03*
D50*
X25097Y8768D02*
D03*
Y8465D02*
D03*
Y6535D02*
D03*
Y6230D02*
D03*
D51*
Y8189D02*
D03*
Y7992D02*
D03*
Y7795D02*
D03*
Y7598D02*
D03*
Y7402D02*
D03*
Y7205D02*
D03*
X25103Y7004D02*
D03*
X25097Y6811D02*
D03*
D52*
X1720Y11850D02*
D03*
Y11350D02*
D03*
Y10850D02*
D03*
Y10350D02*
D03*
X4500Y11850D02*
D03*
Y11350D02*
D03*
Y10850D02*
D03*
Y10350D02*
D03*
D95*
X11650Y10250D02*
D03*
X10750Y10450D02*
D03*
X11700Y3950D02*
D03*
X3800D02*
D03*
X2800Y11950D02*
D03*
X3000Y11550D02*
D03*
X3300Y11100D02*
D03*
X2425Y11550D02*
D03*
X16450Y11100D02*
D03*
X2600Y5250D02*
D03*
X10950Y6200D02*
D03*
X9850Y2600D02*
D03*
X3300Y10500D02*
D03*
X3750Y9000D02*
D03*
X650Y12000D02*
D03*
X22350Y5800D02*
D03*
X12250Y7750D02*
D03*
X11800D02*
D03*
X14581Y3100D02*
D03*
X14575Y2800D02*
D03*
X11300Y6950D02*
D03*
X18150Y3150D02*
D03*
X19050Y3000D02*
D03*
X12650Y6650D02*
D03*
X11350Y2250D02*
D03*
X12850Y2850D02*
D03*
X14900Y6400D02*
D03*
X14800Y7600D02*
D03*
X15100Y8750D02*
D03*
Y9250D02*
D03*
X13400Y5050D02*
D03*
X13700Y4500D02*
D03*
X13900Y3750D02*
D03*
X14900Y10000D02*
D03*
X12650Y6200D02*
D03*
X13300Y6350D02*
D03*
Y8150D02*
D03*
X13350Y8900D02*
D03*
X13450Y9500D02*
D03*
X12900Y8200D02*
D03*
Y8900D02*
D03*
X13100Y9500D02*
D03*
X11700Y8900D02*
D03*
X12200Y9100D02*
D03*
X12750Y9250D02*
D03*
X14550Y3400D02*
D03*
X13900D02*
D03*
X12300Y10000D02*
D03*
X14500Y10150D02*
D03*
X16391Y10543D02*
D03*
X14400Y9350D02*
D03*
X14550Y3750D02*
D03*
X14200Y8600D02*
D03*
X17700Y7800D02*
D03*
X14550Y6750D02*
D03*
X23500Y8800D02*
D03*
X10000Y4000D02*
D03*
X12150Y4850D02*
D03*
X12100Y5300D02*
D03*
X9950Y6150D02*
D03*
X13100Y10800D02*
D03*
X12750Y10900D02*
D03*
X13600Y11350D02*
D03*
X13300Y11450D02*
D03*
X26150Y5150D02*
D03*
X23600Y11500D02*
D03*
X24000Y11850D02*
D03*
X24600Y11400D02*
D03*
X12200Y10350D02*
D03*
X12050Y10600D02*
D03*
X11650Y9250D02*
D03*
X11300Y7650D02*
D03*
X11150Y10650D02*
D03*
X9750Y8000D02*
D03*
X9600Y3900D02*
D03*
X8850Y5500D02*
D03*
X9300Y5450D02*
D03*
X7700Y6200D02*
D03*
X7683Y4308D02*
D03*
X6800Y3900D02*
D03*
X6150Y3450D02*
D03*
X8050Y3700D02*
D03*
X8100Y500D02*
D03*
X800Y10850D02*
D03*
X9450Y1800D02*
D03*
X6600Y6100D02*
D03*
X5800Y6450D02*
D03*
X2850Y8400D02*
D03*
X15650Y13400D02*
D03*
X5700Y12800D02*
D03*
X850Y11650D02*
D03*
X5800Y6050D02*
D03*
X6150Y5300D02*
D03*
X3050Y9150D02*
D03*
X15350Y9800D02*
D03*
X16300Y10250D02*
D03*
X10400Y10000D02*
D03*
X10000Y9600D02*
D03*
X17100Y8750D02*
D03*
X16650Y13400D02*
D03*
X26600Y10600D02*
D03*
X8850Y9200D02*
D03*
X7450Y12400D02*
D03*
X9350Y11050D02*
D03*
X4950Y5450D02*
D03*
X2600Y9650D02*
D03*
X2450Y8775D02*
D03*
X3850Y3350D02*
D03*
X3450Y2050D02*
D03*
X2200Y9200D02*
D03*
X3650Y9550D02*
D03*
X4150Y9100D02*
D03*
X5050Y8750D02*
D03*
X5750Y8450D02*
D03*
X6113Y8500D02*
D03*
X5650Y8150D02*
D03*
X5950Y7900D02*
D03*
X6450Y7750D02*
D03*
X6050Y7300D02*
D03*
X6500Y7050D02*
D03*
X6100Y8850D02*
D03*
X7300Y8650D02*
D03*
X7400Y8000D02*
D03*
X9500Y9300D02*
D03*
X3600Y11650D02*
D03*
X5500Y11150D02*
D03*
X3650Y11300D02*
D03*
Y10350D02*
D03*
X3400Y9750D02*
D03*
X5350Y10400D02*
D03*
X6200Y12100D02*
D03*
X5700Y11850D02*
D03*
D96*
X18600Y750D02*
D03*
X17600D02*
D03*
X16600D02*
D03*
X15600D02*
D03*
X14600D02*
D03*
X13600D02*
D03*
X12600D02*
D03*
X11600D02*
D03*
X10600D02*
D03*
X9600D02*
D03*
X8600D02*
D03*
X7600D02*
D03*
X6600D02*
D03*
D97*
X5600D02*
D03*
D98*
X19172Y4410D02*
D03*
Y1969D02*
D03*
D99*
X2850Y6150D02*
D03*
D100*
X3850D02*
D03*
D101*
X20200Y13100D02*
D03*
D102*
X19200D02*
D03*
X18200D02*
D03*
X17200D02*
D03*
X16200D02*
D03*
X15200D02*
D03*
X14200D02*
D03*
X13200D02*
D03*
X12200D02*
D03*
X11200D02*
D03*
X10200D02*
D03*
X9200D02*
D03*
X8200D02*
D03*
X7200D02*
D03*
X6200D02*
D03*
X5200D02*
D03*
X4200D02*
D03*
X3200D02*
D03*
D103*
X18300Y9150D02*
D03*
Y11150D02*
D03*
D104*
X25666Y8673D02*
D03*
Y6327D02*
D03*
D105*
X27103Y9201D02*
D03*
Y5799D02*
D03*
D106*
X25457Y9201D02*
D03*
Y5799D02*
D03*
D107*
X591Y591D02*
D03*
X26969Y13189D02*
D03*
Y591D02*
D03*
X591Y13189D02*
D03*
D108*
X7203Y10103D02*
D03*
Y10497D02*
D03*
X7597Y10103D02*
D03*
Y10497D02*
D03*
M02*
