M48
;Layer_Color=9474304
;FILE_FORMAT=2:4
INCH,LZ
;TYPE=PLATED
T1F00S00C0.0120
T3F00S00C0.0394
T4F00S00C0.0413
T5F00S00C0.0433
T6F00S00C0.0472
T7F00S00C0.0530
;TYPE=NON_PLATED
T8F00S00C0.0276
T9F00S00C0.0315
%
T01
X0139Y0034
Y00375
X01455
Y0034
X014581Y0031
X014575Y0028
X0137Y0045
X0134Y00505
X0133Y00635
X0149Y0064
X01455Y00675
X0148Y0076
X0151Y00875
Y00925
X0144Y00935
X0145Y01015
X0149Y01
X01535Y0098
X0163Y01025
X016391Y010543
X01645Y0111
X01665Y0134
X01565
X0136Y01135
X0133Y01145
X01345Y0095
X01335Y0089
X0133Y00815
X0142Y0086
X0171Y00875
X0177Y0078
X01815Y00315
X01905Y003
X02235Y0058
X0235Y0088
X0236Y0115
X024Y01185
X0246Y0114
X0266Y0106
X02615Y00515
X0121Y0053
X01215Y00485
X0117Y00395
X01Y004
X0096Y0039
X00985Y0026
X00945Y0018
X01135Y00225
X01285Y00285
X01265Y0062
Y00665
X01225Y00775
X0118
X0113Y00765
Y00695
X01095Y0062
X00995Y00615
X0093Y00545
X00885Y0055
X0077Y0062
X0066Y0061
X0058Y00605
Y00645
X00605Y0073
X00595Y0079
X00565Y00815
X00575Y00845
X006113Y0085
X0061Y00885
X00505Y00875
X00415Y0091
X00375Y009
X00365Y00955
X0034Y00975
X0033Y0105
X00365Y01035
Y0113
X0036Y01165
X003Y01155
X002425
X0028Y01195
X0033Y0111
X0026Y00965
X0022Y0092
X00245Y008775
X00285Y0084
X00305Y00915
X00535Y0104
X0055Y01115
X0057Y01185
X0062Y0121
X0057Y0128
X00745Y0124
X007597Y010497
X007203
Y010103
X007597
X0073Y00865
X0074Y008
X00645Y00775
X0065Y00705
X00615Y0053
X00495Y00545
X0026Y00525
X0038Y00395
X00385Y00335
X00345Y00205
X00615Y00345
X0068Y0039
X007683Y004308
X00805Y0037
X0081Y0005
X00975Y008
X0095Y0093
X00885Y0092
X01Y0096
X0104Y01
X01075Y01045
X01115Y01065
X01165Y01025
X0122Y01035
X01205Y0106
X0123Y01
X0122Y0091
X0117Y0089
X01165Y00925
X01275
X0129Y0089
Y0082
X0131Y0095
Y0108
X01275Y0109
X00935Y01105
X0008Y01085
X00085Y01165
X00065Y012
T03
X026969Y000591
Y013189
X000591
Y000591
T04
X0142Y0131
X0152
X0162
X0172
X0182
X0192
X0202
X0132
X0122
X0112
X0102
X0092
X0082
X0072
X0062
X0052
X0042
X0032
T05
X0136Y00075
X0146
X0156
X0166
X0176
X0186
X0126
X0116
X0106
X0096
X0086
X0076
X0066
X0056
T06
X00285Y00615
X00385
T07
X0183Y00915
Y01115
T08
X025666Y006327
Y008673
T09
X019172Y001969
Y00441
M30
